<svg width="18" height="20" viewBox="0 0 18 20" fill="none" xmlns="http://www.w3.org/2000/svg">
<path fill-rule="evenodd" clip-rule="evenodd" d="M5.64458 4.78083C9.91455 0.542375 15.0826 -0.544811 17.1467 2.3386C19.2108 5.23776 17.3988 11.0518 13.1288 15.2745C8.85887 19.513 3.6908 20.6002 1.62672 17.7168C-0.421601 14.8334 1.37462 9.01928 5.64458 4.78083Z" fill="#F99D28"/>
<path fill-rule="evenodd" clip-rule="evenodd" d="M8.48077 2.52674C8.02384 2.87338 7.53539 3.28305 7.0627 3.73998C3.3127 7.42696 1.76858 12.5005 3.61207 15.0373C5.51858 17.574 10.1194 16.6444 13.9167 12.9102C15.965 10.9249 17.3516 8.59292 17.9188 6.43431C18.0921 4.84292 17.8558 3.44061 17.1467 2.36918C15.5081 0.116023 11.9944 0.289343 8.48077 2.52674Z" fill="#AF2A30"/>
<path fill-rule="evenodd" clip-rule="evenodd" d="M10.5917 17.3866C8.59065 18.8835 6.52658 19.6398 4.50977 19.3246C5.36061 19.3719 6.03813 18.4265 6.60536 17.166C7.17258 15.874 7.51922 14.6765 7.78708 13.5578C8.18099 11.7774 8.2125 10.5168 8.00767 10.249C7.66103 9.79206 6.88897 9.91811 6.00662 10.4223C5.5812 10.6587 5.02972 10.5011 5.69149 9.69752C6.36901 8.89394 9.01608 6.94016 9.97721 6.64079C11.0329 6.34142 12.2304 6.75109 11.8207 7.9013C11.5371 8.72063 7.85011 18.395 10.5917 17.3866ZM13.6012 2.40234C14.1054 2.90654 13.7902 3.99373 12.9552 4.84457C12.1043 5.69541 10.9856 5.99478 10.4972 5.50633C9.97721 5.01789 10.2923 3.91494 11.1432 3.04835C12.0098 2.18175 13.1285 1.9139 13.6012 2.40234Z" fill="white"/>
</svg>
