<svg width="38" height="13" viewBox="0 0 38 13" fill="none" xmlns="http://www.w3.org/2000/svg">
<g clip-path="url(#clip0_5001_15330)">
<path d="M37.7052 3.58184C37.3649 2.58151 36.4412 1.8634 35.3595 1.8634H35.3352C34.6303 1.8634 33.9953 2.16758 33.5426 2.65363C33.0898 2.16758 32.4548 1.8634 31.7499 1.8634H31.7286C31.1088 1.8634 30.5406 2.09859 30.1061 2.4843V2.28988C30.0909 2.09232 29.936 1.93866 29.7415 1.93866H28.0765C27.8729 1.93866 27.7088 2.108 27.7088 2.3181V11.6441C27.7088 11.8542 27.8729 12.0235 28.0765 12.0235H29.7415C29.9269 12.0235 30.0818 11.8793 30.1031 11.6974V5.00238C30.1031 4.97729 30.1031 4.95848 30.1061 4.93652C30.1335 4.63862 30.3462 4.39089 30.6804 4.36267H30.9873C31.127 4.37521 31.2455 4.42538 31.3367 4.50378C31.4825 4.62294 31.5615 4.80482 31.5615 5.00551L31.5676 11.666C31.5676 11.8761 31.7317 12.0486 31.9353 12.0486H33.6003C33.7978 12.0486 33.9558 11.8887 33.9649 11.688V4.99924C33.9649 4.77973 34.0621 4.57904 34.2353 4.46301C34.3204 4.40657 34.4237 4.36894 34.5422 4.35639H34.8491C35.2107 4.38775 35.4264 4.66998 35.4264 4.99924L35.4325 11.6535C35.4325 11.8636 35.5965 12.0329 35.8001 12.0329H37.4651C37.6596 12.0329 37.8206 11.8761 37.8328 11.6786V4.38148C37.8237 3.97069 37.772 3.7794 37.7052 3.58184ZM26.4388 1.96375H25.4878V0.370745C25.4878 0.367609 25.4878 0.367609 25.4878 0.364473C25.4878 0.176323 25.3389 0.0195312 25.1505 0.0195312C25.1292 0.0195312 25.108 0.0226671 25.0867 0.0258029C24.0324 0.323707 24.242 1.83205 22.3157 1.96061H22.1303C22.103 1.96061 22.0757 1.96375 22.0483 1.97002C21.8873 2.01079 21.7627 2.16131 21.7627 2.34319V4.06163C21.7627 4.27173 21.9268 4.44106 22.1303 4.44106H23.133L23.13 11.7225C23.13 11.9294 23.294 12.0988 23.4946 12.0988H25.1414C25.3419 12.0988 25.506 11.9294 25.506 11.7225V4.44106H26.4388C26.6393 4.44106 26.8064 4.26859 26.8064 4.06163V2.34319C26.8064 2.13309 26.6424 1.96375 26.4388 1.96375Z" fill="#00BAF2"/>
<path d="M20.4534 1.96407H18.7883C18.5878 1.96407 18.4207 2.13341 18.4207 2.34351V5.89641C18.4177 6.11592 18.2445 6.29153 18.0318 6.29153H17.336C17.1203 6.29153 16.944 6.11279 16.944 5.89014L16.938 2.34351C16.938 2.13341 16.7739 1.96407 16.5703 1.96407H14.9053C14.7017 1.96407 14.5376 2.13341 14.5376 2.34351V6.23508C14.5376 7.71206 15.5585 8.76884 16.9926 8.76884C16.9926 8.76884 18.0682 8.76884 18.1017 8.77511C18.2961 8.79706 18.445 8.9664 18.445 9.17336C18.445 9.37719 18.2992 9.54653 18.1047 9.57161C18.0956 9.57161 18.0865 9.57475 18.0774 9.57789L15.6436 9.58729C15.44 9.58729 15.276 9.75663 15.276 9.96673V11.682C15.276 11.8921 15.44 12.0615 15.6436 12.0615H18.363C19.7971 12.0615 20.818 11.0078 20.818 9.53085V2.34351C20.821 2.13341 20.657 1.96407 20.4534 1.96407ZM10.9857 1.97348H8.67655C8.47298 1.97348 8.30586 2.13341 8.30586 2.32783V2.99576C8.30586 2.9989 8.30586 3.00517 8.30586 3.00831C8.30586 3.01458 8.30586 3.01771 8.30586 3.02399V3.93965C8.30586 4.14662 8.48209 4.31909 8.69782 4.31909H10.8976C11.0708 4.34731 11.2075 4.47901 11.2288 4.68284V4.90549C11.2106 5.09991 11.0738 5.24102 10.9067 5.2567H9.81899C8.36967 5.2567 7.33965 6.25076 7.33965 7.64307V9.6406C7.33965 11.0266 8.22687 12.0113 9.66403 12.0113H12.6812C13.222 12.0113 13.6626 11.588 13.6626 11.0674V4.55114C13.6626 2.97068 12.8726 1.97348 10.9857 1.97348ZM11.2501 9.142V9.41169C11.2501 9.43364 11.247 9.45559 11.244 9.4744C11.241 9.49322 11.2349 9.51203 11.2288 9.53085C11.1772 9.68137 11.0313 9.79112 10.8581 9.79112H10.1654C9.94964 9.79112 9.77341 9.62179 9.77341 9.41169V9.0887C9.77341 9.08556 9.77341 9.07929 9.77341 9.07615V8.2138V7.94412V7.94098C9.77341 7.73401 9.94964 7.56468 10.1654 7.56468H10.8581C11.0738 7.56468 11.2501 7.73401 11.2501 7.94412V9.142ZM4.49267 1.96094H0.85571C0.655176 1.96094 0.494141 2.13027 0.494141 2.3341V4.01805C0.494141 4.02118 0.494141 4.02432 0.494141 4.02745C0.494141 4.03686 0.494141 4.04313 0.494141 4.04941V11.6664C0.494141 11.8733 0.643022 12.0427 0.831403 12.0458H2.52683C2.7304 12.0458 2.89448 11.8765 2.89448 11.6664L2.90055 9.05734H4.49267C5.82349 9.05734 6.75324 8.10404 6.75324 6.72114V4.30027C6.75324 2.9205 5.82349 1.96094 4.49267 1.96094ZM4.34683 5.10932V6.16923C4.34683 6.39188 4.17364 6.57375 3.95792 6.57375H2.90359V4.45079H3.95792C4.17364 4.45079 4.34683 4.62953 4.34683 4.85218V5.10932Z" fill="#20336B"/>
</g>
<defs>
<clipPath id="clip0_5001_15330">
<rect width="37.3358" height="12.0792" fill="white" transform="translate(0.494141 0.0195312)"/>
</clipPath>
</defs>
</svg>
