<svg width="20" height="20" viewBox="0 0 20 20" fill="none" xmlns="http://www.w3.org/2000/svg">
<g clip-path="url(#clip0_5001_15327)">
<path d="M12.1275 0.980177C10.3314 0.556107 8.44999 0.674128 6.72103 1.31931C4.99207 1.9645 3.49325 3.10788 2.41409 4.60487C1.33493 6.10186 0.723894 7.88523 0.658251 9.72948C0.592607 11.5737 1.0753 13.396 2.0453 14.966C3.0153 16.5359 4.42904 17.7829 6.10775 18.5494C7.78647 19.3159 9.65476 19.5674 11.4764 19.2721C13.298 18.9768 14.9912 18.1479 16.3418 16.8904C17.6924 15.6328 18.6398 14.003 19.0641 12.2071C19.3459 11.0144 19.3901 9.77795 19.194 8.56826C18.9979 7.35857 18.5654 6.19936 17.9212 5.15683C17.2771 4.11429 16.4339 3.20885 15.4398 2.49222C14.4457 1.77558 13.3202 1.26179 12.1275 0.980177Z" fill="#5F259F"/>
<path d="M14.2177 7.6271C14.2127 7.4497 14.1394 7.28108 14.0132 7.1563C13.887 7.03152 13.7176 6.96019 13.5401 6.95713H12.2883L9.42159 3.66502C9.28749 3.51435 9.1133 3.40492 8.91936 3.34951C8.72541 3.2941 8.51971 3.29499 8.32625 3.35207L7.33269 3.66502C7.29739 3.677 7.2655 3.69734 7.23977 3.72431C7.21403 3.75128 7.19521 3.78408 7.18491 3.81991C7.17461 3.85574 7.17314 3.89353 7.18062 3.93005C7.1881 3.96657 7.20431 4.00074 7.22787 4.02963L10.3589 7.00119H5.616C5.58155 6.99966 5.54716 7.00535 5.51503 7.01789C5.4829 7.03042 5.45375 7.04953 5.42944 7.07399C5.40513 7.09844 5.38619 7.12771 5.37384 7.15991C5.36149 7.19211 5.35601 7.22653 5.35773 7.26097V7.78206C5.36085 7.96078 5.43324 8.13131 5.55964 8.25771C5.68604 8.38411 5.85657 8.4565 6.0353 8.45962H6.76603V10.9633C6.76603 12.8395 7.75655 13.9348 9.42463 13.9348C9.92415 13.9502 10.4214 13.8612 10.8846 13.6735V15.3446C10.8832 15.4546 10.9037 15.5637 10.9452 15.6655C10.9866 15.7673 11.0479 15.8598 11.1257 15.9376C11.2034 16.0153 11.2959 16.0767 11.3978 16.1181C11.4996 16.1595 11.6087 16.1801 11.7186 16.1787H12.4478C12.529 16.173 12.6053 16.1382 12.6628 16.0807C12.7203 16.0232 12.7551 15.9468 12.7608 15.8657V8.40948H13.9564C13.9912 8.41147 14.0261 8.40607 14.0587 8.39364C14.0913 8.38121 14.1209 8.36203 14.1456 8.33736C14.1702 8.31269 14.1894 8.28308 14.2019 8.25048C14.2143 8.21788 14.2197 8.18302 14.2177 8.14818V7.6271ZM10.8755 12.1103C10.5466 12.2541 10.1906 12.3251 9.83178 12.3184C8.99774 12.3184 8.58147 11.9021 8.58147 10.9633V8.46114H10.8755V12.1072V12.1103Z" fill="white"/>
</g>
<defs>
<clipPath id="clip0_5001_15327">
<rect width="18.6679" height="18.6679" fill="white" transform="translate(0.648438 0.726562)"/>
</clipPath>
</defs>
</svg>
