<svg width="19" height="20" viewBox="0 0 19 20" fill="none" xmlns="http://www.w3.org/2000/svg">
<path d="M9.42479 0.726562C8.19745 0.72783 6.98239 0.96647 5.84899 1.42885C4.7156 1.89124 3.68607 2.56831 2.81922 3.42139C1.95236 4.27448 1.26516 5.28687 0.796848 6.40075C0.328539 7.51463 0.0882999 8.70818 0.0898512 9.91323C0.087149 12.1844 0.942304 14.3759 2.48994 16.0638C4.03757 17.7518 6.16773 18.8164 8.46847 19.0516V12.3765C7.95959 12.186 7.52159 11.8484 7.2124 11.4082C6.90321 10.968 6.73738 10.446 6.73686 9.9113C6.73686 8.4565 7.94309 7.27218 9.42479 7.27218C10.9065 7.27218 12.1127 8.4565 12.1127 9.9113C12.1127 11.0357 11.3906 11.9979 10.3791 12.3765V19.0477C12.6799 18.8125 14.81 17.7479 16.3577 16.06C17.9053 14.372 18.7605 12.1805 18.7578 9.90937C18.7593 7.47699 17.7771 5.14354 16.027 3.42196C14.2769 1.70038 11.9022 0.731567 9.42479 0.728495" fill="#00B5EF"/>
</svg>
