<svg width="352" height="352" viewBox="0 0 352 352" fill="none" xmlns="http://www.w3.org/2000/svg">
<g clip-path="url(#clip0_184_4215)">
<path d="M352 0H0V352H352V0Z" fill="white"/>
<path d="M202.611 191.107L165.834 185.616C165.595 185.616 165.524 185.841 165.524 186.053V217.338C165.524 220.337 144.63 228.124 144.419 227.715L144.39 231.024C144.39 231.644 144.925 232.193 145.615 232.193H146.08C146.08 232.193 146.08 232.193 146.094 232.193L176.929 237.923C178.365 237.923 179.773 237.6 181.069 237.065L198.021 229.926C201.076 228.645 203.005 225.885 203.005 222.872V191.544C202.991 191.319 202.851 191.107 202.611 191.107Z" fill="black"/>
<path d="M161.793 183.786V215.086C161.793 218.169 159.808 220.985 156.682 222.309L145.249 227.195C144.503 227.519 144.756 228.518 145.587 228.518L177.014 234.249C178.422 234.249 179.816 233.967 181.097 233.432L193.769 228.096C196.909 226.772 198.922 223.956 198.922 220.845V189.517C198.922 189.39 198.81 189.291 198.669 189.291L162.061 183.561C161.906 183.547 161.793 183.659 161.793 183.786Z" fill="white"/>
<path d="M177.014 234.544C177 234.544 176.972 234.544 176.958 234.544L145.559 228.828C145.038 228.814 144.616 228.476 144.517 228.011C144.419 227.547 144.672 227.11 145.137 226.913L156.57 222.027C159.555 220.746 161.484 218.028 161.484 215.086V183.786C161.484 183.49 161.737 183.237 162.061 183.237C162.075 183.237 162.089 183.237 162.103 183.237L198.683 188.953C198.979 188.967 199.232 189.207 199.232 189.502V220.83C199.232 224.041 197.134 226.997 193.896 228.363L181.224 233.7C179.914 234.263 178.45 234.544 177.014 234.544ZM162.103 183.87V215.072C162.103 218.268 160.019 221.211 156.809 222.59L145.376 227.476C145.193 227.561 145.094 227.701 145.123 227.87C145.151 228.025 145.292 228.194 145.587 228.194C145.601 228.194 145.63 228.194 145.644 228.194L177.042 233.911C178.394 233.911 179.759 233.629 180.984 233.122L193.656 227.786C196.67 226.519 198.613 223.787 198.613 220.83V189.573L162.103 183.87Z" fill="black"/>
<path d="M259.776 216.184L255.679 220.014L103.544 193.684L105.178 95.2087L110.106 92.5617C111.007 92.083 112.049 91.914 113.063 92.097L257.453 118.145C259.621 118.539 261.198 120.426 261.198 122.622L261.226 212.847C261.226 214.114 260.705 215.325 259.776 216.184Z" fill="black"/>
<path d="M252.159 220.549L106.529 194.261C104.713 193.938 103.404 192.361 103.404 190.516V98.9681C103.404 96.6026 105.544 94.8004 107.881 95.2228L253.51 121.51C255.327 121.834 256.636 123.411 256.636 125.255V216.804C256.636 219.183 254.482 220.971 252.159 220.549Z" fill="white"/>
<path d="M252.835 220.929C252.595 220.929 252.342 220.901 252.102 220.859L106.473 194.571C104.516 194.219 103.094 192.515 103.094 190.516V98.968C103.094 97.743 103.629 96.5884 104.572 95.814C105.516 95.0256 106.74 94.7017 107.937 94.927L253.567 121.214C255.524 121.566 256.946 123.27 256.946 125.269V216.818C256.946 218.043 256.411 219.197 255.467 219.971C254.721 220.591 253.792 220.929 252.835 220.929ZM252.215 220.253C253.229 220.436 254.285 220.169 255.073 219.493C255.876 218.831 256.326 217.845 256.326 216.818V125.255C256.326 123.566 255.115 122.115 253.454 121.82L107.825 95.5324C106.811 95.3494 105.769 95.6169 104.966 96.2928C104.164 96.9545 103.713 97.9401 103.713 98.968V190.516C103.713 192.206 104.924 193.656 106.586 193.952L252.215 220.253Z" fill="black"/>
<path d="M228.983 199.767L128.424 181.603C127.818 181.491 127.382 180.97 127.382 180.364V116.131C127.382 115.343 128.1 114.752 128.874 114.892L229.434 133.056C230.039 133.168 230.476 133.689 230.476 134.295V198.514C230.476 199.302 229.758 199.907 228.983 199.767Z" fill="white"/>
<path d="M229.208 200.091C229.11 200.091 229.025 200.077 228.927 200.063L128.367 181.899C127.621 181.759 127.072 181.111 127.072 180.351V116.132C127.072 115.667 127.283 115.216 127.635 114.921C128.001 114.625 128.466 114.498 128.931 114.583L229.49 132.746C230.236 132.887 230.785 133.535 230.785 134.295V198.514C230.785 198.978 230.574 199.429 230.222 199.725C229.926 199.964 229.574 200.091 229.208 200.091ZM229.039 199.457C229.321 199.513 229.603 199.429 229.814 199.246C230.025 199.063 230.152 198.795 230.152 198.514V134.295C230.152 133.83 229.828 133.436 229.363 133.351L128.804 115.188C128.522 115.132 128.241 115.216 128.029 115.399C127.818 115.582 127.692 115.85 127.692 116.132V180.365C127.692 180.829 128.015 181.223 128.48 181.308L229.039 199.457Z" fill="black"/>
<path d="M222.056 147.6C222.042 147.6 222.013 147.6 221.999 147.6L135.562 131.986C135.393 131.957 135.281 131.789 135.309 131.62C135.337 131.451 135.506 131.338 135.675 131.366L222.112 146.967C222.281 146.995 222.394 147.164 222.365 147.333C222.337 147.488 222.196 147.6 222.056 147.6Z" fill="black"/>
<path d="M211.115 151.838C211.101 151.838 211.073 151.838 211.059 151.838L135.548 138.209C135.379 138.181 135.266 138.012 135.295 137.843C135.323 137.674 135.492 137.561 135.661 137.589L211.172 151.219C211.341 151.247 211.453 151.416 211.425 151.585C211.397 151.726 211.27 151.838 211.115 151.838Z" fill="black"/>
<path d="M222.056 160.019C222.042 160.019 222.013 160.019 221.999 160.019L135.816 144.489C135.647 144.46 135.534 144.291 135.562 144.122C135.59 143.954 135.759 143.841 135.928 143.869L222.112 159.399C222.281 159.427 222.394 159.596 222.365 159.765C222.337 159.906 222.196 160.019 222.056 160.019Z" fill="black"/>
<path d="M222.056 166.228C222.041 166.228 222.013 166.228 221.999 166.228L197.599 161.821C197.43 161.793 197.317 161.624 197.345 161.455C197.373 161.286 197.528 161.173 197.711 161.202L222.112 165.609C222.281 165.637 222.393 165.806 222.365 165.975C222.337 166.13 222.196 166.228 222.056 166.228Z" fill="black"/>
<path d="M170.72 156.964C170.706 156.964 170.678 156.964 170.664 156.964L135.548 150.628C135.379 150.6 135.266 150.431 135.295 150.262C135.323 150.093 135.492 149.98 135.661 150.008L170.776 156.344C170.945 156.372 171.058 156.541 171.03 156.71C171.001 156.851 170.875 156.964 170.72 156.964Z" fill="black"/>
<path d="M222.056 172.437C222.042 172.437 222.013 172.437 221.999 172.437L204.822 169.34C204.653 169.311 204.54 169.143 204.568 168.974C204.596 168.805 204.765 168.692 204.934 168.72L222.112 171.818C222.281 171.846 222.394 172.015 222.365 172.184C222.337 172.339 222.196 172.437 222.056 172.437Z" fill="black"/>
<path d="M189.108 166.496C189.094 166.496 189.066 166.496 189.052 166.496L135.562 156.837C135.393 156.809 135.281 156.64 135.309 156.471C135.337 156.302 135.506 156.189 135.675 156.217L189.165 165.876C189.334 165.904 189.446 166.073 189.418 166.242C189.39 166.383 189.263 166.496 189.108 166.496Z" fill="black"/>
<path d="M222.056 178.647C222.042 178.647 222.013 178.647 221.999 178.647L135.252 162.905C135.083 162.877 134.971 162.708 134.999 162.539C135.027 162.37 135.196 162.257 135.365 162.286L222.112 178.027C222.281 178.055 222.394 178.224 222.365 178.393C222.337 178.548 222.196 178.647 222.056 178.647Z" fill="black"/>
<path d="M203.808 181.575C203.794 181.575 203.766 181.575 203.752 181.575L135.562 169.255C135.393 169.227 135.281 169.058 135.309 168.889C135.337 168.72 135.506 168.607 135.675 168.636L203.864 180.956C204.033 180.984 204.146 181.153 204.118 181.322C204.09 181.463 203.949 181.575 203.808 181.575Z" fill="black"/>
<path d="M224.104 252.709C231.069 250.85 235.835 246.048 234.75 241.983C233.665 237.918 227.14 236.13 220.175 237.989C213.21 239.848 208.443 244.651 209.528 248.715C210.613 252.78 217.139 254.568 224.104 252.709Z" fill="white"/>
<path d="M218.719 253.736C213.903 253.736 210.045 251.891 209.215 248.78C208.666 246.696 209.51 244.401 211.594 242.289C213.65 240.219 216.663 238.586 220.084 237.671C227.209 235.77 233.911 237.657 235.052 241.895C236.178 246.119 231.306 251.103 224.182 253.004C222.309 253.497 220.451 253.736 218.719 253.736ZM225.604 237.53C223.914 237.53 222.098 237.769 220.253 238.262C216.931 239.149 214.03 240.726 212.045 242.725C210.116 244.668 209.327 246.766 209.82 248.625C210.862 252.525 217.226 254.215 224.013 252.398C230.799 250.582 235.474 245.936 234.432 242.049C233.686 239.205 230.109 237.53 225.604 237.53Z" fill="black"/>
<path d="M212.411 249.864C213.214 249.244 214.157 248.836 215.157 248.709C218.254 248.315 218.747 247.977 224.942 244.893C229.589 242.584 234.953 245.372 237.699 241.458C239.29 239.177 232.039 230.321 220.718 232.883C214.27 234.348 215.185 237.6 206.723 242.612C206.723 242.612 171.847 264.394 164.553 257.256C156.457 249.343 149.319 236.924 149.319 236.924L128.255 262.451C128.255 262.451 154.894 280.685 170.847 280.009C180.168 279.615 212.411 249.864 212.411 249.864Z" fill="white"/>
<path d="M169.974 280.347C154.021 280.347 128.339 262.888 128.072 262.705C128.001 262.649 127.945 262.578 127.945 262.494C127.931 262.409 127.959 262.325 128.015 262.254L149.093 236.755C149.164 236.671 149.262 236.629 149.361 236.643C149.459 236.657 149.558 236.713 149.6 236.798C149.67 236.924 156.809 249.258 164.778 257.059C171.818 263.944 206.216 242.585 206.568 242.373C210.383 240.106 212.284 238.206 213.819 236.671C215.706 234.784 217.057 233.418 220.662 232.602C229.504 230.602 235.404 235.362 237.29 238.163C238.248 239.586 238.501 240.895 237.98 241.655C236.333 244.021 233.798 244.077 231.109 244.133C229.11 244.176 227.04 244.232 225.111 245.189L223.914 245.781C218.803 248.315 218.156 248.653 215.213 249.033C214.269 249.16 213.382 249.526 212.622 250.117C211.172 251.455 180.182 279.939 170.861 280.347C170.565 280.333 170.269 280.347 169.974 280.347ZM128.719 262.381C131.564 264.282 155.119 279.714 169.974 279.714C170.269 279.714 170.551 279.714 170.833 279.699C179.942 279.319 211.89 249.934 212.214 249.625L212.228 249.61C213.073 248.949 214.072 248.526 215.128 248.4C217.958 248.034 218.493 247.766 223.633 245.218L224.829 244.626C226.885 243.598 229.025 243.556 231.095 243.514C233.728 243.458 235.995 243.401 237.473 241.303C237.839 240.782 237.572 239.684 236.783 238.515C234.981 235.84 229.335 231.292 220.817 233.221C217.395 233.996 216.086 235.305 214.269 237.122C212.721 238.684 210.792 240.613 206.906 242.908C205.695 243.669 180.942 259.016 169.129 259.016C167.101 259.016 165.44 258.565 164.37 257.509C157.133 250.441 150.6 239.67 149.318 237.502L128.719 262.381Z" fill="black"/>
<path d="M142.94 275.265C144.021 278.945 148.179 290.24 161.26 304.249C146.398 303.226 132.736 300.929 121.959 298.482C110.859 295.961 102.861 293.29 99.7596 291.701C85.5658 284.422 74.8586 274.414 66.7844 262.713C65.8297 258.322 65.0693 253.523 64.245 248.321C63.9271 246.315 63.5997 244.249 63.2479 242.123L63.2479 242.122C60.0005 222.596 60.8643 210.481 63.574 203.138C66.2675 195.839 70.7776 193.262 74.9529 192.745C78.816 192.268 85.6468 192.744 93.0487 193.836C100.437 194.926 108.331 196.621 114.302 198.553C124.554 201.871 135.074 210.772 143.254 219.375C147.336 223.668 150.819 227.87 153.377 231.234C154.656 232.916 155.702 234.386 156.475 235.551C157.256 236.728 157.736 237.562 157.909 237.986L157.909 237.986C160.321 243.903 159.015 251.259 156.574 257.938C154.14 264.595 150.621 270.466 148.758 273.345L148.758 273.345C148.163 274.266 147.008 274.675 145.957 274.325L144.436 273.818L144.432 273.817C143.533 273.525 142.669 274.354 142.94 275.265ZM142.94 275.265C142.939 275.265 142.939 275.265 142.939 275.264L143.419 275.123M142.94 275.265C142.94 275.266 142.94 275.266 142.94 275.266L143.419 275.123M143.419 275.123C143.264 274.602 143.757 274.124 144.278 274.293M143.419 275.123C144.49 278.766 148.678 290.169 161.991 304.298L144.278 274.293M144.278 274.293L145.798 274.799C147.066 275.222 148.46 274.729 149.178 273.617C152.923 267.83 163.342 249.99 158.372 237.797L144.278 274.293Z" fill="#FF5936" stroke="black"/>
<path d="M115.006 154.077C115.006 154.077 117.892 158.386 118.061 161.962C118.103 162.905 118.497 165.918 120.821 169.213C121.046 169.537 120.99 169.959 120.708 170.227L118.483 172.212C118.328 172.353 118.244 172.536 118.244 172.747C118.23 174 118.202 178.661 118.047 179.52C117.878 180.519 117.061 181.406 116.667 181.632C115.611 182.209 111.021 181.618 111.021 181.618C111.021 181.618 109.796 181.73 107.374 188.263C104.769 195.317 110.176 197.979 110.176 197.979C112.204 199.035 112.246 200.062 110.049 200.766C102.474 203.174 86.8174 204.948 78.9045 196.064C78.4539 195.557 78.6792 194.74 79.3409 194.557C99.4331 188.629 89.8587 171.55 90.2811 171.438C91.3653 171.156 97.6027 164.581 101.264 162.708C103.756 161.427 106.783 163.271 108.81 161.342L115.006 154.077Z" fill="white"/>
<path d="M96.9973 203.033C90.3657 203.033 83.2693 201.428 78.6652 196.275C78.3836 195.951 78.285 195.515 78.3977 195.106C78.5103 194.698 78.8341 194.374 79.2425 194.247C84.9026 192.586 88.7042 189.855 90.5487 186.151C93.2943 180.646 90.9711 174.395 90.2108 172.339C89.9433 171.621 89.8869 171.466 89.9714 171.297C90.0137 171.213 90.0981 171.156 90.1826 171.128C90.5628 171.03 92.0412 169.706 93.4633 168.425C95.885 166.256 98.9122 163.539 101.095 162.427C102.305 161.807 103.587 161.878 104.826 161.934C106.22 162.004 107.543 162.075 108.543 161.117L114.738 153.866C114.809 153.796 114.893 153.753 114.992 153.753C115.09 153.753 115.175 153.81 115.231 153.894C115.344 154.077 118.16 158.315 118.343 161.934C118.371 162.511 118.638 165.609 121.046 169.03C121.356 169.481 121.285 170.086 120.877 170.452L118.652 172.438C118.568 172.522 118.512 172.621 118.512 172.733C118.497 174.113 118.469 178.675 118.314 179.562C118.131 180.632 117.287 181.618 116.766 181.885C115.696 182.463 111.739 182.012 111.007 181.913C110.796 182.026 109.655 182.843 107.628 188.348C105.15 195.05 110.064 197.57 110.275 197.683C111.472 198.303 112.021 198.922 111.964 199.556C111.908 200.175 111.303 200.668 110.106 201.048C106.952 202.076 102.108 203.033 96.9973 203.033ZM90.6191 171.621C90.6613 171.748 90.7317 171.945 90.8021 172.128C91.5906 174.24 93.9842 180.688 91.1119 186.433C89.1829 190.291 85.2405 193.121 79.4114 194.839C79.2002 194.895 79.0453 195.05 78.989 195.261C78.9327 195.472 78.9749 195.684 79.1157 195.839C87.0287 204.723 102.728 202.738 109.923 200.443C111.176 200.048 111.345 199.654 111.359 199.499C111.373 199.344 111.274 198.894 110.007 198.232C109.951 198.204 104.389 195.36 107.065 188.123C109.36 181.885 110.641 181.308 110.979 181.266C111.007 181.266 111.021 181.266 111.049 181.266C112.781 181.491 115.808 181.688 116.512 181.308C116.864 181.125 117.582 180.308 117.737 179.421C117.85 178.76 117.906 175.507 117.934 172.691C117.934 172.409 118.061 172.128 118.286 171.931L120.511 169.945C120.694 169.791 120.722 169.537 120.581 169.34C118.075 165.778 117.793 162.539 117.765 161.92C117.625 159.062 115.653 155.64 114.977 154.542L109.05 161.483C109.05 161.497 109.036 161.497 109.022 161.511C107.811 162.652 106.29 162.582 104.826 162.497C103.657 162.441 102.46 162.37 101.404 162.919C99.2924 164.004 96.3074 166.679 93.8997 168.833C92.2101 170.396 91.1964 171.311 90.6191 171.621Z" fill="black"/>
<path d="M120.624 169.002C120.469 169.002 120.328 168.876 120.314 168.707C120.3 168.538 120.426 168.383 120.595 168.369C121.285 168.312 121.806 168.045 122.2 167.524C123.355 165.989 122.975 162.892 122.82 161.92L107.093 164.384C106.924 164.412 106.769 164.3 106.741 164.131C106.712 163.962 106.825 163.807 106.994 163.779L123.017 161.258C123.186 161.23 123.341 161.343 123.369 161.498C123.411 161.681 124.228 165.848 122.679 167.89C122.172 168.552 121.482 168.918 120.624 168.974C120.652 169.002 120.638 169.002 120.624 169.002Z" fill="black"/>
<path d="M107.008 170.889C105.685 170.889 103.601 170.396 102.474 167.636C101.785 165.933 102.01 164.426 103.08 163.595C104.192 162.737 105.91 162.835 107.248 163.849C107.754 164.229 108.416 165.285 108.487 165.398C108.571 165.538 108.529 165.736 108.388 165.82C108.247 165.905 108.05 165.862 107.966 165.721C107.783 165.426 107.234 164.609 106.882 164.342C105.769 163.497 104.361 163.398 103.474 164.088C102.629 164.736 102.474 165.947 103.066 167.397C104.586 171.114 107.909 170.185 108.05 170.143C108.219 170.1 108.388 170.185 108.43 170.354C108.473 170.523 108.388 170.692 108.219 170.734C108.205 170.748 107.712 170.889 107.008 170.889Z" fill="black"/>
<path d="M120.919 143.391C119.441 140.927 117.864 138.801 113.02 137.843C109.712 137.195 104.305 139.631 101.644 142.461C101.418 142.701 101.066 142.701 100.883 142.475C100.306 141.757 98.9544 140.124 97.7576 139.983C94.2799 139.575 90.7176 144.081 89.4504 146.404C88.5212 148.093 86.9583 151.923 86.1839 156.372C86.1276 156.654 85.8741 156.851 85.6066 156.837C84.5647 156.739 82.4527 156.739 80.5941 158.118C77.2712 160.582 77.6232 164.187 77.6655 164.623C78.116 169.763 83.3397 173.564 87.3103 175.62C89.9996 177.014 91.0133 177.211 92.5903 177.577C92.6748 177.591 92.7733 177.591 92.8719 177.563C94.2658 177.774 96.6453 177.873 99.2924 176.957C103.502 175.493 103.178 168.523 103.178 168.523L102.643 167.214C102.32 166.411 102.277 165.51 102.601 164.722C103.601 162.3 107.262 164.116 107.388 164.088C114.288 162.652 116.723 160.639 117.962 159.259C122.44 154.331 124.481 149.375 120.919 143.391Z" fill="black"/>
<path d="M121.778 249.653C121.764 249.653 121.75 249.653 121.721 249.653L106.712 248.47C92.9559 247.386 79.6785 242.88 68.1188 235.347C68.0343 235.291 67.9358 235.235 67.8513 235.179C66.035 234.01 63.8244 233.644 61.7265 234.165L59.6849 234.672C58.4036 234.995 57.2068 235.629 56.2494 236.544C56.0241 236.755 55.8833 236.91 55.8833 236.967L57.8123 248.118C66.4151 266.281 79.5236 281.896 99.5031 292.146C103.629 294.258 116.075 298.187 132.788 301.2C132.76 297.173 132.718 291.597 132.718 291.597V263.015C132.732 256.524 128.156 250.934 121.778 249.653Z" fill="black"/>
<path d="M132.802 301.509C132.788 301.509 132.76 301.509 132.746 301.509C116.892 298.651 103.953 294.765 99.3765 292.428C89.788 287.514 81.3119 281.079 74.1874 273.321C67.6684 266.225 62.0645 257.791 57.5589 248.259C57.5448 248.231 57.5448 248.202 57.5308 248.174L55.6018 237.023C55.6018 237.009 55.6018 236.995 55.6018 236.967C55.6018 236.812 55.6722 236.685 56.0664 236.319C57.052 235.39 58.2911 234.714 59.6428 234.376L61.6844 233.869C63.8527 233.32 66.1759 233.714 68.0485 234.925L68.316 235.094C79.7912 242.57 93.0828 247.09 106.754 248.16L121.834 249.357H121.848C128.339 250.666 133.056 256.411 133.056 263.029V291.611L133.126 301.214C133.126 301.312 133.084 301.397 133.014 301.453C132.943 301.481 132.873 301.509 132.802 301.509ZM58.1362 248.019C67.4994 267.788 81.4808 282.529 99.6581 291.864C103.305 293.737 115.033 297.651 132.479 300.819L132.422 293.413C132.408 292.301 132.408 291.597 132.408 291.583V263C132.408 256.679 127.917 251.187 121.721 249.934H121.679L106.684 248.751C92.8997 247.667 79.5096 243.105 67.95 235.587L67.6824 235.418C65.9506 234.305 63.8104 233.939 61.8111 234.446L59.7695 234.953C58.5304 235.263 57.3759 235.882 56.4748 236.741C56.334 236.868 56.2636 236.952 56.2213 236.995L58.1362 248.019Z" fill="white"/>
<path d="M101.137 300.819C78.3411 296.271 68.64 290.808 61.6563 286.711C57.1929 284.092 54.4614 279.319 54.4614 274.152V240.177C54.4614 236.586 58.3334 234.333 61.4592 236.107C62.6137 236.755 63.712 237.445 64.768 238.135C76.2713 245.654 89.4925 250.117 103.178 251.201L118.3 252.398C124.678 253.665 129.283 259.269 129.283 265.774C129.283 265.774 129.17 303.17 128.705 303.466C126.636 304.846 101.137 300.819 101.137 300.819Z" fill="white"/>
<path d="M118.596 298.51C118.568 298.51 118.553 298.51 118.525 298.496C114.132 297.426 109.979 296.272 106.515 295.145C103.361 294.117 100.897 293.174 99.3906 292.4C96.9266 291.132 94.5189 289.767 92.2098 288.316C77.4258 278.995 65.7957 265.563 57.6293 248.386C57.5589 248.231 57.6153 248.048 57.7701 247.977C57.925 247.907 58.1081 247.963 58.1785 248.118C66.2885 265.183 77.8482 278.531 92.5196 287.795C94.8005 289.232 97.2082 290.597 99.6581 291.865C101.122 292.611 103.615 293.568 106.698 294.568C110.148 295.68 114.287 296.835 118.666 297.905C118.835 297.947 118.934 298.116 118.891 298.285C118.863 298.426 118.737 298.51 118.596 298.51Z" fill="black"/>
<path d="M266.915 230.883C284.061 230.883 297.961 216.889 297.961 199.626C297.961 182.363 284.061 168.368 266.915 168.368C249.768 168.368 235.868 182.363 235.868 199.626C235.868 216.889 249.768 230.883 266.915 230.883Z" fill="white"/>
<path d="M258.706 170.889C258.579 171.072 258.959 171.705 259.706 171.705C260.466 171.705 260.832 171.579 261.156 172.395C261.466 173.212 261.029 176 261.466 177.013C261.902 178.027 262.662 178.661 263.226 178.083C263.789 177.52 263.732 176 264.422 175.619C265.112 175.239 267.633 173.719 267.759 172.451C267.886 171.184 266.999 170.241 264.803 169.987C262.592 169.762 259.649 169.509 258.706 170.889Z" fill="#1873B9"/>
<path d="M250.582 199.246C250.286 199.415 250.117 199.724 250.131 200.062C250.174 201.118 249.779 203.765 248.935 204.61C247.865 205.68 248.259 207.623 248.245 208.412C248.217 210.003 248.357 210.707 250.061 211.467C251.751 212.227 252.426 212.27 252.553 213.79C252.68 215.311 252.877 221.168 253.384 222.689C253.891 224.209 254.961 226.673 255.524 227.237C256.087 227.8 257.411 228.124 256.594 225.969C255.777 223.815 255.271 222.801 256.214 221.605C257.157 220.408 258.734 217.62 258.847 216.55C258.974 215.48 259.537 214.846 260.044 214.72C260.551 214.593 261.621 214.213 261.93 213.832C262.24 213.452 261.621 212.382 261.424 211.425C261.241 210.481 261.241 209.904 262.803 209.144C264.38 208.384 263.62 206.229 261.48 205.666C259.34 205.103 258.03 203.892 258.27 202.695C258.523 201.498 256.819 201.625 255.82 201.048C254.82 200.485 254.848 199.584 253.722 199.161C252.215 198.584 251.145 198.922 250.582 199.246Z" fill="#1873B9"/>
<path d="M289.513 197.908C288.978 197.106 289.048 195.838 290.372 194.107C291.414 192.741 289.921 191.389 289.231 190.868C289.105 190.77 289.161 190.573 289.316 190.558C290.175 190.46 292.146 190.756 293.019 195.177C294.145 200.907 294.61 198.908 295.201 198.246C295.793 197.584 294.68 196.331 295.793 195.05C296.497 194.233 296.849 193.051 297.032 192.093C294.793 182.998 288.612 175.479 280.403 171.494C280.417 172.494 280.178 175.972 276.137 174.535C276.137 174.535 273.617 173.339 274.222 178.196C274.813 183.054 276.869 177.858 277.263 177.661C277.658 177.464 278.714 177.197 278.263 180.463C278.263 180.463 278.193 181.59 276.151 181.392C274.095 181.195 273.701 182.195 273.701 182.73C273.701 183.265 273.898 184.659 272.772 185.659C271.645 186.658 271.983 189.263 273.504 188.39C275.025 187.517 276.081 184.786 277.475 184.532C278.869 184.265 280.122 186.067 281.445 185.602C282.769 185.138 282.177 182.871 282.839 182.871C283.501 182.871 284.895 184.208 284.698 185.208C284.501 186.208 282.445 186.672 282.98 187.869C283.515 189.066 284.641 188.672 284.965 189.474C285.303 190.277 283.304 191.206 281.727 190.206C280.136 189.207 279.868 190.671 279.08 190.009C278.291 189.348 278.221 187.94 277.094 188.404C275.968 188.869 275.306 189.798 273.856 190.474C272.406 191.136 271.209 192.009 271.209 192.938C271.209 193.867 271.744 194.867 271.477 196.331C271.209 197.796 270.744 201.794 275.517 200.992C280.277 200.189 279.685 202.653 279.685 202.921C279.685 203.188 279.615 206.652 280.079 207.257C280.544 207.863 281.6 209.595 280.079 211.861C278.559 214.128 279.15 219.197 280.544 218.521C281.938 217.86 283.318 215.255 285.05 213.917C286.767 212.58 289.147 206.793 288.161 204.99C287.162 203.188 289.555 201.724 289.879 200.527C290.175 199.316 290.048 198.711 289.513 197.908Z" fill="#1873B9"/>
<path d="M244.499 178.013C244.527 179.125 244.33 180.336 243.683 181.463C241.74 184.884 241.796 186.588 241.613 190.009C241.43 193.431 245.71 199.443 246.78 200.076C247.85 200.71 248.019 199.203 248.019 198.007C248.019 196.81 247.569 195.36 246.935 193.966C246.302 192.572 246.302 191.685 246.499 191.122C246.682 190.558 247.442 190.361 247.949 190.938C248.456 191.502 249.667 192.009 250.244 191.657C250.962 191.22 250.68 189.502 250.934 188.939C251.187 188.376 252.567 187.996 253.13 186.785C253.694 185.588 254.637 185.081 255.763 184.504C256.89 183.941 257.903 183.687 258.086 183.307C258.27 182.927 258.03 182.04 258.34 181.026C258.65 180.012 259.41 178.816 259.1 178.309C258.79 177.802 257.847 176.985 256.087 178.252C254.327 179.52 253.891 179.52 253.384 178.562C252.877 177.619 253.947 175.141 256.143 175.141C258.34 175.141 258.776 174.38 258.847 173.817C258.917 173.254 258.213 172.62 257.467 172.494C256.707 172.367 256.594 172.803 253.44 174.071C251.342 174.915 249.498 174.718 248.498 174.493C247.062 175.535 245.724 176.718 244.499 178.013Z" fill="#1873B9"/>
<path d="M292.484 213.861C292.428 215.283 291.132 216.635 290.344 217.113C289.555 217.592 288.358 218.324 288.358 219.521C288.358 220.295 288.344 221.295 288.513 222.055C292.653 218.014 293.469 217.24 295.835 211.143C295.722 210.383 292.526 212.453 292.484 213.861Z" fill="#1873B9"/>
<path d="M266.915 231.193C249.624 231.193 235.558 217.029 235.558 199.626C235.558 182.223 249.624 168.059 266.915 168.059C284.205 168.059 298.271 182.223 298.271 199.626C298.271 217.029 284.205 231.193 266.915 231.193ZM266.915 168.692C249.976 168.692 236.192 182.575 236.192 199.626C236.192 216.691 249.976 230.56 266.915 230.56C283.853 230.56 297.637 216.677 297.637 199.626C297.637 182.575 283.853 168.692 266.915 168.692Z" fill="#1873B9"/>
<path d="M246.639 229.321C245.949 230.348 246.245 231.742 247.301 232.376C253.018 235.854 259.734 237.853 266.9 237.853C287.866 237.853 304.874 220.732 304.874 199.626C304.874 187.306 299.087 176.366 290.104 169.368C289.133 168.608 287.711 168.833 287.007 169.847C286.359 170.79 286.556 172.071 287.457 172.775C295.441 178.97 300.566 188.7 300.566 199.626C300.566 218.352 285.486 233.53 266.886 233.53C260.536 233.53 254.595 231.756 249.526 228.687C248.568 228.082 247.287 228.363 246.639 229.321Z" fill="black"/>
<path d="M269.083 235.544H264.817V249.877H269.083V235.544Z" fill="black"/>
<path d="M266.943 252.651C274.182 252.651 280.051 250.899 280.051 248.737C280.051 246.575 274.182 244.823 266.943 244.823C259.703 244.823 253.834 246.575 253.834 248.737C253.834 250.899 259.703 252.651 266.943 252.651Z" fill="black"/>
<path d="M207.948 96.9688L182.097 92.8293L195.261 57.9531L221.112 62.1067L207.948 96.9688Z" fill="black"/>
<path d="M178.605 91.717L157.865 83.4239L170.115 50.9272L190.728 59.5724L178.605 91.717Z" fill="black"/>
<path d="M182.153 92.8296C180.942 93.3787 179.238 92.8859 178.605 91.7173L190.812 59.1221C191.403 60.3189 193.093 60.868 194.318 60.347L182.153 92.8296Z" fill="black"/>
<path d="M182.773 91.0978C181.562 91.6469 179.858 91.1541 179.224 89.9855L191.305 57.7563C191.896 58.9531 193.586 59.5023 194.811 58.9813L182.773 91.0978Z" fill="black"/>
<path d="M181.702 91.6326C180.59 91.6326 179.464 91.0694 178.957 90.1401C178.915 90.0556 178.901 89.9712 178.943 89.8867L191.023 57.6576C191.066 57.5449 191.178 57.4604 191.305 57.4604C191.432 57.4604 191.544 57.5168 191.601 57.6294C192.108 58.6432 193.614 59.1641 194.712 58.7136C194.825 58.6713 194.966 58.6854 195.05 58.7699C195.135 58.8544 195.163 58.9811 195.121 59.1078L183.068 91.2243C183.04 91.2947 182.984 91.3651 182.899 91.3932C182.533 91.5481 182.125 91.6326 181.702 91.6326ZM179.576 89.9571C180.154 90.8301 181.505 91.2524 182.533 90.8582L194.318 59.4457C193.262 59.6147 192.079 59.2064 191.389 58.432L179.576 89.9571Z" fill="black"/>
<path d="M159.625 82.3119L179.21 90.1826L180.576 89.014L191.629 59.5586L189.305 58.6434L171.241 48.8438L159.033 77.8486L159.625 82.3119Z" fill="white"/>
<path d="M179.21 90.4922C179.168 90.4922 179.126 90.4781 179.098 90.464L159.512 82.5933C159.414 82.5511 159.329 82.4525 159.315 82.3399L158.724 77.8765C158.71 77.8202 158.724 77.7639 158.752 77.7076L170.959 48.7027C170.987 48.6183 171.058 48.5619 171.142 48.5338C171.227 48.5056 171.311 48.5056 171.396 48.5479L189.446 58.3475L191.755 59.2487C191.91 59.305 191.995 59.488 191.938 59.6429L180.872 89.1264C180.858 89.1827 180.815 89.225 180.787 89.2532L179.421 90.4077C179.351 90.464 179.281 90.4922 179.21 90.4922ZM159.906 82.0864L179.154 89.8163L180.322 88.8307L191.234 59.7274L189.193 58.9248C189.179 58.9248 189.165 58.9107 189.165 58.9107L171.396 49.28L159.357 77.8906L159.906 82.0864Z" fill="black"/>
<path d="M159.062 77.7218C159.019 77.8344 159.076 77.947 159.188 77.9893C160.892 78.5947 173.198 83.0158 177.549 86.5499L180.59 89.0139L192.121 58.2491L189.686 56.1934C185.828 52.941 175.057 48.8155 171.607 47.5483C171.001 47.323 170.34 47.6328 170.114 48.2242L159.062 77.7218Z" fill="white"/>
<path d="M180.576 89.3235C180.506 89.3235 180.435 89.2953 180.379 89.2531L177.338 86.7891C173.001 83.2691 160.484 78.7776 159.062 78.2848C158.935 78.2425 158.822 78.144 158.766 78.0173C158.71 77.8905 158.696 77.7497 158.752 77.6089L169.805 48.1113C170.086 47.351 170.931 46.9709 171.691 47.2525C174.972 48.4633 185.954 52.6592 189.869 55.9539L192.305 58.0096C192.403 58.0941 192.445 58.2349 192.389 58.3616L180.872 89.1264C180.829 89.2249 180.759 89.2953 180.66 89.3235C180.632 89.3235 180.604 89.3235 180.576 89.3235ZM159.386 77.7357C161.216 78.3833 173.409 82.8045 177.732 86.3104L180.435 88.5069L191.741 58.3475L189.474 56.4326C185.645 53.1942 174.733 49.0406 171.48 47.8297C171.044 47.6749 170.551 47.8861 170.396 48.3225L159.386 77.7357Z" fill="black"/>
<path d="M180.576 89.0137L182.955 91.0553L206.68 94.9555L218.395 63.1488L216.691 60.206C216.649 60.1216 216.564 60.0793 216.466 60.0934C215.494 60.206 210.003 60.8256 207.736 60.2342C204.244 59.319 200.57 59.3472 197.035 60.0934L192.502 61.0508L180.576 89.0137Z" fill="white"/>
<path d="M206.68 95.2513C206.666 95.2513 206.652 95.2513 206.624 95.2513L182.899 91.3652C182.843 91.3511 182.787 91.337 182.744 91.2948L180.365 89.2532C180.266 89.1687 180.224 89.0138 180.28 88.9012L192.192 60.9102C192.234 60.8116 192.319 60.7412 192.417 60.7271L196.951 59.7697C200.668 58.9812 204.428 59.0375 207.793 59.9105C210.045 60.5018 215.762 59.8401 216.41 59.7697C216.621 59.7415 216.832 59.8542 216.945 60.0372L218.648 62.9799C218.691 63.0644 218.705 63.163 218.677 63.2474L206.976 95.0542C206.92 95.1809 206.807 95.2513 206.68 95.2513ZM183.096 90.7598L206.483 94.6036L218.057 63.177L216.452 60.4033C215.255 60.5441 209.933 61.1214 207.652 60.5159C204.371 59.657 200.725 59.6148 197.092 60.3751L192.713 61.3044L180.956 88.9434L183.096 90.7598Z" fill="black"/>
<path d="M191.333 87.5916C192.882 87.662 194.417 87.8732 195.923 88.2393C200.893 89.422 205.146 90.7033 205.146 90.7033L216.564 60.2482C216.621 60.0793 216.536 59.8962 216.367 59.854C215.297 59.5302 211.608 58.4601 207.398 57.4604C203.822 56.6156 200.105 56.5734 196.514 57.3337L192.107 58.263L180.576 89.0278L185.194 88.0844C187.222 87.662 189.277 87.5071 191.333 87.5916Z" fill="white"/>
<path d="M205.146 91.0132C205.117 91.0132 205.089 91.0132 205.061 90.9992C205.061 90.9992 204.357 90.788 203.188 90.45C198.739 89.1828 194.121 88.5352 189.475 88.5352H185.786C185.617 88.5352 185.476 88.3944 185.476 88.2254C185.476 88.0564 185.617 87.9156 185.786 87.9156H189.475C194.191 87.9156 198.852 88.5774 203.357 89.8587C204.104 90.0699 204.653 90.2388 204.963 90.3233L216.283 60.1358C215.255 59.8401 211.552 58.756 207.342 57.7563C203.836 56.9256 200.119 56.8833 196.585 57.6296L192.347 58.5166L180.872 89.1265C180.815 89.2814 180.632 89.3659 180.477 89.3096C180.323 89.2532 180.238 89.0702 180.294 88.9153L191.826 58.1505C191.868 58.052 191.953 57.9816 192.051 57.9534L196.458 57.0241C200.091 56.2638 203.892 56.306 207.483 57.1508C211.707 58.1505 215.424 59.2347 216.466 59.5444C216.635 59.5867 216.762 59.7134 216.832 59.8542C216.902 60.0091 216.916 60.178 216.86 60.347L205.441 90.8161C205.399 90.9428 205.272 91.0132 205.146 91.0132Z" fill="black"/>
<path d="M210.89 63.6273C210.862 63.6273 210.834 63.6273 210.806 63.6133L210.102 63.4161C208.806 63.036 207.863 62.7685 205.314 62.163C201.823 61.3323 198.106 61.2901 194.557 62.0363C194.388 62.0785 194.219 61.9659 194.191 61.7969C194.149 61.628 194.262 61.459 194.431 61.4309C198.063 60.6705 201.865 60.7128 205.455 61.5576C208.018 62.163 208.961 62.4446 210.271 62.8107L210.975 63.0078C211.144 63.0501 211.242 63.2331 211.186 63.388C211.144 63.5429 211.017 63.6273 210.89 63.6273Z" fill="black"/>
<path d="M209.933 67.4996C209.905 67.4996 209.877 67.4996 209.848 67.4855C208.187 67.0068 207.004 66.697 203.977 65.9789C200.485 65.1482 196.768 65.106 193.22 65.8522C193.051 65.8945 192.882 65.7818 192.854 65.6129C192.812 65.4439 192.924 65.2749 193.093 65.2468C196.726 64.4865 200.527 64.5287 204.118 65.3735C207.159 66.0916 208.356 66.4154 210.017 66.8941C210.186 66.9364 210.285 67.1194 210.229 67.2743C210.186 67.401 210.06 67.4996 209.933 67.4996Z" fill="black"/>
<path d="M207.99 71.0616C207.962 71.0616 207.933 71.0616 207.905 71.0475C206.596 70.6674 205.835 70.4984 204.188 70.1042C203.695 69.9915 203.132 69.8507 202.456 69.6958C200.612 69.2594 198.711 69.0341 196.81 69.0341C196.627 69.0341 196.486 68.8933 196.486 68.7243C196.486 68.5554 196.627 68.4146 196.81 68.4146C198.767 68.4146 200.71 68.6398 202.611 69.0904C203.287 69.2453 203.864 69.3861 204.343 69.4987C206.004 69.893 206.765 70.0619 208.088 70.4421C208.257 70.4843 208.356 70.6674 208.299 70.8222C208.257 70.963 208.13 71.0616 207.99 71.0616Z" fill="black"/>
<path d="M207.046 75.0604C207.018 75.0604 206.99 75.0605 206.962 75.0464C206.582 74.9337 206.216 74.8352 205.85 74.7225C204.596 74.3565 203.301 73.9763 200.992 73.4272C197.5 72.5965 193.783 72.5542 190.235 73.3004C190.066 73.3427 189.897 73.2301 189.869 73.0611C189.827 72.8921 189.939 72.7232 190.108 72.695C193.741 71.9347 197.542 71.9769 201.133 72.8217C203.47 73.3709 204.765 73.751 206.033 74.1312C206.399 74.2438 206.765 74.3424 207.145 74.455C207.314 74.4973 207.412 74.6803 207.356 74.8352C207.314 74.976 207.187 75.0604 207.046 75.0604Z" fill="black"/>
<path d="M203.794 77.7498C203.766 77.7498 203.738 77.7498 203.709 77.7357C202.273 77.3555 200.879 77.0035 199.542 76.6938C196.05 75.8631 192.333 75.8208 188.785 76.5671C188.616 76.6093 188.447 76.4966 188.419 76.3277C188.39 76.1587 188.489 75.9898 188.658 75.9616C192.291 75.2013 196.092 75.2435 199.683 76.0883C201.02 76.3981 202.428 76.7642 203.864 77.1443C204.033 77.1866 204.132 77.3555 204.09 77.5245C204.061 77.6653 203.935 77.7498 203.794 77.7498Z" fill="black"/>
<path d="M197.965 80.1009C197.937 80.1009 197.923 80.1009 197.895 80.1009C194.515 79.3828 191.08 79.3828 187.687 80.1009C187.518 80.1431 187.349 80.0305 187.32 79.8615C187.278 79.6925 187.391 79.5236 187.56 79.4954C191.038 78.7632 194.572 78.7632 198.035 79.4954C198.204 79.5376 198.317 79.6925 198.275 79.8615C198.232 80.0023 198.106 80.1009 197.965 80.1009Z" fill="black"/>
<path d="M202.09 85.353C202.062 85.353 202.034 85.353 202.006 85.3389C200.429 84.8883 199.669 84.7053 197.19 84.128L196.585 83.9872C193.093 83.1565 189.376 83.1143 185.828 83.8605C185.659 83.9027 185.49 83.7901 185.462 83.6212C185.42 83.4522 185.532 83.2832 185.701 83.2551C189.334 82.4947 193.135 82.537 196.726 83.3818L197.331 83.5226C199.823 84.114 200.57 84.297 202.161 84.7476C202.33 84.7898 202.428 84.9728 202.372 85.1277C202.344 85.2685 202.217 85.353 202.09 85.353Z" fill="black"/>
<path d="M180.59 56.9958C180.534 56.9958 180.477 56.9818 180.435 56.9536C177.352 55.1654 174.17 53.7574 172.381 53.0816C172.227 53.0253 172.142 52.8422 172.198 52.6874C172.255 52.5325 172.438 52.448 172.607 52.5043C174.423 53.1802 177.633 54.6163 180.745 56.4186C180.9 56.503 180.942 56.7002 180.858 56.841C180.815 56.9395 180.703 56.9958 180.59 56.9958Z" fill="black"/>
<path d="M184.955 66.8378C184.856 66.8378 184.772 66.7956 184.716 66.7252C182.491 63.9232 178.774 61.952 175.479 60.3188C175.324 60.2484 175.268 60.0512 175.338 59.8964C175.409 59.7415 175.606 59.6852 175.761 59.7556C179.126 61.417 182.899 63.4304 185.208 66.3309C185.321 66.4717 185.293 66.6548 185.152 66.7674C185.082 66.8096 185.011 66.8378 184.955 66.8378Z" fill="black"/>
<path d="M183.125 72.0753C183.04 72.0753 182.97 72.0472 182.913 71.9909C180.027 69.203 177.366 67.7809 174.184 66.2181C172.044 65.1621 170.805 64.627 169.608 64.1201C169.256 63.9653 168.904 63.8245 168.538 63.6555C168.383 63.5851 168.312 63.4021 168.383 63.2472C168.453 63.0923 168.636 63.0219 168.791 63.0923C169.157 63.2472 169.509 63.4021 169.847 63.5569C171.058 64.0779 172.311 64.6129 174.451 65.6689C177.676 67.26 180.379 68.7102 183.336 71.5544C183.462 71.667 183.462 71.8641 183.35 71.9909C183.279 72.0472 183.195 72.0753 183.125 72.0753Z" fill="black"/>
<path d="M181.998 75.8348C181.914 75.8348 181.843 75.8066 181.773 75.7503C179.281 73.3004 177.113 72.2584 174.353 70.9208C173.959 70.7237 173.536 70.5266 173.114 70.3154C171.889 69.71 170.579 69.0904 169.242 68.4709C169.087 68.4005 169.017 68.2175 169.087 68.0626C169.157 67.9077 169.34 67.8373 169.495 67.9077C170.847 68.5272 172.156 69.1468 173.381 69.7663C173.804 69.9775 174.212 70.1746 174.606 70.3576C177.296 71.6671 179.633 72.7935 182.195 75.2997C182.322 75.4264 182.322 75.6236 182.195 75.7362C182.167 75.8066 182.083 75.8348 181.998 75.8348Z" fill="black"/>
<path d="M180.632 79.3829C180.548 79.3829 180.477 79.3547 180.407 79.2984C178.239 77.1301 175.859 75.9333 173.325 74.6802C172.762 74.3986 172.198 74.1169 171.635 73.8213C171.48 73.7368 171.424 73.5537 171.508 73.3989C171.593 73.244 171.776 73.1877 171.931 73.2722C172.494 73.5678 173.043 73.8494 173.606 74.117C176.183 75.3982 178.605 76.6232 180.844 78.8619C180.97 78.9886 180.97 79.1858 180.844 79.2984C180.787 79.3547 180.717 79.3829 180.632 79.3829Z" fill="black"/>
<path d="M179.45 83.3674C179.351 83.3674 179.267 83.3252 179.21 83.2548C176.887 80.3402 168.636 76.8343 164.947 75.6938C164.778 75.6375 164.694 75.4686 164.736 75.2996C164.792 75.1306 164.961 75.0462 165.13 75.0884C168.89 76.243 177.295 79.8334 179.703 82.8606C179.816 83.0014 179.788 83.1844 179.647 83.297C179.591 83.3393 179.52 83.3674 179.45 83.3674Z" fill="black"/>
<path d="M206.68 95.2513C206.554 95.2513 206.441 95.1809 206.385 95.0542L204.836 90.9147C204.78 90.7598 204.864 90.5768 205.019 90.5204C205.174 90.4641 205.357 90.5486 205.413 90.7035L206.962 94.843C207.018 94.9979 206.934 95.1809 206.779 95.2372C206.751 95.2513 206.709 95.2513 206.68 95.2513Z" fill="black"/>
<path d="M251.722 129.691C252.102 132.338 255.242 149.234 273.236 157.104C273.307 157.133 273.377 157.133 273.448 157.118C274.968 156.71 292.47 151.515 303.269 127.748C303.354 127.565 303.241 127.339 303.044 127.311C300.566 126.832 286.81 123.89 281.121 117.019C280.994 116.864 280.741 116.864 280.628 117.047C279.277 119.074 271.674 128.958 252.032 129.325C251.849 129.325 251.708 129.494 251.722 129.691Z" fill="white"/>
<path d="M273.363 157.442C273.279 157.442 273.194 157.428 273.11 157.386C255.144 149.529 251.891 132.971 251.412 129.719C251.384 129.536 251.441 129.367 251.553 129.226C251.666 129.085 251.835 129.015 252.018 129.001C271.519 128.62 279.051 118.821 280.361 116.85C280.474 116.681 280.643 116.582 280.84 116.568C281.037 116.554 281.22 116.638 281.361 116.793C286.95 123.552 300.453 126.466 303.1 126.973C303.283 127.015 303.438 127.128 303.537 127.297C303.621 127.466 303.635 127.677 303.551 127.846C292.765 151.585 275.461 156.865 273.532 157.386C273.476 157.442 273.419 157.442 273.363 157.442ZM280.882 117.216C279.544 119.215 271.843 129.254 252.032 129.634C252.229 130.986 253.102 135.801 256.143 141.278C260.043 148.29 265.83 153.528 273.349 156.809C275.25 156.288 292.301 151.092 302.973 127.621C300.298 127.1 286.612 124.143 280.882 117.216Z" fill="black"/>
<path d="M296.722 130.183C296.694 130.183 296.679 130.183 296.651 130.169C288.105 128.283 280.234 122.369 280.164 122.299C280.023 122.2 279.995 122.003 280.107 121.862C280.206 121.721 280.403 121.693 280.544 121.806C280.614 121.862 288.386 127.705 296.792 129.564C296.961 129.606 297.06 129.761 297.032 129.93C297.003 130.085 296.877 130.183 296.722 130.183Z" fill="black"/>
<path d="M294.582 134.872C294.554 134.872 294.525 134.872 294.497 134.858C290.527 133.83 286.598 131.887 282.797 129.099C282.656 129.001 282.628 128.804 282.726 128.663C282.825 128.522 283.022 128.494 283.163 128.593C286.908 131.338 290.766 133.239 294.652 134.253C294.821 134.295 294.92 134.464 294.877 134.633C294.849 134.774 294.722 134.872 294.582 134.872Z" fill="black"/>
<path d="M280.417 127.128C280.347 127.128 280.276 127.1 280.22 127.058C278.488 125.565 277.531 124.495 277.488 124.453C277.376 124.326 277.39 124.129 277.517 124.016C277.643 123.904 277.84 123.918 277.953 124.044C277.967 124.059 278.925 125.129 280.628 126.593C280.755 126.706 280.769 126.903 280.656 127.029C280.6 127.1 280.502 127.128 280.417 127.128Z" fill="black"/>
<path d="M290.822 139.251C290.78 139.251 290.738 139.237 290.696 139.223C279.952 134.59 274.574 126.776 274.518 126.691C274.419 126.551 274.461 126.353 274.602 126.255C274.743 126.156 274.94 126.199 275.039 126.339C275.095 126.41 280.375 134.083 290.949 138.645C291.104 138.716 291.174 138.899 291.118 139.054C291.048 139.18 290.935 139.251 290.822 139.251Z" fill="black"/>
<path d="M287.373 143.179C287.316 143.179 287.274 143.165 287.232 143.137C276.081 137.21 271.237 128.367 271.195 128.269C271.11 128.114 271.167 127.931 271.321 127.846C271.476 127.762 271.659 127.818 271.744 127.973C271.786 128.058 276.559 136.745 287.528 142.588C287.682 142.673 287.739 142.856 287.654 143.011C287.598 143.109 287.485 143.179 287.373 143.179Z" fill="black"/>
<path d="M282.937 146.812C282.895 146.812 282.839 146.798 282.797 146.77C280.797 145.728 278.868 144.404 277.052 142.827C276.925 142.715 276.911 142.517 277.024 142.391C277.137 142.264 277.334 142.25 277.46 142.363C279.234 143.911 281.121 145.207 283.078 146.235C283.233 146.319 283.289 146.502 283.205 146.657C283.163 146.741 283.05 146.812 282.937 146.812Z" fill="black"/>
<path d="M274.475 140.18C274.391 140.18 274.306 140.152 274.25 140.082C269.688 135.111 267.492 129.972 267.464 129.93C267.393 129.775 267.478 129.592 267.633 129.522C267.787 129.451 267.97 129.536 268.041 129.691C268.069 129.747 270.223 134.788 274.701 139.673C274.813 139.8 274.813 139.997 274.687 140.11C274.63 140.152 274.56 140.18 274.475 140.18Z" fill="black"/>
<path d="M272.8 149.98C272.786 149.98 272.786 149.98 272.8 149.98C272.617 149.98 272.49 149.839 272.49 149.67L272.518 147.417C272.518 147.347 272.49 147.276 272.434 147.22C272.378 147.164 272.307 147.15 272.237 147.15L269.083 147.417C268.787 147.445 268.491 147.319 268.308 147.079C268.125 146.84 268.069 146.516 268.182 146.234L268.337 145.812C268.393 145.671 268.322 145.573 268.28 145.544C268.252 145.516 268.168 145.432 268.027 145.46C267.618 145.559 267.21 145.376 267.027 144.995C266.83 144.615 266.929 144.179 267.252 143.897L267.872 143.39C268.013 143.278 267.97 143.123 267.956 143.08C267.942 143.038 267.886 142.912 267.717 142.912L264.422 142.954C264.253 142.954 264.113 142.813 264.113 142.644C264.113 142.475 264.253 142.334 264.422 142.334L267.717 142.292H267.731C268.111 142.292 268.435 142.517 268.562 142.869C268.689 143.235 268.59 143.63 268.294 143.869L267.675 144.376C267.52 144.503 267.576 144.657 267.604 144.714C267.633 144.756 267.717 144.897 267.9 144.855C268.21 144.77 268.548 144.883 268.773 145.122C268.998 145.361 269.055 145.713 268.956 146.023L268.801 146.446C268.759 146.572 268.815 146.671 268.843 146.699C268.872 146.727 268.942 146.812 269.069 146.798L272.223 146.53C272.476 146.516 272.715 146.6 272.898 146.769C273.081 146.938 273.18 147.178 273.18 147.431L273.152 149.684C273.096 149.839 272.969 149.98 272.8 149.98Z" fill="black"/>
<path d="M267.661 81.6497C268.646 82.4241 269.674 83.1562 270.716 83.8602L271.364 84.2967C272.096 84.9162 272.194 86.0285 271.561 86.7607L267.816 91.1818L270.223 92.9981C271.307 93.9978 271.138 95.7437 269.871 96.5181L268.956 96.8983C264.676 98.6583 260.733 101.122 257.298 104.22C256.439 104.755 255.327 104.67 254.538 104.037L249.512 100.784C245.062 97.912 240.951 94.5469 237.234 90.7735L233.841 87.3239C233.137 86.7607 233.024 85.7329 233.573 85.0289L236.192 81.1991C239.641 76.0458 243.697 71.3431 248.273 67.1754C248.892 66.4292 250.004 66.3165 250.737 66.9501L254.89 71.1741C256.566 72.8778 258.354 74.4688 260.241 75.9332L267.661 81.6497Z" fill="white"/>
<path d="M256.059 104.854C255.453 104.854 254.862 104.657 254.369 104.262L249.357 101.024C244.893 98.1375 240.754 94.7583 237.023 90.9708L233.643 87.5212C232.827 86.8453 232.686 85.6345 233.348 84.8037L235.953 81.0021C239.402 75.8489 243.471 71.118 248.061 66.9362C248.413 66.5138 248.906 66.2604 249.441 66.2181C249.99 66.1618 250.525 66.3308 250.948 66.6969L255.13 70.9349C256.791 72.6245 258.579 74.2156 260.452 75.6658L267.844 81.4245C268.829 82.1849 269.843 82.9311 270.885 83.621L271.533 84.0575C271.547 84.0575 271.547 84.0716 271.561 84.0716C271.983 84.4236 272.237 84.9305 272.279 85.4655C272.321 86.0146 272.152 86.5497 271.8 86.9721L268.266 91.1397L270.406 92.7589C271.012 93.3221 271.307 94.0825 271.237 94.885C271.153 95.6735 270.73 96.3775 270.04 96.7858C270.026 96.7999 270.012 96.7999 269.998 96.814L269.083 97.1941C264.831 98.9401 260.931 101.376 257.509 104.459C257.495 104.474 257.481 104.488 257.467 104.488C257.03 104.727 256.552 104.854 256.059 104.854ZM249.638 66.8095C249.596 66.8095 249.554 66.8095 249.498 66.8095C249.117 66.8517 248.765 67.0348 248.526 67.3305C248.512 67.3445 248.512 67.3586 248.498 67.3586C243.936 71.5122 239.895 76.2009 236.459 81.326L233.841 85.1557C233.376 85.7471 233.474 86.5778 234.038 87.0425C234.052 87.0565 234.052 87.0565 234.066 87.0706L237.459 90.5202C241.148 94.2796 245.259 97.6306 249.681 100.489L254.707 103.741C254.721 103.741 254.721 103.755 254.735 103.755C255.411 104.305 256.355 104.375 257.101 103.938C260.564 100.827 264.521 98.3487 268.829 96.5887L269.73 96.2226C270.237 95.9129 270.547 95.3919 270.603 94.8005C270.66 94.1951 270.449 93.6178 269.998 93.2095L267.618 91.4213C267.548 91.365 267.506 91.2946 267.492 91.2101C267.478 91.1257 267.506 91.0412 267.562 90.9708L271.307 86.5497C271.561 86.254 271.674 85.8879 271.645 85.5077C271.617 85.1276 271.434 84.7897 271.153 84.5362L270.519 84.1138C269.477 83.4098 268.435 82.6636 267.45 81.8892L260.058 76.1305C258.171 74.6521 256.354 73.0469 254.665 71.3433L250.511 67.1193C250.286 66.9362 249.962 66.8095 249.638 66.8095Z" fill="black"/>
<path d="M267.816 91.4776C267.745 91.4776 267.689 91.4635 267.633 91.4213L264.943 89.3937C261.184 86.5637 257.762 83.2971 254.763 79.6926L252.834 77.3835C252.299 76.9048 251.694 76.8344 250.638 77.1301L248.371 77.8622C244.809 79.0168 241.444 80.6641 238.332 82.7621L233.503 86.2821C233.362 86.3806 233.165 86.3525 233.066 86.2117C232.968 86.0709 232.996 85.8737 233.137 85.7752L237.966 82.2552C241.12 80.1291 244.555 78.4536 248.16 77.2709L250.455 76.5246C251.412 76.2571 252.398 76.1304 253.271 76.9329C253.285 76.947 253.285 76.947 253.299 76.9611L255.242 79.2843C258.213 82.8606 261.606 86.0849 265.323 88.8869L268.013 90.9144C268.154 91.0129 268.182 91.2101 268.069 91.3509C268.013 91.4353 267.914 91.4776 267.816 91.4776Z" fill="black"/>
<path d="M272.786 65.4015L269.365 62.4588C268.534 61.7407 267.295 61.7689 266.492 62.5292L264.76 64.1625C262.198 66.5842 260.029 69.4002 258.326 72.4978L256.2 76.3698C255.974 76.7781 256.059 77.2709 256.397 77.5807C257.946 79.045 262.071 83.8181 265.774 85.9865C266.408 86.3525 267.224 86.1273 267.576 85.4937L270.026 81.2274C271.462 78.7353 273.222 76.4261 275.236 74.3705L277.517 72.0613C278.432 71.1321 278.305 69.5973 277.235 68.837L276.109 68.0345C274.982 67.2037 273.87 66.3308 272.786 65.4015Z" fill="white"/>
<path d="M266.45 86.4791C266.168 86.4791 265.887 86.4087 265.633 86.2539C262.733 84.5502 259.649 81.354 257.608 79.242C257.03 78.6507 256.538 78.1297 256.186 77.8059C255.749 77.3975 255.65 76.7358 255.932 76.2148L258.058 72.3428C259.776 69.2171 261.958 66.387 264.549 63.9371L266.281 62.3038C267.196 61.4449 268.604 61.4027 269.562 62.2193L272.983 65.162C274.053 66.0772 275.179 66.9643 276.32 67.7809L277.446 68.5835C278.024 69.0059 278.404 69.6535 278.46 70.3575C278.516 71.0756 278.263 71.7796 277.77 72.2865L275.489 74.5956C273.49 76.6231 271.744 78.9182 270.322 81.3822L267.872 85.6484C267.647 86.0286 267.295 86.3102 266.872 86.4228C266.731 86.451 266.591 86.4791 266.45 86.4791ZM267.97 62.2475C267.52 62.2475 267.069 62.4164 266.717 62.7543L264.986 64.3876C262.437 66.7953 260.297 69.5691 258.607 72.6385L256.481 76.5105C256.326 76.7921 256.383 77.13 256.608 77.3412C256.96 77.6791 257.467 78.2001 258.044 78.7915C260.058 80.8894 263.113 84.0433 265.929 85.7047C266.154 85.8455 266.422 85.8737 266.689 85.8033C266.957 85.7329 267.182 85.5639 267.309 85.3246L269.759 81.0583C271.209 78.538 272.983 76.2148 275.025 74.1451L277.306 71.8359C277.686 71.4558 277.869 70.9348 277.826 70.3998C277.784 69.8647 277.503 69.386 277.066 69.0763L275.94 68.2737C274.785 67.443 273.645 66.5559 272.561 65.6267L269.139 62.6839C268.815 62.4023 268.393 62.2475 267.97 62.2475Z" fill="black"/>
<path d="M275.264 74.6943C275.193 74.6943 275.137 74.6803 275.081 74.638L272.42 72.6527C271.899 72.2726 271.575 71.6953 271.49 71.0617C271.406 70.4281 271.589 69.7945 271.997 69.2876L273.954 66.8659C274.067 66.7251 274.264 66.711 274.391 66.8236C274.532 66.9363 274.546 67.1334 274.433 67.2601L272.476 69.6819C272.18 70.0479 272.054 70.5126 272.11 70.9772C272.166 71.4419 272.406 71.8643 272.786 72.1459L275.447 74.1311C275.588 74.2297 275.616 74.4268 275.503 74.5676C275.461 74.6521 275.362 74.6943 275.264 74.6943Z" fill="black"/>
<path d="M271.392 74.849C271.336 74.849 271.265 74.8349 271.223 74.7927C268.491 72.9623 264.634 68.3581 264.479 68.161C264.366 68.0343 264.38 67.8371 264.521 67.7245C264.648 67.6119 264.845 67.6259 264.957 67.7667C265 67.809 268.914 72.4976 271.575 74.2858C271.716 74.3843 271.758 74.5815 271.659 74.7223C271.589 74.7927 271.49 74.849 271.392 74.849Z" fill="black"/>
<path d="M268.942 77.482C268.872 77.482 268.815 77.4679 268.759 77.4116C264.324 74.0043 262.381 71.315 262.31 71.2023C262.212 71.0615 262.24 70.8644 262.381 70.7659C262.522 70.6673 262.719 70.6955 262.817 70.8363C262.831 70.8644 264.788 73.5678 269.139 76.9047C269.28 77.0033 269.308 77.2004 269.195 77.3412C269.125 77.4398 269.026 77.482 268.942 77.482Z" fill="black"/>
<path d="M62.0505 144.263C58.615 144.263 55.4751 143.264 52.9689 141.321C47.351 136.984 45.6332 128.79 48.4774 119.933C48.5337 119.764 48.7027 119.68 48.8716 119.736C49.0406 119.792 49.1251 119.961 49.0687 120.13C46.3091 128.733 47.9423 136.66 53.3491 140.828C56.7283 143.433 61.2902 144.263 66.2041 143.165C71.0899 142.067 76.0038 139.138 80.0307 134.928C80.8191 134.098 85.0854 135.59 87.6339 136.604C86.1273 134.295 83.7619 130.437 84.2265 129.55C84.2265 129.55 84.2406 129.522 84.2406 129.508C90.8019 119.06 90.4217 107.078 83.3395 101.615C79.7913 98.8836 75.0041 98.1092 69.8367 99.4328C64.6694 100.756 59.6006 104.065 55.5596 108.74C55.447 108.866 55.2499 108.88 55.1231 108.768C54.9964 108.655 54.9823 108.458 55.095 108.331C59.2204 103.572 64.4019 100.193 69.6959 98.8273C75.0463 97.4475 80.0307 98.2641 83.7337 101.108C91.0694 106.768 91.5199 119.103 84.7756 129.817C84.5785 130.381 86.6623 134.027 88.7039 137.069C88.7743 137.181 88.7743 137.336 88.6899 137.435C88.6054 137.547 88.4646 137.575 88.3238 137.519C84.4518 135.942 80.8614 134.928 80.4671 135.323C76.3558 139.631 71.3433 142.616 66.3308 143.743C64.8665 144.095 63.4303 144.263 62.0505 144.263Z" fill="black"/>
<path d="M62.6559 126.903L60.4453 128.55C60.1355 128.775 59.6991 128.719 59.4597 128.423L47.5621 113.653C47.3087 113.33 47.365 112.865 47.6888 112.626L51.0399 110.119C51.3637 109.88 51.8283 109.95 52.0677 110.288L62.8248 125.903C63.036 126.241 62.9656 126.677 62.6559 126.903Z" fill="black"/>
<path d="M65.8561 134.751C66.8961 134.111 67.178 132.68 66.4857 131.554C65.7934 130.428 64.389 130.033 63.349 130.672C62.3089 131.312 62.027 132.743 62.7193 133.869C63.4117 134.995 64.816 135.39 65.8561 134.751Z" fill="black"/>
<path d="M71.822 122.834L71.4137 121.876C70.5126 119.919 70.4422 117.469 71.5545 114.597C72.5682 112.049 73.0188 110.274 72.4556 108.571C71.8079 106.642 70.1606 106.079 67.7951 106.825C66.4434 107.261 65.2326 108.514 64.5426 109.542L62.7263 106.839C63.6556 105.53 65.5986 104.22 67.5839 103.572C71.8924 102.164 74.7366 104.192 75.7081 107.064C76.567 109.627 75.7644 111.936 74.6802 114.682C73.6806 117.188 73.6383 119.032 74.3986 120.919L74.7647 121.89L71.822 122.834ZM72.7654 128.381C72.3007 126.987 72.9062 125.706 74.2156 125.27C75.525 124.833 76.75 125.523 77.2287 126.917C77.6652 128.241 77.1442 129.536 75.7644 129.986C74.4409 130.423 73.2018 129.705 72.7654 128.381Z" fill="#EB5757"/>
<path d="M122.06 84.1757C131.878 81.5474 137.695 71.4152 135.053 61.5447C132.411 51.6742 122.31 45.8033 112.492 48.4315C102.674 51.0598 96.8569 61.192 99.4992 71.0625C102.142 80.933 112.243 86.804 122.06 84.1757Z" fill="black"/>
<path d="M119.665 84.6093C129.483 81.981 135.3 71.8488 132.657 61.9783C130.015 52.1078 119.914 46.2369 110.096 48.8651C100.278 51.4934 94.4614 61.6256 97.1037 71.4961C99.7461 81.3666 109.847 87.2376 119.665 84.6093Z" fill="white"/>
<path d="M114.949 85.5639C112.865 85.5639 110.781 85.2119 108.754 84.5079C104.009 82.8465 100.207 79.425 98.0249 74.8772C93.5474 65.5281 97.4617 54.2781 106.754 49.8007C111.246 47.6465 116.301 47.3649 121.003 49.0122C125.748 50.6737 129.55 54.0951 131.732 58.6429C136.21 67.9921 132.296 79.242 123.003 83.7194C120.454 84.9444 117.709 85.5639 114.949 85.5639ZM114.822 48.5476C112.161 48.5476 109.5 49.153 107.036 50.3357C98.053 54.6583 94.2655 65.5421 98.6022 74.5815C100.714 78.9745 104.389 82.2833 108.979 83.9025C113.527 85.4935 118.427 85.226 122.763 83.1421C131.746 78.8196 135.534 67.9357 131.197 58.8964C129.085 54.5034 125.41 51.1946 120.82 49.5754C118.849 48.8855 116.836 48.5476 114.822 48.5476Z" fill="black"/>
<path d="M124.383 73.3703C124.326 73.3703 124.27 73.3562 124.214 73.314L114.71 67.0062C114.639 66.9639 114.597 66.8935 114.583 66.8231L112.584 58.3188C112.541 58.1498 112.654 57.9809 112.809 57.9386C112.978 57.8964 113.147 58.009 113.189 58.1639L115.16 66.5415L124.566 72.793C124.707 72.8916 124.749 73.0887 124.65 73.2295C124.58 73.314 124.481 73.3703 124.383 73.3703Z" fill="black"/>
<path d="M109.5 53.0111C109.782 53.6025 109.542 54.3065 108.951 54.5881C108.36 54.8697 107.67 54.6163 107.388 54.039C107.106 53.4476 107.346 52.7436 107.937 52.462C108.514 52.1804 109.218 52.4339 109.5 53.0111Z" fill="black"/>
<path d="M103.403 57.5446C103.938 57.9107 104.079 58.6429 103.713 59.192C103.347 59.727 102.615 59.8678 102.08 59.5018C101.545 59.1357 101.404 58.4035 101.77 57.8544C102.136 57.3053 102.868 57.1786 103.403 57.5446Z" fill="black"/>
<path d="M100.727 66.7245C101.351 66.5576 101.719 65.9108 101.55 65.2798C101.381 64.6488 100.739 64.2726 100.115 64.4395C99.492 64.6064 99.1235 65.2532 99.2924 65.8842C99.4613 66.5152 100.104 66.8914 100.727 66.7245Z" fill="black"/>
<path d="M101.235 72.1173C101.826 71.8357 102.516 72.0891 102.798 72.6664C103.079 73.2578 102.84 73.9618 102.249 74.2434C101.657 74.525 100.967 74.2715 100.686 73.6943C100.404 73.1029 100.658 72.3989 101.235 72.1173Z" fill="black"/>
<path d="M105.882 78.1294C106.248 77.5944 106.98 77.4536 107.515 77.8197C108.05 78.1857 108.191 78.9179 107.825 79.467C107.459 80.0021 106.726 80.1429 106.191 79.7768C105.656 79.4107 105.53 78.6645 105.882 78.1294Z" fill="black"/>
<path d="M112.851 81.1852C112.893 80.5375 113.456 80.0447 114.104 80.1011C114.752 80.1574 115.23 80.7206 115.188 81.3683C115.146 82.0159 114.583 82.5087 113.935 82.4524C113.287 82.4102 112.809 81.847 112.851 81.1852Z" fill="black"/>
<path d="M120.398 80.3402C120.116 79.7489 120.356 79.0449 120.947 78.7633C121.538 78.4817 122.228 78.7351 122.51 79.3124C122.792 79.9038 122.552 80.6078 121.961 80.8894C121.384 81.185 120.68 80.9316 120.398 80.3402Z" fill="black"/>
<path d="M126.495 75.8206C125.96 75.4545 125.819 74.7224 126.185 74.1732C126.551 73.6241 127.283 73.4974 127.818 73.8635C128.353 74.2296 128.494 74.9617 128.128 75.5108C127.762 76.06 127.03 76.1867 126.495 75.8206Z" fill="black"/>
<path d="M129.395 68.9495C128.747 68.8932 128.269 68.33 128.311 67.6823C128.353 67.0346 128.916 66.5418 129.564 66.5981C130.212 66.6545 130.69 67.2177 130.648 67.8653C130.606 68.513 130.043 69.0058 129.395 68.9495Z" fill="black"/>
<path d="M128.522 61.3742C127.931 61.6558 127.241 61.4024 126.959 60.8251C126.678 60.2478 126.917 59.5298 127.508 59.2482C128.1 58.9666 128.79 59.22 129.071 59.7973C129.353 60.3886 129.114 61.0926 128.522 61.3742Z" fill="black"/>
<path d="M124.002 55.2214C123.636 55.7565 122.904 55.8973 122.369 55.5312C121.834 55.1651 121.693 54.4329 122.059 53.8838C122.425 53.3488 123.158 53.208 123.693 53.5741C124.228 53.9542 124.369 54.6864 124.002 55.2214Z" fill="black"/>
<path d="M117.047 52.1661C117.005 52.8138 116.441 53.3066 115.794 53.2503C115.146 53.194 114.667 52.6308 114.71 51.9831C114.752 51.3354 115.315 50.8426 115.963 50.8989C116.61 50.9552 117.089 51.5184 117.047 52.1661Z" fill="black"/>
<path d="M220.535 286.007C220.45 286.007 220.38 285.979 220.324 285.923C220.197 285.81 220.197 285.613 220.31 285.486L221.774 283.951C221.887 283.825 222.084 283.825 222.21 283.937C222.337 284.05 222.337 284.247 222.224 284.374L220.76 285.908C220.69 285.965 220.605 286.007 220.535 286.007Z" fill="black"/>
<path d="M215.382 291.385C215.297 291.385 215.227 291.357 215.17 291.301C215.044 291.188 215.044 290.991 215.156 290.865L216.621 289.33C216.733 289.203 216.93 289.203 217.057 289.316C217.184 289.428 217.184 289.625 217.071 289.752L215.607 291.287C215.551 291.357 215.466 291.385 215.382 291.385Z" fill="black"/>
<path d="M216.818 286.091C216.733 286.091 216.663 286.063 216.592 286.007L215.1 284.529C214.973 284.402 214.973 284.205 215.1 284.092C215.227 283.965 215.424 283.965 215.536 284.092L217.029 285.571C217.156 285.697 217.156 285.894 217.029 286.007C216.987 286.049 216.902 286.091 216.818 286.091Z" fill="black"/>
<path d="M222.055 291.231C221.971 291.231 221.901 291.202 221.83 291.146L220.338 289.668C220.211 289.541 220.211 289.344 220.338 289.231C220.464 289.105 220.662 289.105 220.774 289.231L222.267 290.71C222.393 290.836 222.393 291.034 222.267 291.146C222.21 291.202 222.126 291.231 222.055 291.231Z" fill="black"/>
<path d="M69.738 64.4159C69.569 64.4159 69.4282 64.2751 69.4282 64.1062L69.386 61.9801C69.386 61.8111 69.5127 61.6703 69.6957 61.6562C69.8647 61.6562 70.0055 61.783 70.0196 61.966L70.0618 64.0921C70.0477 64.2611 69.921 64.4159 69.738 64.4159Z" fill="black"/>
<path d="M69.893 71.8642C69.7241 71.8642 69.5833 71.7234 69.5833 71.5544L69.541 69.4283C69.541 69.2594 69.6677 69.1186 69.8508 69.1045C70.0197 69.1045 70.1605 69.2312 70.1746 69.4143L70.2169 71.5403C70.2169 71.7093 70.0761 71.8501 69.893 71.8642C69.9071 71.8642 69.9071 71.8642 69.893 71.8642Z" fill="black"/>
<path d="M65.0776 67.1053C64.9086 67.1053 64.7678 66.9645 64.7678 66.7955C64.7678 66.6266 64.9086 66.4858 65.0776 66.4858L67.1755 66.4717C67.3445 66.4717 67.4853 66.6125 67.4853 66.7814C67.4853 66.9504 67.3445 67.0912 67.1755 67.0912L65.0776 67.1053Z" fill="black"/>
<path d="M72.4133 67.0491C72.2443 67.0491 72.1035 66.9083 72.1035 66.7394C72.1035 66.5704 72.2443 66.4296 72.4133 66.4296L74.5112 66.4155C74.6802 66.4155 74.821 66.5563 74.821 66.7253C74.821 66.8942 74.6802 67.035 74.5112 67.035L72.4133 67.0491Z" fill="black"/>
<path d="M242.443 281.318C240.923 281.318 239.698 280.079 239.698 278.573C239.698 277.052 240.937 275.827 242.443 275.827C243.95 275.827 245.189 277.066 245.189 278.573C245.189 280.079 243.95 281.318 242.443 281.318ZM242.443 276.447C241.275 276.447 240.317 277.404 240.317 278.573C240.317 279.741 241.275 280.699 242.443 280.699C243.612 280.699 244.569 279.741 244.569 278.573C244.569 277.404 243.612 276.447 242.443 276.447Z" fill="black"/>
<path d="M290.766 104.854C289.245 104.854 288.02 103.614 288.02 102.108C288.02 100.587 289.259 99.3623 290.766 99.3623C292.287 99.3623 293.511 100.601 293.511 102.108C293.511 103.629 292.287 104.854 290.766 104.854ZM290.766 99.9818C289.597 99.9818 288.64 100.939 288.64 102.108C288.64 103.277 289.597 104.234 290.766 104.234C291.935 104.234 292.892 103.277 292.892 102.108C292.892 100.939 291.935 99.9818 290.766 99.9818Z" fill="black"/>
<path d="M291.809 86.3037C292.612 85.5009 292.612 84.1993 291.809 83.3965C291.006 82.5937 289.705 82.5937 288.902 83.3965C288.099 84.1993 288.099 85.5009 288.902 86.3037C289.705 87.1065 291.006 87.1065 291.809 86.3037Z" fill="black"/>
</g>
<defs>
<clipPath id="clip0_184_4215">
<rect width="352" height="352" fill="white"/>
</clipPath>
</defs>
</svg>
