<svg width="24" height="24" viewBox="0 0 24 24" fill="none" xmlns="http://www.w3.org/2000/svg">
<g clip-path="url(#clip0_2952_9582)">
<path fill-rule="evenodd" clip-rule="evenodd" d="M22.9001 21.9996V14.9996C22.9001 14.2306 22.5941 13.4926 22.0511 12.9486C21.5071 12.4056 20.7691 12.0996 20.0001 12.0996C16.1681 12.0996 7.83209 12.0996 4.00009 12.0996C3.23109 12.0996 2.4931 12.4056 1.9491 12.9486C1.4061 13.4926 1.1001 14.2306 1.1001 14.9996C1.1001 17.6516 1.1001 21.9996 1.1001 21.9996C1.1001 22.4966 1.50309 22.8996 2.00009 22.8996C2.49709 22.8996 2.90009 22.4966 2.90009 21.9996C2.90009 21.9996 2.90009 17.6516 2.90009 14.9996C2.90009 14.7076 3.01609 14.4276 3.22209 14.2216C3.42809 14.0156 3.70809 13.8996 4.00009 13.8996C7.83209 13.8996 16.1681 13.8996 20.0001 13.8996C20.2921 13.8996 20.5721 14.0156 20.7781 14.2216C20.9841 14.4276 21.1001 14.7076 21.1001 14.9996C21.1001 17.6516 21.1001 21.9996 21.1001 21.9996C21.1001 22.4966 21.5031 22.8996 22.0001 22.8996C22.4971 22.8996 22.9001 22.4966 22.9001 21.9996Z" />
<path fill-rule="evenodd" clip-rule="evenodd" d="M2.00009 17.3996H14.0001C14.4971 17.3996 14.9001 16.9966 14.9001 16.4996C14.9001 16.0026 14.4971 15.5996 14.0001 15.5996H2.00009C1.50309 15.5996 1.1001 16.0026 1.1001 16.4996C1.1001 16.9966 1.50309 17.3996 2.00009 17.3996Z" />
<path fill-rule="evenodd" clip-rule="evenodd" d="M7.00009 1.09961C5.39909 1.09961 4.1001 2.3986 4.1001 3.9996C4.1001 5.6006 5.39909 6.8996 7.00009 6.8996C8.60109 6.8996 9.90009 5.6006 9.90009 3.9996C9.90009 2.3986 8.60109 1.09961 7.00009 1.09961ZM7.00009 2.8996C7.60709 2.8996 8.1001 3.3926 8.1001 3.9996C8.1001 4.6066 7.60709 5.09961 7.00009 5.09961C6.39309 5.09961 5.90009 4.6066 5.90009 3.9996C5.90009 3.3926 6.39309 2.8996 7.00009 2.8996Z" />
<path fill-rule="evenodd" clip-rule="evenodd" d="M3.83606 10.8336C3.83606 10.8336 4.08405 10.2136 4.33305 9.59061C4.50005 9.17361 4.90406 8.8996 5.35406 8.8996C6.33706 8.8996 7.66306 8.8996 8.64606 8.8996C9.09606 8.8996 9.50007 9.17361 9.66707 9.59061C9.91607 10.2136 10.1641 10.8336 10.1641 10.8336C10.3491 11.2946 10.8731 11.5196 11.3341 11.3356C11.7951 11.1506 12.0201 10.6266 11.8361 10.1656C11.8361 10.1656 11.5881 9.54561 11.3391 8.92261C10.8981 7.82161 9.83206 7.09961 8.64606 7.09961C7.66306 7.09961 6.33706 7.09961 5.35406 7.09961C4.16806 7.09961 3.10206 7.82161 2.66106 8.92261C2.41206 9.54561 2.16406 10.1656 2.16406 10.1656C1.98006 10.6266 2.20506 11.1506 2.66606 11.3356C3.12706 11.5196 3.65106 11.2946 3.83606 10.8336ZM20.9001 9.9996C20.9001 9.4956 20.7001 9.01261 20.3431 8.65561C19.9871 8.29961 19.5041 8.09961 19.0001 8.09961C17.8901 8.09961 16.1101 8.09961 15.0001 8.09961C14.4961 8.09961 14.0131 8.29961 13.6571 8.65561C13.3001 9.01261 13.1001 9.4956 13.1001 9.9996V12.9996C13.1001 13.4966 13.5031 13.8996 14.0001 13.8996H20.0001C20.4971 13.8996 20.9001 13.4966 20.9001 12.9996V9.9996ZM19.1001 9.9996C19.1001 9.9726 19.0891 9.94759 19.0711 9.92859C19.0521 9.91059 19.0271 9.8996 19.0001 9.8996C17.8901 9.8996 16.1101 9.8996 15.0001 9.8996C14.9731 9.8996 14.9481 9.91059 14.9291 9.92859C14.9111 9.94759 14.9001 9.9726 14.9001 9.9996V12.0996H19.1001V9.9996Z" />
<path fill-rule="evenodd" clip-rule="evenodd" d="M18.9001 8.9996V4.9996C18.9001 4.5026 18.4971 4.09961 18.0001 4.09961C17.5031 4.09961 17.1001 4.5026 17.1001 4.9996V8.9996C17.1001 9.4966 17.5031 9.8996 18.0001 9.8996C18.4971 9.8996 18.9001 9.4966 18.9001 8.9996Z" />
<path fill-rule="evenodd" clip-rule="evenodd" d="M20.0001 4.09961H16.0001C15.5031 4.09961 15.1001 4.5026 15.1001 4.9996C15.1001 5.4966 15.5031 5.8996 16.0001 5.8996H20.0001C20.4971 5.8996 20.9001 5.4966 20.9001 4.9996C20.9001 4.5026 20.4971 4.09961 20.0001 4.09961Z" />
</g>
<defs>
<clipPath id="clip0_2952_9582">
<rect width="24" height="24" fill="white"/>
</clipPath>
</defs>
</svg>
