<svg width="25" height="25" viewBox="0 0 25 25" fill="none" xmlns="http://www.w3.org/2000/svg">
<path d="M9.1325 7.76562V8.66073C7.93339 8.94579 6.98513 9.8902 6.69992 11.0932H5.80908H5.68408V11.2182V12.4783V12.6033H5.80908H6.70421C6.84441 13.1929 7.14534 13.7329 7.57444 14.1627C8.00357 14.5926 8.54309 14.8945 9.1325 15.0356V15.9309V16.0559H9.2575H10.5176H10.6426V15.9309V15.0358C11.8417 14.7508 12.79 13.8064 13.0752 12.6033H13.9702H14.0952V12.4783V11.2182V11.0932H13.9702H13.0749C12.9339 10.5034 12.6322 9.96329 12.2023 9.53348C11.7725 9.10367 11.2325 8.80194 10.6426 8.66089V7.76562V7.64062H10.5176H9.2575H9.1325V7.76562ZM18.1411 7.64062H18.0161V7.76562V15.9267V16.0517H18.1411H19.4012H19.5262V15.9267V7.76562V7.64062H19.4012H18.1411ZM9.88754 10.0832C10.8602 10.0832 11.6527 10.8757 11.6527 11.8483C11.6527 12.8209 10.8602 13.6134 9.88754 13.6134C8.91491 13.6134 8.12242 12.8209 8.12242 11.8483C8.12242 10.8757 8.91491 10.0832 9.88754 10.0832Z"  stroke-width="0.25"/>
<path d="M18.8582 21.1941H21.7406C22.1583 21.1941 22.4957 20.8567 22.4957 20.439V3.25992C22.4957 2.84227 22.1583 2.50488 21.7406 2.50488H3.25943C2.84178 2.50488 2.50439 2.84227 2.50439 3.25992V20.439C2.50439 20.8567 2.84178 21.1941 3.25943 21.1941H6.14603V22.3711V22.4961H6.27103H7.53111H7.65611V22.3711V21.1941H17.3481V22.3711V22.4961H17.4731H18.7332H18.8582V22.3711V21.1941ZM20.9856 19.684H4.01448V4.01496H20.9856V19.684Z"  stroke-width="0.25"/>
</svg>
