<svg width="25" height="25" viewBox="0 0 25 25" fill="none" xmlns="http://www.w3.org/2000/svg">
<path d="M15.6739 2.22481C15.7103 2.07623 15.7194 1.92184 15.7005 1.76921C15.6754 1.56699 15.6017 1.37386 15.4856 1.20634C15.3696 1.03882 15.2147 0.901901 15.0343 0.807293C14.8538 0.712685 14.6531 0.663205 14.4493 0.663086H14.4492L10.5481 0.663086C10.5481 0.663086 10.5481 0.663086 10.548 0.663086C10.3442 0.663043 10.1433 0.71242 9.96266 0.806988C9.78202 0.901561 9.62699 1.03851 9.51086 1.20611C9.39473 1.3737 9.32095 1.56695 9.29584 1.7693C9.27691 1.92191 9.28609 2.07626 9.32248 2.22481L8.95138 2.22481C8.95135 2.22481 8.95132 2.22481 8.95129 2.22481H8.95119V2.34981M15.6739 2.22481L9.33425 6.03408M15.6739 2.22481H16.0452M15.6739 2.22481H16.0452M8.95119 2.34981C8.73852 2.34949 8.53003 2.40892 8.34949 2.52131C8.16894 2.6337 8.02359 2.79455 7.93 2.98552C7.8364 3.17649 7.79833 3.38991 7.82011 3.60146C7.84189 3.81302 7.92266 4.0142 8.0532 4.18209M8.95119 2.34981H9.36005H8.95119ZM8.0532 4.18209L7.95451 4.2588L7.95452 4.25882L8.0532 4.18209ZM8.0532 4.18209L9.43491 5.95989C9.4001 5.98301 9.36652 6.00778 9.33425 6.03408M9.33425 6.03408C9.22778 6.12086 9.13569 6.22434 9.0617 6.34076C8.96344 6.49535 8.89938 6.66917 8.87382 6.85055C8.84826 7.03194 8.86179 7.21669 8.91349 7.39242C8.95058 7.51844 9.00668 7.63774 9.07961 7.74627C7.22478 8.75313 5.72095 10.5461 4.67512 12.4641C3.60504 14.4266 3.00488 16.5376 3.00488 18.1033C3.00488 20.1148 3.85748 21.6822 5.48075 22.7408C7.09669 23.7947 9.46706 24.3389 12.5002 24.3389C15.5333 24.3389 17.9037 23.7947 19.5196 22.7408C21.1429 21.6822 21.9955 20.1148 21.9955 18.1033C21.9955 16.5376 21.3954 14.4266 20.3253 12.4642C19.2794 10.5462 17.7756 8.75332 15.9208 7.74665M9.33425 6.03408L15.9208 7.74665M15.9208 7.74665C15.9938 7.63794 16.05 7.51844 16.087 7.3922C16.1387 7.21625 16.1521 7.03128 16.1263 6.84972C16.1006 6.66816 16.0362 6.49423 15.9376 6.33961C15.8634 6.22321 15.7711 6.11979 15.6644 6.03313L17.0418 4.26179C17.0418 4.26174 17.0419 4.26169 17.0419 4.26164C17.1875 4.07528 17.2777 3.85173 17.3023 3.61654C17.3268 3.38128 17.2847 3.14385 17.1807 2.93139C17.0768 2.71893 16.9151 2.54 16.7143 2.41505C16.5135 2.29014 16.2816 2.22421 16.0452 2.22481M15.9208 7.74665L16.0452 2.22481M16.0452 2.22481H16.0453V2.34981L16.045 2.22481C16.045 2.22481 16.0451 2.22481 16.0452 2.22481ZM8.7418 3.38826L8.74176 3.38824C8.72282 3.42561 8.71513 3.46767 8.71961 3.50933C8.72409 3.55098 8.74056 3.59045 8.76701 3.62294L8.76883 3.62517L8.76881 3.62519L10.4101 5.73867H14.5864L16.2297 3.62667L16.2312 3.62477L16.2312 3.62478C16.2577 3.59201 16.2742 3.55224 16.2786 3.5103C16.283 3.46837 16.2752 3.42605 16.256 3.38847L16.2544 3.38523L16.2544 3.3852C16.2359 3.34612 16.2066 3.31315 16.17 3.29019C16.1333 3.26723 16.0909 3.25525 16.0476 3.25566L16.0465 3.25567L15.2976 3.25566L14.8376 4.48325L14.8376 4.48339C14.8006 4.5816 14.7346 4.6662 14.6483 4.72588L14.5772 4.62307L14.6483 4.72588C14.562 4.78557 14.4595 4.81749 14.3546 4.81738L14.354 4.81738C14.293 4.81702 14.2325 4.80613 14.1752 4.7852L14.1745 4.78493C14.1109 4.76125 14.0526 4.72527 14.003 4.67904C13.9534 4.63282 13.9134 4.57725 13.8853 4.51553C13.8572 4.45381 13.8415 4.38714 13.8392 4.31937C13.8369 4.25162 13.848 4.18409 13.8719 4.12063L8.7418 3.38826ZM8.7418 3.38826L8.74325 3.3852C8.76174 3.34612 8.79104 3.31315 8.82768 3.29019C8.86433 3.26723 8.90677 3.25525 8.95001 3.25566L8.95001 3.25566H8.95119H9.70008L8.7418 3.38826ZM14.4575 2.55891L13.8719 4.12054L10.91 4.58742C10.9475 4.55237 10.9777 4.51027 10.9989 4.46352C11.0201 4.41678 11.0319 4.36631 11.0336 4.315C11.0353 4.2637 11.0269 4.21256 11.0088 4.16452L11.1258 4.12063L11.1257 4.12045L10.5402 2.55891L10.5401 2.55882L10.332 2.00522C10.332 2.00521 10.332 2.0052 10.332 2.00519C10.3189 1.97033 10.3145 1.93282 10.3191 1.89587C10.3237 1.8589 10.3371 1.82361 10.3584 1.793C10.3796 1.76239 10.4079 1.73739 10.4409 1.72014C10.4739 1.70289 10.5106 1.6939 10.5479 1.69395H10.548L14.4492 1.69395L14.4493 1.69395C14.4866 1.69392 14.5233 1.70292 14.5563 1.72018C14.5894 1.73744 14.6177 1.76245 14.639 1.79306C14.6602 1.82368 14.6738 1.85898 14.6784 1.89596C14.683 1.93294 14.6786 1.9705 14.6656 2.0054L14.4575 2.55882L14.4575 2.55891ZM14.7206 4.43939L15.211 3.13066L14.7206 4.43939ZM10.1576 7.30039C10.0872 7.30039 10.0197 7.27243 9.96993 7.22265C9.92015 7.17287 9.89219 7.10536 9.89219 7.03496C9.89219 6.96457 9.92015 6.89705 9.96993 6.84728C10.0197 6.7975 10.0872 6.76953 10.1576 6.76953H14.8428C14.9132 6.76953 14.9807 6.7975 15.0305 6.84728C15.0802 6.89705 15.1082 6.96457 15.1082 7.03496C15.1082 7.10536 15.0802 7.17287 15.0305 7.22265C14.9807 7.27243 14.9132 7.30039 14.8428 7.30039H10.1576ZM12.5002 23.308C10.9013 23.308 8.77452 23.1349 7.05189 22.3924C6.19193 22.0217 5.43864 21.5117 4.90057 20.816C4.36385 20.1221 4.03574 19.2366 4.03574 18.1033C4.03574 16.6101 4.64216 14.5355 5.73278 12.6438C6.81915 10.7596 8.37393 9.07767 10.2594 8.33125H14.741C16.6274 9.07767 18.1822 10.7596 19.2683 12.6438C20.3587 14.5354 20.9647 16.6101 20.9647 18.1033C20.9647 19.2366 20.6365 20.1221 20.0998 20.816C19.5618 21.5117 18.8085 22.0217 17.9485 22.3924C16.2259 23.1349 14.0991 23.308 12.5002 23.308Z"  stroke-width="0.25"/>
<path d="M15.7484 15.2827C15.8282 15.3294 15.9197 15.3542 16.0136 15.3534C16.1487 15.3522 16.278 15.298 16.3735 15.2024C16.4691 15.1069 16.5233 14.9776 16.5245 14.8425C16.5257 14.7073 16.4737 14.5771 16.3798 14.4799L16.3798 14.4799L16.3783 14.4784L15.5974 13.6975L15.5974 13.6975C15.5008 13.6009 15.3697 13.5466 15.233 13.5466C15.0963 13.5466 14.9653 13.6009 14.8686 13.6975L14.8686 13.6975L14.0877 14.4784L14.0877 14.4783L14.0862 14.4799C13.9923 14.5771 13.9404 14.7073 13.9415 14.8425C13.9427 14.9776 13.9969 15.1069 14.0925 15.2024C14.188 15.298 14.3173 15.3522 14.4525 15.3534C14.5464 15.3542 14.6379 15.3294 14.7176 15.2827V19.0125H14.1867V16.4045C14.1867 16.2678 14.1324 16.1367 14.0358 16.04C13.9391 15.9434 13.808 15.8891 13.6713 15.8891C13.5346 15.8891 13.4035 15.9434 13.3068 16.04C13.2102 16.1367 13.1559 16.2678 13.1559 16.4045V19.0125H12.625V16.7949C12.625 16.6582 12.5707 16.5271 12.474 16.4305C12.3774 16.3338 12.2463 16.2795 12.1096 16.2795C11.9729 16.2795 11.8418 16.3338 11.7451 16.4305C11.6484 16.5271 11.5941 16.6582 11.5941 16.7949V19.0125H11.0633V17.5758C11.0633 17.4391 11.009 17.308 10.9123 17.2113C10.8157 17.1147 10.6846 17.0604 10.5479 17.0604C10.4112 17.0604 10.28 17.1147 10.1834 17.2113C10.0867 17.308 10.0324 17.4391 10.0324 17.5758V19.0125H9.50156V13.2811C9.50156 13.1444 9.44726 13.0133 9.3506 12.9166C9.25394 12.8199 9.12283 12.7656 8.98613 12.7656C8.84943 12.7656 8.71833 12.8199 8.62167 12.9166C8.52501 13.0133 8.4707 13.1444 8.4707 13.2811V19.5279C8.4707 19.6646 8.52501 19.7957 8.62167 19.8924C8.71833 19.9891 8.84943 20.0434 8.98613 20.0434H16.0139C16.1506 20.0434 16.2817 19.9891 16.3783 19.8924C16.475 19.7957 16.5293 19.6646 16.5293 19.5279C16.5293 19.3912 16.475 19.2601 16.3783 19.1635C16.2817 19.0668 16.1506 19.0125 16.0139 19.0125H15.7484V15.2827Z"  stroke-width="0.25" stroke-linejoin="round"/>
</svg>
