<svg width="28" height="28" viewBox="0 0 28 28" fill="none" xmlns="http://www.w3.org/2000/svg">
<g clip-path="url(#clip0_4451_12148)">
<path d="M8.16832 6.33333C9.45505 6.33333 10.5015 5.36158 10.5015 4.16667C10.5015 2.97175 9.45505 2 8.16832 2C6.88159 2 5.83518 2.97175 5.83518 4.16667C5.83518 5.36158 6.88159 6.33333 8.16832 6.33333ZM8.16832 3.08333C8.8111 3.08333 9.33489 3.56975 9.33489 4.16667C9.33489 4.76358 8.8111 5.25 8.16832 5.25C7.52554 5.25 7.00175 4.76358 7.00175 4.16667C7.00175 3.56975 7.52554 3.08333 8.16832 3.08333ZM14.0012 9.58333C15.2879 9.58333 16.3343 8.61158 16.3343 7.41667C16.3343 6.22175 15.2879 5.25 14.0012 5.25C12.7144 5.25 11.668 6.22175 11.668 7.41667C11.668 8.61158 12.7144 9.58333 14.0012 9.58333ZM14.0012 6.33333C14.6439 6.33333 15.1677 6.81975 15.1677 7.41667C15.1677 8.01358 14.6439 8.5 14.0012 8.5C13.3584 8.5 12.8346 8.01358 12.8346 7.41667C12.8346 6.81975 13.3584 6.33333 14.0012 6.33333ZM19.834 6.33333C21.1207 6.33333 22.1672 5.36158 22.1672 4.16667C22.1672 2.97175 21.1207 2 19.834 2C18.5473 2 17.5009 2.97175 17.5009 4.16667C17.5009 5.36158 18.5473 6.33333 19.834 6.33333ZM19.834 3.08333C20.4768 3.08333 21.0006 3.56975 21.0006 4.16667C21.0006 4.76358 20.4768 5.25 19.834 5.25C19.1912 5.25 18.6674 4.76358 18.6674 4.16667C18.6674 3.56975 19.1912 3.08333 19.834 3.08333ZM28 9.04167V19.9844C28 22.1543 27.0901 24.1953 25.437 25.7293L23.1622 27.8418C23.0479 27.948 22.8986 28 22.7493 28C22.6 28 22.4506 27.9469 22.3363 27.8418C22.1088 27.6306 22.1088 27.2872 22.3363 27.0759L24.6111 24.9634C26.0437 23.6331 26.8323 21.8651 26.8323 19.9844V9.04167C26.8323 8.14575 26.0472 7.41667 25.0824 7.41667C24.1177 7.41667 23.3326 8.14575 23.3326 9.04167C23.3326 9.04167 23.3221 17.7484 23.3197 17.7701C23.3046 18.367 23.0876 18.9607 22.6513 19.4428L19.5739 22.4176C19.4595 22.5281 19.3067 22.5833 19.1539 22.5833C19.0081 22.5833 18.8623 22.5335 18.7491 22.4317C18.517 22.2248 18.51 21.8813 18.7328 21.6658L21.7845 18.718C22.0482 18.4255 22.1765 18.0518 22.1672 17.6758V17.6715C22.1567 17.2956 22.0097 16.9197 21.7215 16.6207C21.0799 15.9566 19.9752 15.8992 19.2566 16.495L16.073 19.2163C15.4652 19.7363 14.9939 20.3582 14.6404 21.0493C14.9799 21.8564 15.1677 22.7198 15.1677 23.6017V27.4573C15.1677 27.7563 14.9064 27.9989 14.5845 27.9989C14.2625 27.9989 14.0012 27.7563 14.0012 27.4573V23.6017C14.0012 21.9398 13.2464 20.3419 11.9293 19.2174L8.73994 16.4918C8.0295 15.9003 6.92242 15.9566 6.28081 16.6218C5.70452 17.2187 5.68936 18.1319 6.24348 18.7451L9.26839 21.6647C9.49121 21.8803 9.48421 22.2237 9.25206 22.4306C9.01875 22.6386 8.65011 22.631 8.4273 22.4154L5.37555 19.4677C4.93226 18.9791 4.69194 18.3876 4.66744 17.795C4.66161 17.7647 4.66744 9.0395 4.66744 9.0395C4.66744 8.14358 3.88234 7.4145 2.91759 7.4145C1.95284 7.4145 1.16774 8.14358 1.16774 9.0395V19.9823C1.16774 21.8629 1.95634 23.632 3.38888 24.9613L5.66369 27.0738C5.89118 27.285 5.89118 27.6284 5.66369 27.8397C5.54937 27.9458 5.40005 27.9978 5.25073 27.9978C5.10141 27.9978 4.95209 27.9448 4.83776 27.8397L2.56295 25.7272C0.909924 24.1921 0 22.1522 0 19.9823V9.04167C0 7.54883 1.30889 6.33333 2.91642 6.33333C4.25681 6.33333 5.37672 7.18158 5.71619 8.32775C6.36247 7.7655 7.22573 7.41667 8.16599 7.41667C8.64778 7.41667 9.11441 7.50333 9.55654 7.6745C9.85401 7.78933 9.994 8.10675 9.87034 8.383C9.74669 8.65925 9.40605 8.79142 9.10741 8.67442C8.80877 8.55958 8.49146 8.5 8.16482 8.5C7.04491 8.5 6.07199 9.21283 5.83168 10.1987V15.5417C6.92009 14.7844 8.46929 14.8169 9.52037 15.6901L12.7156 18.4212C13.2172 18.8491 13.6407 19.3409 13.9965 19.8685C14.3535 19.3377 14.7781 18.8502 15.2797 18.4212L18.4691 15.6955C19.5249 14.8169 21.0752 14.7844 22.1637 15.5417V10.1987C21.9233 9.21283 20.9504 8.5 19.8305 8.5C19.5039 8.5 19.1866 8.5585 18.8879 8.67442C18.5928 8.79033 18.2498 8.65925 18.125 8.383C18.0013 8.10675 18.1413 7.78933 18.4388 7.6745C18.8809 7.50333 19.3487 7.41667 19.8293 7.41667C20.7696 7.41667 21.6329 7.7655 22.2791 8.32775C22.6198 7.18267 23.7397 6.33333 25.0789 6.33333C26.6864 6.33333 27.9953 7.54883 27.9953 9.04167H28ZM9.78635 13.1378C10.5866 11.6135 12.2233 10.6667 14.0595 10.6667C15.8957 10.6667 17.5335 11.6135 18.3326 13.1378C18.4738 13.4075 18.3081 13.9589 17.8088 13.9167C17.5919 13.9167 17.3854 13.8051 17.2839 13.6123C16.6808 12.4628 15.4454 11.75 14.0583 11.75C12.6713 11.75 11.4359 12.4639 10.8328 13.6123C10.6916 13.8809 10.344 13.9947 10.0535 13.8614C9.76419 13.7303 9.64403 13.4064 9.78518 13.1378H9.78635Z" fill="currentColor" stroke="currentColor" stroke-width="0.5"/>
</g>
<defs>
<clipPath id="clip0_4451_12148">
<rect width="28" height="28" fill="currentColor"/>
</clipPath>
</defs>
</svg>
