<svg width="25" height="25" viewBox="0 0 25 25" fill="none" xmlns="http://www.w3.org/2000/svg">
<path d="M17.1875 0C12.8062 0 9.375 2.05937 9.375 4.6875V7.38229C8.87083 7.32292 8.34896 7.29167 7.8125 7.29167C3.43125 7.29167 0 9.35104 0 11.9792V20.3125C0 22.9406 3.43125 25 7.8125 25C11.3708 25 14.3031 23.6417 15.2781 21.7229C15.9 21.8135 16.5354 21.875 17.1875 21.875C21.5687 21.875 25 19.8156 25 17.1875V4.6875C25 2.05937 21.5687 0 17.1875 0ZM17.1875 2.08333C20.4667 2.08333 22.9167 3.45833 22.9167 4.6875C22.9167 5.91667 20.4667 7.29167 17.1875 7.29167C13.9083 7.29167 11.4583 5.91667 11.4583 4.6875C11.4583 3.45833 13.9083 2.08333 17.1875 2.08333ZM7.8125 9.375C11.0917 9.375 13.5417 10.75 13.5417 11.9792C13.5417 13.2083 11.0917 14.5833 7.8125 14.5833C4.53333 14.5833 2.08333 13.2083 2.08333 11.9792C2.08333 10.75 4.53333 9.375 7.8125 9.375ZM2.08333 15.1896C3.5 16.101 5.52396 16.6667 7.8125 16.6667C10.101 16.6667 12.125 16.101 13.5417 15.1896V16.1458C13.5417 17.375 11.0917 18.75 7.8125 18.75C4.53333 18.75 2.08333 17.375 2.08333 16.1458V15.1896ZM7.8125 22.9167C4.53333 22.9167 2.08333 21.5417 2.08333 20.3125V19.3563C3.5 20.2677 5.52396 20.8333 7.8125 20.8333C10.101 20.8333 12.125 20.2677 13.5417 19.3563V20.3125C13.5417 21.5417 11.0917 22.9167 7.8125 22.9167ZM17.1875 19.7917C16.6521 19.7917 16.1333 19.7427 15.625 19.6708V17.6083C16.1375 17.6687 16.6562 17.7083 17.1875 17.7083C19.476 17.7083 21.5 17.1427 22.9167 16.2312V17.1875C22.9167 18.4167 20.4667 19.7917 17.1875 19.7917ZM17.1875 15.625C16.6521 15.625 16.1333 15.576 15.625 15.5042V13.4417C16.1375 13.5021 16.6562 13.5417 17.1875 13.5417C19.476 13.5417 21.5 12.976 22.9167 12.0646V13.0208C22.9167 14.25 20.4667 15.625 17.1875 15.625ZM17.1875 11.4583C16.6229 11.4583 16.0771 11.4052 15.5437 11.326C15.3375 10.4021 14.701 9.57187 13.751 8.90833C14.7844 9.20521 15.9448 9.37604 17.1875 9.37604C19.476 9.37604 21.5 8.81042 22.9167 7.89896V8.85521C22.9167 10.0844 20.4667 11.4594 17.1875 11.4594V11.4583Z" />
</svg>
