<svg width="31" height="31" viewBox="0 0 31 31" fill="none" xmlns="http://www.w3.org/2000/svg">
<g id="add-to-favorites 1" clip-path="url(#clip0_3571_10729)">
<g id="a">
<g id="Group">
<path id="Vector" d="M15.5015 4.27484L17.2119 2.81868C17.7127 2.42452 18.2485 2.09515 18.8134 1.84267C19.7604 1.41945 20.7878 1.21056 21.8765 1.26142C26.3799 1.52116 30.7321 6.07308 30.9821 11.0658C31.0197 11.9934 30.93 12.8689 30.7405 13.7026C30.436 14.9208 29.7675 16.343 29.7669 16.3442C28.4295 18.9532 26.2467 21.1305 24.3014 22.9021C22.267 24.753 20.6655 25.9706 18.0796 27.9135L15.5021 29.7439L12.9246 27.9135C10.3381 25.97 8.73659 24.753 6.70282 22.9021C4.75744 21.1305 2.57473 18.9532 1.23725 16.3442C1.23664 16.343 0.568207 14.9208 0.263656 13.7026C0.0741442 12.8689 -0.0154652 11.9934 0.0220739 11.0658C0.270922 6.07308 4.62303 1.52116 9.12651 1.26142C10.2157 1.21056 11.2432 1.41945 12.1896 1.84267C12.7545 2.09515 13.2909 2.42452 13.791 2.81868L15.5015 4.27484Z" fill="#E03757"/>
<path id="Vector_2" d="M18.8133 1.84327C18.2484 2.09575 17.7119 2.42513 17.2118 2.81929L15.5014 4.27544L13.7909 2.81929C13.2902 2.42513 12.7543 2.09575 12.1894 1.84327C11.2425 1.42005 10.215 1.21116 9.12637 1.26202C4.62289 1.52177 0.270785 6.07368 0.0201208 11.0664C-0.0174183 11.994 0.0721911 12.8695 0.261703 13.7032C0.566254 14.9214 1.23469 16.3436 1.2353 16.3449C2.2985 18.418 3.89452 20.218 5.48145 21.759C6.08994 21.8262 6.70813 21.8607 7.33479 21.8607C16.5857 21.8607 24.0851 14.3613 24.0851 5.11038C24.0851 3.90732 23.9579 2.73392 23.7164 1.6029C23.1127 1.4146 22.4957 1.29714 21.8757 1.26142C20.7865 1.21056 19.759 1.41945 18.8127 1.84267L18.8133 1.84327Z" fill="#F04760"/>
<path id="Vector_3" d="M25.2903 18.3242C22.1364 18.3242 19.5801 20.8805 19.5801 24.0344C19.5801 27.1883 22.1364 29.7446 25.2903 29.7446C28.4441 29.7446 31.0004 27.1883 31.0004 24.0344C31.0004 20.8805 28.4441 18.3242 25.2903 18.3242Z" fill="#454565"/>
<path id="Vector_4" d="M28.9655 24.8249C28.8862 25.1343 28.5696 25.3916 28.2565 25.4328C28.1633 25.4497 27.3659 25.4734 26.7731 25.4915C26.755 26.0843 26.7313 26.8817 26.7144 26.9749C26.6732 27.2879 26.4153 27.6052 26.1065 27.6839C25.92 27.7299 25.6651 27.776 25.3164 27.7766C24.9676 27.776 24.7127 27.7299 24.5262 27.6839C24.2168 27.6046 23.9595 27.2879 23.9183 26.9749C23.9014 26.8817 23.8778 26.0843 23.8596 25.4915C23.2669 25.4734 22.4222 25.4497 22.329 25.4328C22.016 25.3916 21.6987 25.1337 21.62 24.8249C21.574 24.6384 21.5279 24.3835 21.5273 24.0348C21.5279 23.686 21.574 23.4311 21.62 23.2446C21.6993 22.9352 22.016 22.6779 22.329 22.6367C22.4222 22.6198 23.2669 22.5962 23.8596 22.578C23.8778 21.9853 23.9014 21.1879 23.9183 21.0946C23.9595 20.7816 24.2174 20.4643 24.5262 20.3856C24.7127 20.3396 24.9676 20.2936 25.3164 20.293C25.6651 20.2936 25.92 20.3396 26.1065 20.3856C26.4159 20.4649 26.6732 20.7816 26.7144 21.0946C26.7313 21.1879 26.755 21.9853 26.7731 22.578C27.3659 22.5962 28.1633 22.6198 28.2565 22.6367C28.5696 22.6779 28.8868 22.9358 28.9655 23.2446C29.0115 23.4311 29.0576 23.686 29.0582 24.0348C29.0576 24.3835 29.0115 24.6384 28.9655 24.8249Z" fill="white"/>
</g>
</g>
</g>
<defs>
<clipPath id="clip0_3571_10729">
<rect width="31" height="31" fill="white"/>
</clipPath>
</defs>
</svg>
