<svg width="20" height="20" viewBox="0 0 20 20" fill="none" xmlns="http://www.w3.org/2000/svg">
<g clip-path="url(#clip0_2035_8089)">
<path d="M0 10C0 11.9778 0.58649 13.9112 1.6853 15.5557C2.78412 17.2002 4.3459 18.4819 6.17317 19.2388C8.00043 19.9957 10.0111 20.1937 11.9509 19.8079C13.8907 19.422 15.6725 18.4696 17.0711 17.0711C18.4696 15.6725 19.422 13.8907 19.8079 11.9509C20.1937 10.0111 19.9957 8.00043 19.2388 6.17317C18.4819 4.3459 17.2002 2.78412 15.5557 1.6853C13.9112 0.58649 11.9778 0 10 0C7.34872 0.00286757 4.80684 1.05736 2.9321 2.9321C1.05736 4.80684 0.00286757 7.34872 0 10ZM13.3333 10C13.334 10.61 13.111 11.1991 12.7067 11.6558C12.4642 11.9283 12.2283 12.1867 12.0592 12.3558L9.70583 14.75C9.63048 14.8332 9.53909 14.9004 9.43715 14.9474C9.3352 14.9944 9.2248 15.0204 9.11259 15.0237C9.00037 15.027 8.88864 15.0075 8.7841 14.9666C8.67957 14.9256 8.58439 14.864 8.50428 14.7853C8.42417 14.7067 8.36077 14.6127 8.3179 14.5089C8.27503 14.4051 8.25357 14.2938 8.25481 14.1815C8.25604 14.0693 8.27995 13.9584 8.32509 13.8556C8.37023 13.7528 8.43568 13.6602 8.5175 13.5833L10.875 11.1833C11.0308 11.0267 11.2425 10.7933 11.4583 10.5508C11.5926 10.3986 11.6667 10.2026 11.6667 9.99958C11.6667 9.79659 11.5926 9.60057 11.4583 9.44833C11.2433 9.20667 11.0317 8.97333 10.8808 8.82167L8.5175 6.41667C8.43568 6.3398 8.37023 6.24718 8.32509 6.14439C8.27995 6.0416 8.25604 5.93074 8.25481 5.81848C8.25357 5.70622 8.27503 5.59487 8.3179 5.49111C8.36077 5.38735 8.42417 5.29332 8.50428 5.21467C8.58439 5.13601 8.67957 5.07436 8.7841 5.03341C8.88864 4.99245 9.00037 4.97304 9.11259 4.97634C9.2248 4.97964 9.3352 5.00559 9.43715 5.05261C9.53909 5.09964 9.63048 5.16678 9.70583 5.25L12.0633 7.64917C12.23 7.81583 12.4633 8.07167 12.7042 8.34333C13.1098 8.7998 13.3337 9.38934 13.3333 10Z" fill="#1F3C66"/>
</g>
<defs>
<clipPath id="clip0_2035_8089">
<rect width="20" height="20" fill="white"/>
</clipPath>
</defs>
</svg>
