<svg width="13" height="24" viewBox="0 0 13 24" fill="none" xmlns="http://www.w3.org/2000/svg">
<path d="M1.99994 24.0002C1.86833 24.0009 1.73787 23.9757 1.61603 23.9259C1.4942 23.8762 1.38338 23.8028 1.28994 23.7102C1.19621 23.6172 1.12182 23.5066 1.07105 23.3847C1.02028 23.2629 0.994141 23.1322 0.994141 23.0002C0.994141 22.8681 1.02028 22.7374 1.07105 22.6156C1.12182 22.4937 1.19621 22.3831 1.28994 22.2902L9.45994 14.1202C10.0217 13.5577 10.3373 12.7952 10.3373 12.0002C10.3373 11.2052 10.0217 10.4427 9.45994 9.88017L1.28994 1.71018C1.10164 1.52188 0.995847 1.26649 0.995847 1.00018C0.995847 0.733883 1.10164 0.478489 1.28994 0.290185C1.47824 0.101882 1.73364 -0.00390625 1.99994 -0.00390625C2.26624 -0.00390625 2.52164 0.101882 2.70994 0.290185L10.8799 8.46017C11.3456 8.92463 11.715 9.47639 11.9671 10.0838C12.2191 10.6913 12.3489 11.3425 12.3489 12.0002C12.3489 12.6578 12.2191 13.3091 11.9671 13.9165C11.715 14.524 11.3456 15.0757 10.8799 15.5402L2.70994 23.7102C2.6165 23.8028 2.50568 23.8762 2.38385 23.9259C2.26201 23.9757 2.13155 24.0009 1.99994 24.0002Z" fill="#1F3C66"/>
</svg>
