<svg width="13" height="24" viewBox="0 0 13 24" fill="none" xmlns="http://www.w3.org/2000/svg">
<path d="M11.17 24.0002C11.0384 24.0009 10.9079 23.9757 10.7861 23.9259C10.6642 23.8762 10.5534 23.8028 10.46 23.7102L2.28998 15.5402C1.82435 15.0757 1.45492 14.524 1.20286 13.9165C0.950793 13.3091 0.821045 12.6578 0.821045 12.0002C0.821045 11.3425 0.950793 10.6913 1.20286 10.0838C1.45492 9.47639 1.82435 8.92463 2.28998 8.46017L10.46 0.290185C10.5532 0.196947 10.6639 0.122986 10.7857 0.0725256C10.9076 0.0220653 11.0381 -0.00390625 11.17 -0.00390625C11.3018 -0.00390625 11.4324 0.0220653 11.5542 0.0725256C11.6761 0.122986 11.7867 0.196947 11.88 0.290185C11.9732 0.383423 12.0472 0.494114 12.0976 0.615935C12.1481 0.737757 12.1741 0.868325 12.1741 1.00018C12.1741 1.13204 12.1481 1.26261 12.0976 1.38443C12.0472 1.50625 11.9732 1.61694 11.88 1.71018L3.70998 9.88017C3.14818 10.4427 2.83262 11.2052 2.83262 12.0002C2.83262 12.7952 3.14818 13.5577 3.70998 14.1202L11.88 22.2902C11.9737 22.3831 12.0481 22.4937 12.0989 22.6156C12.1496 22.7374 12.1758 22.8681 12.1758 23.0002C12.1758 23.1322 12.1496 23.2629 12.0989 23.3847C12.0481 23.5066 11.9737 23.6172 11.88 23.7102C11.7865 23.8028 11.6757 23.8762 11.5539 23.9259C11.4321 23.9757 11.3016 24.0009 11.17 24.0002Z" fill="#1F3C66"/>
</svg>
