<svg width="20" height="26" viewBox="0 0 20 26" fill="none" xmlns="http://www.w3.org/2000/svg">
<path d="M10 0.75C9.21692 0.75 8.65431 1.24684 8.1748 1.66772C7.69535 2.08861 7.27539 2.44402 6.8717 2.50513C6.47257 2.56555 5.69181 2.15856 4.94141 1.76086C4.56621 1.56202 4.19728 1.37318 3.79212 1.31311C3.38695 1.25304 2.88603 1.41767 2.6283 1.83093C2.25515 2.42927 2.41855 3.13965 2.75989 3.72705C3.10122 4.31446 3.62828 4.86541 4.18006 5.36084C5.28352 6.3517 6.50598 7.10999 6.50598 7.10999C6.57516 7.15329 6.65508 7.17637 6.7367 7.17664H13.2625C13.3444 7.17653 13.4246 7.15344 13.494 7.10999C13.494 7.10999 14.7156 6.3517 15.8191 5.36084C16.3708 4.86541 16.8979 4.31446 17.2393 3.72705C17.5805 3.13965 17.744 2.42927 17.3709 1.83093C17.1131 1.41767 16.6122 1.25304 16.207 1.31311C15.8019 1.37318 15.4329 1.56202 15.0577 1.76086C14.3074 2.15856 13.5266 2.56555 13.1274 2.50513C12.7238 2.44402 12.3038 2.08861 11.8243 1.66772C11.3449 1.24684 10.7831 0.75 10 0.75ZM6.74182 8.05164C6.68716 8.05154 6.63296 8.06168 6.58203 8.08154C4.7003 8.8178 3.17116 10.5797 2.08996 12.6394C1.00877 14.6991 0.375 17.0704 0.375 19.125C0.375 21.7803 1.53252 23.4224 3.31616 24.2673C5.09981 25.1123 7.44531 25.25 10 25.25C12.5547 25.25 14.9002 25.1123 16.6838 24.2673C18.4675 23.4224 19.625 21.7803 19.625 19.125C19.625 17.0704 18.9904 14.6991 17.9092 12.6394C16.828 10.5797 15.2989 8.8178 13.4171 8.08154C13.3665 8.06178 13.3126 8.05164 13.2582 8.05163L6.74182 8.05164ZM8.38587 13.5879H11.6141C11.7366 13.5879 11.8419 13.632 11.9294 13.7195C12.0169 13.8011 12.0602 13.9065 12.0602 14.0348C12.0602 14.1573 12.017 14.259 11.9294 14.3407C11.8419 14.4224 11.7366 14.4629 11.6141 14.4629H10.8511C10.9778 14.5587 11.0877 14.6712 11.1766 14.8047C11.214 14.8608 11.2458 14.9196 11.2732 14.9799H11.6141C11.7366 14.9799 11.8419 15.0231 11.9294 15.1106C12.0169 15.1923 12.0602 15.2949 12.0602 15.4174C12.0602 15.5399 12.017 15.6443 11.9294 15.7318C11.8419 15.8135 11.7366 15.8549 11.6141 15.8549H11.3407C11.3177 15.9398 11.2874 16.0248 11.2467 16.1086C11.1592 16.2953 11.043 16.4645 10.8972 16.6162C10.7698 16.7488 10.6259 16.8546 10.4717 16.9426C10.556 16.9959 10.6381 17.0569 10.7135 17.1323C10.8418 17.2548 10.9463 17.3944 11.028 17.5519C11.1096 17.7094 11.1564 17.8813 11.1681 18.068C11.1856 18.2488 11.2 18.4009 11.2117 18.5234C11.2233 18.6401 11.244 18.7364 11.2732 18.8123C11.3082 18.8881 11.3604 18.9466 11.4304 18.9874C11.5004 19.0283 11.5535 19.0805 11.5885 19.1447C11.6235 19.203 11.6406 19.2669 11.6406 19.3369C11.6406 19.4477 11.6001 19.5386 11.5184 19.6086C11.4426 19.6786 11.34 19.7129 11.2117 19.7129C11.1183 19.7129 11.0166 19.6903 10.9058 19.6437C10.8008 19.5912 10.7017 19.5066 10.6084 19.3899C10.5209 19.2674 10.448 19.1099 10.3896 18.9174C10.3313 18.719 10.3016 18.4733 10.3016 18.1816C10.3016 18.0358 10.2782 17.9107 10.2316 17.8057C10.1849 17.7007 10.121 17.616 10.0393 17.5519C9.95764 17.4819 9.86132 17.4324 9.75048 17.4032C9.63965 17.3682 9.51993 17.3511 9.3916 17.3511H8.40295C8.28045 17.3511 8.176 17.316 8.0885 17.246C8.00683 17.1701 7.96545 17.0675 7.96545 16.9392C7.96545 16.8167 8.00684 16.724 8.0885 16.6598C8.176 16.5898 8.28045 16.5547 8.40295 16.5547H9.62829C9.76246 16.5489 9.89031 16.4993 10.0128 16.406C10.1411 16.3068 10.2437 16.1727 10.3196 16.0035C10.3423 15.9564 10.3604 15.9061 10.3768 15.8549H8.38586C8.25752 15.8549 8.14951 15.8135 8.06201 15.7318C7.98034 15.6443 7.93896 15.5363 7.93896 15.408C7.93896 15.2796 7.98035 15.1779 8.06201 15.1021C8.14951 15.0204 8.25752 14.9799 8.38586 14.9799H10.3503C10.3093 14.8899 10.2577 14.8067 10.188 14.7346C10.0246 14.5538 9.8293 14.4629 9.6018 14.4629H8.38586C8.25752 14.4629 8.14951 14.4224 8.06201 14.3407C7.98034 14.2532 7.93896 14.1452 7.93896 14.0168C7.93896 13.8943 7.98035 13.7926 8.06201 13.7109C8.14951 13.6293 8.25753 13.5879 8.38587 13.5879Z" fill="#27AE60"/>
</svg>
