<svg width="28" height="28" viewBox="0 0 28 28" fill="none" xmlns="http://www.w3.org/2000/svg">
<g id="rupee (7) 1">
<path id="path22622" d="M14 1.75C13.2169 1.75 12.6543 2.24684 12.1748 2.66772C11.6953 3.08861 11.2754 3.44402 10.8717 3.50513C10.4726 3.56555 9.69181 3.15856 8.94141 2.76086C8.56621 2.56202 8.19728 2.37318 7.79212 2.31311C7.38695 2.25304 6.88603 2.41767 6.6283 2.83093C6.25515 3.42927 6.41855 4.13965 6.75989 4.72705C7.10122 5.31446 7.62828 5.86541 8.18006 6.36084C9.28352 7.3517 10.506 8.10999 10.506 8.10999C10.5752 8.15329 10.6551 8.17637 10.7367 8.17664H17.2625C17.3444 8.17653 17.4246 8.15344 17.494 8.10999C17.494 8.10999 18.7156 7.3517 19.8191 6.36084C20.3708 5.86541 20.8979 5.31446 21.2393 4.72705C21.5805 4.13965 21.744 3.42927 21.3709 2.83093C21.1131 2.41767 20.6122 2.25304 20.207 2.31311C19.8019 2.37318 19.4329 2.56202 19.0577 2.76086C18.3074 3.15856 17.5266 3.56555 17.1274 3.50513C16.7238 3.44402 16.3038 3.08861 15.8243 2.66772C15.3449 2.24684 14.7831 1.75 14 1.75ZM10.7418 9.05164C10.6872 9.05154 10.633 9.06168 10.582 9.08154C8.7003 9.8178 7.17116 11.5797 6.08996 13.6394C5.00877 15.6991 4.375 18.0704 4.375 20.125C4.375 22.7803 5.53252 24.4224 7.31616 25.2673C9.09981 26.1123 11.4453 26.25 14 26.25C16.5547 26.25 18.9002 26.1123 20.6838 25.2673C22.4675 24.4224 23.625 22.7803 23.625 20.125C23.625 18.0704 22.9904 15.6991 21.9092 13.6394C20.828 11.5797 19.2989 9.8178 17.4171 9.08154C17.3665 9.06178 17.3126 9.05164 17.2582 9.05163L10.7418 9.05164ZM12.3859 14.5879H15.6141C15.7366 14.5879 15.8419 14.632 15.9294 14.7195C16.0169 14.8011 16.0602 14.9065 16.0602 15.0348C16.0602 15.1573 16.017 15.259 15.9294 15.3407C15.8419 15.4224 15.7366 15.4629 15.6141 15.4629H14.8511C14.9778 15.5587 15.0877 15.6712 15.1766 15.8047C15.214 15.8608 15.2458 15.9196 15.2732 15.9799H15.6141C15.7366 15.9799 15.8419 16.0231 15.9294 16.1106C16.0169 16.1923 16.0602 16.2949 16.0602 16.4174C16.0602 16.5399 16.017 16.6443 15.9294 16.7318C15.8419 16.8135 15.7366 16.8549 15.6141 16.8549H15.3407C15.3177 16.9398 15.2874 17.0248 15.2467 17.1086C15.1592 17.2953 15.043 17.4645 14.8972 17.6162C14.7698 17.7488 14.6259 17.8546 14.4717 17.9426C14.556 17.9959 14.6381 18.0569 14.7135 18.1323C14.8418 18.2548 14.9463 18.3944 15.028 18.5519C15.1096 18.7094 15.1564 18.8813 15.1681 19.068C15.1856 19.2488 15.2 19.4009 15.2117 19.5234C15.2233 19.6401 15.244 19.7364 15.2732 19.8123C15.3082 19.8881 15.3604 19.9466 15.4304 19.9874C15.5004 20.0283 15.5535 20.0805 15.5885 20.1447C15.6235 20.203 15.6406 20.2669 15.6406 20.3369C15.6406 20.4477 15.6001 20.5386 15.5184 20.6086C15.4426 20.6786 15.34 20.7129 15.2117 20.7129C15.1183 20.7129 15.0166 20.6903 14.9058 20.6437C14.8008 20.5912 14.7017 20.5066 14.6084 20.3899C14.5209 20.2674 14.448 20.1099 14.3896 19.9174C14.3313 19.719 14.3016 19.4733 14.3016 19.1816C14.3016 19.0358 14.2782 18.9107 14.2316 18.8057C14.1849 18.7007 14.121 18.616 14.0393 18.5519C13.9576 18.4819 13.8613 18.4324 13.7505 18.4032C13.6396 18.3682 13.5199 18.3511 13.3916 18.3511H12.403C12.2804 18.3511 12.176 18.316 12.0885 18.246C12.0068 18.1701 11.9654 18.0675 11.9654 17.9392C11.9654 17.8167 12.0068 17.724 12.0885 17.6598C12.176 17.5898 12.2804 17.5547 12.403 17.5547H13.6283C13.7625 17.5489 13.8903 17.4993 14.0128 17.406C14.1411 17.3068 14.2437 17.1727 14.3196 17.0035C14.3423 16.9564 14.3604 16.9061 14.3768 16.8549H12.3859C12.2575 16.8549 12.1495 16.8135 12.062 16.7318C11.9803 16.6443 11.939 16.5363 11.939 16.408C11.939 16.2796 11.9803 16.1779 12.062 16.1021C12.1495 16.0204 12.2575 15.9799 12.3859 15.9799H14.3503C14.3093 15.8899 14.2577 15.8067 14.188 15.7346C14.0246 15.5538 13.8293 15.4629 13.6018 15.4629H12.3859C12.2575 15.4629 12.1495 15.4224 12.062 15.3407C11.9803 15.2532 11.939 15.1452 11.939 15.0168C11.939 14.8943 11.9803 14.7926 12.062 14.7109C12.1495 14.6293 12.2575 14.5879 12.3859 14.5879Z" fill="#2156BD"/>
</g>
</svg>
