<svg width="30" height="30" viewBox="0 0 30 30" fill="none" xmlns="http://www.w3.org/2000/svg">
<path d="M16.7678 14.9997L24.6337 7.13349C24.7531 7.01818 24.8483 6.88025 24.9138 6.72774C24.9794 6.57524 25.0138 6.41121 25.0153 6.24524C25.0167 6.07926 24.9851 5.91466 24.9222 5.76104C24.8594 5.60742 24.7666 5.46786 24.6492 5.35049C24.5318 5.23313 24.3923 5.14031 24.2387 5.07746C24.085 5.01461 23.9204 4.98298 23.7545 4.98442C23.5885 4.98586 23.4245 5.02035 23.272 5.08586C23.1195 5.15137 22.9815 5.2466 22.8662 5.36599L15 13.2319L7.13403 5.36599C6.89875 5.13588 6.58222 5.00783 6.25313 5.00965C5.92404 5.01146 5.60894 5.14298 5.37621 5.37567C5.14348 5.60835 5.01191 5.92343 5.01004 6.25252C5.00817 6.58161 5.13615 6.89817 5.36622 7.13349L13.2325 14.9997L5.36622 22.866C5.24802 22.9816 5.15393 23.1195 5.0894 23.2717C5.02486 23.4239 4.99116 23.5874 4.99025 23.7527C4.98934 23.9181 5.02124 24.0819 5.08409 24.2348C5.14695 24.3878 5.23951 24.5267 5.35643 24.6436C5.47334 24.7605 5.61229 24.853 5.76522 24.9159C5.91814 24.9787 6.08201 25.0105 6.24734 25.0096C6.41267 25.0087 6.57616 24.9749 6.72837 24.9104C6.88057 24.8458 7.01845 24.7517 7.13403 24.6335L15 16.7675L22.8662 24.6335C23.1103 24.8775 23.4303 24.9997 23.75 24.9997C24.0697 24.9997 24.39 24.8775 24.6337 24.6335C24.8681 24.3991 24.9997 24.0812 24.9997 23.7497C24.9997 23.4183 24.8681 23.1004 24.6337 22.866L16.7678 14.9997Z" fill="black"/>
</svg>
