<svg width="16" height="17" viewBox="0 0 16 17" fill="none" xmlns="http://www.w3.org/2000/svg">
<path fill-rule="evenodd" clip-rule="evenodd" d="M15.0378 15.9623C15.6087 16.1553 16.1533 15.6107 15.9604 15.0397L11.328 0.496778C11.1135 -0.138224 10.2271 -0.170254 9.96732 0.447849L7.1753 6.78812C7.10149 6.96371 6.96185 7.10336 6.78624 7.17718L0.445972 9.96919C-0.172115 10.229 -0.140207 11.1154 0.494902 11.3299L15.0378 15.9623ZM2.78301 10.5665L14.1104 14.1125L10.5644 2.78508L8.51729 7.35234C8.50896 7.37246 8.50015 7.39234 8.4911 7.4121L10.2061 9.127L9.17669 10.1564L7.48002 8.45984C7.43752 8.48115 7.39431 8.50103 7.35014 8.51948L2.78301 10.5665Z" fill="#27AE60"/>
<path d="M0.928711 1.94L4.70258 5.71387L5.73197 4.68447L1.95811 0.910606L0.928711 1.94Z" fill="#27AE60"/>
<path d="M2.07218 7.08594L0.928711 5.94238L1.95811 4.91299L3.10166 6.05654L2.07218 7.08594Z" fill="#27AE60"/>
</svg>
