<svg width="13" height="13" viewBox="0 0 13 13" fill="none" xmlns="http://www.w3.org/2000/svg">
<g clip-path="url(#clip0_466_6976)">
<path d="M10.5815 1.69109L9.68446 0.793011C9.43349 0.540763 9.13498 0.340794 8.80622 0.204676C8.47745 0.0685584 8.12495 -0.00100533 7.76913 1.09771e-05H4.33333C3.6153 0.000871067 2.92693 0.286489 2.4192 0.794213C1.91148 1.30194 1.62586 1.99031 1.625 2.70834V10.2917C1.62586 11.0097 1.91148 11.6981 2.4192 12.2058C2.92693 12.7135 3.6153 12.9992 4.33333 13H8.66667C9.3847 12.9992 10.0731 12.7135 10.5808 12.2058C11.0885 11.6981 11.3741 11.0097 11.375 10.2917V3.60589C11.3759 3.25011 11.3062 2.89769 11.17 2.56902C11.0338 2.24035 10.8337 1.94196 10.5815 1.69109ZM9.81554 2.45701C9.89237 2.53356 9.96116 2.61778 10.0208 2.70834H8.66667V1.35418C8.75709 1.41448 8.84144 1.48341 8.91854 1.56001L9.81554 2.45701ZM10.2917 10.2917C10.2917 10.7227 10.1205 11.136 9.81572 11.4407C9.51097 11.7455 9.09764 11.9167 8.66667 11.9167H4.33333C3.90236 11.9167 3.48903 11.7455 3.18428 11.4407C2.87954 11.136 2.70833 10.7227 2.70833 10.2917V2.70834C2.70833 2.27737 2.87954 1.86404 3.18428 1.5593C3.48903 1.25455 3.90236 1.08334 4.33333 1.08334H7.58333V2.70834C7.58333 2.99566 7.69747 3.27121 7.90063 3.47438C8.1038 3.67754 8.37935 3.79168 8.66667 3.79168H10.2917V10.2917ZM8.66667 4.87501C8.81033 4.87501 8.9481 4.93208 9.04968 5.03366C9.15127 5.13524 9.20833 5.27302 9.20833 5.41668C9.20833 5.56034 9.15127 5.69811 9.04968 5.79969C8.9481 5.90128 8.81033 5.95834 8.66667 5.95834H4.33333C4.18967 5.95834 4.0519 5.90128 3.95032 5.79969C3.84874 5.69811 3.79167 5.56034 3.79167 5.41668C3.79167 5.27302 3.84874 5.13524 3.95032 5.03366C4.0519 4.93208 4.18967 4.87501 4.33333 4.87501H8.66667ZM9.20833 7.58334C9.20833 7.727 9.15127 7.86478 9.04968 7.96636C8.9481 8.06794 8.81033 8.12501 8.66667 8.12501H4.33333C4.18967 8.12501 4.0519 8.06794 3.95032 7.96636C3.84874 7.86478 3.79167 7.727 3.79167 7.58334C3.79167 7.43968 3.84874 7.30191 3.95032 7.20033C4.0519 7.09875 4.18967 7.04168 4.33333 7.04168H8.66667C8.81033 7.04168 8.9481 7.09875 9.04968 7.20033C9.15127 7.30191 9.20833 7.43968 9.20833 7.58334ZM9.10433 9.43205C9.18853 9.54789 9.22344 9.69235 9.20141 9.83385C9.17938 9.97536 9.10222 10.1024 8.98679 10.1871C8.43798 10.5782 7.78798 10.8026 7.11479 10.8333C6.72148 10.8314 6.34011 10.698 6.03146 10.4542C5.85379 10.3323 5.78608 10.2917 5.65229 10.2917C5.29015 10.3477 4.94846 10.4958 4.65996 10.7218C4.54553 10.8033 4.40388 10.8372 4.26492 10.8163C4.12595 10.7954 4.00056 10.7213 3.91521 10.6097C3.82986 10.498 3.79125 10.3576 3.80751 10.218C3.82377 10.0784 3.89365 9.95062 4.00238 9.86159C4.47968 9.49106 5.05282 9.26443 5.65446 9.20834C6.01528 9.21411 6.36411 9.33882 6.64679 9.56314C6.77565 9.67903 6.94155 9.74528 7.11479 9.75001C7.5577 9.71683 7.98361 9.56551 8.34817 9.3118C8.46441 9.22754 8.60935 9.19288 8.75114 9.21543C8.89293 9.23797 9.01996 9.31589 9.10433 9.43205Z" fill="currentColor"/>
</g>
<defs>
<clipPath id="clip0_466_6976">
<rect width="13" height="13" fill="white"/>
</clipPath>
</defs>
</svg>
