<svg width="14" height="7" viewBox="0 0 14 7" fill="none" xmlns="http://www.w3.org/2000/svg">
<path d="M12.8843 0.545111C12.7682 0.428953 12.6304 0.336807 12.4786 0.273938C12.3269 0.21107 12.1643 0.178711 12.0001 0.178711C11.8359 0.178711 11.6733 0.21107 11.5216 0.273938C11.3699 0.336807 11.232 0.428953 11.1159 0.545111L7.29427 4.36594C7.21614 4.44406 7.11017 4.48794 6.99969 4.48794C6.8892 4.48794 6.78324 4.44406 6.70511 4.36594L2.88427 0.545111C2.64989 0.310615 2.33195 0.178833 2.0004 0.178755C1.66885 0.178677 1.35085 0.310309 1.11636 0.544694C0.88186 0.779079 0.750078 1.09702 0.75 1.42857C0.749922 1.76011 0.881554 2.07812 1.11594 2.31261L4.93761 6.13428C5.20845 6.40515 5.52999 6.62001 5.88388 6.76661C6.23776 6.9132 6.61706 6.98866 7.00011 6.98866C7.38315 6.98866 7.76245 6.9132 8.11633 6.76661C8.47022 6.62001 8.79176 6.40515 9.06261 6.13428L12.8843 2.31261C13.1186 2.0782 13.2503 1.76032 13.2503 1.42886C13.2503 1.09741 13.1186 0.77952 12.8843 0.545111Z" fill="#374957"/>
</svg>
