<svg width="13" height="13" viewBox="0 0 13 13" fill="none" xmlns="http://www.w3.org/2000/svg">
<g clip-path="url(#clip0_466_6954)">
<path d="M5.35075 9.81608C5.50166 9.96709 5.68084 10.0869 5.87806 10.1686C6.07528 10.2503 6.28668 10.2924 6.50016 10.2924C6.71365 10.2924 6.92504 10.2503 7.12226 10.1686C7.31949 10.0869 7.49867 9.96709 7.64958 9.81608L9.38887 8.07679C9.48213 7.97365 9.53215 7.83861 9.52858 7.69961C9.52501 7.56061 9.46812 7.4283 9.3697 7.33009C9.27127 7.23187 9.13885 7.17527 8.99984 7.17199C8.86084 7.16872 8.72589 7.21903 8.62295 7.3125L7.03804 8.89796L7.04183 0.541667C7.04183 0.398008 6.98476 0.260233 6.88318 0.158651C6.7816 0.0570683 6.64382 0 6.50016 0C6.3565 0 6.21873 0.0570683 6.11715 0.158651C6.01556 0.260233 5.9585 0.398008 5.9585 0.541667L5.95362 8.88767L4.37737 7.3125C4.27573 7.21093 4.13791 7.1539 3.99422 7.15395C3.85053 7.154 3.71275 7.21113 3.61118 7.31277C3.50962 7.41441 3.45259 7.55223 3.45264 7.69592C3.45269 7.83961 3.50982 7.97739 3.61145 8.07896L5.35075 9.81608Z" />
<path d="M12.4583 8.66699C12.3147 8.66699 12.1769 8.72406 12.0753 8.82564C11.9737 8.92722 11.9167 9.065 11.9167 9.20866V11.3753C11.9167 11.519 11.8596 11.6568 11.758 11.7583C11.6564 11.8599 11.5187 11.917 11.375 11.917H1.625C1.48134 11.917 1.34357 11.8599 1.24198 11.7583C1.1404 11.6568 1.08333 11.519 1.08333 11.3753V9.20866C1.08333 9.065 1.02627 8.92722 0.924683 8.82564C0.823101 8.72406 0.685326 8.66699 0.541667 8.66699C0.398008 8.66699 0.260233 8.72406 0.158651 8.82564C0.0570683 8.92722 0 9.065 0 9.20866L0 11.3753C0 11.8063 0.171205 12.2196 0.475951 12.5244C0.780698 12.8291 1.19402 13.0003 1.625 13.0003H11.375C11.806 13.0003 12.2193 12.8291 12.524 12.5244C12.8288 12.2196 13 11.8063 13 11.3753V9.20866C13 9.065 12.9429 8.92722 12.8414 8.82564C12.7398 8.72406 12.602 8.66699 12.4583 8.66699Z" />
</g>
<defs>
<clipPath id="clip0_466_6954">
<rect width="13" height="13" fill="white"/>
</clipPath>
</defs>
</svg>
