<svg width="30" height="29" viewBox="0 0 30 29" fill="none" xmlns="http://www.w3.org/2000/svg">
<path d="M18.5889 20.2202C18.5889 20.5315 18.4653 20.8301 18.2452 21.0502C18.025 21.2703 17.7265 21.394 17.4152 21.394H12.7204C12.4091 21.394 12.1106 21.2703 11.8904 21.0502C11.6703 20.8301 11.5467 20.5315 11.5467 20.2202C11.5467 19.909 11.6703 19.6104 11.8904 19.3903C12.1106 19.1702 12.4091 19.0465 12.7204 19.0465H17.4152C17.7265 19.0465 18.025 19.1702 18.2452 19.3903C18.4653 19.6104 18.5889 19.909 18.5889 20.2202ZM18.245 8.82707C18.0249 8.60703 17.7264 8.48342 17.4152 8.48342C17.104 8.48342 16.8055 8.60703 16.5854 8.82707L15.0678 10.3447L13.5502 8.82707C13.4419 8.71497 13.3124 8.62555 13.1692 8.56404C13.026 8.50253 12.872 8.47015 12.7162 8.46879C12.5603 8.46744 12.4058 8.49714 12.2615 8.55615C12.1173 8.61517 11.9862 8.70232 11.876 8.81252C11.7658 8.92272 11.6787 9.05377 11.6197 9.19801C11.5606 9.34226 11.5309 9.49681 11.5323 9.65266C11.5336 9.8085 11.566 9.96251 11.6275 10.1057C11.6891 10.2489 11.7785 10.3784 11.8906 10.4867L13.4082 12.0043L11.8906 13.5219C11.7785 13.6302 11.6891 13.7597 11.6275 13.9029C11.566 14.0461 11.5336 14.2001 11.5323 14.3559C11.5309 14.5118 11.5606 14.6663 11.6197 14.8106C11.6787 14.9548 11.7658 15.0859 11.876 15.1961C11.9862 15.3063 12.1173 15.3934 12.2615 15.4524C12.4058 15.5115 12.5603 15.5412 12.7162 15.5398C12.872 15.5384 13.026 15.5061 13.1692 15.4446C13.3124 15.383 13.4419 15.2936 13.5502 15.1815L15.0678 13.6639L16.5854 15.1815C16.8068 15.3953 17.1032 15.5136 17.411 15.5109C17.7187 15.5083 18.0131 15.3848 18.2307 15.1672C18.4483 14.9496 18.5718 14.6552 18.5745 14.3475C18.5771 14.0397 18.4588 13.7433 18.245 13.5219L16.7274 12.0043L18.245 10.4867C18.4651 10.2666 18.5887 9.96811 18.5887 9.65688C18.5887 9.34566 18.4651 9.04717 18.245 8.82707ZM26.8049 19.0465H22.1101C21.7988 19.0465 21.5002 19.1702 21.2801 19.3903C21.06 19.6104 20.9363 19.909 20.9363 20.2202C20.9363 20.5315 21.06 20.8301 21.2801 21.0502C21.5002 21.2703 21.7988 21.394 22.1101 21.394H26.8049C27.1162 21.394 27.4147 21.2703 27.6348 21.0502C27.8549 20.8301 27.9786 20.5315 27.9786 20.2202C27.9786 19.909 27.8549 19.6104 27.6348 19.3903C27.4147 19.1702 27.1162 19.0465 26.8049 19.0465ZM26.1171 12.0043L27.6347 10.4867C27.7468 10.3784 27.8362 10.2489 27.8977 10.1057C27.9592 9.96251 27.9916 9.8085 27.993 9.65266C27.9943 9.49681 27.9646 9.34226 27.9056 9.19801C27.8466 9.05377 27.7595 8.92272 27.6492 8.81252C27.539 8.70232 27.408 8.61517 27.2638 8.55615C27.1195 8.49714 26.965 8.46744 26.8091 8.46879C26.6533 8.47015 26.4993 8.50253 26.3561 8.56404C26.2129 8.62555 26.0833 8.71497 25.9751 8.82707L24.4575 10.3447L22.9399 8.82707C22.8316 8.71497 22.7021 8.62555 22.5589 8.56404C22.4157 8.50253 22.2617 8.47015 22.1058 8.46879C21.95 8.46744 21.7954 8.49714 21.6512 8.55615C21.5069 8.61517 21.3759 8.70232 21.2657 8.81252C21.1555 8.92272 21.0683 9.05377 21.0093 9.19801C20.9503 9.34226 20.9206 9.49681 20.922 9.65266C20.9233 9.8085 20.9557 9.96251 21.0172 10.1057C21.0787 10.2489 21.1681 10.3784 21.2802 10.4867L22.7978 12.0043L21.2802 13.5219C21.1681 13.6302 21.0787 13.7597 21.0172 13.9029C20.9557 14.0461 20.9233 14.2001 20.922 14.3559C20.9206 14.5118 20.9503 14.6663 21.0093 14.8106C21.0683 14.9548 21.1555 15.0859 21.2657 15.1961C21.3759 15.3063 21.5069 15.3934 21.6512 15.4524C21.7954 15.5115 21.95 15.5412 22.1058 15.5398C22.2617 15.5384 22.4157 15.5061 22.5589 15.4446C22.7021 15.383 22.8316 15.2936 22.9399 15.1815L24.4575 13.6639L25.9751 15.1815C26.1964 15.3953 26.4929 15.5136 26.8007 15.5109C27.1084 15.5083 27.4028 15.3848 27.6204 15.1672C27.838 14.9496 27.9615 14.6552 27.9641 14.3475C27.9668 14.0397 27.8485 13.7433 27.6347 13.5219L26.1171 12.0043ZM8.02555 19.0465H3.33071C3.01942 19.0465 2.72089 19.1702 2.50077 19.3903C2.28066 19.6104 2.157 19.909 2.157 20.2202C2.157 20.5315 2.28066 20.8301 2.50077 21.0502C2.72089 21.2703 3.01942 21.394 3.33071 21.394H8.02555C8.33683 21.394 8.63537 21.2703 8.85548 21.0502C9.0756 20.8301 9.19925 20.5315 9.19925 20.2202C9.19925 19.909 9.0756 19.6104 8.85548 19.3903C8.63537 19.1702 8.33683 19.0465 8.02555 19.0465ZM8.85536 8.82707C8.63525 8.60703 8.33677 8.48342 8.02555 8.48342C7.71432 8.48342 7.41584 8.60703 7.19573 8.82707L5.67813 10.3447L4.16052 8.82707C4.05225 8.71497 3.92274 8.62555 3.77954 8.56404C3.63634 8.50253 3.48233 8.47015 3.32649 8.46879C3.17064 8.46744 3.01609 8.49714 2.87184 8.55615C2.7276 8.61517 2.59655 8.70232 2.48635 8.81252C2.37615 8.92272 2.289 9.05377 2.22998 9.19801C2.17097 9.34226 2.14127 9.49681 2.14262 9.65266C2.14398 9.8085 2.17635 9.96251 2.23787 10.1057C2.29938 10.2489 2.3888 10.3784 2.5009 10.4867L4.0185 12.0043L2.5009 13.5219C2.3888 13.6302 2.29938 13.7597 2.23787 13.9029C2.17635 14.0461 2.14398 14.2001 2.14262 14.3559C2.14127 14.5118 2.17097 14.6663 2.22998 14.8106C2.289 14.9548 2.37615 15.0859 2.48635 15.1961C2.59655 15.3063 2.7276 15.3934 2.87184 15.4524C3.01609 15.5115 3.17064 15.5412 3.32649 15.5398C3.48233 15.5384 3.63634 15.5061 3.77954 15.4446C3.92274 15.383 4.05225 15.2936 4.16052 15.1815L5.67813 13.6639L7.19573 15.1815C7.304 15.2936 7.43352 15.383 7.57671 15.4446C7.71991 15.5061 7.87392 15.5384 8.02977 15.5398C8.18561 15.5412 8.34017 15.5115 8.48441 15.4524C8.62866 15.3934 8.7597 15.3063 8.86991 15.1961C8.98011 15.0859 9.06726 14.9548 9.12628 14.8106C9.18529 14.6663 9.21499 14.5118 9.21363 14.3559C9.21228 14.2001 9.1799 14.0461 9.11839 13.9029C9.05687 13.7597 8.96746 13.6302 8.85536 13.5219L7.33775 12.0043L8.85536 10.4867C9.07539 10.2666 9.199 9.96811 9.199 9.65688C9.199 9.34566 9.07539 9.04717 8.85536 8.82707Z" fill="currentColor"/>
</svg>
