<svg width="20" height="20" viewBox="0 0 20 20" fill="none" xmlns="http://www.w3.org/2000/svg">
<path d="M16.81 -0.000143229H6.52334C5.6775 0.000959686 4.86662 0.337516 4.2686 0.935699C3.67057 1.53388 3.33422 2.34484 3.33334 3.19069C3.33334 4.04236 3.66501 4.84319 4.26751 5.44652L9.16668 10.3449V13.3332C9.16668 13.4626 9.1968 13.5902 9.25465 13.7059C9.31251 13.8216 9.39651 13.9222 9.50001 13.9999L12.8333 16.4999C12.9573 16.5921 13.1044 16.6481 13.2583 16.6616C13.4123 16.6752 13.5669 16.6458 13.7051 16.5767C13.8433 16.5076 13.9596 16.4015 14.0411 16.2703C14.1226 16.139 14.1661 15.9877 14.1667 15.8332V10.3449L19.0658 5.44569C19.3629 5.1501 19.5985 4.79853 19.7588 4.41132C19.9192 4.02411 20.0011 3.60895 20 3.18986C19.9989 2.34408 19.6625 1.53324 19.0645 0.935108C18.4665 0.336974 17.6558 0.000346318 16.81 -0.000976562V-0.000143229ZM17.8875 4.26819L12.7442 9.41069C12.5879 9.56693 12.5001 9.77886 12.5 9.99986V14.1665L10.8333 12.9165V9.99986C10.8335 9.89041 10.8119 9.78202 10.77 9.68091C10.7281 9.5798 10.6667 9.48797 10.5892 9.41069L5.44584 4.26819C5.23319 4.05488 5.08847 3.78337 5.02993 3.48791C4.97139 3.19245 5.00165 2.88628 5.1169 2.608C5.23215 2.32972 5.42723 2.0918 5.67753 1.92425C5.92783 1.7567 6.22214 1.66702 6.52334 1.66652H16.81C17.1112 1.66702 17.4055 1.7567 17.6558 1.92425C17.9061 2.0918 18.1012 2.32972 18.2164 2.608C18.3317 2.88628 18.362 3.19245 18.3034 3.48791C18.2449 3.78337 18.1002 4.05488 17.8875 4.26819ZM10.8333 17.4999V19.1665C10.833 19.3212 10.7898 19.4727 10.7083 19.6041C10.6269 19.7356 10.5105 19.8418 10.3722 19.911C10.2339 19.9801 10.0791 20.0095 9.92509 19.9957C9.77107 19.982 9.6239 19.9257 9.50001 19.8332L6.16668 17.3332C6.06308 17.2557 5.97901 17.155 5.92114 17.0393C5.86328 16.9236 5.83321 16.7959 5.83334 16.6665V13.6782L0.934177 8.77986C0.637153 8.48421 0.401665 8.13263 0.241323 7.74543C0.0809809 7.35824 -0.0010368 6.9431 9.8933e-06 6.52402C9.8933e-06 5.58569 0.410843 4.69902 1.12751 4.09069C1.29603 3.94758 1.5145 3.87728 1.73486 3.89526C1.95521 3.91323 2.1594 4.018 2.30251 4.18652C2.44562 4.35505 2.51592 4.57352 2.49794 4.79387C2.47997 5.01423 2.3752 5.21842 2.20668 5.36152C2.04591 5.49776 1.91512 5.66585 1.82257 5.85517C1.73001 6.04449 1.6777 6.25094 1.66893 6.46149C1.66016 6.67204 1.69512 6.88212 1.77161 7.07848C1.8481 7.27484 1.96446 7.45322 2.11334 7.60236L7.25668 12.7449C7.41297 12.9011 7.5008 13.113 7.50084 13.334V16.2507L9.16751 17.5007C9.16751 17.2797 9.25531 17.0677 9.41159 16.9114C9.56787 16.7552 9.77983 16.6674 10.0008 16.6674C10.2219 16.6674 10.4338 16.7552 10.5901 16.9114C10.7464 17.0677 10.8342 17.2797 10.8342 17.5007L10.8333 17.4999Z" fill="currentColor"/>
</svg>
