<svg width="22" height="28" viewBox="0 0 22 28" fill="none" xmlns="http://www.w3.org/2000/svg">
<path d="M11.0001 0C5.20581 0 0.509521 4.69629 0.509521 10.4906V15.2356C0.511217 17.3069 1.10168 19.6986 2.62527 21.617C3.38833 22.5731 4.38637 23.4046 5.64419 23.9891C6.9003 24.5753 8.41017 24.9119 10.1867 24.9119C12.1948 24.9102 14.2045 24.0403 15.7195 22.5005C17.2345 20.9624 18.2497 18.7373 18.248 16.0594V10.4906C18.2462 6.49245 14.9983 3.24368 11.0001 3.24193C7.00109 3.24362 3.75315 6.49245 3.75233 10.4906V16.0687C3.75233 16.7874 3.93176 17.488 4.23937 18.1315C4.70165 19.0962 5.44764 19.937 6.35512 20.548C7.26261 21.1573 8.33924 21.5392 9.46548 21.5401C10.5165 21.541 11.4078 21.3513 12.1477 21.0034C13.2611 20.4839 13.9994 19.6038 14.4267 18.6262C14.8573 17.647 15.0043 16.5686 15.0052 15.5441V10.4906C15.0043 8.28007 13.2107 6.48648 11.0002 6.48566C8.79047 6.48654 6.99601 8.28012 6.99519 10.4906V16.0688C6.99431 16.725 7.26523 17.3257 7.69672 17.753C8.12738 18.182 8.72637 18.4494 9.3818 18.4494C10.6969 18.4485 11.7616 17.383 11.7624 16.0688V10.4906C11.7624 10.1497 11.4855 9.87284 11.1455 9.87284C10.8028 9.87284 10.5268 10.1497 10.5268 10.4906V16.0688C10.5268 16.3875 10.4003 16.6695 10.1918 16.878C9.98249 17.0865 9.69965 17.2138 9.38175 17.2138C9.06385 17.2138 8.77762 17.0865 8.5674 16.8772C8.35718 16.6678 8.23074 16.3859 8.22987 16.0688V10.4907C8.23074 9.72595 8.53918 9.03634 9.04247 8.53306C9.54576 8.03059 10.2354 7.72127 11.0001 7.72045C11.764 7.72133 12.4536 8.03064 12.9569 8.53306C13.4602 9.03634 13.7695 9.72595 13.7695 10.4907V15.5442C13.7695 16.1474 13.7097 16.7567 13.5687 17.3206C13.4636 17.7445 13.3132 18.1409 13.1115 18.4955C12.8082 19.0279 12.3989 19.4654 11.8221 19.7833C11.2436 20.1012 10.484 20.3045 9.46542 20.3062C8.34345 20.3079 7.20612 19.7833 6.36021 18.9724C5.93808 18.5682 5.59201 18.0965 5.35445 17.5992C5.11607 17.1011 4.98788 16.579 4.98788 16.0688V10.4907C4.98788 8.83214 5.66125 7.33162 6.75068 6.24132C7.84186 5.15096 9.3415 4.47765 11.0001 4.47765C12.6586 4.47765 14.1583 5.15102 15.2494 6.24132C16.3389 7.33168 17.0122 8.83214 17.0122 10.4907V16.0594C17.0105 18.4247 16.1313 20.3173 14.8384 21.635C13.5455 22.9517 11.834 23.678 10.1865 23.6764C8.56554 23.6764 7.24363 23.3704 6.1653 22.8688C4.54945 22.1152 3.45827 20.9146 2.7516 19.5397C2.0475 18.1648 1.74415 16.614 1.74502 15.2357V10.4906C1.74502 7.93313 2.77894 5.62259 4.4555 3.94609C6.13205 2.26959 8.4426 1.23561 11.0001 1.23561C13.5576 1.23561 15.8673 2.26953 17.5438 3.94603C19.2203 5.62253 20.2543 7.93308 20.2551 10.4906V16.5225C20.2577 19.0808 19.2092 21.6657 17.5173 23.5891C16.6722 24.5513 15.669 25.3477 14.5658 25.9005C13.4618 26.4534 12.2604 26.7644 11.0001 26.7644C10.6591 26.7644 10.3823 27.0413 10.3823 27.3831C10.3823 27.7232 10.6591 28.0001 11.0001 28.0001C12.4655 28.0001 13.8609 27.6361 15.1196 27.0037C17.0089 26.0569 18.5939 24.5145 19.7142 22.6749C20.8336 20.836 21.4898 18.6921 21.4907 16.5225V10.4906C21.4899 4.69629 16.7936 0 11.0001 0Z" fill="#1F3C66"/>
</svg>
