<svg width="304" height="48" viewBox="0 0 304 48" fill="none" xmlns="http://www.w3.org/2000/svg">
<path d="M109.649 14.9541H112.174C114.273 14.9541 115.509 16.2432 115.509 18.4648C115.509 20.6914 114.273 22 112.174 22H109.649V14.9541ZM110.743 15.8965V21.0527H112.071C113.565 21.0527 114.396 20.1396 114.396 18.4746C114.396 16.8145 113.565 15.8965 112.071 15.8965H110.743ZM118.653 17.4932C117.892 17.4932 117.34 18.0498 117.281 18.8652H119.972C119.947 18.04 119.425 17.4932 118.653 17.4932ZM119.967 20.4473H120.978C120.826 21.3994 119.894 22.0635 118.702 22.0635C117.164 22.0635 116.207 21.0283 116.207 19.3682C116.207 17.708 117.174 16.6289 118.658 16.6289C120.113 16.6289 121.031 17.6396 121.031 19.2461V19.6172H117.276V19.6807C117.276 20.5986 117.853 21.2041 118.722 21.2041C119.337 21.2041 119.82 20.9111 119.967 20.4473ZM126.358 16.6973L124.449 22H123.321L121.407 16.6973H122.525L123.878 20.9551H123.902L125.26 16.6973H126.358ZM129.054 17.4932C128.292 17.4932 127.74 18.0498 127.682 18.8652H130.372C130.348 18.04 129.825 17.4932 129.054 17.4932ZM130.367 20.4473H131.378C131.227 21.3994 130.294 22.0635 129.103 22.0635C127.564 22.0635 126.607 21.0283 126.607 19.3682C126.607 17.708 127.574 16.6289 129.059 16.6289C130.514 16.6289 131.432 17.6396 131.432 19.2461V19.6172H127.677V19.6807C127.677 20.5986 128.253 21.2041 129.122 21.2041C129.737 21.2041 130.221 20.9111 130.367 20.4473ZM132.33 22V14.6367H133.39V22H132.33ZM136.793 22.0635C135.26 22.0635 134.283 21.0186 134.283 19.3486C134.283 17.6836 135.265 16.6289 136.793 16.6289C138.321 16.6289 139.298 17.6787 139.298 19.3486C139.298 21.0186 138.326 22.0635 136.793 22.0635ZM136.793 21.1846C137.691 21.1846 138.224 20.5059 138.224 19.3486C138.224 18.1914 137.691 17.5078 136.793 17.5078C135.895 17.5078 135.357 18.1963 135.357 19.3486C135.357 20.5059 135.895 21.1846 136.793 21.1846ZM142.882 16.6436C144.234 16.6436 145.123 17.7031 145.123 19.3486C145.123 20.9893 144.239 22.0537 142.906 22.0537C142.145 22.0537 141.544 21.7168 141.227 21.1309H141.207V23.7578H140.147V16.6973H141.168V17.5762H141.192C141.49 17.0049 142.145 16.6436 142.882 16.6436ZM142.613 21.1553C143.473 21.1553 144.039 20.4473 144.039 19.3486C144.039 18.2549 143.473 17.542 142.613 17.542C141.773 17.542 141.202 18.2695 141.197 19.3486C141.202 20.4326 141.769 21.1553 142.613 21.1553ZM148.175 17.4932C147.413 17.4932 146.861 18.0498 146.803 18.8652H149.493C149.469 18.04 148.946 17.4932 148.175 17.4932ZM149.488 20.4473H150.499C150.348 21.3994 149.415 22.0635 148.224 22.0635C146.686 22.0635 145.729 21.0283 145.729 19.3682C145.729 17.708 146.695 16.6289 148.18 16.6289C149.635 16.6289 150.553 17.6396 150.553 19.2461V19.6172H146.798V19.6807C146.798 20.5986 147.374 21.2041 148.243 21.2041C148.858 21.2041 149.342 20.9111 149.488 20.4473ZM153.404 22.0537C152.076 22.0537 151.168 20.9844 151.168 19.3438C151.168 17.7129 152.076 16.6436 153.395 16.6436C154.156 16.6436 154.762 16.9902 155.064 17.5762H155.089V14.6367H156.144V22H155.118V21.1016H155.099C154.786 21.7021 154.181 22.0537 153.404 22.0537ZM153.673 17.542C152.818 17.542 152.252 18.2549 152.252 19.3486C152.252 20.4473 152.813 21.1553 153.673 21.1553C154.522 21.1553 155.094 20.4326 155.094 19.3486C155.094 18.2695 154.522 17.542 153.673 17.542ZM162.574 22H159.679V14.9541H162.564C163.81 14.9541 164.63 15.6475 164.63 16.7119C164.63 17.459 164.083 18.1279 163.38 18.2451V18.2842C164.332 18.3916 164.981 19.0703 164.981 20.0078C164.981 21.248 164.078 22 162.574 22ZM160.772 15.8477V17.9521H162.066C163.019 17.9521 163.541 17.5615 163.541 16.8633C163.541 16.209 163.092 15.8477 162.296 15.8477H160.772ZM160.772 21.1064H162.354C163.341 21.1064 163.863 20.7012 163.863 19.9395C163.863 19.1777 163.321 18.7871 162.291 18.7871H160.772V21.1064ZM166.354 23.9287C166.266 23.9287 166.007 23.9141 165.924 23.8994V23.04C166.002 23.0596 166.168 23.0645 166.261 23.0645C166.764 23.0645 167.042 22.8496 167.223 22.2881L167.306 22.0146L165.382 16.6973H166.52L167.882 21.0332H167.906L169.269 16.6973H170.382L168.395 22.2441C167.94 23.5186 167.438 23.9287 166.354 23.9287ZM171.798 22.0537C171.441 22.0537 171.158 21.7705 171.158 21.4141C171.158 21.0527 171.441 20.7744 171.798 20.7744C172.159 20.7744 172.438 21.0527 172.438 21.4141C172.438 21.7705 172.159 22.0537 171.798 22.0537ZM171.798 18.4941C171.441 18.4941 171.158 18.2158 171.158 17.8545C171.158 17.4932 171.441 17.2148 171.798 17.2148C172.159 17.2148 172.438 17.4932 172.438 17.8545C172.438 18.2158 172.159 18.4941 171.798 18.4941ZM110.714 34H109.649V26.9541H110.641L114.293 32.1494H114.332V26.9541H115.396V34H114.41L110.758 28.8096H110.714V34ZM118.8 29.4932C118.038 29.4932 117.486 30.0498 117.428 30.8652H120.118C120.094 30.04 119.571 29.4932 118.8 29.4932ZM120.113 32.4473H121.124C120.973 33.3994 120.04 34.0635 118.849 34.0635C117.311 34.0635 116.354 33.0283 116.354 31.3682C116.354 29.708 117.32 28.6289 118.805 28.6289C120.26 28.6289 121.178 29.6396 121.178 31.2461V31.6172H117.423V31.6807C117.423 32.5986 117.999 33.2041 118.868 33.2041C119.483 33.2041 119.967 32.9111 120.113 32.4473ZM122.35 27.5059H123.404V28.6973H124.42V29.5322H123.404V32.4961C123.404 32.9551 123.609 33.1699 124.054 33.1699C124.166 33.1699 124.347 33.1553 124.415 33.1455V33.9805C124.298 34.0098 124.049 34.0342 123.819 34.0342C122.76 34.0342 122.35 33.6289 122.35 32.6035V29.5322H121.617V28.6973H122.35V27.5059ZM132.276 28.6973L130.816 34H129.723L128.595 30.0059H128.57L127.452 34H126.363L124.898 28.6973H125.953L126.939 32.8965H126.959L128.082 28.6973H129.098L130.226 32.8965H130.245L131.231 28.6973H132.276ZM132.989 34V28.6973H134.049V34H132.989ZM133.521 27.9404C133.18 27.9404 132.901 27.667 132.901 27.3301C132.901 26.9834 133.18 26.7197 133.521 26.7197C133.863 26.7197 134.142 26.9834 134.142 27.3301C134.142 27.667 133.863 27.9404 133.521 27.9404ZM135.177 34V28.6973H136.188V29.5908H136.207C136.529 28.9658 137.062 28.6387 137.882 28.6387C139.054 28.6387 139.723 29.3809 139.723 30.6016V34H138.663V30.8018C138.663 29.9961 138.292 29.5469 137.516 29.5469C136.715 29.5469 136.236 30.1035 136.236 30.9385V34H135.177ZM142.882 32.0371H143.961C144.039 32.7354 144.718 33.1943 145.646 33.1943C146.534 33.1943 147.174 32.7354 147.174 32.1055C147.174 31.5586 146.788 31.2314 145.875 31.0068L144.962 30.7871C143.668 30.4746 143.067 29.8691 143.067 28.8877C143.067 27.6719 144.127 26.8369 145.631 26.8369C147.12 26.8369 148.141 27.6719 148.175 28.8877H147.11C147.047 28.1846 146.466 27.7598 145.616 27.7598C144.767 27.7598 144.186 28.1895 144.186 28.8145C144.186 29.3125 144.557 29.6055 145.465 29.8301L146.241 30.0205C147.687 30.3623 148.287 30.9434 148.287 31.9736C148.287 33.292 147.237 34.1172 145.567 34.1172C144.005 34.1172 142.95 33.3115 142.882 32.0371ZM149.693 35.9287C149.605 35.9287 149.347 35.9141 149.264 35.8994V35.04C149.342 35.0596 149.508 35.0645 149.601 35.0645C150.104 35.0645 150.382 34.8496 150.562 34.2881L150.646 34.0146L148.722 28.6973H149.859L151.222 33.0332H151.246L152.608 28.6973H153.722L151.734 34.2441C151.28 35.5186 150.777 35.9287 149.693 35.9287ZM154.278 30.2061C154.278 29.2734 155.113 28.6338 156.334 28.6338C157.496 28.6338 158.336 29.2881 158.36 30.2109H157.364C157.32 29.7422 156.915 29.4492 156.31 29.4492C155.709 29.4492 155.309 29.7275 155.309 30.1475C155.309 30.4697 155.572 30.6895 156.134 30.8262L157.013 31.0361C158.082 31.2949 158.478 31.6807 158.478 32.4619C158.478 33.4092 157.579 34.0635 156.295 34.0635C155.06 34.0635 154.215 33.4238 154.137 32.4668H155.182C155.265 32.9746 155.675 33.2529 156.349 33.2529C157.008 33.2529 157.423 32.9795 157.423 32.5498C157.423 32.2129 157.213 32.0371 156.656 31.8955L155.709 31.6611C154.752 31.4268 154.278 30.9385 154.278 30.2061ZM159.654 27.5059H160.709V28.6973H161.725V29.5322H160.709V32.4961C160.709 32.9551 160.914 33.1699 161.358 33.1699C161.471 33.1699 161.651 33.1553 161.72 33.1455V33.9805C161.603 34.0098 161.354 34.0342 161.124 34.0342C160.064 34.0342 159.654 33.6289 159.654 32.6035V29.5322H158.922V28.6973H159.654V27.5059ZM164.698 29.4932C163.937 29.4932 163.385 30.0498 163.326 30.8652H166.017C165.992 30.04 165.47 29.4932 164.698 29.4932ZM166.012 32.4473H167.022C166.871 33.3994 165.938 34.0635 164.747 34.0635C163.209 34.0635 162.252 33.0283 162.252 31.3682C162.252 29.708 163.219 28.6289 164.703 28.6289C166.158 28.6289 167.076 29.6396 167.076 31.2461V31.6172H163.321V31.6807C163.321 32.5986 163.897 33.2041 164.767 33.2041C165.382 33.2041 165.865 32.9111 166.012 32.4473ZM167.931 34V28.6973H168.941V29.5957H168.961C169.205 29 169.776 28.6387 170.47 28.6387C171.207 28.6387 171.739 29.0098 171.954 29.6689H171.979C172.257 29.0293 172.882 28.6387 173.639 28.6387C174.684 28.6387 175.367 29.3271 175.367 30.3867V34H174.312V30.6406C174.312 29.9473 173.937 29.5469 173.277 29.5469C172.628 29.5469 172.169 30.0303 172.169 30.709V34H171.129V30.5527C171.129 29.9375 170.733 29.5469 170.113 29.5469C169.459 29.5469 168.99 30.0547 168.99 30.748V34H167.931ZM176.339 30.2061C176.339 29.2734 177.174 28.6338 178.395 28.6338C179.557 28.6338 180.396 29.2881 180.421 30.2109H179.425C179.381 29.7422 178.976 29.4492 178.37 29.4492C177.77 29.4492 177.369 29.7275 177.369 30.1475C177.369 30.4697 177.633 30.6895 178.194 30.8262L179.073 31.0361C180.143 31.2949 180.538 31.6807 180.538 32.4619C180.538 33.4092 179.64 34.0635 178.355 34.0635C177.12 34.0635 176.275 33.4238 176.197 32.4668H177.242C177.325 32.9746 177.735 33.2529 178.409 33.2529C179.068 33.2529 179.483 32.9795 179.483 32.5498C179.483 32.2129 179.273 32.0371 178.717 31.8955L177.77 31.6611C176.812 31.4268 176.339 30.9385 176.339 30.2061ZM191.075 34L190.465 33.3359C189.894 33.834 189.078 34.1221 188.238 34.1221C186.808 34.1221 185.841 33.3164 185.841 32.1348C185.841 31.3193 186.275 30.7041 187.193 30.2109C187.311 30.1523 187.447 30.0742 187.481 30.0645C186.847 29.3955 186.607 28.9512 186.607 28.4336C186.607 27.5254 187.398 26.8467 188.463 26.8467C189.542 26.8467 190.309 27.5059 190.309 28.4336C190.309 29.1514 189.869 29.6934 188.829 30.2451L190.431 31.9688C190.636 31.5879 190.733 31.0654 190.733 30.2939V30.0254H191.681V30.3232C191.681 31.3193 191.48 32.0908 191.095 32.667L192.359 34H191.075ZM187.794 30.7822C187.14 31.1875 186.876 31.5537 186.876 32.0566C186.876 32.7891 187.467 33.2773 188.341 33.2773C188.927 33.2773 189.527 33.0479 189.864 32.6865L188.014 30.665C187.955 30.6943 187.838 30.7578 187.794 30.7822ZM188.292 29.6934C189.063 29.2979 189.356 28.9609 189.356 28.4873C189.356 27.9795 189 27.6279 188.468 27.6279C187.95 27.6279 187.579 27.9893 187.579 28.4922C187.579 28.8584 187.77 29.1758 188.292 29.6934ZM194.913 32.0371H195.992C196.07 32.7354 196.749 33.1943 197.677 33.1943C198.565 33.1943 199.205 32.7354 199.205 32.1055C199.205 31.5586 198.819 31.2314 197.906 31.0068L196.993 30.7871C195.699 30.4746 195.099 29.8691 195.099 28.8877C195.099 27.6719 196.158 26.8369 197.662 26.8369C199.151 26.8369 200.172 27.6719 200.206 28.8877H199.142C199.078 28.1846 198.497 27.7598 197.647 27.7598C196.798 27.7598 196.217 28.1895 196.217 28.8145C196.217 29.3125 196.588 29.6055 197.496 29.8301L198.272 30.0205C199.718 30.3623 200.318 30.9434 200.318 31.9736C200.318 33.292 199.269 34.1172 197.599 34.1172C196.036 34.1172 194.981 33.3115 194.913 32.0371ZM203.463 34.0635C201.93 34.0635 200.953 33.0186 200.953 31.3486C200.953 29.6836 201.935 28.6289 203.463 28.6289C204.991 28.6289 205.968 29.6787 205.968 31.3486C205.968 33.0186 204.996 34.0635 203.463 34.0635ZM203.463 33.1846C204.361 33.1846 204.894 32.5059 204.894 31.3486C204.894 30.1914 204.361 29.5078 203.463 29.5078C202.564 29.5078 202.027 30.1963 202.027 31.3486C202.027 32.5059 202.564 33.1846 203.463 33.1846ZM207.135 34V29.5322H206.402V28.6973H207.135V28.209C207.135 27.2178 207.584 26.7832 208.658 26.7832C208.849 26.7832 209.024 26.8027 209.195 26.832V27.6377C209.088 27.6133 208.941 27.5986 208.8 27.5986C208.365 27.5986 208.185 27.7891 208.18 28.2432V28.6973H209.2V29.5322H208.189V34H207.135ZM210.396 27.5059H211.451V28.6973H212.467V29.5322H211.451V32.4961C211.451 32.9551 211.656 33.1699 212.101 33.1699C212.213 33.1699 212.394 33.1553 212.462 33.1455V33.9805C212.345 34.0098 212.096 34.0342 211.866 34.0342C210.807 34.0342 210.396 33.6289 210.396 32.6035V29.5322H209.664V28.6973H210.396V27.5059ZM220.323 28.6973L218.863 34H217.77L216.642 30.0059H216.617L215.499 34H214.41L212.945 28.6973H214L214.986 32.8965H215.006L216.129 28.6973H217.145L218.272 32.8965H218.292L219.278 28.6973H220.323ZM222.75 33.209C223.536 33.209 224.132 32.7061 224.132 32.0078V31.5928L222.843 31.6807C222.12 31.7246 221.744 31.9932 221.744 32.4619C221.744 32.916 222.14 33.209 222.75 33.209ZM222.467 34.0537C221.407 34.0537 220.675 33.4287 220.675 32.4814C220.675 31.5537 221.393 31.0166 222.701 30.9336L224.132 30.8506V30.4404C224.132 29.835 223.727 29.5029 223.019 29.5029C222.442 29.5029 222.022 29.8008 221.93 30.2598H220.938C220.968 29.3223 221.856 28.6289 223.048 28.6289C224.342 28.6289 225.177 29.3125 225.177 30.3623V34H224.166V33.1162H224.142C223.849 33.6924 223.189 34.0537 222.467 34.0537ZM226.241 34V28.6973H227.252V29.5908H227.271C227.438 29 227.926 28.6436 228.551 28.6436C228.707 28.6436 228.839 28.6582 228.922 28.6777V29.6689C228.834 29.6348 228.648 29.6055 228.438 29.6055C227.74 29.6055 227.301 30.0889 227.301 30.8359V34H226.241ZM231.583 29.4932C230.821 29.4932 230.27 30.0498 230.211 30.8652H232.901C232.877 30.04 232.354 29.4932 231.583 29.4932ZM232.896 32.4473H233.907C233.756 33.3994 232.823 34.0635 231.632 34.0635C230.094 34.0635 229.137 33.0283 229.137 31.3682C229.137 29.708 230.104 28.6289 231.588 28.6289C233.043 28.6289 233.961 29.6396 233.961 31.2461V31.6172H230.206V31.6807C230.206 32.5986 230.782 33.2041 231.651 33.2041C232.267 33.2041 232.75 32.9111 232.896 32.4473ZM239.64 35.3525H238.678C238.077 34.6055 237.359 33.2285 237.359 31.0752C237.359 28.917 238.038 27.8281 238.727 26.959H239.654C239.19 27.501 238.438 28.9414 238.438 31.0654C238.438 33.1748 239.122 34.459 239.64 35.3525ZM241.563 34H240.47V26.9541H241.563V34ZM242.384 35.3525C242.901 34.459 243.58 33.1748 243.58 31.0654C243.58 28.9463 242.843 27.501 242.374 26.959H243.302C243.985 27.833 244.669 28.917 244.669 31.0752C244.669 33.2285 243.946 34.6055 243.346 35.3525H242.384ZM248.409 26.9541H251.168C252.535 26.9541 253.492 27.8965 253.492 29.2686C253.492 30.6455 252.516 31.5928 251.134 31.5928H249.503V34H248.409V26.9541ZM249.503 27.877V30.6748H250.88C251.827 30.6748 252.374 30.1621 252.374 29.2734C252.374 28.3848 251.832 27.877 250.88 27.877H249.503ZM258.849 28.6973L256.939 34H255.812L253.897 28.6973H255.016L256.368 32.9551H256.393L257.75 28.6973H258.849ZM259.801 27.5059H260.855V28.6973H261.871V29.5322H260.855V32.4961C260.855 32.9551 261.061 33.1699 261.505 33.1699C261.617 33.1699 261.798 33.1553 261.866 33.1455V33.9805C261.749 34.0098 261.5 34.0342 261.271 34.0342C260.211 34.0342 259.801 33.6289 259.801 32.6035V29.5322H259.068V28.6973H259.801V27.5059ZM269.552 33.0527V34H265.177V26.9541H266.271V33.0527H269.552ZM270.426 27.5059H271.48V28.6973H272.496V29.5322H271.48V32.4961C271.48 32.9551 271.686 33.1699 272.13 33.1699C272.242 33.1699 272.423 33.1553 272.491 33.1455V33.9805C272.374 34.0098 272.125 34.0342 271.896 34.0342C270.836 34.0342 270.426 33.6289 270.426 32.6035V29.5322H269.693V28.6973H270.426V27.5059ZM275.26 34.0537C273.932 34.0537 273.023 32.9844 273.023 31.3438C273.023 29.7129 273.932 28.6436 275.25 28.6436C276.012 28.6436 276.617 28.9902 276.92 29.5762H276.944V26.6367H277.999V34H276.974V33.1016H276.954C276.642 33.7021 276.036 34.0537 275.26 34.0537ZM275.528 29.542C274.674 29.542 274.107 30.2549 274.107 31.3486C274.107 32.4473 274.669 33.1553 275.528 33.1553C276.378 33.1553 276.949 32.4326 276.949 31.3486C276.949 30.2695 276.378 29.542 275.528 29.542Z" fill="#686868"/>
<path d="M32.9582 20.5814C31.1515 20.5814 29.6317 21.1687 28.6856 22.3471V20.8249H26V33.6368H28.8077V27.0406C28.8077 24.4655 30.2299 23.2034 32.2905 23.2034C34.1423 23.2047 35.2776 24.3755 35.2776 26.6613V33.6381H38.0853V26.1539C38.0853 22.2799 35.9258 20.5814 32.9582 20.5814ZM44.9739 20.5814C41.2922 20.5814 38.5834 23.3239 38.5834 27.1497C38.5834 30.9755 41.269 33.7459 45.4195 33.7459C47.5497 33.7459 49.2856 33.0241 50.3977 31.6529L48.8461 29.8008C47.966 30.7383 46.8783 31.1962 45.4879 31.1962C43.3345 31.1962 41.8257 29.9924 41.4826 28.1163H51.1838C51.207 27.8271 51.2302 27.4668 51.2302 27.2283C51.2302 23.2047 48.5898 20.5814 44.9776 20.5814H44.9739ZM41.4582 26.1159C41.7365 24.2397 43.1025 22.9915 44.9776 22.9915C46.8746 22.9915 48.2431 24.26 48.4738 26.1159H41.4582ZM79.3829 15C78.3184 15 77.531 15.7941 77.531 16.8051C77.531 17.8161 78.3184 18.6089 79.3829 18.6089C80.4718 18.6089 81.236 17.7907 81.236 16.7328C81.236 15.7459 80.4449 15 79.3829 15ZM78.1255 20.8262H75.684L72.3221 30.255L68.97 20.8262H66.5285L63.1532 30.2068L59.9365 20.8262H55.0536V16.6402H52.1238V20.8262H50.1706V23.2364L52.1238 23.244V29.4596C52.1238 32.2985 53.6363 33.751 56.3463 33.751C57.3876 33.751 58.4301 33.463 59.1247 32.8858L58.3142 30.7433C57.8462 31.1038 57.2753 31.2905 56.693 31.2736C55.5821 31.2736 55.0536 30.5835 55.0536 29.3328V23.244H58.0017L61.7676 33.6457H64.4533L67.7151 24.7281L70.9232 33.6381H73.7309L78.1255 21.1725V33.6381H81.0553V20.8262H78.1255ZM94.4834 33.6381V26.2123C94.4834 22.3383 92.2861 20.5814 89.316 20.5814C87.5093 20.5814 86.0335 21.1687 85.0837 22.3471V20.8249H82.276V33.6368H85.2058V27.0406C85.2058 24.4655 86.584 23.2034 88.6446 23.2034C90.4965 23.2034 91.5536 24.2474 91.5536 26.5332V33.6368L94.4834 33.6381Z" fill="#1F3C66"/>
<path d="M79.3829 15C78.3184 15 77.531 15.7941 77.531 16.8051C77.531 17.8161 78.3184 18.6089 79.3829 18.6089C80.4718 18.6089 81.236 17.7907 81.236 16.7328C81.236 15.7459 80.4449 15 79.3829 15Z" fill="#FF8A00"/>
<rect x="101" y="10" width="1" height="28" fill="#D9D9D9"/>
</svg>
