<svg width="30" height="30" viewBox="0 0 30 30" fill="none" xmlns="http://www.w3.org/2000/svg">
<path d="M0.363811 10.6899C0.0944642 10.1904 -0.0303204 9.62558 0.00346183 9.05901C0.0372441 8.49244 0.228256 7.9465 0.555061 7.48245C1.08913 6.69884 1.80437 6.05565 2.64006 5.60745L12.0163 0.727447C12.9379 0.248236 13.9613 -0.00195313 15.0001 -0.00195312C16.0388 -0.00195313 17.0622 0.248236 17.9838 0.727447L27.3588 5.6112C28.1945 6.0594 28.9097 6.70259 29.4438 7.4862C29.7706 7.95025 29.9616 8.49619 29.9954 9.06276C30.0292 9.62933 29.9044 10.1941 29.6351 10.6937C29.3451 11.2422 28.9102 11.7007 28.3777 12.0192C27.8452 12.3377 27.2355 12.504 26.6151 12.4999H3.38506C2.76401 12.5038 2.15382 12.3371 1.62105 12.0179C1.08828 11.6987 0.653385 11.2394 0.363811 10.6899ZM28.7501 27.5C28.7501 26.8369 28.4867 26.201 28.0178 25.7322C27.549 25.2633 26.9131 25 26.2501 25V14.9999H23.7501V25H20.0001V14.9999H17.5001V25H12.5001V14.9999H10.0001V25H6.25006V14.9999H3.75006V25C3.08702 25 2.45114 25.2633 1.98229 25.7322C1.51345 26.201 1.25006 26.8369 1.25006 27.5C0.918541 27.5 0.600598 27.6316 0.366178 27.8661C0.131757 28.1005 6.12973e-05 28.4184 6.12973e-05 28.75C6.12973e-05 29.0815 0.131757 29.3994 0.366178 29.6338C0.600598 29.8683 0.918541 30 1.25006 30H28.7501C29.0816 30 29.3995 29.8683 29.6339 29.6338C29.8684 29.3994 30.0001 29.0815 30.0001 28.75C30.0001 28.4184 29.8684 28.1005 29.6339 27.8661C29.3995 27.6316 29.0816 27.5 28.7501 27.5Z" fill="currentColor"/>
</svg>
