<svg width="24" height="24" viewBox="0 0 24 24" fill="none" xmlns="http://www.w3.org/2000/svg">
<path d="M17.8333 21.9998H6.16667C3.86917 21.9998 2 20.1307 2 17.8332V10.1032C2 8.71568 2.68667 7.42401 3.83667 6.64901L9.66917 2.71234C11.085 1.75734 12.915 1.75734 14.3308 2.71234L20.1642 6.64901C21.3133 7.42401 22 8.71484 22 10.1032V17.8332C22 20.1307 20.1308 21.9998 17.8333 21.9998ZM12 3.66401C11.5133 3.66401 11.0267 3.80734 10.6017 4.09484L4.76833 8.03068C4.07833 8.49568 3.66667 9.26984 3.66667 10.1023V17.8323C3.66667 19.2107 4.78833 20.3323 6.16667 20.3323H17.8333C19.2117 20.3323 20.3333 19.2107 20.3333 17.8323V10.1032C20.3333 9.27068 19.9217 8.49568 19.2325 8.03151L13.3983 4.09484C12.9733 3.80734 12.4867 3.66401 12 3.66401Z" fill="#F4F5FA" stroke="white"/>
</svg>
