<svg width="12" height="12" viewBox="0 0 12 12" fill="none" xmlns="http://www.w3.org/2000/svg">
<path d="M6 12C5.187 12 4.42 11.643 3.896 11.0205C3.126 11.109 2.3325 10.8175 1.7575 10.243C1.183 9.668 0.893 8.873 0.9625 8.062C0.357 7.58 0 6.813 0 6C0 5.187 0.357 4.42 0.98 3.896C0.8925 3.1275 1.1825 2.3325 1.7575 1.7575C2.3325 1.182 3.126 0.8925 3.938 0.9625C4.42 0.3575 5.187 0 6 0C6.813 0 7.58 0.357 8.104 0.9795C8.875 0.8915 9.6675 1.1825 10.2425 1.757C10.817 2.332 11.107 3.127 11.0375 3.938C11.643 4.42 12 5.187 12 6C12 6.813 11.643 7.58 11.02 8.104C11.1075 8.8725 10.8175 9.6675 10.2425 10.2425C9.667 10.8175 8.872 11.107 8.062 11.0375C7.58 11.6425 6.813 12 6 12ZM3.9365 10.038C4.217 10.038 4.477 10.1585 4.6605 10.376C4.9945 10.7725 5.4825 11 6 11C6.5175 11 7.0055 10.7725 7.3395 10.376C7.541 10.1365 7.8345 10.0155 8.1475 10.041C8.6645 10.0845 9.1695 9.901 9.5355 9.535C9.901 9.1695 10.0855 8.6635 10.0415 8.147C10.0145 7.835 10.1365 7.5405 10.3765 7.3385C10.7725 7.005 11 6.5165 11 5.9995C11 5.4825 10.7725 4.994 10.3765 4.6605C10.137 4.459 10.0145 4.164 10.0415 3.852C10.0855 3.3355 9.9015 2.8295 9.5355 2.464C9.1695 2.0985 8.6615 1.916 8.148 1.958C7.835 1.9865 7.541 1.8625 7.3395 1.6235C7.0055 1.227 6.5175 0.9995 6 0.9995C5.4825 0.9995 4.9945 1.227 4.6605 1.6235C4.4585 1.863 4.164 1.983 3.8525 1.9585C3.333 1.9135 2.8305 2.0985 2.4645 2.4645C2.099 2.83 1.9145 3.336 1.9585 3.8525C1.9855 4.1645 1.8635 4.459 1.6235 4.661C1.2275 4.9945 1 5.483 1 6C1 6.517 1.2275 7.0055 1.6235 7.339C1.863 7.5405 1.9855 7.8355 1.9585 8.1475C1.9145 8.664 2.0985 9.17 2.4645 9.5355C2.8305 9.9015 3.341 10.0845 3.852 10.0415C3.8805 10.039 3.9085 10.038 3.9365 10.038ZM4.5 4C4.224 4 4 4.224 4 4.5C4 4.776 4.224 5 4.5 5C4.776 5 5 4.776 5 4.5C5 4.224 4.776 4 4.5 4ZM7.5 7C7.224 7 7 7.224 7 7.5C7 7.776 7.224 8 7.5 8C7.776 8 8 7.776 8 7.5C8 7.224 7.776 7 7.5 7ZM5.416 7.7775L7.416 4.7775C7.5695 4.548 7.5075 4.237 7.2775 4.084C7.047 3.93 6.737 3.993 6.584 4.2225L4.584 7.2225C4.4305 7.452 4.4925 7.763 4.7225 7.916C4.808 7.973 4.904 8 4.9995 8C5.161 8 5.32 7.922 5.416 7.7775Z" fill="currentColor"/>
</svg>
