<svg width="36" height="36" viewBox="0 0 36 36" fill="none" xmlns="http://www.w3.org/2000/svg">
<g clip-path="url(#clip0_5001_15246)">
<path d="M12.75 4.5H8.25C6.183 4.5 4.5 6.183 4.5 8.25V12.75C4.5 14.817 6.183 16.5 8.25 16.5H12.75C14.817 16.5 16.5 14.817 16.5 12.75V8.25C16.5 6.183 14.817 4.5 12.75 4.5ZM15 12.75C15 13.9905 13.9905 15 12.75 15H8.25C7.0095 15 6 13.9905 6 12.75V8.25C6 7.0095 7.0095 6 8.25 6H12.75C13.9905 6 15 7.0095 15 8.25V12.75ZM23.25 16.5H27.75C29.817 16.5 31.5 14.817 31.5 12.75V8.25C31.5 6.183 29.817 4.5 27.75 4.5H23.25C21.183 4.5 19.5 6.183 19.5 8.25V12.75C19.5 14.817 21.183 16.5 23.25 16.5ZM21 8.25C21 7.0095 22.0095 6 23.25 6H27.75C28.9905 6 30 7.0095 30 8.25V12.75C30 13.9905 28.9905 15 27.75 15H23.25C22.0095 15 21 13.9905 21 12.75V8.25ZM12.75 19.5H8.25C6.183 19.5 4.5 21.183 4.5 23.25V27.75C4.5 29.817 6.183 31.5 8.25 31.5H12.75C14.817 31.5 16.5 29.817 16.5 27.75V23.25C16.5 21.183 14.817 19.5 12.75 19.5ZM15 27.75C15 28.9905 13.9905 30 12.75 30H8.25C7.0095 30 6 28.9905 6 27.75V23.25C6 22.0095 7.0095 21 8.25 21H12.75C13.9905 21 15 22.0095 15 23.25V27.75ZM11.25 22.5H9.75C8.5095 22.5 7.5 23.5095 7.5 24.75V26.25C7.5 27.4905 8.5095 28.5 9.75 28.5H11.25C12.4905 28.5 13.5 27.4905 13.5 26.25V24.75C13.5 23.5095 12.4905 22.5 11.25 22.5ZM12 26.25C12 26.664 11.664 27 11.25 27H9.75C9.336 27 9 26.664 9 26.25V24.75C9 24.336 9.336 24 9.75 24H11.25C11.664 24 12 24.336 12 24.75V26.25ZM11.25 7.5H9.75C8.5095 7.5 7.5 8.5095 7.5 9.75V11.25C7.5 12.4905 8.5095 13.5 9.75 13.5H11.25C12.4905 13.5 13.5 12.4905 13.5 11.25V9.75C13.5 8.5095 12.4905 7.5 11.25 7.5ZM12 11.25C12 11.664 11.664 12 11.25 12H9.75C9.336 12 9 11.664 9 11.25V9.75C9 9.336 9.336 9 9.75 9H11.25C11.664 9 12 9.336 12 9.75V11.25ZM24.75 13.5H26.25C27.4905 13.5 28.5 12.4905 28.5 11.25V9.75C28.5 8.5095 27.4905 7.5 26.25 7.5H24.75C23.5095 7.5 22.5 8.5095 22.5 9.75V11.25C22.5 12.4905 23.5095 13.5 24.75 13.5ZM24 9.75C24 9.336 24.336 9 24.75 9H26.25C26.664 9 27 9.336 27 9.75V11.25C27 11.664 26.664 12 26.25 12H24.75C24.336 12 24 11.664 24 11.25V9.75ZM26.25 28.5C27.4905 28.5 28.5 27.4905 28.5 26.25V24H29.25C30.4905 24 31.5 22.9905 31.5 21.75C31.5 20.5095 30.4905 19.5 29.25 19.5C28.0095 19.5 27 20.5095 27 21.75V22.5H24V21.75C24 20.5095 22.9905 19.5 21.75 19.5C20.5095 19.5 19.5 20.5095 19.5 21.75C19.5 22.9905 20.5095 24 21.75 24H22.5V27H21.75C20.5095 27 19.5 28.0095 19.5 29.25C19.5 30.4905 20.5095 31.5 21.75 31.5C22.9905 31.5 24 30.4905 24 29.25V28.5H26.25ZM28.5 21.75C28.5 21.336 28.836 21 29.25 21C29.664 21 30 21.336 30 21.75C30 22.164 29.664 22.5 29.25 22.5H28.5V21.75ZM27 26.25C27 26.664 26.664 27 26.25 27H24V24H27V26.25ZM21 21.75C21 21.336 21.336 21 21.75 21C22.164 21 22.5 21.336 22.5 21.75V22.5H21.75C21.336 22.5 21 22.164 21 21.75ZM22.5 29.25C22.5 29.664 22.164 30 21.75 30C21.336 30 21 29.664 21 29.25C21 28.836 21.336 28.5 21.75 28.5H22.5V29.25ZM0 9.75V6.75C0 3.0285 3.0285 0 6.75 0H9.75C10.164 0 10.5 0.336 10.5 0.75C10.5 1.164 10.164 1.5 9.75 1.5H6.75C3.855 1.5 1.5 3.855 1.5 6.75V9.75C1.5 10.164 1.164 10.5 0.75 10.5C0.336 10.5 0 10.164 0 9.75ZM10.5 35.25C10.5 35.664 10.164 36 9.75 36H6.75C3.0285 36 0 32.9715 0 29.25V26.25C0 25.836 0.336 25.5 0.75 25.5C1.164 25.5 1.5 25.836 1.5 26.25V29.25C1.5 32.145 3.855 34.5 6.75 34.5H9.75C10.164 34.5 10.5 34.836 10.5 35.25ZM36 26.25V29.25C36 32.9715 32.9715 36 29.25 36H26.25C25.836 36 25.5 35.664 25.5 35.25C25.5 34.836 25.836 34.5 26.25 34.5H29.25C32.145 34.5 34.5 32.145 34.5 29.25V26.25C34.5 25.836 34.836 25.5 35.25 25.5C35.664 25.5 36 25.836 36 26.25ZM36 6.75V9.75C36 10.164 35.664 10.5 35.25 10.5C34.836 10.5 34.5 10.164 34.5 9.75V6.75C34.5 3.855 32.145 1.5 29.25 1.5H26.25C25.836 1.5 25.5 1.164 25.5 0.75C25.5 0.336 25.836 0 26.25 0H29.25C32.9715 0 36 3.0285 36 6.75Z" fill="currentColor"/>
</g>
<defs>
<clipPath id="clip0_5001_15246">
<rect width="36" height="36" fill="currentColor"/>
</clipPath>
</defs>
</svg>
