<svg width="9" height="11" viewBox="0 0 9 11" fill="none" xmlns="http://www.w3.org/2000/svg">
<path d="M8.625 3.20833C8.625 3.46042 8.41875 3.66667 8.16667 3.66667H6.7825C6.66333 5.45417 5.16917 6.875 3.35417 6.875H2.11667L6.16375 10.1888C6.36083 10.3492 6.38833 10.6379 6.22792 10.835C6.13625 10.945 6.00333 11.0046 5.87042 11.0046C5.76958 11.0046 5.66417 10.9725 5.58167 10.8992L0.544583 6.76958C0.393333 6.64583 0.338333 6.44417 0.4025 6.26083C0.466667 6.0775 0.640833 5.95833 0.833333 5.95833H3.35417C4.665 5.95833 5.74667 4.95 5.86583 3.66667H0.833333C0.58125 3.66667 0.375 3.46042 0.375 3.20833C0.375 2.95625 0.58125 2.75 0.833333 2.75H5.77875C5.48083 1.69125 4.50458 0.916667 3.35417 0.916667H0.833333C0.58125 0.916667 0.375 0.710417 0.375 0.458333C0.375 0.20625 0.58125 0 0.833333 0H8.16667C8.41875 0 8.625 0.20625 8.625 0.458333C8.625 0.710417 8.41875 0.916667 8.16667 0.916667H5.68708C6.205 1.39792 6.57625 2.035 6.71833 2.75H8.16208C8.41417 2.75 8.62042 2.95625 8.62042 3.20833H8.625Z" fill="currentColor"/>
</svg>
