<svg width="28" height="28" viewBox="0 0 28 28" fill="none" xmlns="http://www.w3.org/2000/svg">
<g clip-path="url(#clip0_5001_15151)">
<path d="M21.5 18.1667H20.6667V17.3333C20.6667 16.8733 20.2942 16.5 19.8333 16.5C19.3725 16.5 19 16.8733 19 17.3333V18.1667H14.8333C13.455 18.1667 12.3333 19.2883 12.3333 20.6667V21.0833C12.3333 21.7725 11.7725 22.3333 11.0833 22.3333C10.3942 22.3333 9.83333 21.7725 9.83333 21.0833V6.91667C9.83333 6.4675 9.7225 6.04667 9.54083 5.66667H11.5C11.9608 5.66667 12.3333 5.29333 12.3333 4.83333C12.3333 4.37333 11.9608 4 11.5 4H6.91667C5.30833 4 4 5.30833 4 6.91667V7.33333C4 8.71167 5.12167 9.83333 6.5 9.83333H8.16667V21.0833C8.16667 22.6908 9.47417 23.9992 11.0817 24H21.0833C22.6917 24 24 22.6917 24 21.0833V20.6667C24 19.2883 22.8783 18.1667 21.5 18.1667ZM8.16667 8.16667H6.5C6.04 8.16667 5.66667 7.7925 5.66667 7.33333V6.91667C5.66667 6.2275 6.2275 5.66667 6.91667 5.66667C7.60583 5.66667 8.16667 6.2275 8.16667 6.91667V8.16667ZM22.3333 21.0833C22.3333 21.7725 21.7725 22.3333 21.0833 22.3333H13.7183C13.8992 21.9542 14 21.5308 14 21.0833V20.6667C14 20.2075 14.3733 19.8333 14.8333 19.8333H21.5C21.96 19.8333 22.3333 20.2075 22.3333 20.6667V21.0833ZM18.1667 15.6667C21.3825 15.6667 24 13.05 24 9.83333C24 6.61667 21.3825 4 18.1667 4C14.9508 4 12.3333 6.61667 12.3333 9.83333C12.3333 13.05 14.9508 15.6667 18.1667 15.6667ZM18.1667 5.66667C20.4642 5.66667 22.3333 7.53583 22.3333 9.83333C22.3333 12.1308 20.4642 14 18.1667 14C15.8692 14 14 12.1308 14 9.83333C14 7.53583 15.8692 5.66667 18.1667 5.66667ZM15.265 9.66667C15.5867 9.3375 16.1142 9.33333 16.4433 9.65417L17.3858 10.5775C17.5058 10.695 17.7017 10.6933 17.8208 10.5775L19.6733 8.79917C20.0042 8.48083 20.5333 8.49167 20.8517 8.82333C21.17 9.155 21.1592 9.6825 20.8275 10.0017L18.9833 11.7717C18.6058 12.1442 18.1067 12.3308 17.6058 12.3308C17.105 12.3308 16.6025 12.1442 16.2192 11.7692L15.2767 10.8458C14.9475 10.5233 14.9433 9.995 15.265 9.66667Z" fill="currentColor"/>
</g>
<defs>
<clipPath id="clip0_5001_15151">
<rect width="20" height="20" fill="currentColor" transform="translate(4 4)"/>
</clipPath>
</defs>
</svg>
