<svg width="60" height="60" viewBox="0 0 60 60" fill="none" xmlns="http://www.w3.org/2000/svg">
<g clip-path="url(#clip0_93_135)">
<path fill-rule="evenodd" clip-rule="evenodd" d="M60.0586 30C60.0586 46.5422 46.6005 60 30.0586 60C13.5166 60 0.0585938 46.5422 0.0585938 30C0.0585938 13.4578 13.5163 0 30.0586 0C46.6009 0 60.0586 13.4579 60.0586 30Z" fill="#0692E5"/>
<path fill-rule="evenodd" clip-rule="evenodd" d="M43.4781 35.1337C42.4314 37.8945 40.5337 40.2509 38.0594 41.8621C35.5851 43.4733 32.6625 44.2557 29.7142 44.0962C26.7659 43.9367 23.9447 42.8436 21.6586 40.9749C19.3726 39.1063 17.7401 36.5589 16.9973 33.7013C16.2546 30.8436 16.44 27.8237 17.5267 25.0784C18.6135 22.3331 20.5453 20.0046 23.0428 18.4296C25.5403 16.8546 28.474 16.1148 31.4197 16.3172C34.3653 16.5196 37.1703 17.6536 39.4289 19.5554L39.4618 17.7029C39.4615 17.4536 39.5108 17.2068 39.607 16.9768C39.7032 16.7468 39.8442 16.5384 40.0219 16.3635C40.1996 16.1887 40.4104 16.0511 40.6419 15.9587C40.8734 15.8663 41.121 15.8211 41.3702 15.8255C41.6195 15.8299 41.8653 15.884 42.0934 15.9846C42.3214 16.0852 42.5272 16.2302 42.6985 16.4112C42.8699 16.5923 43.0034 16.8056 43.0913 17.0389C43.1793 17.2721 43.2198 17.5206 43.2106 17.7697L43.0793 25.1532C43.071 25.6446 42.8699 26.1131 42.5194 26.4576C42.1689 26.8022 41.697 26.9952 41.2055 26.995C41.1066 26.9949 41.0078 26.9871 40.9102 26.9716L33.9648 25.8672C33.7185 25.8322 33.4816 25.7485 33.268 25.621C33.0543 25.4935 32.8682 25.3248 32.7204 25.1247C32.5726 24.9245 32.4661 24.697 32.4071 24.4553C32.3482 24.2136 32.3379 23.9626 32.3769 23.7169C32.4159 23.4711 32.5034 23.2357 32.6344 23.0241C32.7653 22.8126 32.937 22.6292 33.1395 22.4847C33.342 22.3401 33.5713 22.2374 33.8139 22.1823C34.0565 22.1273 34.3077 22.1211 34.5527 22.1641L37.2074 22.5859C35.5826 21.1426 33.5388 20.2566 31.3746 20.0576C29.2104 19.8585 27.0393 20.3567 25.1784 21.4794C23.3176 22.6022 21.8645 24.2905 21.0315 26.2979C20.1986 28.3052 20.0294 30.5264 20.5486 32.6367C21.0679 34.7471 22.2485 36.6361 23.9178 38.0278C25.5871 39.4194 27.6577 40.2408 29.8271 40.3718C31.9964 40.5029 34.1508 39.9368 35.9755 38.7562C37.8002 37.5756 39.1996 35.8424 39.9691 33.8099C40.1447 33.3447 40.498 32.9682 40.9511 32.7634C41.1755 32.662 41.4177 32.6057 41.6638 32.5979C41.9099 32.5901 42.1552 32.6308 42.3856 32.7177C42.6159 32.8047 42.8269 32.9362 43.0065 33.1047C43.1861 33.2732 43.3307 33.4754 43.4321 33.6997C43.5335 33.9241 43.5897 34.1663 43.5976 34.4124C43.6054 34.6585 43.5647 34.9038 43.4777 35.1341L43.4781 35.1337Z" fill="white"/>
</g>
<defs>
<clipPath id="clip0_93_135">
<rect width="60" height="60" fill="white"/>
</clipPath>
</defs>
</svg>
