<svg width="24" height="24" viewBox="0 0 24 24" fill="none" xmlns="http://www.w3.org/2000/svg">
<g clip-path="url(#clip0_5001_15191)">
<path d="M22.08 13.4409H0.96C0.43008 13.4409 0 13.0109 0 12.4809C0 11.951 0.43008 11.5209 0.96 11.5209H22.08C22.6099 11.5209 23.04 11.951 23.04 12.4809C23.04 13.0109 22.6099 13.4409 22.08 13.4409ZM7.68 23.0409C7.68 22.511 7.24992 22.0809 6.72 22.0809H4.8C3.21216 22.0809 1.92 20.7888 1.92 19.2009V17.2809C1.92 16.751 1.48992 16.3209 0.96 16.3209C0.43008 16.3209 0 16.751 0 17.2809V19.2009C0 21.8477 2.15328 24.0009 4.8 24.0009H6.72C7.24992 24.0009 7.68 23.5709 7.68 23.0409ZM23.04 19.2009V17.2809C23.04 16.751 22.6099 16.3209 22.08 16.3209C21.5501 16.3209 21.12 16.751 21.12 17.2809V19.2009C21.12 20.7888 19.8278 22.0809 18.24 22.0809H16.32C15.7901 22.0809 15.36 22.511 15.36 23.0409C15.36 23.5709 15.7901 24.0009 16.32 24.0009H18.24C20.8867 24.0009 23.04 21.8477 23.04 19.2009ZM23.04 7.68094V5.76094C23.04 3.11422 20.8867 0.960938 18.24 0.960938H16.32C15.7901 0.960938 15.36 1.39102 15.36 1.92094C15.36 2.45086 15.7901 2.88094 16.32 2.88094H18.24C19.8278 2.88094 21.12 4.1731 21.12 5.76094V7.68094C21.12 8.21086 21.5501 8.64094 22.08 8.64094C22.6099 8.64094 23.04 8.21086 23.04 7.68094ZM1.92 7.68094V5.76094C1.92 4.1731 3.21216 2.88094 4.8 2.88094H6.72C7.24992 2.88094 7.68 2.45086 7.68 1.92094C7.68 1.39102 7.24992 0.960938 6.72 0.960938H4.8C2.15328 0.960938 0 3.11422 0 5.76094V7.68094C0 8.21086 0.43008 8.64094 0.96 8.64094C1.48992 8.64094 1.92 8.21086 1.92 7.68094Z" fill="currentColor"/>
</g>
<defs>
<clipPath id="clip0_5001_15191">
<rect width="23.04" height="23.04" fill="currentColor" transform="translate(0 0.960938)"/>
</clipPath>
</defs>
</svg>
