<svg width="14" height="15" viewBox="0 0 14 15" fill="none" xmlns="http://www.w3.org/2000/svg">
<g clip-path="url(#clip0_5001_15309)">
<path d="M10.6925 9.00033C10.2927 9.00067 9.89894 9.1045 9.54526 9.30285C9.19158 9.5012 8.88859 9.78811 8.66242 10.1388L5.22043 8.48564C5.4649 7.85768 5.46585 7.15234 5.22307 6.52364L8.6603 4.86201C8.9955 5.37769 9.49334 5.74849 10.0635 5.90716C10.6337 6.06584 11.2385 6.00187 11.7682 5.72686C12.2978 5.45185 12.7173 4.98402 12.9504 4.40823C13.1836 3.83243 13.215 3.18682 13.039 2.58849C12.863 1.99016 12.4912 1.47874 11.9911 1.14701C11.491 0.815285 10.8957 0.685211 10.3131 0.780388C9.73056 0.875565 9.19937 1.18969 8.8159 1.66578C8.43242 2.14187 8.22207 2.74839 8.22298 3.37533C8.22522 3.52371 8.23938 3.67163 8.26529 3.81745L4.61124 5.5837C4.2603 5.23395 3.82095 5.00086 3.34717 4.91307C2.8734 4.82528 2.38584 4.8866 1.94438 5.08952C1.50292 5.29244 1.1268 5.6281 0.862226 6.05528C0.59765 6.48246 0.456141 6.98254 0.455084 7.49409C0.454027 8.00564 0.593469 8.50638 0.856278 8.93479C1.11909 9.3632 1.49382 9.70062 1.93443 9.9056C2.37505 10.1106 2.86235 10.1742 3.33648 10.0886C3.81062 10.003 4.25092 9.772 4.60331 9.42389L8.26687 11.1834C8.24143 11.3291 8.22745 11.4768 8.2251 11.625C8.22499 12.1442 8.36966 12.6518 8.6408 13.0836C8.91194 13.5154 9.29737 13.852 9.74835 14.0508C10.1993 14.2495 10.6956 14.3016 11.1744 14.2003C11.6532 14.099 12.0929 13.849 12.4381 13.4818C12.7833 13.1146 13.0184 12.6468 13.1136 12.1375C13.2088 11.6282 13.1599 11.1004 12.973 10.6206C12.7861 10.1409 12.4697 9.73093 12.0638 9.44252C11.6579 9.1541 11.1807 9.00022 10.6925 9.00033ZM10.6925 1.87514C10.9715 1.87503 11.2442 1.96292 11.4762 2.12769C11.7082 2.29247 11.889 2.52673 11.9958 2.80084C12.1027 3.07495 12.1307 3.37661 12.0763 3.66765C12.022 3.9587 11.8877 4.22606 11.6905 4.43592C11.4932 4.64578 11.242 4.78872 10.9684 4.84665C10.6948 4.90458 10.4112 4.8749 10.1534 4.76137C9.89571 4.64784 9.67542 4.45556 9.52043 4.20884C9.36543 3.96213 9.28271 3.67206 9.28271 3.37533C9.28299 2.97764 9.43159 2.59632 9.6959 2.31506C9.96022 2.0338 10.3186 1.87559 10.6925 1.87514ZM2.93705 9.00033C2.65809 9.00044 2.38537 8.91255 2.15337 8.74777C1.92137 8.583 1.74053 8.34874 1.6337 8.07463C1.52688 7.80051 1.49887 7.49886 1.55323 7.20781C1.60759 6.91677 1.74187 6.64941 1.93908 6.43955C2.1363 6.22968 2.38759 6.08675 2.66118 6.02882C2.93477 5.97089 3.21837 6.00056 3.4761 6.11409C3.73384 6.22762 3.95413 6.4199 4.10912 6.66662C4.26411 6.91334 4.34684 7.20341 4.34684 7.50014C4.34642 7.89778 4.19777 8.27901 3.93349 8.56024C3.66921 8.84147 3.31087 8.99973 2.93705 9.00033ZM10.6925 13.1251C10.4136 13.1251 10.1409 13.0372 9.90897 12.8723C9.67704 12.7075 9.49628 12.4732 9.38953 12.199C9.28279 11.9249 9.25486 11.6233 9.30928 11.3323C9.3637 11.0413 9.49801 10.774 9.69525 10.5642C9.89249 10.3544 10.1438 10.2115 10.4174 10.1536C10.6909 10.0957 10.9745 10.1254 11.2322 10.239C11.4899 10.3525 11.7102 10.5448 11.8651 10.7915C12.0201 11.0382 12.1028 11.3282 12.1028 11.625C12.1025 12.0227 11.9539 12.4041 11.6894 12.6854C11.425 12.9667 11.0665 13.1248 10.6925 13.1251Z" fill="currentColor"/>
</g>
<defs>
<clipPath id="clip0_5001_15309">
<rect width="12.6913" height="13.5" fill="white" transform="translate(0.46875 0.75)"/>
</clipPath>
</defs>
</svg>
