<svg width="21" height="21" viewBox="0 0 21 21" fill="none" xmlns="http://www.w3.org/2000/svg">
<g clip-path="url(#clip0_5001_15161)">
<path d="M6.56228 11.175C5.82315 11.175 5.10062 10.9558 4.48606 10.5451C3.87143 10.1344 3.39238 9.55072 3.1095 8.86778C2.82662 8.18484 2.7526 7.43336 2.89682 6.70835C3.04103 5.98335 3.39699 5.31739 3.91969 4.79469C4.44239 4.27199 5.10835 3.91603 5.83335 3.77182C6.55835 3.6276 7.30984 3.70162 7.99278 3.9845C8.67572 4.26738 9.25944 4.74643 9.67012 5.36106C10.0808 5.97563 10.3 6.69815 10.3 7.43728C10.2989 8.42825 9.90475 9.37831 9.20403 10.079C8.50331 10.7798 7.55325 11.1739 6.56228 11.175ZM6.5625 5.925C6.26336 5.925 5.97093 6.01371 5.7222 6.1799C5.47347 6.3461 5.27961 6.58232 5.16513 6.85869C5.05065 7.13507 5.0207 7.43918 5.07906 7.73258C5.13742 8.02597 5.28147 8.29548 5.493 8.507C5.70453 8.71853 5.97403 8.86258 6.26743 8.92094C6.56082 8.9793 6.86494 8.94935 7.14131 8.83487C7.41768 8.72039 7.6539 8.52653 7.8201 8.2778C7.98629 8.02907 8.075 7.73665 8.075 7.4375C8.075 7.03636 7.91565 6.65165 7.632 6.368C7.34835 6.08435 6.96364 5.925 6.5625 5.925ZM11.0615 15.1885C12.2547 16.3817 12.925 18.0001 12.925 19.6875C12.925 19.9826 12.8078 20.2655 12.5992 20.4742C12.3905 20.6828 12.1076 20.8 11.8125 20.8C11.5174 20.8 11.2345 20.6828 11.0258 20.4742C10.8172 20.2655 10.7 19.9826 10.7 19.6875C10.7 18.5902 10.2641 17.5378 9.48815 16.7618C8.71222 15.9859 7.65983 15.55 6.5625 15.55C5.46517 15.55 4.41278 15.9859 3.63685 16.7618C2.86091 17.5378 2.425 18.5902 2.425 19.6875C2.425 19.9826 2.30779 20.2655 2.09916 20.4742C1.89052 20.6828 1.60755 20.8 1.3125 20.8C1.01745 20.8 0.734478 20.6828 0.525844 20.4742C0.317209 20.2655 0.2 19.9826 0.2 19.6875C0.2 18.0001 0.870333 16.3817 2.06353 15.1885C3.25673 13.9953 4.87506 13.325 6.5625 13.325C8.24994 13.325 9.86827 13.9953 11.0615 15.1885ZM19.8789 12.5766C20.4806 13.5257 20.8001 14.6263 20.8 15.75C20.8 16.0451 20.6828 16.328 20.4742 16.5367C20.2655 16.7453 19.9826 16.8625 19.6875 16.8625C19.3924 16.8625 19.1095 16.7453 18.9008 16.5367C18.6922 16.328 18.575 16.0451 18.575 15.75C18.575 14.7687 18.1852 13.8276 17.4913 13.1337C16.7975 12.4399 15.8566 12.0501 14.8754 12.05C14.0154 12.0463 13.1816 12.3457 12.5205 12.8958C12.4079 12.9887 12.2781 13.0585 12.1385 13.1012C11.9988 13.1441 11.852 13.1589 11.7066 13.145C11.5611 13.1311 11.4198 13.0887 11.2907 13.0202C11.1617 12.9516 11.0474 12.8584 10.9544 12.7457C10.8614 12.633 10.7914 12.5031 10.7486 12.3634C10.7058 12.2237 10.6909 12.0769 10.7049 11.9314C10.7188 11.786 10.7612 11.6447 10.8297 11.5156C10.8982 11.3866 10.9915 11.2723 11.1042 11.1793C11.9709 10.4641 13.0232 10.0102 14.1382 9.87042C15.2532 9.73068 16.385 9.91091 17.4015 10.3901C18.4179 10.8692 19.2771 11.6276 19.8789 12.5766ZM15.3123 7.675C14.5731 7.67496 13.8506 7.45576 13.2361 7.04512C12.6214 6.63444 12.1424 6.05072 11.8595 5.36778C11.5766 4.68484 11.5026 3.93336 11.6468 3.20835C11.791 2.48335 12.147 1.81739 12.6697 1.29469C13.1924 0.771991 13.8583 0.416029 14.5833 0.271817C15.3084 0.127605 16.0598 0.201619 16.7428 0.484502C17.4257 0.767385 18.0094 1.24643 18.4201 1.86106C18.8308 2.47563 19.05 3.19815 19.05 3.93728C19.0489 4.92825 18.6548 5.87831 17.954 6.57903C17.2533 7.27976 16.3032 7.6739 15.3123 7.675ZM15.3125 2.425C15.0134 2.425 14.7209 2.51371 14.4722 2.6799C14.2235 2.8461 14.0296 3.08232 13.9151 3.35869C13.8007 3.63507 13.7707 3.93918 13.8291 4.23258C13.8874 4.52597 14.0315 4.79548 14.243 5.007C14.4545 5.21853 14.724 5.36258 15.0174 5.42094C15.3108 5.4793 15.6149 5.44935 15.8913 5.33487C16.1677 5.22039 16.4039 5.02653 16.5701 4.7778C16.7363 4.52907 16.825 4.23665 16.825 3.9375C16.825 3.53636 16.6656 3.15165 16.382 2.868C16.0983 2.58435 15.7136 2.425 15.3125 2.425Z" fill="currentColor" stroke="#FFEEEB" stroke-width="0.2"/>
</g>
<defs>
<clipPath id="clip0_5001_15161">
<rect width="21" height="21" fill="currentColor"/>
</clipPath>
</defs>
</svg>
