<svg width="110" height="112" viewBox="0 0 110 112" fill="none" xmlns="http://www.w3.org/2000/svg">
<path d="M29.686 97.3294H1.43384C0.837896 97.3294 0.23999 96.7316 0.23999 96.1336C0.23999 95.5377 0.837896 94.9417 1.43384 94.9417H29.686C30.282 94.9417 30.8799 95.5377 30.8799 96.1336C30.8799 96.9309 30.282 97.3294 29.686 97.3294Z" fill="currentColor"/>
<path d="M105.886 48.9837H1.43384C0.837896 48.9837 0.23999 48.3859 0.23999 47.7879C0.23999 47.194 0.837896 46.596 1.43384 46.596H105.886C106.482 46.596 107.08 47.194 107.08 47.7879C107.08 48.3859 106.682 48.9837 105.886 48.9837Z" fill="currentColor"/>
<path d="M105.886 97.3294H77.8335C77.2355 97.3294 76.6396 96.7316 76.6396 96.1336C76.6396 95.5377 77.2355 94.9417 77.8335 94.9417H106.086C106.682 94.9417 107.278 95.5377 107.278 96.1336C107.08 96.9309 106.682 97.3294 105.886 97.3294Z" fill="currentColor"/>
<path d="M53.7587 66.6913C45.4036 66.6913 38.4397 73.4558 38.4397 82.0102C38.4397 90.3673 45.2043 97.3312 53.7587 97.3312C62.3151 97.3312 69.0797 90.5646 69.0797 82.0102C68.8803 73.4558 62.1158 66.6913 53.7587 66.6913ZM53.7587 99.5177C44.0104 99.5177 36.0519 91.5612 36.0519 81.8129C36.0519 72.0627 44.0104 64.1042 53.7587 64.1042C63.5089 64.1042 71.4674 72.0627 71.4674 81.8129C71.4674 91.5612 63.5089 99.5177 53.7587 99.5177Z" fill="currentColor"/>
<path d="M53.7588 74.0499C49.3839 74.0499 45.9996 77.6315 45.9996 81.811C45.9996 85.9886 49.5812 89.5682 53.7588 89.5682C58.1376 89.5682 61.5199 85.9886 61.5199 81.811C61.5199 77.6315 57.9383 74.0499 53.7588 74.0499ZM53.7588 92.1552C48.19 92.1552 43.4145 87.581 43.4145 81.811C43.4145 76.2383 47.9907 71.4649 53.7588 71.4649C59.5288 71.4649 64.105 76.041 64.105 81.811C63.9057 87.581 59.3315 92.1552 53.7588 92.1552Z" fill="currentColor"/>
<path d="M78.6285 48.9837C78.0326 48.9837 77.4347 48.3859 77.4347 47.7879V35.2553C77.4347 34.6574 78.0326 34.0614 78.6285 34.0614C79.2264 34.0614 79.8224 34.6574 79.8224 35.2553V47.7879C79.8224 48.3859 79.2264 48.9837 78.6285 48.9837Z" fill="currentColor"/>
<path d="M36.2512 48.9837C35.6553 48.9837 35.0574 48.3859 35.0574 47.7879V35.2553C35.0574 34.6574 35.6553 34.0614 36.2512 34.0614C36.8491 34.0614 37.4451 34.6574 37.4451 35.2553V47.7879C37.4451 48.3859 37.0484 48.9837 36.2512 48.9837Z" fill="currentColor"/>
<path d="M23.916 48.9837C23.3201 48.9837 22.7222 48.3859 22.7222 47.7879V35.2553C22.7222 34.6574 23.3201 34.0614 23.916 34.0614C24.5139 34.0614 25.1099 34.6574 25.1099 35.2553V47.7879C25.1099 48.3859 24.5139 48.9837 23.916 48.9837Z" fill="currentColor"/>
<path d="M43.0158 34.0622H83.0054L80.6177 27.2996C79.6231 24.7106 77.2354 22.9208 74.451 22.9208H51.5722C48.7859 22.9208 46.3981 24.7106 45.4036 27.2996L43.0158 34.0622ZM84.7972 36.45H41.226C40.8274 36.45 40.4308 36.2507 40.2295 35.854C40.0322 35.6547 40.0322 35.2561 40.0322 34.8595L43.0158 26.3031C44.2097 22.7215 47.7913 20.3337 51.5722 20.3337H74.451C78.2319 20.3337 81.6142 22.7215 83.0054 26.3031L85.9911 34.8595C86.1884 35.2561 85.9911 35.6547 85.7917 36.0514C85.5924 36.2507 85.1958 36.45 84.7972 36.45Z" fill="currentColor"/>
<path d="M21.331 34.0622V32.2724C21.331 30.4806 19.9378 29.0894 18.148 29.0894H14.3671C12.5753 29.0894 11.1841 30.4806 11.1841 32.2724V34.0622H21.331ZM22.5229 36.45H10.1876C9.59161 36.45 8.9937 35.854 8.9937 35.2561V32.0731C8.9937 28.8881 11.5807 26.5024 14.5664 26.5024H18.3453C21.5283 26.5024 23.916 29.0894 23.916 32.0731V35.2561C23.916 35.854 23.3201 36.45 22.5229 36.45Z" fill="currentColor"/>
<path d="M84.7972 60.1242H99.7176V53.9575H84.7972V60.1242ZM100.911 62.5119H83.404C82.8081 62.5119 82.2102 61.9179 82.2102 61.32V52.5643C82.2102 51.9684 82.8081 51.3724 83.404 51.3724H100.911C101.509 51.3724 102.105 51.9684 102.105 52.5643V61.32C102.105 62.1152 101.709 62.5119 100.911 62.5119Z" fill="currentColor"/>
<path d="M99.1217 106.082H69.6757C69.0797 106.082 68.4818 105.486 68.4818 104.89C68.4818 104.292 69.0797 103.696 69.6757 103.696H99.1217C102.105 103.696 104.692 101.309 104.692 98.1258V42.02C104.692 39.0363 102.305 36.4493 99.1217 36.4493H8.20041C5.21476 36.4493 2.62772 38.837 2.62772 42.02V98.1258C2.62772 101.109 5.01545 103.696 8.20041 103.696H37.6445C38.2405 103.696 38.8384 104.292 38.8384 104.89C38.8384 105.486 38.2405 106.082 37.6445 106.082H8.20041C3.82158 106.082 0.23999 102.503 0.23999 98.1258V42.02C0.23999 37.6431 3.82158 34.0615 8.20041 34.0615H99.1217C103.499 34.0615 107.08 37.6431 107.08 42.02V98.1258C107.08 102.503 103.499 106.082 99.1217 106.082Z" fill="currentColor"/>
<path d="M53.7587 55.1505C39.0356 55.1505 27.0989 67.0892 27.0989 81.8122C27.0989 96.5353 39.0356 108.47 53.7587 108.47C68.4817 108.47 80.4203 96.5353 80.4203 81.8122C80.4203 67.0892 68.4817 55.1505 53.7587 55.1505ZM53.7587 111.057C37.6444 111.057 24.5138 97.9265 24.5138 81.8122C24.5138 65.696 37.6444 52.5635 53.7587 52.5635C69.8749 52.5635 83.0054 65.696 83.0054 81.8122C83.0054 97.9265 69.8749 111.057 53.7587 111.057Z" fill="currentColor"/>
<path d="M100.911 2.82527C97.5311 2.82527 94.7448 5.60964 94.7448 8.99194C94.7448 12.3742 97.5311 15.1606 100.911 15.1606C104.294 15.1606 107.08 12.3742 107.08 8.99194C107.08 5.60964 104.294 2.82527 100.911 2.82527ZM100.911 17.7476C96.1379 17.7476 92.1577 13.7674 92.1577 8.99194C92.1577 4.21647 96.1379 0.240234 100.911 0.240234C105.687 0.240234 109.665 4.21647 109.665 8.99194C109.665 13.7674 105.687 17.7476 100.911 17.7476Z" fill="currentColor"/>
<path d="M27.6968 10.3843C25.7077 10.3843 23.9159 11.9768 23.9159 14.1652C23.9159 16.3536 25.5084 17.9442 27.6968 17.9442C29.6859 17.9442 31.4757 16.3536 31.4757 14.1652C31.4757 11.9768 29.6859 10.3843 27.6968 10.3843ZM27.6968 20.3319C24.3145 20.3319 21.5282 17.5475 21.5282 14.1652C21.5282 10.7829 24.3145 7.99655 27.6968 7.99655C31.0791 7.99655 33.8635 10.7829 33.8635 14.1652C33.8635 17.5475 31.0791 20.3319 27.6968 20.3319Z" fill="currentColor"/>
<path d="M28.8908 58.9304H1.43384C0.837896 58.9304 0.23999 58.3325 0.23999 57.7345C0.23999 57.1406 0.837896 56.5426 1.43384 56.5426H28.8908C29.4868 56.5426 30.0847 57.1406 30.0847 57.7345C30.0847 58.3325 29.4868 58.9304 28.8908 58.9304Z" fill="currentColor"/>
<path d="M94.147 21.725C95.1376 21.725 95.9388 22.5282 95.9388 23.5168C95.9388 24.5055 95.1376 25.3066 94.147 25.3066C93.1583 25.3066 92.3572 24.5055 92.3572 23.5168C92.3572 22.5282 93.1583 21.725 94.147 21.725Z" fill="currentColor"/>
<path d="M75.4457 1.83171C76.4344 1.83171 77.2355 2.63488 77.2355 3.62352C77.2355 4.61216 76.4344 5.41334 75.4457 5.41334C74.4571 5.41334 73.6559 4.61216 73.6559 3.62352C73.6559 2.63488 74.4571 1.83171 75.4457 1.83171Z" fill="currentColor"/>
<path d="M46.7967 10.3851C47.7854 10.3851 48.5865 11.1883 48.5865 12.1769C48.5865 13.1656 47.7854 13.9667 46.7967 13.9667C45.8081 13.9667 45.0049 13.1656 45.0049 12.1769C45.0049 11.1883 45.8081 10.3851 46.7967 10.3851Z" fill="currentColor"/>
<path d="M7.00653 11.7784C7.99517 11.7784 8.79636 12.5815 8.79636 13.5702C8.79636 14.5588 7.99517 15.36 7.00653 15.36C6.01592 15.36 5.21475 14.5588 5.21475 13.5702C5.21475 12.5815 6.01592 11.7784 7.00653 11.7784Z" fill="currentColor"/>
</svg>
