<svg width="110" height="106" viewBox="0 0 110 106" fill="none" xmlns="http://www.w3.org/2000/svg">
<path d="M67.64 38.2896L60.8386 31.4862C60.4492 31.0968 59.6722 31.0968 59.0881 31.4862C58.7006 31.8737 58.7006 32.6526 59.0881 33.2348L65.8915 40.0382C66.0862 40.2329 66.4737 40.4256 66.6684 40.4256C67.8347 40.4256 68.4189 39.0665 67.64 38.2896Z" fill="currentColor"/>
<path d="M96.797 67.4437L89.9936 60.6404C89.6042 60.251 88.8273 60.251 88.2451 60.6404C87.8557 61.0279 87.8557 61.8068 88.2451 62.389L95.0465 69.1924C95.4359 69.5818 96.2129 69.5818 96.797 69.1924C97.1845 68.6101 97.1845 67.8312 96.797 67.4437Z" fill="currentColor"/>
<path d="M91.3545 76.5796C91.3545 76.5796 83.3847 77.1638 70.3622 65.8898C62.7819 59.2811 56.5627 51.1186 53.6459 44.3153C52.092 40.4268 50.731 34.9865 54.0353 31.875C57.9218 27.9884 63.9483 27.9884 67.8348 31.875C71.7233 35.7634 71.5285 41.7879 67.8348 45.6763C67.4473 46.0638 66.8632 46.4533 66.6684 46.648C66.0862 47.0374 66.0862 48.009 66.4737 48.3965L80.2751 62.196C80.8573 62.7801 81.6362 62.5854 82.0237 62.196C82.2184 62.0032 82.8006 61.4191 83.19 61.0297C87.0785 57.1432 93.2977 57.1432 96.9895 61.0297C100.878 64.9182 100.683 70.9426 96.9895 74.8311C95.4357 75.8027 93.6852 76.5796 91.3545 76.5796ZM81.2468 100.876H36.5421V14.5765H89.9934V55.3946C86.6891 55.3946 83.5794 56.7556 81.052 59.2811L69.1958 47.4249C74.6381 42.372 74.2487 34.5971 69.5853 29.9317C64.9199 25.2682 57.1449 25.2682 52.2848 29.9317C48.9824 33.236 48.593 38.4836 51.3132 45.0923C57.1449 59.0884 76.5814 77.5512 89.7987 78.9123V92.1296C89.9934 96.9897 86.1049 100.876 81.2468 100.876ZM20.7974 92.1296V88.6306C24.2964 88.0484 26.8238 85.1316 26.8238 81.4398C26.8238 80.8576 26.2397 80.2734 25.6575 80.2734C25.0734 80.2734 24.4911 80.8576 24.4911 81.4398C24.4911 83.7725 22.9354 85.5209 20.7974 86.1051V76.3868C24.2964 75.8027 26.8238 72.8879 26.8238 69.1941C26.8238 68.6119 26.2397 68.0277 25.6575 68.0277C25.0734 68.0277 24.4911 68.6119 24.4911 69.1941C24.4911 71.5268 22.9354 73.2753 20.7974 73.8594V64.1413C24.2964 63.5571 26.8238 60.6422 26.8238 56.9485C26.8238 56.3663 26.2397 55.7821 25.6575 55.7821C25.0734 55.7821 24.4911 56.3663 24.4911 56.9485C24.4911 59.2812 22.9354 61.0297 20.7974 61.6138V51.8956C24.2964 51.3115 26.8238 48.3965 26.8238 44.7047C26.8238 44.1206 26.2397 43.5384 25.6575 43.5384C25.0734 43.5384 24.4911 44.1206 24.4911 44.7047C24.4911 47.0374 22.9354 48.7859 20.7974 49.3681V39.65C24.2964 39.0678 26.8238 36.1528 26.8238 32.4591C26.8238 31.8749 26.2397 31.2928 25.6575 31.2928C25.0734 31.2928 24.4911 31.8749 24.4911 32.4591C24.4911 34.7918 22.9354 36.5403 20.7974 37.1245V27.4062C24.2964 26.8221 26.8238 23.9072 26.8238 20.2134C26.8238 19.6293 26.2397 19.0471 25.6575 19.0471C25.0734 19.0471 24.4911 19.6293 24.4911 20.2134C24.4911 22.5461 22.9354 24.2947 20.7974 24.8788V10.6899C20.7974 5.82983 24.6859 1.94139 29.544 1.94139H34.2094V100.876H29.544C24.6859 100.876 20.7974 96.9897 20.7974 92.1296ZM14.7729 81.4398C14.7729 79.1071 16.3287 77.3585 18.4647 76.7744V86.1051C16.3287 85.5209 14.7729 83.7725 14.7729 81.4398ZM18.4647 64.5287V73.8594C16.3287 73.2753 14.7729 71.3321 14.7729 69.1941C14.7729 67.0562 16.3287 65.1128 18.4647 64.5287ZM18.4647 52.4778V61.8086C16.3287 61.2244 14.7729 59.2811 14.7729 57.1431C14.7729 54.8105 16.3287 53.062 18.4647 52.4778ZM18.4647 40.2341V49.5629C16.3287 48.9788 14.7729 47.0374 14.7729 44.8975C14.7729 42.7595 16.3287 40.8163 18.4647 40.2341ZM18.4647 28.1832V37.5119C16.3287 36.9297 14.7729 34.9865 14.7729 32.8466C14.7729 30.5139 16.3287 28.7654 18.4647 28.1832ZM18.4647 15.9375V25.2683C16.3287 24.6841 14.7729 22.7408 14.7729 20.6028C14.7729 18.4649 16.3287 16.5217 18.4647 15.9375ZM89.9934 11.2721V12.2438H36.5421V2.52548H81.2468C86.1049 2.52548 89.9934 6.41396 89.9934 11.2721ZM98.74 59.0883C96.9895 57.3378 94.8515 56.1715 92.5208 55.7821V11.2721C92.5208 5.05291 87.466 0 81.2468 0H29.544C23.3248 0 18.2719 5.05291 18.2719 11.2721V13.6048C14.7729 14.189 12.2455 17.1038 12.2455 20.7956C12.2455 23.323 13.6065 25.6558 15.5498 26.8221C11.2739 29.737 11.2739 36.1529 15.5498 39.0678C11.2739 41.9827 11.2739 48.3965 15.5498 51.3114C11.2739 54.2282 11.2739 60.6422 15.5498 63.5571C11.2739 66.4739 11.2739 72.8878 15.5498 75.8027C13.6065 77.1638 12.2455 79.3017 12.2455 81.8272C12.2455 85.521 14.9657 88.4378 18.2719 89.02V92.519C18.2719 98.7382 23.3248 103.793 29.544 103.793H81.2468C87.466 103.793 92.5208 98.7382 92.5208 92.519V79.3017C95.0462 79.107 96.9895 78.1354 98.5453 76.5796C103.405 71.5267 103.405 63.7517 98.74 59.0883Z" fill="currentColor"/>
<path d="M42.7614 91.1557V81.4375H75.6099V91.1557H42.7614ZM76.7762 79.1048H41.4004C40.8182 79.1048 40.234 79.6889 40.234 80.2711V92.5168C40.234 93.099 40.8182 93.6832 41.4004 93.6832H76.5815C77.1657 93.6832 77.7479 93.099 77.7479 92.5168V80.2711C77.9426 79.4942 77.3585 79.1048 76.7762 79.1048Z" fill="currentColor"/>
<path d="M103.406 23.1258C101.463 23.1258 99.7121 21.572 99.7121 19.434C99.7121 17.296 101.268 15.7402 103.406 15.7402C105.349 15.7402 107.1 17.296 107.1 19.434C107.1 21.572 105.349 23.1258 103.406 23.1258ZM103.406 13.4075C100.102 13.4075 97.3795 16.1297 97.3795 19.434C97.3795 22.7383 100.102 25.4585 103.406 25.4585C106.708 25.4585 109.43 22.7383 109.43 19.434C109.43 16.1297 106.708 13.4075 103.406 13.4075Z" fill="currentColor"/>
<path d="M7.96971 103.402C4.8601 103.402 2.52742 100.875 2.52742 97.9602C2.52742 94.8486 5.05481 92.5179 7.96971 92.5179C10.8846 92.5179 13.412 95.0433 13.412 97.9602C13.6067 100.875 11.0793 103.402 7.96971 103.402ZM7.96971 89.9905C3.69376 89.9905 0 93.4895 0 97.9602C0 102.236 3.49905 105.928 7.96971 105.928C12.4404 105.928 15.9394 102.429 15.9394 97.9602C15.9394 93.4895 12.4404 89.9905 7.96971 89.9905Z" fill="currentColor"/>
<path d="M103.988 53.6418C104.954 53.6418 105.737 54.4264 105.737 55.3923C105.737 56.3581 104.954 57.1408 103.988 57.1408C103.022 57.1408 102.24 56.3581 102.24 55.3923C102.24 54.4264 103.022 53.6418 103.988 53.6418Z" fill="currentColor"/>
<path d="M96.7967 31.6796C97.7625 31.6796 98.5452 32.4643 98.5452 33.4301C98.5452 34.396 97.7625 35.1787 96.7967 35.1787C95.8308 35.1787 95.0462 34.396 95.0462 33.4301C95.0462 32.4643 95.8308 31.6796 96.7967 31.6796Z" fill="currentColor"/>
<path d="M103.988 3.69113C104.954 3.69113 105.737 4.4738 105.737 5.43965C105.737 6.40742 104.954 7.19014 103.988 7.19014C103.022 7.19014 102.24 6.40742 102.24 5.43965C102.24 4.4738 103.022 3.69113 103.988 3.69113Z" fill="currentColor"/>
<path d="M101.655 92.5186C102.621 92.5186 103.405 93.3013 103.405 94.2672C103.405 95.233 102.621 96.0158 101.655 96.0158C100.689 96.0158 99.9062 95.233 99.9062 94.2672C99.9062 93.3013 100.689 92.5186 101.655 92.5186Z" fill="currentColor"/>
<path d="M12.8297 0.192118C13.7955 0.192118 14.5783 0.976809 14.5783 1.94073C14.5783 2.9085 13.7955 3.69122 12.8297 3.69122C11.8638 3.69122 11.0792 2.9085 11.0792 1.94073C11.0792 0.976809 11.8638 0.192118 12.8297 0.192118Z" fill="currentColor"/>
<path d="M4.47084 32.8459C5.43861 32.8459 6.22133 33.6306 6.22133 34.5964C6.22133 35.5623 5.43861 36.345 4.47084 36.345C3.50499 36.345 2.72232 35.5623 2.72232 34.5964C2.72232 33.6306 3.50499 32.8459 4.47084 32.8459Z" fill="currentColor"/>
<path d="M6.8035 75.4119C7.76935 75.4119 8.55399 76.1965 8.55399 77.1624C8.55399 78.1282 7.76935 78.9109 6.8035 78.9109C5.83765 78.9109 5.05493 78.1282 5.05493 77.1624C5.05493 76.1965 5.83765 75.4119 6.8035 75.4119Z" fill="currentColor"/>
<path d="M41.4004 76.5783H65.697C66.2811 76.5783 66.8633 75.9961 66.8633 75.412C66.8633 74.8298 66.2811 74.2457 65.697 74.2457H41.4004C40.8182 74.2457 40.234 74.8298 40.234 75.412C40.234 75.9961 40.8182 76.5783 41.4004 76.5783Z" fill="currentColor"/>
<path d="M41.4004 71.721H53.646C54.2302 71.721 54.8124 71.1388 54.8124 70.5546C54.8124 69.9724 54.2302 69.3883 53.646 69.3883H41.4004C40.8182 69.3883 40.234 69.9724 40.234 70.5546C40.234 71.1388 40.8182 71.721 41.4004 71.721Z" fill="currentColor"/>
</svg>
