<svg width="110" height="111" viewBox="0 0 110 111" fill="none" xmlns="http://www.w3.org/2000/svg">
<path d="M56.5807 104.325C55.5986 104.325 54.8133 103.537 54.8133 102.555C54.8133 101.573 55.5986 100.788 56.5807 100.788C57.5628 100.788 58.3481 101.573 58.3481 102.555C58.3481 103.537 57.7616 104.325 56.5807 104.325ZM56.5807 98.2351C54.2228 98.2351 52.2585 100.197 52.2585 102.555C52.2585 104.913 54.2228 106.877 56.5807 106.877C58.9385 106.877 60.9047 104.913 60.9047 102.555C60.9047 100.197 58.9385 98.2351 56.5807 98.2351Z" fill="currentColor"/>
<path d="M93.5172 101.77C93.5172 105.11 90.7658 108.058 87.2309 108.058H26.1292C22.7893 108.058 19.843 105.305 19.843 101.77V8.64416C19.843 5.30614 22.5944 2.35784 26.1292 2.35784H87.4258C90.7658 2.35784 93.7141 5.10737 93.7141 8.64416L93.5172 101.77ZM87.2309 0H26.1292C21.4135 0 17.4851 3.93039 17.4851 8.64416V101.77C17.4851 106.486 21.4135 110.414 26.1292 110.414H87.4258C92.1415 110.414 96.072 106.486 96.072 101.77V8.64416C95.8751 3.93039 92.1415 0 87.2309 0Z" fill="currentColor"/>
<path d="M42.6323 94.4995L83.3006 9.82312H86.2488V94.4995H42.6323ZM27.1114 9.82312H80.3542L39.8828 94.4995H33.9882L53.6344 53.2428C53.8312 52.6524 53.6344 51.8671 53.0459 51.6702C52.4554 51.4734 51.6702 51.6703 51.4733 52.2607L31.2367 94.4995H27.1114V9.82312ZM87.4258 7.27043H25.9344C25.344 7.27043 24.7535 7.85888 24.7535 8.44932V95.6804C24.7535 96.2689 25.344 96.8574 25.9344 96.8574C26.3261 96.8574 85.6584 96.8574 87.4258 96.8574C88.0163 96.8574 88.6067 96.2689 88.6067 95.6804V8.64418C88.6067 7.85888 88.0163 7.27043 87.4258 7.27043Z" fill="currentColor"/>
<path d="M7.46527 84.6764C4.71573 84.6764 2.55465 82.5154 2.55465 79.7658C2.55465 77.0163 4.71573 74.8533 7.46527 74.8533C10.2148 74.8533 12.3778 77.0163 12.3778 79.7658C12.3778 82.5154 10.2148 84.6764 7.46527 84.6764ZM7.46527 72.4954C3.33999 72.4954 0 75.8354 0 79.9626C0 84.0879 3.33999 87.4279 7.46527 87.4279C11.5905 87.4279 14.9305 84.0879 14.9305 79.9626C14.9305 75.6405 11.5905 72.4954 7.46527 72.4954Z" fill="currentColor"/>
<path d="M103.931 38.1155C102.162 38.1155 100.788 36.7398 100.788 34.9724C100.788 33.203 102.162 31.8273 103.931 31.8273C105.698 31.8273 107.072 33.203 107.072 34.9724C107.072 36.7398 105.698 38.1155 103.931 38.1155ZM103.931 29.4694C100.788 29.4694 98.43 32.0241 98.43 34.9724C98.43 38.1155 100.983 40.4714 103.931 40.4714C106.877 40.4714 109.43 37.9187 109.43 34.9724C109.43 31.8272 107.072 29.4694 103.931 29.4694Z" fill="currentColor"/>
<path d="M103.931 2.5547C104.907 2.5547 105.698 3.34586 105.698 4.32213C105.698 5.30035 104.907 6.09152 103.931 6.09152C102.953 6.09152 102.162 5.30035 102.162 4.32213C102.162 3.34586 102.953 2.5547 103.931 2.5547Z" fill="currentColor"/>
<path d="M105.108 49.1176C106.084 49.1176 106.877 49.9087 106.877 50.885C106.877 51.8613 106.084 52.6524 105.108 52.6524C104.132 52.6524 103.34 51.8613 103.34 50.885C103.34 49.9087 104.132 49.1176 105.108 49.1176Z" fill="currentColor"/>
<path d="M4.51677 7.46531C5.49304 7.46531 6.28615 8.25837 6.28615 9.23464C6.28615 10.2109 5.49304 11.0021 4.51677 11.0021C3.54049 11.0021 2.74938 10.2109 2.74938 9.23464C2.74938 8.25837 3.54049 7.46531 4.51677 7.46531Z" fill="currentColor"/>
<path d="M11.7873 50.2965C12.7635 50.2965 13.5547 51.0876 13.5547 52.0639C13.5547 53.0402 12.7635 53.8313 11.7873 53.8313C10.811 53.8313 10.0199 53.0402 10.0199 52.0639C10.0199 51.0876 10.811 50.2965 11.7873 50.2965Z" fill="currentColor"/>
<path d="M8.2504 97.0542C9.22667 97.0542 10.0198 97.8453 10.0198 98.8235C10.0198 99.7998 9.22667 100.591 8.2504 100.591C7.27413 100.591 6.48301 99.7998 6.48301 98.8235C6.48301 97.8453 7.27413 97.0542 8.2504 97.0542Z" fill="currentColor"/>
<path d="M101.573 97.0542C102.549 97.0542 103.34 97.8453 103.34 98.8235C103.34 99.7998 102.549 100.591 101.573 100.591C100.597 100.591 99.8055 99.7998 99.8055 98.8235C99.8055 97.8453 100.597 97.0542 101.573 97.0542Z" fill="currentColor"/>
</svg>
