<svg width="26" height="26" viewBox="0 0 26 26" fill="none" xmlns="http://www.w3.org/2000/svg">
<g clip-path="url(#clip0_263_4645)">
<path d="M19.9047 9.32719V7.86475C19.9047 5.95812 19.1473 4.12957 17.7991 2.78138C16.4509 1.43319 14.6224 0.675781 12.7158 0.675781C10.8091 0.675781 8.98058 1.43319 7.63239 2.78138C6.28419 4.12957 5.52679 5.95812 5.52679 7.86475V9.32719C4.6121 9.72639 3.83357 10.3835 3.2864 11.2181C2.73922 12.0527 2.44711 13.0287 2.4458 14.0267V20.1887C2.44743 21.5501 2.98896 22.8552 3.9516 23.8179C4.91424 24.7805 6.2194 25.322 7.58078 25.3237H17.8507C19.2121 25.322 20.5173 24.7805 21.4799 23.8179C22.4425 22.8552 22.9841 21.5501 22.9857 20.1887V14.0267C22.9844 13.0287 22.6923 12.0527 22.1451 11.2181C21.5979 10.3835 20.8194 9.72639 19.9047 9.32719ZM7.58078 7.86475C7.58078 6.50287 8.12178 5.19677 9.08478 4.23377C10.0478 3.27078 11.3539 2.72977 12.7158 2.72977C14.0776 2.72977 15.3837 3.27078 16.3467 4.23377C17.3097 5.19677 17.8507 6.50287 17.8507 7.86475V8.89174H7.58078V7.86475ZM20.9317 20.1887C20.9317 21.0058 20.6071 21.7895 20.0293 22.3673C19.4515 22.9451 18.6679 23.2697 17.8507 23.2697H7.58078C6.76365 23.2697 5.97999 22.9451 5.40219 22.3673C4.82439 21.7895 4.49979 21.0058 4.49979 20.1887V14.0267C4.49979 13.2096 4.82439 12.4259 5.40219 11.8481C5.97999 11.2703 6.76365 10.9457 7.58078 10.9457H17.8507C18.6679 10.9457 19.4515 11.2703 20.0293 11.8481C20.6071 12.4259 20.9317 13.2096 20.9317 14.0267V20.1887Z" fill="currentColor"/>
<path d="M12.716 15.0537C12.4436 15.0537 12.1824 15.1619 11.9898 15.3545C11.7972 15.5471 11.689 15.8083 11.689 16.0807V18.1347C11.689 18.4071 11.7972 18.6683 11.9898 18.8609C12.1824 19.0535 12.4436 19.1617 12.716 19.1617C12.9883 19.1617 13.2496 19.0535 13.4422 18.8609C13.6348 18.6683 13.743 18.4071 13.743 18.1347V16.0807C13.743 15.8083 13.6348 15.5471 13.4422 15.3545C13.2496 15.1619 12.9883 15.0537 12.716 15.0537Z" fill="currentColor"/>
</g>
<defs>
<clipPath id="clip0_263_4645">
<rect width="24.6479" height="24.6479" fill="white" transform="translate(0.39209 0.675781)"/>
</clipPath>
</defs>
</svg>
