<svg width="512" height="512" viewBox="0 0 512 512" fill="none" xmlns="http://www.w3.org/2000/svg">
<path d="M207.845 56.5161C162.932 62.6151 131.923 93.3447 126.377 137.523C123.331 161.919 130.126 187.332 145.045 206.958C159.339 225.802 182.928 238.704 208.314 241.675C211.673 241.988 213.235 242.379 211.829 242.457C205.502 242.692 190.036 245.116 181.366 247.227C159.652 252.466 138.953 262.318 120.05 276.314C112.239 282.101 97.5544 296.253 91.0713 304.307C77.6364 320.962 67.1697 341.527 61.702 362.248C57.1716 379.372 56.7811 383.438 56.3905 416.278L56 446.539L57.7965 449.666C58.9682 451.778 60.6866 453.42 62.7955 454.436C65.998 456 67.6384 456 183.241 456H300.483L291.345 446.773C269.474 424.88 258.929 399.389 258.929 368.816C258.929 345.593 264.787 326.436 277.832 306.653C283.612 297.974 298.296 283.273 306.654 277.8C310.169 275.454 312.903 273.265 312.59 272.874C312.356 272.405 309.31 270.294 305.795 268.026C283.456 253.639 261.975 246.132 234.637 243.004C229.482 242.379 226.67 241.91 228.388 241.832C236.668 241.519 253.774 236.28 262.6 231.276C293.297 214.073 311.575 183.344 311.575 149.096C311.575 104.683 280.566 66.6811 236.98 57.6108C229.247 56.047 215.422 55.4996 207.845 56.5161Z" fill="currentColor"/>
<path d="M361.565 282.179C329.853 285.541 300.483 306.731 289.001 334.411C283.924 346.531 282.44 354.116 282.44 368.034C282.44 384.689 284.549 394.228 291.423 407.912C308.373 441.691 345.006 460.535 382.655 454.905C394.371 453.107 406.869 448.259 416.398 441.847C437.722 427.382 451.548 404.94 455.297 378.981C457.64 362.013 454.047 342.699 445.689 327.843L443.346 323.699L409.29 357.712C380.077 386.956 374.766 391.882 372.11 392.586C365.861 394.228 364.143 393.133 348.833 377.964C341.179 370.301 334.305 363.029 333.68 361.778C330.946 356.696 332.821 349.424 337.586 346.531C340.71 344.576 347.193 344.42 349.849 346.218C350.942 346.922 355.707 351.379 360.394 355.992L368.986 364.515L398.667 334.802L428.349 305.011L425.615 302.665C408.041 287.574 383.67 279.833 361.565 282.179Z" fill="currentColor"/>
</svg>
