<svg width="110" height="107" viewBox="0 0 110 107" fill="none" xmlns="http://www.w3.org/2000/svg">
<path d="M107.509 10.6675C108.569 10.6675 109.43 11.5265 109.43 12.5865C109.43 13.6486 108.569 14.5075 107.509 14.5075C106.447 14.5075 105.588 13.6486 105.588 12.5865C105.588 11.5265 106.447 10.6675 107.509 10.6675Z" fill="currentColor"/>
<path d="M72.7392 0C73.7992 0 74.6582 0.85895 74.6582 1.91893C74.6582 2.97891 73.7992 3.84003 72.7392 3.84003C71.6793 3.84003 70.8202 2.97891 70.8202 1.91893C70.8202 0.85895 71.6793 0 72.7392 0Z" fill="currentColor"/>
<path d="M19.4115 5.33375C20.4715 5.33375 21.3306 6.19275 21.3306 7.25274C21.3306 8.31272 20.4715 9.17378 19.4115 9.17378C18.3515 9.17378 17.4904 8.31272 17.4904 7.25274C17.4904 6.19275 18.3515 5.33375 19.4115 5.33375Z" fill="currentColor"/>
<path d="M8.74635 45.2238C9.80633 45.2238 10.6653 46.0827 10.6653 47.1448C10.6653 48.2048 9.80633 49.0638 8.74635 49.0638C7.68637 49.0638 6.82525 48.2048 6.82525 47.1448C6.82525 46.0827 7.68637 45.2238 8.74635 45.2238Z" fill="currentColor"/>
<path d="M91.5095 65.2757C92.5716 65.2757 93.4306 66.1346 93.4306 67.1925C93.4306 68.2546 92.5716 69.1157 91.5095 69.1157C90.4496 69.1157 89.5906 68.2546 89.5906 67.1925C89.5906 66.1346 90.4496 65.2757 91.5095 65.2757Z" fill="currentColor"/>
<path d="M87.4581 101.323C88.5181 101.323 89.377 102.184 89.377 103.244C89.377 104.304 88.5181 105.163 87.4581 105.163C86.3981 105.163 85.5392 104.304 85.5392 103.244C85.5392 102.184 86.3981 101.323 87.4581 101.323Z" fill="currentColor"/>
<path d="M38.8217 22.6119C39.5283 22.6119 40.1016 23.1853 40.1016 23.8919C40.1016 24.5986 39.5283 25.1719 38.8217 25.1719C38.115 25.1719 37.5416 24.5986 37.5416 23.8919C37.5416 23.1853 38.115 22.6119 38.8217 22.6119Z" fill="currentColor"/>
<path d="M38.8217 26.4519C39.5283 26.4519 40.1016 27.0252 40.1016 27.7318C40.1016 28.4385 39.5283 29.0119 38.8217 29.0119C38.115 29.0119 37.5416 28.4385 37.5416 27.7318C37.5416 27.0252 38.115 26.4519 38.8217 26.4519Z" fill="currentColor"/>
<path d="M38.8217 30.5056C39.5283 30.5056 40.1016 31.0768 40.1016 31.7856C40.1016 32.4923 39.5283 33.0656 38.8217 33.0656C38.115 33.0656 37.5416 32.4923 37.5416 31.7856C37.5416 31.0768 38.115 30.5056 38.8217 30.5056Z" fill="currentColor"/>
<path d="M38.8217 34.5563C39.5283 34.5563 40.1016 35.1296 40.1016 35.8363C40.1016 36.5429 39.5283 37.1163 38.8217 37.1163C38.115 37.1163 37.5416 36.5429 37.5416 35.8363C37.5416 35.1296 38.115 34.5563 38.8217 34.5563Z" fill="currentColor"/>
<path d="M42.8733 18.5613C43.582 18.5613 44.1554 19.1346 44.1554 19.8413C44.1554 20.5479 43.582 21.1213 42.8733 21.1213C42.1687 21.1213 41.5954 20.5479 41.5954 19.8413C41.5954 19.1346 42.1687 18.5613 42.8733 18.5613Z" fill="currentColor"/>
<path d="M42.8733 22.6119C43.582 22.6119 44.1554 23.1853 44.1554 23.8919C44.1554 24.5986 43.582 25.1719 42.8733 25.1719C42.1687 25.1719 41.5954 24.5986 41.5954 23.8919C41.5954 23.1853 42.1687 22.6119 42.8733 22.6119Z" fill="currentColor"/>
<path d="M42.8733 26.4519C43.582 26.4519 44.1554 27.0252 44.1554 27.7318C44.1554 28.4385 43.582 29.0119 42.8733 29.0119C42.1687 29.0119 41.5954 28.4385 41.5954 27.7318C41.5954 27.0252 42.1687 26.4519 42.8733 26.4519Z" fill="currentColor"/>
<path d="M42.8733 30.5056C43.582 30.5056 44.1554 31.0768 44.1554 31.7856C44.1554 32.4923 43.582 33.0656 42.8733 33.0656C42.1687 33.0656 41.5954 32.4923 41.5954 31.7856C41.5954 31.0768 42.1687 30.5056 42.8733 30.5056Z" fill="currentColor"/>
<path d="M42.8733 34.5563C43.582 34.5563 44.1554 35.1296 44.1554 35.8363C44.1554 36.5429 43.582 37.1163 42.8733 37.1163C42.1687 37.1163 41.5954 36.5429 41.5954 35.8363C41.5954 35.1296 42.1687 34.5563 42.8733 34.5563Z" fill="currentColor"/>
<path d="M46.7151 14.5074C47.4218 14.5074 47.993 15.0808 47.993 15.7875C47.993 16.4941 47.4218 17.0675 46.7151 17.0675C46.0085 17.0675 45.433 16.4941 45.433 15.7875C45.433 15.0808 46.0085 14.5074 46.7151 14.5074Z" fill="currentColor"/>
<path d="M46.7151 18.5613C47.4218 18.5613 47.993 19.1346 47.993 19.8413C47.993 20.5479 47.4218 21.1213 46.7151 21.1213C46.0085 21.1213 45.433 20.5479 45.433 19.8413C45.433 19.1346 46.0085 18.5613 46.7151 18.5613Z" fill="currentColor"/>
<path d="M46.7151 22.6119C47.4218 22.6119 47.993 23.1853 47.993 23.8919C47.993 24.5986 47.4218 25.1719 46.7151 25.1719C46.0085 25.1719 45.433 24.5986 45.433 23.8919C45.433 23.1853 46.0085 22.6119 46.7151 22.6119Z" fill="currentColor"/>
<path d="M46.7151 26.4519C47.4218 26.4519 47.993 27.0252 47.993 27.7318C47.993 28.4385 47.4218 29.0119 46.7151 29.0119C46.0085 29.0119 45.433 28.4385 45.433 27.7318C45.433 27.0252 46.0085 26.4519 46.7151 26.4519Z" fill="currentColor"/>
<path d="M46.7151 30.5056C47.4218 30.5056 47.993 31.0768 47.993 31.7856C47.993 32.4923 47.4218 33.0656 46.7151 33.0656C46.0085 33.0656 45.433 32.4923 45.433 31.7856C45.433 31.0768 46.0085 30.5056 46.7151 30.5056Z" fill="currentColor"/>
<path d="M46.7151 34.5563C47.4218 34.5563 47.993 35.1296 47.993 35.8363C47.993 36.5429 47.4218 37.1163 46.7151 37.1163C46.0085 37.1163 45.433 36.5429 45.433 35.8363C45.433 35.1296 46.0085 34.5563 46.7151 34.5563Z" fill="currentColor"/>
<path d="M50.7668 14.5074C51.4735 14.5074 52.0468 15.0808 52.0468 15.7875C52.0468 16.4941 51.4735 17.0675 50.7668 17.0675C50.0602 17.0675 49.4867 16.4941 49.4867 15.7875C49.4867 15.0808 50.0602 14.5074 50.7668 14.5074Z" fill="currentColor"/>
<path d="M50.7668 18.5613C51.4735 18.5613 52.0468 19.1346 52.0468 19.8413C52.0468 20.5479 51.4735 21.1213 50.7668 21.1213C50.0602 21.1213 49.4867 20.5479 49.4867 19.8413C49.4867 19.1346 50.0602 18.5613 50.7668 18.5613Z" fill="currentColor"/>
<path d="M50.7668 22.6119C51.4735 22.6119 52.0468 23.1853 52.0468 23.8919C52.0468 24.5986 51.4735 25.1719 50.7668 25.1719C50.0602 25.1719 49.4867 24.5986 49.4867 23.8919C49.4867 23.1853 50.0602 22.6119 50.7668 22.6119Z" fill="currentColor"/>
<path d="M50.7668 26.4519C51.4735 26.4519 52.0468 27.0252 52.0468 27.7318C52.0468 28.4385 51.4735 29.0119 50.7668 29.0119C50.0602 29.0119 49.4867 28.4385 49.4867 27.7318C49.4867 27.0252 50.0602 26.4519 50.7668 26.4519Z" fill="currentColor"/>
<path d="M50.7668 30.5056C51.4735 30.5056 52.0468 31.0768 52.0468 31.7856C52.0468 32.4923 51.4735 33.0656 50.7668 33.0656C50.0602 33.0656 49.4867 32.4923 49.4867 31.7856C49.4867 31.0768 50.0602 30.5056 50.7668 30.5056Z" fill="currentColor"/>
<path d="M50.7668 34.5563C51.4735 34.5563 52.0468 35.1296 52.0468 35.8363C52.0468 36.5429 51.4735 37.1163 50.7668 37.1163C50.0602 37.1163 49.4867 36.5429 49.4867 35.8363C49.4867 35.1296 50.0602 34.5563 50.7668 34.5563Z" fill="currentColor"/>
<path d="M54.8205 14.5074C55.5271 14.5074 56.0984 15.0808 56.0984 15.7875C56.0984 16.4941 55.5271 17.0675 54.8205 17.0675C54.1138 17.0675 53.5405 16.4941 53.5405 15.7875C53.5405 15.0808 54.1138 14.5074 54.8205 14.5074Z" fill="currentColor"/>
<path d="M54.8205 18.5613C55.5271 18.5613 56.0984 19.1346 56.0984 19.8413C56.0984 20.5479 55.5271 21.1213 54.8205 21.1213C54.1138 21.1213 53.5405 20.5479 53.5405 19.8413C53.5405 19.1346 54.1138 18.5613 54.8205 18.5613Z" fill="currentColor"/>
<path d="M54.8205 22.6119C55.5271 22.6119 56.0984 23.1853 56.0984 23.8919C56.0984 24.5986 55.5271 25.1719 54.8205 25.1719C54.1138 25.1719 53.5405 24.5986 53.5405 23.8919C53.5405 23.1853 54.1138 22.6119 54.8205 22.6119Z" fill="currentColor"/>
<path d="M54.8205 26.4519C55.5271 26.4519 56.0984 27.0252 56.0984 27.7318C56.0984 28.4385 55.5271 29.0119 54.8205 29.0119C54.1138 29.0119 53.5405 28.4385 53.5405 27.7318C53.5405 27.0252 54.1138 26.4519 54.8205 26.4519Z" fill="currentColor"/>
<path d="M54.8205 30.5056C55.5271 30.5056 56.0984 31.0768 56.0984 31.7856C56.0984 32.4923 55.5271 33.0656 54.8205 33.0656C54.1138 33.0656 53.5405 32.4923 53.5405 31.7856C53.5405 31.0768 54.1138 30.5056 54.8205 30.5056Z" fill="currentColor"/>
<path d="M54.8205 34.5563C55.5271 34.5563 56.0984 35.1296 56.0984 35.8363C56.0984 36.5429 55.5271 37.1163 54.8205 37.1163C54.1138 37.1163 53.5405 36.5429 53.5405 35.8363C53.5405 35.1296 54.1138 34.5563 54.8205 34.5563Z" fill="currentColor"/>
<path d="M58.8743 18.5613C59.5809 18.5613 60.1522 19.1346 60.1522 19.8413C60.1522 20.5479 59.5809 21.1213 58.8743 21.1213C58.1655 21.1213 57.5943 20.5479 57.5943 19.8413C57.5943 19.1346 58.1655 18.5613 58.8743 18.5613Z" fill="currentColor"/>
<path d="M58.8743 22.6119C59.5809 22.6119 60.1522 23.1853 60.1522 23.8919C60.1522 24.5986 59.5809 25.1719 58.8743 25.1719C58.1655 25.1719 57.5943 24.5986 57.5943 23.8919C57.5943 23.1853 58.1655 22.6119 58.8743 22.6119Z" fill="currentColor"/>
<path d="M58.8743 26.4519C59.5809 26.4519 60.1522 27.0252 60.1522 27.7318C60.1522 28.4385 59.5809 29.0119 58.8743 29.0119C58.1655 29.0119 57.5943 28.4385 57.5943 27.7318C57.5943 27.0252 58.1655 26.4519 58.8743 26.4519Z" fill="currentColor"/>
<path d="M58.8743 30.5056C59.5809 30.5056 60.1522 31.0768 60.1522 31.7856C60.1522 32.4923 59.5809 33.0656 58.8743 33.0656C58.1655 33.0656 57.5943 32.4923 57.5943 31.7856C57.5943 31.0768 58.1655 30.5056 58.8743 30.5056Z" fill="currentColor"/>
<path d="M58.8743 34.5563C59.5809 34.5563 60.1522 35.1296 60.1522 35.8363C60.1522 36.5429 59.5809 37.1163 58.8743 37.1163C58.1655 37.1163 57.5943 36.5429 57.5943 35.8363C57.5943 35.1296 58.1655 34.5563 58.8743 34.5563Z" fill="currentColor"/>
<path d="M62.7128 22.6119C63.4194 22.6119 63.9927 23.1853 63.9927 23.8919C63.9927 24.5986 63.4194 25.1719 62.7128 25.1719C62.0061 25.1719 61.4327 24.5986 61.4327 23.8919C61.4327 23.1853 62.0061 22.6119 62.7128 22.6119Z" fill="currentColor"/>
<path d="M62.7128 26.4519C63.4194 26.4519 63.9927 27.0252 63.9927 27.7318C63.9927 28.4385 63.4194 29.0119 62.7128 29.0119C62.0061 29.0119 61.4327 28.4385 61.4327 27.7318C61.4327 27.0252 62.0061 26.4519 62.7128 26.4519Z" fill="currentColor"/>
<path d="M62.7128 30.5056C63.4194 30.5056 63.9927 31.0768 63.9927 31.7856C63.9927 32.4923 63.4194 33.0656 62.7128 33.0656C62.0061 33.0656 61.4327 32.4923 61.4327 31.7856C61.4327 31.0768 62.0061 30.5056 62.7128 30.5056Z" fill="currentColor"/>
<path d="M62.7128 34.5563C63.4194 34.5563 63.9927 35.1296 63.9927 35.8363C63.9927 36.5429 63.4194 37.1163 62.7128 37.1163C62.0061 37.1163 61.4327 36.5429 61.4327 35.8363C61.4327 35.1296 62.0061 34.5563 62.7128 34.5563Z" fill="currentColor"/>
<path d="M9.38329 94.4984C5.75904 94.4984 2.77163 91.5131 2.77163 87.8867C2.77163 84.2603 5.75904 81.2729 9.38329 81.2729C13.0118 81.2729 15.997 84.2603 15.997 87.8867C15.997 91.5131 13.2255 94.4984 9.38329 94.4984ZM9.38329 78.4992C4.26534 78.4992 0 82.7666 0 87.8867C0 93.0068 4.26534 97.2721 9.38329 97.2721C14.5034 97.2721 18.7708 93.0068 18.7708 87.8867C18.7708 82.7666 14.5034 78.4992 9.38329 78.4992Z" fill="currentColor"/>
<path d="M94.7083 31.7849C91.723 31.7849 89.3767 29.4365 89.3767 26.4512C89.3767 23.4659 91.723 21.1195 94.7083 21.1195C97.6979 21.1195 100.042 23.4659 100.042 26.4512C100.042 29.4365 97.6979 31.7849 94.7083 31.7849ZM94.7083 18.5595C90.2293 18.5595 86.603 22.1859 86.603 26.6649C86.603 31.1439 90.2293 34.7702 94.7083 34.7702C99.1895 34.7702 102.816 31.1439 102.816 26.6649C102.816 22.1859 99.1895 18.5595 94.7083 18.5595Z" fill="currentColor"/>
<path d="M34.768 54.3954V53.1154H38.8218C39.4628 53.1154 40.1017 52.4743 40.1017 51.8354C40.1017 51.1943 39.4628 50.5554 38.8218 50.5554H34.768V47.7816H38.8218C39.4628 47.7816 40.1017 47.1427 40.1017 46.5016C40.1017 45.8627 39.4628 45.2216 38.8218 45.2216H34.768V42.45H66.7664V45.2216H62.7126C62.0737 45.2216 61.4325 45.8627 61.4325 46.5016C61.4325 47.1427 62.0737 47.7816 62.7126 47.7816H66.7664V50.5554H62.7126C62.0737 50.5554 61.4325 51.1943 61.4325 51.8354C61.4325 52.4743 62.0737 53.1154 62.7126 53.1154H66.7664V54.3954C66.7664 62.7144 60.3662 69.7514 52.0472 70.3925V57.167C52.0472 56.5281 51.4083 55.887 50.7672 55.887C50.1282 55.887 49.4871 56.5281 49.4871 57.167V70.3925C41.1702 69.7514 34.768 62.926 34.768 54.3954ZM50.7672 10.4516C59.5136 10.4516 66.7664 17.7044 66.7664 26.4508V39.89H34.768V26.4508C34.768 17.7044 42.0208 10.4516 50.7672 10.4516ZM66.5526 101.111C66.1274 102.604 64.42 103.882 62.7126 103.882H38.8218C37.1165 103.882 35.6228 102.816 34.9817 101.111C41.8092 100.47 47.3567 94.7107 47.9935 87.8853H53.5409C54.1798 94.7107 59.7273 100.256 66.5526 101.111ZM73.378 41.1699C72.7391 41.1699 72.1001 41.8089 72.1001 42.45V54.3954C72.1001 65.6997 63.1399 75.0851 52.0472 75.7262V72.9525C61.6484 72.3114 69.3243 64.206 69.3243 54.3954V26.4508C69.3243 16.2107 61.0073 7.68007 50.5534 7.68007C40.1017 7.68007 31.7827 15.9991 31.7827 26.4508V54.3954C31.7827 64.206 39.4628 72.3114 49.0597 72.9525V75.7262C37.9691 75.0851 29.0111 65.6997 29.0111 54.3954V42.45C29.0111 41.8089 28.37 41.1699 27.729 41.1699C27.0921 41.1699 26.451 41.8089 26.451 42.45V54.3954C26.451 67.1913 36.4753 77.6452 49.0597 78.2863V84.9H46.2882C45.6493 84.9 45.0081 85.5368 45.0081 86.1779C45.0081 92.7896 39.6765 98.1255 33.0627 98.1255C32.4238 98.1255 31.7827 98.7623 31.7827 99.4034C31.7827 103.03 34.768 106.015 38.3944 106.015H62.501C66.1274 106.015 69.1127 103.03 69.1127 99.4034C69.1127 98.7623 68.4716 98.1255 67.8326 98.1255C61.2188 98.1255 55.8872 92.7896 55.8872 86.1779C55.8872 85.5368 55.2462 84.9 54.6072 84.9H51.8356V78.2863C64.42 77.6452 74.4443 67.1913 74.4443 54.3954V42.45C74.8738 41.8089 74.2328 41.1699 73.378 41.1699Z" fill="currentColor"/>
</svg>
