<svg width="110" height="107" viewBox="0 0 110 107" fill="none" xmlns="http://www.w3.org/2000/svg">
<path d="M90.5214 45.0595H76.6428C76.0383 45.0595 75.4337 45.6621 75.4337 46.2666C75.4337 46.8692 76.0383 47.4737 76.6428 47.4737H90.5214V96.5553C90.5214 99.975 87.7061 102.79 84.2864 102.79H81.6706V61.9547C81.6706 58.134 78.654 55.1172 74.8312 55.1172C66.9861 55.1172 49.0813 55.1172 34.3988 55.1172C30.576 55.1172 27.5592 58.134 27.5592 61.9547V102.992H24.9436C21.5238 102.992 18.7086 100.177 18.7086 96.7568V47.6732H55.1188C55.7193 47.6732 56.3239 47.0707 56.3239 46.4661C56.3239 45.8636 55.7193 45.259 55.1188 45.259H18.9081V34.3973L35.8053 12.6717H37.617V27.1547C37.617 30.9775 40.6337 33.9942 44.4564 33.9942H64.7734C68.5962 33.9942 71.613 30.9775 71.613 27.1547V12.6717H84.2864C87.7061 12.6717 90.5214 15.4889 90.5214 18.9086V45.0595ZM70.4058 102.992V57.7309H74.8312C77.2454 57.7309 79.055 59.7421 79.055 61.9547V102.992H70.4058ZM41.4377 102.992V57.7309H67.7902V102.992H41.4377ZM30.175 102.992V61.9547C30.175 59.5426 32.1861 57.7309 34.3988 57.7309H38.824V102.992H30.175ZM69.1988 12.4721V23.737H40.2326V12.4721H69.1988ZM40.2326 26.3507H69.1988V27.1547C69.1988 29.5689 67.1877 31.3805 64.975 31.3805H44.658C42.2438 31.3805 40.4322 29.3674 40.4322 27.1547V26.3507H40.2326ZM84.2864 9.85648C81.4692 9.85648 38.423 9.85648 35.2028 9.85648C34.7998 9.85648 34.3987 10.058 34.1972 10.2575L16.4939 32.9887C16.2944 33.1902 16.2944 33.3917 16.2944 33.7947V96.7568C16.2944 101.585 20.1172 105.406 24.9436 105.406C32.3856 105.406 77.6484 105.406 84.2864 105.406C89.1147 105.406 92.9355 101.585 92.9355 96.7568V18.7071C93.1351 13.8787 89.1147 9.85648 84.2864 9.85648Z" fill="currentColor"/>
<path d="M62.9621 61.5546H46.6674C46.0669 61.5546 45.4623 62.1571 45.4623 62.7617C45.4623 63.3642 46.0669 63.9688 46.6674 63.9688H62.9621C63.5666 63.9688 64.1712 63.3642 64.1712 62.7617C64.1712 61.9556 63.5666 61.5546 62.9621 61.5546Z" fill="currentColor"/>
<path d="M62.9621 66.5844H46.6674C46.0669 66.5844 45.4623 67.185 45.4623 67.7895C45.4623 68.3941 46.0669 68.9986 46.6674 68.9986H62.9621C63.5666 68.9986 64.1712 68.3941 64.1712 67.7895C64.1712 66.9855 63.5666 66.5844 62.9621 66.5844Z" fill="currentColor"/>
<path d="M62.9621 71.6114H46.6674C46.0669 71.6114 45.4623 72.2159 45.4623 72.8185C45.4623 73.421 46.0669 74.0256 46.6674 74.0256H62.9621C63.5666 74.0256 64.1712 73.421 64.1712 72.8185C64.1712 72.0124 63.5666 71.6114 62.9621 71.6114Z" fill="currentColor"/>
<path d="M62.9621 76.6413H46.6674C46.0669 76.6413 45.4623 77.2438 45.4623 77.8464C45.4623 78.4509 46.0669 79.0554 46.6674 79.0554H62.9621C63.5666 79.0554 64.1712 78.4509 64.1712 77.8464C64.1712 77.0423 63.5666 76.6413 62.9621 76.6413Z" fill="currentColor"/>
<path d="M62.9621 81.6682H46.6674C46.0669 81.6682 45.4623 82.2727 45.4623 82.8753C45.4623 83.4778 46.0669 84.0824 46.6674 84.0824H62.9621C63.5666 84.0824 64.1712 83.4778 64.1712 82.8753C64.1712 82.0692 63.5666 81.6682 62.9621 81.6682Z" fill="currentColor"/>
<path d="M62.9621 86.698H46.6674C46.0669 86.698 45.4623 87.3006 45.4623 87.9031C45.4623 88.5076 46.0669 89.1122 46.6674 89.1122H62.9621C63.5666 89.1122 64.1712 88.5076 64.1712 87.9031C64.1712 87.099 63.5666 86.698 62.9621 86.698Z" fill="currentColor"/>
<path d="M8.85061 21.3238C5.43087 21.3238 2.61566 18.5066 2.61566 15.0868C2.61566 11.6671 5.43087 8.85188 8.85061 8.85188C12.2704 8.85188 15.0876 11.6671 15.0876 15.0868C15.0876 18.5066 12.2704 21.3238 8.85061 21.3238ZM8.85061 6.23617C4.02227 6.23617 0 10.2585 0 15.0868C0 19.9152 4.02227 23.9375 8.85061 23.9375C13.679 23.9375 17.7033 19.9152 17.7033 15.0868C17.7033 10.2585 13.679 6.23617 8.85061 6.23617Z" fill="currentColor"/>
<path d="M103.193 89.1151C101.184 89.1151 99.3722 87.5049 99.3722 85.2923C99.3722 83.2811 100.982 81.4715 103.193 81.4715C105.206 81.4715 107.016 83.0796 107.016 85.2923C106.816 87.5049 105.206 89.1151 103.193 89.1151ZM103.193 79.0573C99.7752 79.0573 96.958 81.8725 96.958 85.2923C96.958 88.712 99.7752 91.5292 103.193 91.5292C106.615 91.5292 109.43 88.712 109.43 85.2923C109.43 81.8725 106.615 79.0573 103.193 79.0573Z" fill="currentColor"/>
<path d="M105.007 42.6451C106.006 42.6451 106.816 43.4551 106.816 44.4547C106.816 45.4543 106.006 46.2664 105.007 46.2664C104.005 46.2664 103.193 45.4543 103.193 44.4547C103.193 43.4551 104.005 42.6451 105.007 42.6451Z" fill="currentColor"/>
<path d="M103.798 97.9647C104.797 97.9647 105.607 98.7748 105.607 99.7744C105.607 100.774 104.797 101.586 103.798 101.586C102.798 101.586 101.988 100.774 101.988 99.7744C101.988 98.7748 102.798 97.9647 103.798 97.9647Z" fill="currentColor"/>
<path d="M101.184 5.02791C102.184 5.02791 102.994 5.83792 102.994 6.8375C102.994 7.83709 102.184 8.64915 101.184 8.64915C100.185 8.64915 99.3725 7.83709 99.3725 6.8375C99.3725 5.83792 100.185 5.02791 101.184 5.02791Z" fill="currentColor"/>
<path d="M25.7479 0C26.7495 0 27.5594 0.810059 27.5594 1.80965C27.5594 2.80923 26.7495 3.61929 25.7479 3.61929C24.7483 3.61929 23.9382 2.80923 23.9382 1.80965C23.9382 0.810059 24.7483 0 25.7479 0Z" fill="currentColor"/>
<path d="M3.21831 32.5884C4.2179 32.5884 5.02995 33.3984 5.02995 34.398C5.02995 35.3976 4.2179 36.2096 3.21831 36.2096C2.21872 36.2096 1.40871 35.3976 1.40871 34.398C1.40871 33.3984 2.21872 32.5884 3.21831 32.5884Z" fill="currentColor"/>
<path d="M9.45531 62.7607C10.4549 62.7607 11.2649 63.5707 11.2649 64.5703C11.2649 65.5699 10.4549 66.38 9.45531 66.38C8.45572 66.38 7.64561 65.5699 7.64561 64.5703C7.64561 63.5707 8.45572 62.7607 9.45531 62.7607Z" fill="currentColor"/>
<path d="M4.4274 102.992C5.425 102.992 6.2371 103.802 6.2371 104.803C6.2371 105.803 5.425 106.613 4.4274 106.613C3.42781 106.613 2.61576 105.803 2.61576 104.803C2.61576 103.802 3.42781 102.992 4.4274 102.992Z" fill="currentColor"/>
</svg>
