<svg width="512" height="512" viewBox="0 0 512 512" fill="none" xmlns="http://www.w3.org/2000/svg">
<path d="M217.614 57.2064C214.172 58.8491 211.826 62.3691 211.435 66.2803C210.965 70.8954 219.961 121.505 221.76 124.165C223.168 126.433 228.722 129.406 231.381 129.406C236.231 129.406 242.02 124.556 242.88 119.784C243.584 115.952 234.354 63.8554 232.476 61.3522C228.644 56.2678 222.855 54.6251 217.614 57.2064Z" fill="currentColor"/>
<path d="M285.668 59.0838C282.695 59.7096 278.941 62.9167 277.767 65.9674C277.298 67.0625 275.029 79.187 272.683 92.7977C268.068 119.785 267.989 120.801 271.901 125.417C276.985 131.44 287.936 129.797 290.83 122.601C292.317 118.924 300.53 70.5043 300.061 68.1576C298.809 61.8216 292.238 57.6758 285.668 59.0838Z" fill="currentColor"/>
<path d="M345.352 82.7853C344.1 83.3328 342.223 84.6626 341.284 85.6795C340.424 86.6964 334.088 97.1782 327.36 108.912C313.906 132.222 313.046 134.49 315.862 139.575C319.225 145.676 326.969 147.788 332.523 144.034C336.434 141.374 361.387 98.1951 361.387 93.9711C361.387 85.2884 352.861 79.2653 345.352 82.7853Z" fill="currentColor"/>
<path d="M116.551 103.592C93.5531 108.208 73.6063 112.666 72.2765 113.37C67.6614 115.873 65.0801 123.539 67.3485 128.076C67.8179 129.015 72.5894 134.178 77.8303 139.575L87.5299 149.353L84.3228 154.437C73.5281 171.959 63.8285 196.756 59.6045 217.406C56.5538 232.034 55.928 238.996 56.0062 256.909C56.0062 277.247 57.1014 286.633 61.7947 305.094C65.6276 320.113 69.0694 329.499 76.3441 344.205C95.6651 383.708 128.127 416.17 167.786 435.647C182.414 442.844 191.801 446.286 206.819 450.118C225.436 454.812 234.667 455.907 255.396 455.907C283.321 455.985 304.285 452.152 328.534 442.531C374.92 424.227 413.483 388.714 435.229 344.205C447.901 318.47 454.472 292.891 455.802 264.887C456.193 254.875 456.115 253.936 454.55 250.886C451.656 245.097 449.153 244.393 432.57 244.393C419.976 244.393 418.099 244.55 415.361 245.958C411.215 248.07 409.103 252.215 409.103 258.395C409.103 265.279 407.695 278.029 405.896 286.555C397.682 326.605 373.512 361.883 338.703 384.568C274.169 426.73 188.672 413.901 138.766 354.452C116.394 327.857 104.27 296.646 102.705 261.993C101.766 239.387 106.069 217.641 116.081 195.113C121.87 182.206 120.696 182.519 130.083 191.749C134.463 196.052 138.844 200.041 139.783 200.51C144.163 202.779 151.751 200.354 154.41 195.817C155.584 193.783 172.871 110.163 172.871 106.409C172.871 105.548 172.167 103.358 171.228 101.559C169.429 97.804 164.736 94.9098 160.668 95.0662C159.417 95.1445 139.548 98.9774 116.551 103.592Z" fill="currentColor"/>
<path d="M394.475 124.947C390.799 127.059 354.895 157.879 353.487 160.147C349.184 167.344 354.895 177.122 363.499 177.122C365.377 177.122 367.88 176.574 369.053 176.027C372.729 173.993 407.773 144.034 409.651 141.218C414.5 134.021 408.712 123.852 399.794 123.93C397.839 124.009 395.414 124.4 394.475 124.947Z" fill="currentColor"/>
<path d="M406.756 188.699C394.084 193.392 382.898 197.616 381.96 198.085C379.3 199.493 377.032 203.248 376.562 207.003C375.78 213.417 381.099 219.362 387.748 219.362C392.754 219.362 437.42 203.013 440.47 200.119C447.745 193.157 442.426 180.172 432.413 180.251C431.005 180.251 419.428 184.083 406.756 188.699Z" fill="currentColor"/>
<path d="M212.373 198.555C205.802 200.197 200.874 203.013 195.868 208.02C189.298 214.512 185.386 223.664 185.386 232.347C185.386 238.605 191.018 244.393 197.12 244.393C198.45 244.393 200.953 243.689 202.595 242.829C206.115 241.029 208.853 236.571 208.853 232.66C208.853 228.905 211.435 224.603 214.955 222.647C218.787 220.535 222.073 220.457 226.062 222.491C231.851 225.463 233.65 232.425 231.068 241.342C229.504 246.74 224.498 251.746 214.798 257.613C194.617 269.894 187.029 280.61 185.699 298.758C185.23 304.233 185.386 305.485 186.873 308.379C187.968 310.569 189.61 312.134 191.644 313.229C194.538 314.715 196.181 314.793 220.587 314.793C244.992 314.793 246.635 314.715 249.529 313.229C253.049 311.43 255.787 306.971 255.787 303.06C255.787 299.54 253.049 294.69 250.076 293.126C247.964 291.952 244.836 291.639 229.191 291.327L210.809 290.935L213.781 287.728C216.754 284.443 217.223 284.052 230.364 275.447C247.26 264.34 254.222 253.78 255.474 237.04C256.412 225.229 253.127 215.842 245.227 207.941C236.466 199.102 224.185 195.582 212.373 198.555Z" fill="currentColor"/>
<path d="M285.433 199.024C283.869 199.806 282.07 201.292 281.444 202.309C279.723 204.969 255.787 277.247 255.787 279.828C255.787 283.504 258.603 288.041 262.045 289.762C264.861 291.17 266.581 291.327 283.947 291.327H302.72V298.367C302.72 307.128 304.285 310.804 308.978 313.229C312.889 315.184 316.018 315.184 319.929 313.229C324.623 310.804 326.187 307.128 326.187 298.367V291.327H333.227C338.781 291.327 340.971 291.014 343.396 289.762C346.916 287.963 349.654 283.504 349.654 279.593C349.654 275.682 346.916 271.223 343.396 269.424C340.971 268.173 338.781 267.86 333.227 267.86H326.187V249.086C326.187 231.721 326.031 230 324.623 227.184C322.823 223.664 318.365 220.926 314.454 220.926C310.543 220.926 306.084 223.664 304.285 227.184C302.877 230 302.72 231.721 302.72 249.086V267.86H293.334C288.171 267.86 283.947 267.782 283.947 267.625C283.947 267.547 288.171 254.797 293.334 239.309C298.496 223.821 302.72 210.132 302.72 208.802C302.72 205.438 299.67 200.588 296.462 198.946C293.021 197.068 289.031 197.147 285.433 199.024Z" fill="currentColor"/>
</svg>
