<svg width="30" height="29" viewBox="0 0 30 29" fill="none" xmlns="http://www.w3.org/2000/svg">
<path d="M20.1385 14.9159V16.0426C20.1385 19.1637 19.3904 22.1778 17.9808 24.8832L17.725 25.3564L15.7566 24.259C17.0636 21.9153 17.796 19.2899 17.8771 16.5564L17.885 16.0426V14.9159H20.1385ZM13.378 11.5356H15.6315V16.0426L15.6259 16.4697C15.5407 19.5544 14.4791 22.5326 12.5938 24.9756L12.3335 25.3023L10.587 23.8781C12.3069 21.7777 13.2855 19.1684 13.3712 16.455L13.378 16.0426V11.5356ZM14.5047 7.02854C15.9989 7.02854 17.4319 7.6221 18.4884 8.67864C19.545 9.73518 20.1385 11.1682 20.1385 12.6623H17.885C17.885 11.7658 17.5289 10.906 16.895 10.2721C16.261 9.63819 15.4012 9.28206 14.5047 9.28206C13.6082 9.28206 12.7484 9.63819 12.1145 10.2721C11.4806 10.906 11.1245 11.7658 11.1245 12.6623V16.0426C11.1245 18.5609 10.2005 20.9373 8.56558 22.7773L8.32671 23.0364L6.69516 21.4815C8.01342 20.1023 8.78444 18.2903 8.86417 16.384L8.87093 16.0426V12.6623C8.87093 11.1682 9.46449 9.73518 10.521 8.67864C11.5776 7.6221 13.0106 7.02854 14.5047 7.02854ZM14.5047 2.5215C17.1943 2.5215 19.7736 3.5899 21.6754 5.49168C23.5772 7.39346 24.6456 9.97282 24.6456 12.6623V16.0426C24.6456 17.9559 24.418 19.8398 23.9729 21.6652L23.8163 22.2725L21.6416 21.6798C22.0833 20.0607 22.3323 18.3874 22.383 16.6826L22.3921 16.0426V12.6623C22.3921 11.1985 21.9847 9.76359 21.2156 8.51812C20.4465 7.27265 19.3459 6.26579 18.0371 5.61022C16.7283 4.95464 15.2629 4.67623 13.8048 4.80612C12.3468 4.93602 10.9537 5.46911 9.78136 6.34572L8.17572 4.73896C9.97119 3.3004 12.2041 2.51808 14.5047 2.5215ZM6.58136 6.33333L8.18812 7.93896C7.22173 9.2271 6.67494 10.7813 6.62192 12.3908L6.61741 12.6623L6.62192 14.9159C6.62192 16.1778 6.32446 17.3981 5.76333 18.4956L5.58755 18.8223L3.63037 17.7046C4.05854 16.9553 4.30868 16.1192 4.35826 15.2449L4.3684 14.9159V12.6623C4.36171 10.3619 5.14265 8.12841 6.58136 6.33333Z" fill="currentColor"/>
</svg>
