<svg width="110" height="110" viewBox="0 0 110 110" fill="none" xmlns="http://www.w3.org/2000/svg">
<path d="M55.8815 99.6944V89.9589C74.3793 89.3756 89.3737 74.3811 89.9569 55.8834H99.6944C99.1092 79.8331 79.8332 99.1112 55.8815 99.6944ZM9.73559 55.8834H19.4711C20.0543 74.3811 35.0469 89.3756 53.5446 89.9589V99.6944C29.5949 99.1112 10.3188 79.8331 9.73559 55.8834ZM53.5446 9.73555V19.4711C35.0469 20.0563 20.0543 35.0488 19.4711 53.5466H9.73559C10.3188 29.5968 29.5949 10.3207 53.5446 9.73555ZM81.5848 55.8834H87.6201C87.0368 73.0196 73.2127 86.8437 56.0765 87.4269V81.3917C56.0765 80.8065 55.4933 80.2213 54.9081 80.2213C54.3249 80.2213 53.7397 80.8065 53.7397 81.3917V87.4269C36.6055 86.8437 22.7814 73.0196 22.1962 55.8834H28.2333C28.8185 55.8834 29.3998 55.3002 29.3998 54.715C29.3998 54.1318 28.8185 53.5466 28.2333 53.5466H22.1962C22.7814 36.4123 36.6055 22.5882 53.7397 22.003V28.0383C53.7397 28.6234 54.3249 29.2067 54.9081 29.2067C55.4933 29.2067 56.0765 28.6234 56.0765 28.0383V22.003C73.2127 22.5882 87.0368 36.4123 87.6201 53.5466H81.5848C80.9996 53.5466 80.4164 54.1318 80.4164 54.715C80.2214 55.3002 80.8046 55.8834 81.5848 55.8834ZM99.6944 53.5466H89.9569C89.3737 35.0488 74.3793 20.0563 55.8815 19.4711V9.73555C79.8332 10.3207 99.1092 29.5968 99.6944 53.5466ZM108.26 53.5466H102.224C101.446 28.2353 81.1967 7.98391 55.8815 7.2056V1.16843C55.8815 0.585186 55.2963 0 54.715 0C54.1298 0 53.5446 0.585186 53.5446 1.16843V7.2056C28.2333 7.98391 7.98193 28.2353 7.20362 53.5466H1.1665C0.581322 53.5466 0 54.1318 0 54.715C0 55.3002 0.581322 55.8834 1.1665 55.8834H7.20362C7.98193 81.1966 28.2333 101.448 53.5446 102.226V108.262C53.5446 108.847 54.1298 109.43 54.715 109.43C55.2963 109.43 55.8815 108.847 55.8815 108.262V102.226C81.1967 101.448 101.446 81.1966 102.224 55.8834H108.26C108.845 55.8834 109.43 55.3002 109.43 54.715C109.43 54.1318 108.845 53.5466 108.26 53.5466Z" fill="currentColor"/>
<path fill-rule="evenodd" clip-rule="evenodd" d="M54.6587 36.7367C55.0324 36.5819 55.4625 36.6675 55.7485 36.9535L63.715 44.92C64.1055 45.3105 64.1055 45.9437 63.715 46.3342L56.4556 53.5936L63.715 60.853C64.1055 61.2436 64.1055 61.8767 63.715 62.2672L55.7485 70.2338C55.4625 70.5198 55.0324 70.6053 54.6587 70.4505C54.285 70.2957 54.0414 69.9311 54.0414 69.5266V56.0078L47.782 62.2672C47.3914 62.6578 46.7583 62.6578 46.3678 62.2672C45.9772 61.8767 45.9772 61.2436 46.3678 60.853L53.6272 53.5936L46.3678 46.3342C45.9772 45.9437 45.9772 45.3105 46.3678 44.92C46.7583 44.5295 47.3914 44.5295 47.782 44.92L54.0414 51.1794V37.6606C54.0414 37.2561 54.285 36.8915 54.6587 36.7367ZM56.0414 56.0078L61.5937 61.5601L56.0414 67.1124V56.0078ZM56.0414 51.1794V40.0748L61.5937 45.6271L56.0414 51.1794Z" fill="currentColor"/>
<path d="M12.0723 102.227C9.34531 102.227 7.20343 100.086 7.20343 97.3605C7.20343 94.6316 9.34531 92.4918 12.0723 92.4918C14.7973 92.4918 16.939 94.6316 16.939 97.3605C16.939 100.086 14.7973 102.227 12.0723 102.227ZM12.0723 89.9599C7.98183 89.9599 4.67354 93.2701 4.67354 97.3605C4.67354 101.449 7.98183 104.759 12.0723 104.759C16.1608 104.759 19.4709 101.449 19.4709 97.3605C19.4709 93.2701 16.1608 89.9599 12.0723 89.9599Z" fill="currentColor"/>
<path d="M99.6944 14.6059C101.056 14.6059 102.224 15.7744 102.224 17.1359C102.224 18.4994 101.056 19.6679 99.6944 19.6679C98.3309 19.6679 97.1605 18.4994 97.1605 17.1359C97.3575 15.5793 98.3309 14.6059 99.6944 14.6059ZM99.6944 21.8096C102.419 21.8096 104.559 19.6678 104.559 16.9428C104.559 14.2158 102.419 12.0741 99.6944 12.0741C96.9674 12.0741 94.8237 14.2158 94.8237 16.9428C94.8237 19.6678 96.9674 21.8096 99.6944 21.8096Z" fill="currentColor"/>
<path d="M14.0168 2.53254C14.9844 2.53254 15.7705 3.31665 15.7705 4.28422C15.7705 5.25372 14.9844 6.03783 14.0168 6.03783C13.0493 6.03783 12.2652 5.25372 12.2652 4.28422C12.2652 3.31665 13.0493 2.53254 14.0168 2.53254Z" fill="currentColor"/>
<path d="M4.28148 25.5099C5.24905 25.5099 6.0351 26.2939 6.0351 27.2615C6.0351 28.231 5.24905 29.0151 4.28148 29.0151C3.31391 29.0151 2.52985 28.231 2.52985 27.2615C2.52985 26.2939 3.31391 25.5099 4.28148 25.5099Z" fill="currentColor"/>
<path d="M78.4695 2.53254C79.4352 2.53254 80.2211 3.31665 80.2211 4.28422C80.2211 5.25372 79.4352 6.03783 78.4695 6.03783C77.5019 6.03783 76.7159 5.25372 76.7159 4.28422C76.7159 3.31665 77.5019 2.53254 78.4695 2.53254Z" fill="currentColor"/>
<path d="M103.978 30.3758C104.946 30.3758 105.73 31.1618 105.73 32.1293C105.73 33.0969 104.946 33.881 103.978 33.881C103.01 33.881 102.224 33.0969 102.224 32.1293C102.224 31.1618 103.01 30.3758 103.978 30.3758Z" fill="currentColor"/>
<path d="M105.145 75.5514C106.112 75.5514 106.896 76.3355 106.896 77.3031C106.896 78.2707 106.112 79.0548 105.145 79.0548C104.177 79.0548 103.393 78.2707 103.393 77.3031C103.393 76.3355 104.177 75.5514 105.145 75.5514Z" fill="currentColor"/>
<path d="M88.2056 101.059C89.1731 101.059 89.9572 101.843 89.9572 102.81C89.9572 103.78 89.1731 104.564 88.2056 104.564C87.238 104.564 86.452 103.78 86.452 102.81C86.452 101.843 87.238 101.059 88.2056 101.059Z" fill="currentColor"/>
<path d="M34.6588 104.758C35.6263 104.758 36.4104 105.542 36.4104 106.51C36.4104 107.477 35.6263 108.262 34.6588 108.262C33.6912 108.262 32.9071 107.477 32.9071 106.51C32.9071 105.542 33.6912 104.758 34.6588 104.758Z" fill="currentColor"/>
<path d="M6.61896 75.5514C7.58653 75.5514 8.37257 76.3355 8.37257 77.3031C8.37257 78.2707 7.58653 79.0548 6.61896 79.0548C5.65139 79.0548 4.86732 78.2707 4.86732 77.3031C4.86732 76.3355 5.65139 75.5514 6.61896 75.5514Z" fill="currentColor"/>
</svg>
