<svg width="110" height="110" viewBox="0 0 110 110" fill="none" xmlns="http://www.w3.org/2000/svg">
<path d="M53.5489 13.7752C41.9081 13.7752 32.2071 23.2838 32.2071 35.1189C32.2071 46.9522 41.7157 56.4607 53.5489 56.4607C65.1917 56.4607 74.8926 46.9522 74.8926 35.1189C74.8926 23.2838 65.1917 13.7752 53.5489 13.7752ZM53.5489 58.7892C40.5514 58.7892 29.8786 48.1184 29.8786 35.1189C29.8786 22.1176 40.5514 11.4467 53.5489 11.4467C66.5503 11.4467 77.2211 22.1176 77.2211 35.1189C77.2211 48.1184 66.5503 58.7892 53.5489 58.7892Z" fill="currentColor"/>
<path d="M53.5489 21.1485C45.7896 21.1485 39.5815 27.3586 39.5815 35.1198C39.5815 42.879 45.7896 49.0891 53.5489 49.0891C61.312 49.0891 67.5201 42.879 67.5201 35.1198C67.5201 27.3586 61.312 21.1485 53.5489 21.1485ZM53.5489 51.4176C44.431 51.4176 37.0585 44.0452 37.0585 34.9235C37.0585 25.8056 44.431 18.4332 53.5489 18.4332C62.6687 18.4332 70.0411 25.8056 70.0411 34.9235C70.0411 44.0452 62.4743 51.4176 53.5489 51.4176Z" fill="currentColor"/>
<path d="M45.982 70.4327C49.2824 74.3104 52.1921 77.222 53.5488 78.5807C54.9074 77.222 57.819 74.5067 61.1175 70.4327H45.982ZM53.5488 81.4904C53.3564 81.4904 52.9676 81.296 52.7733 81.1036C52.5789 80.9092 47.7293 76.639 42.4911 70.044C42.2967 69.6553 42.1023 69.2665 42.2967 68.6834C42.4911 68.2966 42.8779 67.9079 43.461 67.9079H63.8329C64.2216 67.9079 64.8028 68.1042 64.9972 68.6834C65.1915 69.0741 65.1915 69.6553 64.8028 70.044C59.5645 76.639 54.713 80.9092 54.5206 81.1036C54.1319 81.296 53.7432 81.4904 53.5488 81.4904Z" fill="currentColor"/>
<path d="M90.9961 109.235C90.8017 109.235 90.6093 109.235 90.4149 109.04L72.7584 100.696L53.9376 109.04C53.5488 109.235 53.3564 109.235 52.9677 109.04L34.1469 100.696L16.4923 109.04C16.1036 109.235 15.5204 109.235 15.328 108.846C14.9393 108.652 14.7449 108.07 14.9393 107.682L20.5663 68.8778C20.9531 66.1605 22.7004 63.832 25.2233 62.862L28.7143 61.5053C29.2974 61.309 30.0729 61.5053 30.2672 62.0865C30.4616 62.6677 30.2673 63.4452 29.6861 63.6376L25.8045 65.385C24.0591 66.1605 22.8948 67.7135 22.5061 69.459L17.2678 105.936L33.3713 98.3675C33.7601 98.1751 34.1469 98.1751 34.3413 98.3675L53.1621 106.712L71.9828 98.3675C72.3696 98.1751 72.7584 98.1751 72.9527 98.3675L89.0562 105.936L83.818 69.459C83.6236 67.7135 82.265 65.9662 80.5196 65.385L76.8324 63.832C76.2512 63.6376 75.8625 62.862 76.2512 62.2789C76.4436 61.6997 77.2211 61.309 77.8023 61.6997L81.4895 63.2508C84.0124 64.2207 85.7578 66.5492 86.1446 69.2646L91.7735 108.07C91.7735 108.457 91.5792 109.04 91.3848 109.235C91.5792 109.235 91.3848 109.235 90.9961 109.235Z" fill="currentColor"/>
<path d="M53.5489 2.52288C35.7 2.52288 20.9531 17.0734 20.9531 35.1187C20.9531 48.8937 30.0729 63.4461 37.6398 73.1471C44.431 81.8781 51.2204 88.475 53.5489 90.6092C55.8775 88.475 62.4744 82.2649 69.0713 73.7302C76.4437 64.0292 85.5635 49.6711 86.1447 35.1187C86.5334 26.7744 83.4293 18.8188 77.4155 12.805C71.2054 6.21005 62.4744 2.52288 53.5489 2.52288ZM53.5489 93.519C53.3565 93.519 52.9678 93.3246 52.7734 93.1321C52.7734 93.1321 44.2367 85.369 35.7 74.5057C24.2516 59.7589 18.6246 46.5651 18.6246 34.9224C18.6246 15.7148 34.3413 0 53.5489 0C63.2499 0 72.5641 3.88154 79.161 10.8652C85.5635 17.4622 88.862 25.9989 88.4732 34.9224C87.8921 50.0579 78.5798 65.1915 71.013 75.0869C62.6687 85.7597 54.5207 92.9378 54.3264 93.1321C54.132 93.3246 53.7433 93.519 53.5489 93.519Z" fill="currentColor"/>
<path d="M100.891 31.6266C97.593 31.6266 94.8776 34.3439 94.8776 37.6424C94.8776 40.9389 97.593 43.6562 100.891 43.6562C104.19 43.6562 106.905 40.9389 106.905 37.6424C106.905 34.3439 104.19 31.6266 100.891 31.6266ZM100.891 46.1772C96.2363 46.1772 92.3547 42.2995 92.3547 37.6424C92.3547 32.9853 96.2363 29.1038 100.891 29.1038C105.549 29.1038 109.43 32.9853 109.43 37.6424C109.234 42.4919 105.549 46.1772 100.891 46.1772Z" fill="currentColor"/>
<path d="M7.37245 62.0893C4.65518 62.0893 2.52098 64.2234 2.52098 66.9388C2.52098 69.6561 4.65518 71.7902 7.37245 71.7902C10.0878 71.7902 12.222 69.6561 12.222 66.9388C12.222 64.2234 10.0878 62.0893 7.37245 62.0893ZM7.37245 74.1188C3.29846 74.1188 0 70.8203 0 66.7464C0 62.6704 3.29846 59.374 7.37245 59.374C11.4464 59.374 14.7449 62.6704 14.7449 66.7464C14.7449 70.8203 11.4464 74.1188 7.37245 74.1188Z" fill="currentColor"/>
<path d="M90.4149 5.04356C91.379 5.04356 92.1603 5.82489 92.1603 6.78902C92.1603 7.75508 91.379 8.53829 90.4149 8.53829C89.4507 8.53829 88.6675 7.75508 88.6675 6.78902C88.6675 5.82489 89.4507 5.04356 90.4149 5.04356Z" fill="currentColor"/>
<path d="M106.324 54.7148C107.288 54.7148 108.069 55.4961 108.069 56.4603C108.069 57.4244 107.288 58.2057 106.324 58.2057C105.36 58.2057 104.578 57.4244 104.578 56.4603C104.578 55.4961 105.36 54.7148 106.324 54.7148Z" fill="currentColor"/>
<path d="M94.1002 75.4766C95.0663 75.4766 95.8475 76.2579 95.8475 77.222C95.8475 78.1861 95.0663 78.9674 94.1002 78.9674C93.1361 78.9674 92.3547 78.1861 92.3547 77.222C92.3547 76.2579 93.1361 75.4766 94.1002 75.4766Z" fill="currentColor"/>
<path d="M17.6566 3.88318C18.6207 3.88318 19.402 4.66451 19.402 5.62864C19.402 6.59277 18.6207 7.37405 17.6566 7.37405C16.6905 7.37405 15.9092 6.59277 15.9092 5.62864C15.9092 4.66451 16.6905 3.88318 17.6566 3.88318Z" fill="currentColor"/>
<path d="M4.46276 35.3147C5.42689 35.3147 6.20819 36.096 6.20819 37.0601C6.20819 38.0242 5.42689 38.8056 4.46276 38.8056C3.49863 38.8056 2.71537 38.0242 2.71537 37.0601C2.71537 36.096 3.49863 35.3147 4.46276 35.3147Z" fill="currentColor"/>
<path d="M9.31226 88.6683C10.2764 88.6683 11.0577 89.4496 11.0577 90.4156C11.0577 91.3798 10.2764 92.163 9.31226 92.163C8.34812 92.163 7.56682 91.3798 7.56682 90.4156C7.56682 89.4496 8.34812 88.6683 9.31226 88.6683Z" fill="currentColor"/>
<path d="M106.324 103.219C107.288 103.219 108.069 104.002 108.069 104.966C108.069 105.93 107.288 106.712 106.324 106.712C105.36 106.712 104.578 105.93 104.578 104.966C104.578 104.002 105.36 103.219 106.324 103.219Z" fill="currentColor"/>
</svg>
