<svg width="23" height="23" viewBox="0 0 23 23" fill="none" xmlns="http://www.w3.org/2000/svg">
<path d="M21.5 10.5799V11.4999C21.4988 13.6563 20.8005 15.7545 19.5093 17.4817C18.2182 19.2088 16.4033 20.4723 14.3354 21.0838C12.2674 21.6952 10.0573 21.6218 8.03447 20.8744C6.01168 20.1271 4.28465 18.746 3.11096 16.9369C1.93727 15.1279 1.37979 12.9879 1.52168 10.8362C1.66356 8.68443 2.49721 6.63619 3.89828 4.99694C5.29935 3.35768 7.19279 2.21525 9.29619 1.74001C11.3996 1.26477 13.6003 1.4822 15.57 2.35986M21.5 3.49986L11.5 13.5099L8.50001 10.5099" stroke="#FF5936" stroke-width="2" stroke-linecap="round" stroke-linejoin="round"/>
<path d="M21.5 10.5799V11.4999C21.4988 13.6563 20.8005 15.7545 19.5093 17.4817C18.2182 19.2088 16.4033 20.4723 14.3354 21.0838C12.2674 21.6952 10.0573 21.6218 8.03447 20.8744C6.01168 20.1271 4.28465 18.746 3.11096 16.9369C1.93727 15.1279 1.37979 12.9879 1.52168 10.8362C1.66356 8.68443 2.49721 6.63619 3.89828 4.99694C5.29935 3.35768 7.19279 2.21525 9.29619 1.74001C11.3996 1.26477 13.6003 1.4822 15.57 2.35986M21.5 3.49986L11.5 13.5099L8.50001 10.5099" stroke="white" stroke-opacity="0.9" stroke-width="2" stroke-linecap="round" stroke-linejoin="round"/>
</svg>
