<svg width="10" height="10" viewBox="0 0 10 10" fill="none" xmlns="http://www.w3.org/2000/svg">
<g clip-path="url(#clip0_5128_14261)">
<path d="M5 0.833333C5.55394 0.834385 6.10216 0.94542 6.61285 1.16C7.12354 1.37457 7.58655 1.68842 7.975 2.08333H6.25V2.91667H8.39292C8.59806 2.91645 8.79474 2.83486 8.9398 2.6898C9.08486 2.54474 9.16645 2.34806 9.16667 2.14292V0H8.33333V1.275C7.61402 0.631626 6.72389 0.210166 5.77035 0.0614797C4.81681 -0.0872068 3.84062 0.0432341 2.95957 0.437062C2.07852 0.830889 1.33028 1.47127 0.805121 2.28094C0.279965 3.0906 0.0003435 4.03494 0 5H0.833333C0.834547 3.8953 1.27392 2.8362 2.05506 2.05506C2.8362 1.27392 3.8953 0.834547 5 0.833333Z" fill="#FF5936"/>
<path d="M9.16659 5C9.16646 5.82751 8.91994 6.63625 8.45844 7.32313C7.99694 8.01 7.34137 8.5439 6.57528 8.85677C5.80919 9.16964 4.96729 9.24731 4.15689 9.07988C3.34649 8.91246 2.6043 8.50751 2.02492 7.91667H3.74992V7.08333H1.607C1.40186 7.08355 1.20518 7.16514 1.06012 7.3102C0.915063 7.45526 0.833473 7.65194 0.833252 7.85708V10H1.66659V8.725C2.3859 9.36837 3.27603 9.78983 4.22957 9.93852C5.18311 10.0872 6.1593 9.95677 7.04035 9.56294C7.92139 9.16911 8.66964 8.52873 9.1948 7.71906C9.71995 6.9094 9.99958 5.96506 9.99992 5H9.16659Z" fill="#FF5936"/>
</g>
<defs>
<clipPath id="clip0_5128_14261">
<rect width="10" height="10" fill="white"/>
</clipPath>
</defs>
</svg>
