<svg width="37" height="33" viewBox="0 0 37 33" fill="none" xmlns="http://www.w3.org/2000/svg">
<g clip-path="url(#clip0_5153_14825)">
<path d="M19.766 7.55288C20.965 6.589 22.2025 5.29375 22.8281 3.71937C23.1554 2.89713 23.0523 1.96487 22.549 1.22238C22.0306 0.4565 21.1712 0 20.25 0H12C11.0787 0 10.2194 0.457875 9.701 1.22238C9.19775 1.96487 9.09463 2.89713 9.4205 3.71663C10.0475 5.29238 11.2836 6.589 12.484 7.5515C6.08063 9.92887 1 18.0936 1 24.75C1 29.2999 4.70012 33 9.25 33H23C27.5499 33 31.25 29.2999 31.25 24.75C31.25 18.0936 26.1694 9.92887 19.766 7.55288ZM20.272 2.70187C19.5639 4.48388 17.3927 5.99225 16.1223 6.70312C14.8531 5.99775 12.6916 4.50313 11.9986 2.75L20.272 2.70187ZM22.9986 30.25H9.25C6.21675 30.25 3.75 27.7833 3.75 24.75C3.75 17.5409 10.2262 9.625 16.125 9.625C22.0238 9.625 28.5 17.5409 28.5 24.75C28.5 27.7833 26.0319 30.25 22.9986 30.25Z" fill="currentColor"/>
<g clip-path="url(#clip1_5153_14825)">
<path d="M20.5 18.5C20.5 18.775 20.275 19 20 19H18.49C18.36 20.95 16.73 22.5 14.75 22.5H13.4L17.815 26.115C18.03 26.29 18.06 26.605 17.885 26.82C17.785 26.94 17.64 27.005 17.495 27.005C17.385 27.005 17.27 26.97 17.18 26.89L11.685 22.385C11.52 22.25 11.46 22.03 11.53 21.83C11.6 21.63 11.79 21.5 12 21.5H14.75C16.18 21.5 17.36 20.4 17.49 19H12C11.725 19 11.5 18.775 11.5 18.5C11.5 18.225 11.725 18 12 18H17.395C17.07 16.845 16.005 16 14.75 16H12C11.725 16 11.5 15.775 11.5 15.5C11.5 15.225 11.725 15 12 15H20C20.275 15 20.5 15.225 20.5 15.5C20.5 15.775 20.275 16 20 16H17.295C17.86 16.525 18.265 17.22 18.42 18H19.995C20.27 18 20.495 18.225 20.495 18.5H20.5Z" fill="currentColor"/>
</g>
</g>
<path d="M31 12C30.187 12 29.42 11.643 28.896 11.0205C28.126 11.109 27.3325 10.8175 26.7575 10.243C26.183 9.668 25.893 8.873 25.9625 8.062C25.357 7.58 25 6.813 25 6C25 5.187 25.357 4.42 25.98 3.896C25.8925 3.1275 26.1825 2.3325 26.7575 1.7575C27.3325 1.182 28.126 0.8925 28.938 0.9625C29.42 0.3575 30.187 0 31 0C31.813 0 32.58 0.357 33.104 0.9795C33.875 0.8915 34.6675 1.1825 35.2425 1.757C35.817 2.332 36.107 3.127 36.0375 3.938C36.643 4.42 37 5.187 37 6C37 6.813 36.643 7.58 36.02 8.104C36.1075 8.8725 35.8175 9.6675 35.2425 10.2425C34.667 10.8175 33.872 11.107 33.062 11.0375C32.58 11.6425 31.813 12 31 12ZM28.9365 10.038C29.217 10.038 29.477 10.1585 29.6605 10.376C29.9945 10.7725 30.4825 11 31 11C31.5175 11 32.0055 10.7725 32.3395 10.376C32.541 10.1365 32.8345 10.0155 33.1475 10.041C33.6645 10.0845 34.1695 9.901 34.5355 9.535C34.901 9.1695 35.0855 8.6635 35.0415 8.147C35.0145 7.835 35.1365 7.5405 35.3765 7.3385C35.7725 7.005 36 6.5165 36 5.9995C36 5.4825 35.7725 4.994 35.3765 4.6605C35.137 4.459 35.0145 4.164 35.0415 3.852C35.0855 3.3355 34.9015 2.8295 34.5355 2.464C34.1695 2.0985 33.6615 1.916 33.148 1.958C32.835 1.9865 32.541 1.8625 32.3395 1.6235C32.0055 1.227 31.5175 0.9995 31 0.9995C30.4825 0.9995 29.9945 1.227 29.6605 1.6235C29.4585 1.863 29.164 1.983 28.8525 1.9585C28.333 1.9135 27.8305 2.0985 27.4645 2.4645C27.099 2.83 26.9145 3.336 26.9585 3.8525C26.9855 4.1645 26.8635 4.459 26.6235 4.661C26.2275 4.9945 26 5.483 26 6C26 6.517 26.2275 7.0055 26.6235 7.339C26.863 7.5405 26.9855 7.8355 26.9585 8.1475C26.9145 8.664 27.0985 9.17 27.4645 9.5355C27.8305 9.9015 28.341 10.0845 28.852 10.0415C28.8805 10.039 28.9085 10.038 28.9365 10.038ZM29.5 4C29.224 4 29 4.224 29 4.5C29 4.776 29.224 5 29.5 5C29.776 5 30 4.776 30 4.5C30 4.224 29.776 4 29.5 4ZM32.5 7C32.224 7 32 7.224 32 7.5C32 7.776 32.224 8 32.5 8C32.776 8 33 7.776 33 7.5C33 7.224 32.776 7 32.5 7ZM30.416 7.7775L32.416 4.7775C32.5695 4.548 32.5075 4.237 32.2775 4.084C32.047 3.93 31.737 3.993 31.584 4.2225L29.584 7.2225C29.4305 7.452 29.4925 7.763 29.7225 7.916C29.808 7.973 29.904 8 29.9995 8C30.161 8 30.32 7.922 30.416 7.7775Z" fill="currentColor"/>
<defs>
<clipPath id="clip0_5153_14825">
<rect width="33" height="33" fill="currentColor"/>
</clipPath>
<clipPath id="clip1_5153_14825">
<rect width="12" height="12" fill="currentColor" transform="translate(10 15)"/>
</clipPath>
</defs>
</svg>
