<svg width="25" height="22" viewBox="0 0 25 22" fill="none" xmlns="http://www.w3.org/2000/svg">
<g clip-path="url(#clip0_5128_14045)">
<path d="M25.0001 4.58333V17.4167C25.0001 19.9439 22.944 22 20.4167 22H15.8334C15.3265 22 14.9167 21.5893 14.9167 21.0833C14.9167 20.5773 15.3265 20.1667 15.8334 20.1667H20.4167C21.9329 20.1667 23.1667 18.9328 23.1667 17.4167V4.58333C23.1667 3.06717 21.9329 1.83333 20.4167 1.83333H11.2501C9.73391 1.83333 8.50008 3.06717 8.50008 4.58333V5.5C8.50008 6.006 8.09033 6.41667 7.58341 6.41667C7.0765 6.41667 6.66675 6.006 6.66675 5.5V4.58333C6.66675 2.05608 8.72283 0 11.2501 0H20.4167C22.944 0 25.0001 2.05608 25.0001 4.58333ZM14.9167 9.16667C14.4098 9.16667 14.0001 8.756 14.0001 8.25C14.0001 7.744 14.4098 7.33333 14.9167 7.33333H19.5001V5.5H12.1667V5.95833C12.1667 6.46433 11.757 6.875 11.2501 6.875C10.7432 6.875 10.3334 6.46433 10.3334 5.95833V5.5C10.3334 4.48892 11.1557 3.66667 12.1667 3.66667H19.5001C20.5112 3.66667 21.3334 4.48892 21.3334 5.5V7.33333C21.3334 8.34442 20.5112 9.16667 19.5001 9.16667H14.9167ZM15.8334 16.5C15.8334 15.994 16.2432 15.5833 16.7501 15.5833H20.4167C20.9237 15.5833 21.3334 15.994 21.3334 16.5C21.3334 17.006 20.9237 17.4167 20.4167 17.4167H16.7501C16.2432 17.4167 15.8334 17.006 15.8334 16.5ZM15.8334 12.8333V11.9167C15.8334 11.4107 16.2432 11 16.7501 11C17.257 11 17.6667 11.4107 17.6667 11.9167V12.8333C17.6667 13.3393 17.257 13.75 16.7501 13.75C16.2432 13.75 15.8334 13.3393 15.8334 12.8333ZM21.3334 12.8333C21.3334 13.3393 20.9237 13.75 20.4167 13.75C19.9098 13.75 19.5001 13.3393 19.5001 12.8333V11.9167C19.5001 11.4107 19.9098 11 20.4167 11C20.9237 11 21.3334 11.4107 21.3334 11.9167V12.8333Z" fill="#FF5936"/>
</g>
<g clip-path="url(#clip1_5128_14045)">
<path d="M7.5 22C6.48375 22 5.525 21.5538 4.87 20.7756C3.9075 20.8863 2.91563 20.5219 2.19688 19.8038C1.47875 19.085 1.11625 18.0913 1.20312 17.0775C0.44625 16.475 0 15.5162 0 14.5C0 13.4837 0.44625 12.525 1.225 11.87C1.11563 10.9094 1.47813 9.91563 2.19688 9.19688C2.91563 8.4775 3.9075 8.11563 4.9225 8.20312C5.525 7.44687 6.48375 7 7.5 7C8.51625 7 9.475 7.44625 10.13 8.22438C11.0938 8.11437 12.0844 8.47812 12.8031 9.19625C13.5213 9.915 13.8838 10.9088 13.7969 11.9225C14.5538 12.525 15 13.4837 15 14.5C15 15.5162 14.5538 16.475 13.775 17.13C13.8844 18.0906 13.5219 19.0844 12.8031 19.8031C12.0838 20.5219 11.09 20.8838 10.0775 20.7969C9.475 21.5531 8.51625 22 7.5 22ZM4.92063 19.5475C5.27125 19.5475 5.59625 19.6981 5.82562 19.97C6.24312 20.4656 6.85313 20.75 7.5 20.75C8.14688 20.75 8.75688 20.4656 9.17437 19.97C9.42625 19.6706 9.79313 19.5194 10.1844 19.5513C10.8306 19.6056 11.4619 19.3763 11.9194 18.9187C12.3762 18.4619 12.6069 17.8294 12.5519 17.1838C12.5181 16.7938 12.6706 16.4256 12.9706 16.1731C13.4656 15.7563 13.75 15.1456 13.75 14.4994C13.75 13.8531 13.4656 13.2425 12.9706 12.8256C12.6713 12.5738 12.5181 12.205 12.5519 11.815C12.6069 11.1694 12.3769 10.5369 11.9194 10.08C11.4619 9.62313 10.8269 9.395 10.185 9.4475C9.79375 9.48312 9.42625 9.32812 9.17437 9.02938C8.75688 8.53375 8.14688 8.24937 7.5 8.24937C6.85313 8.24937 6.24312 8.53375 5.82562 9.02938C5.57312 9.32875 5.205 9.47875 4.81563 9.44813C4.16625 9.39188 3.53813 9.62312 3.08063 10.0806C2.62375 10.5375 2.39313 11.17 2.44813 11.8156C2.48187 12.2056 2.32938 12.5737 2.02938 12.8262C1.53437 13.2431 1.25 13.8537 1.25 14.5C1.25 15.1462 1.53437 15.7569 2.02938 16.1737C2.32875 16.4256 2.48187 16.7944 2.44813 17.1844C2.39313 17.83 2.62312 18.4625 3.08063 18.9194C3.53813 19.3769 4.17625 19.6056 4.815 19.5519C4.85063 19.5487 4.88562 19.5475 4.92063 19.5475ZM5.625 12C5.28 12 5 12.28 5 12.625C5 12.97 5.28 13.25 5.625 13.25C5.97 13.25 6.25 12.97 6.25 12.625C6.25 12.28 5.97 12 5.625 12ZM9.375 15.75C9.03 15.75 8.75 16.03 8.75 16.375C8.75 16.72 9.03 17 9.375 17C9.72 17 10 16.72 10 16.375C10 16.03 9.72 15.75 9.375 15.75ZM6.77 16.7219L9.27 12.9719C9.46187 12.685 9.38438 12.2963 9.09688 12.105C8.80875 11.9125 8.42125 11.9913 8.23 12.2781L5.73 16.0281C5.53813 16.315 5.61562 16.7037 5.90312 16.895C6.01 16.9662 6.13 17 6.24937 17C6.45125 17 6.65 16.9025 6.77 16.7219Z" fill="#FF5936"/>
</g>
<defs>
<clipPath id="clip0_5128_14045">
<rect width="22" height="22" fill="white" transform="translate(3)"/>
</clipPath>
<clipPath id="clip1_5128_14045">
<rect width="15" height="15" fill="white" transform="translate(0 7)"/>
</clipPath>
</defs>
</svg>
