<svg width="21" height="34" viewBox="0 0 21 34" fill="none" xmlns="http://www.w3.org/2000/svg">
<path d="M3.21036 15.5696H3.05861H3.05849H3.21036ZM3.21036 15.5696V21.3953H2.56904C2.37128 21.3953 2.18237 21.4795 2.04366 21.6282C1.90505 21.7767 1.82773 21.9774 1.82773 22.186C1.82773 22.3947 1.90505 22.5954 2.04366 22.7439C2.18237 22.8925 2.37128 22.9768 2.56904 22.9768H16.3953C16.5931 22.9768 16.782 22.8925 16.9207 22.7439C17.0593 22.5954 17.1366 22.3947 17.1366 22.186C17.1366 21.9774 17.0593 21.7767 16.9207 21.6282C16.782 21.4795 16.5931 21.3953 16.3953 21.3953H15.754V15.5696M3.21036 15.5696H15.754M15.9057 15.5696C16.2587 15.572 16.6052 15.4706 16.9077 15.2768C17.21 15.083 17.4566 14.8044 17.6208 14.4716C17.7737 14.1676 17.8445 13.8243 17.8253 13.48C17.8061 13.1359 17.6979 12.8039 17.5123 12.5215C17.2128 12.0507 16.8114 11.6639 16.3421 11.3942L16.3416 11.3939L11.1567 8.49989L11.1567 8.49987C10.6397 8.21183 10.0653 8.06133 9.48218 8.06133C8.89906 8.06133 8.32468 8.21183 7.80768 8.49987L7.80766 8.49988L2.62212 11.3916L2.62212 11.3916L2.62156 11.3919C2.15224 11.6616 1.75091 12.0484 1.45137 12.5192C1.26581 12.8017 1.15753 13.1336 1.13837 13.4778C1.11922 13.8221 1.18994 14.1654 1.34282 14.4693L15.9055 15.5696C15.9056 15.5696 15.9057 15.5696 15.9057 15.5696ZM15.9057 15.5696H15.754M15.9057 15.5696H15.754M2.65721 13.7378L2.65723 13.7378L2.65638 13.7363C2.62969 13.6878 2.61677 13.6318 2.61952 13.5751C2.62228 13.5185 2.64056 13.4643 2.67169 13.4192L2.67173 13.4193L2.6729 13.4174C2.83634 13.1574 3.0554 12.9435 3.31144 12.7935L8.49578 9.8998C8.4958 9.89979 8.49582 9.89978 8.49583 9.89977C8.80098 9.7301 9.13949 9.64164 9.48287 9.64164C9.82625 9.64164 10.1648 9.7301 10.4699 9.89977C10.4699 9.89978 10.4699 9.89979 10.47 9.8998L15.6539 12.7933C15.6541 12.7933 15.6542 12.7934 15.6543 12.7935C15.9105 12.943 16.1296 13.1567 16.2928 13.4166L16.2928 13.4167L16.294 13.4184C16.3251 13.4636 16.3432 13.518 16.3457 13.5748C16.3483 13.6316 16.3351 13.6877 16.3081 13.736L16.3081 13.736L16.3072 13.7378C16.2678 13.8157 16.2094 13.8799 16.1388 13.9239C16.0682 13.9678 15.988 13.99 15.907 13.9882V13.9882H15.9059H3.05849V13.9882L3.05739 13.9882C2.97634 13.99 2.89617 13.9678 2.82561 13.9239C2.75501 13.8799 2.69661 13.8157 2.65721 13.7378ZM16.3518 13.7604C16.3834 13.7038 16.3986 13.6384 16.3957 13.5725C16.3927 13.5067 16.3717 13.4432 16.3352 13.39L16.3518 13.7604ZM17.612 25.7068C17.7506 25.5583 17.8279 25.3575 17.8279 25.1489C17.8279 24.9403 17.7506 24.7395 17.612 24.591C17.4733 24.4424 17.2844 24.3582 17.0866 24.3582H1.87773C1.67996 24.3582 1.49106 24.4424 1.35234 24.591C1.21374 24.7395 1.13642 24.9403 1.13642 25.1489C1.13642 25.3575 1.21374 25.5583 1.35234 25.7068C1.49106 25.8554 1.67996 25.9396 1.87773 25.9396H17.0866C17.2844 25.9396 17.4733 25.8554 17.612 25.7068ZM8.83923 21.3953H4.69299V15.5696H8.83923V21.3953ZM10.3219 21.3953V15.5696H14.2714V21.3953H10.3219Z" fill="#FF5936" stroke="#FF5936" stroke-width="0.1"/>
<path d="M4.63299 5.77145H16.3864C16.731 5.77145 17.094 5.61035 17.1888 5.26778C17.2757 5.10236 17.2981 4.9348 17.2643 4.77656C17.2304 4.61724 17.1402 4.47087 17.0083 4.34722L13.6502 1.19959C13.2951 0.866803 12.7615 0.866803 12.4064 1.19959C12.0495 1.53411 12.0495 2.03971 12.4064 2.37422L14.2451 4.09763H4.63299C4.3707 4.09763 4.14785 4.17972 3.99013 4.32755C3.83212 4.47566 3.74346 4.68609 3.74346 4.93454C3.74346 5.18299 3.83212 5.39342 3.99013 5.54153C4.14785 5.68936 4.3707 5.77145 4.63299 5.77145Z" fill="#FF5936" stroke="#FF5936" stroke-width="0.1"/>
<path d="M7.37265 32.8012C7.54884 32.9663 7.72867 33.0507 7.99451 33.0507C8.26034 33.0507 8.44017 32.9663 8.61637 32.8012C8.97326 32.4666 8.97326 31.961 8.61637 31.6265L6.77772 29.9031H16.3898C16.6521 29.9031 16.8749 29.821 17.0327 29.6732C17.1907 29.5251 17.2793 29.3147 17.2793 29.0662C17.2793 28.8178 17.1907 28.6073 17.0327 28.4592C16.8749 28.3114 16.6521 28.2293 16.3898 28.2293H4.63639C4.46037 28.2293 4.30402 28.2706 4.16914 28.3549C4.03442 28.4391 3.92394 28.5644 3.8367 28.7279C3.74758 28.895 3.72435 29.0643 3.75845 29.2242C3.79245 29.3835 3.88261 29.5299 4.01452 29.6535L7.37265 32.8012Z" fill="#FF5936" stroke="#FF5936" stroke-width="0.1"/>
</svg>
