<svg width="22" height="22" viewBox="0 0 22 22" fill="none" xmlns="http://www.w3.org/2000/svg">
<g clip-path="url(#clip0_5128_14039)">
<path d="M16.5001 22H5.50008C4.28495 21.9985 3.12001 21.5152 2.26078 20.656C1.40156 19.7967 0.918204 18.6318 0.916748 17.4167V4.58333C0.918204 3.3682 1.40156 2.20326 2.26078 1.34403C3.12001 0.484808 4.28495 0.00145554 5.50008 0L16.5001 0C17.7152 0.00145554 18.8802 0.484808 19.7394 1.34403C20.5986 2.20326 21.082 3.3682 21.0834 4.58333V17.4167C21.082 18.6318 20.5986 19.7967 19.7394 20.656C18.8802 21.5152 17.7152 21.9985 16.5001 22ZM5.50008 1.83333C4.77074 1.83333 4.07126 2.12306 3.55554 2.63879C3.03981 3.15451 2.75008 3.85399 2.75008 4.58333V17.4167C2.75008 18.146 3.03981 18.8455 3.55554 19.3612C4.07126 19.8769 4.77074 20.1667 5.50008 20.1667H16.5001C17.2294 20.1667 17.9289 19.8769 18.4446 19.3612C18.9604 18.8455 19.2501 18.146 19.2501 17.4167V4.58333C19.2501 3.85399 18.9604 3.15451 18.4446 2.63879C17.9289 2.12306 17.2294 1.83333 16.5001 1.83333H5.50008ZM14.6667 9.16667H7.33341C6.60407 9.16667 5.9046 8.87694 5.38887 8.36121C4.87315 7.84549 4.58341 7.14601 4.58341 6.41667C4.58341 5.68732 4.87315 4.98785 5.38887 4.47212C5.9046 3.9564 6.60407 3.66667 7.33341 3.66667H14.6667C15.3961 3.66667 16.0956 3.9564 16.6113 4.47212C17.127 4.98785 17.4167 5.68732 17.4167 6.41667C17.4167 7.14601 17.127 7.84549 16.6113 8.36121C16.0956 8.87694 15.3961 9.16667 14.6667 9.16667ZM7.33341 5.5C7.0903 5.5 6.85714 5.59658 6.68523 5.76849C6.51333 5.94039 6.41675 6.17355 6.41675 6.41667C6.41675 6.65978 6.51333 6.89294 6.68523 7.06485C6.85714 7.23676 7.0903 7.33333 7.33341 7.33333H14.6667C14.9099 7.33333 15.143 7.23676 15.3149 7.06485C15.4868 6.89294 15.5834 6.65978 15.5834 6.41667C15.5834 6.17355 15.4868 5.94039 15.3149 5.76849C15.143 5.59658 14.9099 5.5 14.6667 5.5H7.33341ZM5.50008 11.9167C5.31878 11.9167 5.14155 11.9704 4.99081 12.0712C4.84006 12.1719 4.72257 12.315 4.65319 12.4825C4.58381 12.65 4.56566 12.8344 4.60103 13.0122C4.6364 13.19 4.7237 13.3533 4.8519 13.4815C4.9801 13.6097 5.14343 13.697 5.32125 13.7324C5.49906 13.7678 5.68338 13.7496 5.85087 13.6802C6.01837 13.6108 6.16154 13.4934 6.26226 13.3426C6.36299 13.1919 6.41675 13.0146 6.41675 12.8333C6.41675 12.5902 6.32017 12.3571 6.14826 12.1852C5.97635 12.0132 5.7432 11.9167 5.50008 11.9167ZM9.16675 11.9167C8.98545 11.9167 8.80822 11.9704 8.65747 12.0712C8.50673 12.1719 8.38924 12.315 8.31986 12.4825C8.25048 12.65 8.23232 12.8344 8.26769 13.0122C8.30306 13.19 8.39037 13.3533 8.51857 13.4815C8.64676 13.6097 8.8101 13.697 8.98792 13.7324C9.16573 13.7678 9.35004 13.7496 9.51754 13.6802C9.68504 13.6108 9.8282 13.4934 9.92893 13.3426C10.0297 13.1919 10.0834 13.0146 10.0834 12.8333C10.0834 12.5902 9.98684 12.3571 9.81493 12.1852C9.64302 12.0132 9.40986 11.9167 9.16675 11.9167ZM12.8334 11.9167C12.6521 11.9167 12.4749 11.9704 12.3241 12.0712C12.1734 12.1719 12.0559 12.315 11.9865 12.4825C11.9171 12.65 11.899 12.8344 11.9344 13.0122C11.9697 13.19 12.057 13.3533 12.1852 13.4815C12.3134 13.6097 12.4768 13.697 12.6546 13.7324C12.8324 13.7678 13.0167 13.7496 13.1842 13.6802C13.3517 13.6108 13.4949 13.4934 13.5956 13.3426C13.6963 13.1919 13.7501 13.0146 13.7501 12.8333C13.7501 12.5902 13.6535 12.3571 13.4816 12.1852C13.3097 12.0132 13.0765 11.9167 12.8334 11.9167ZM5.50008 15.5833C5.31878 15.5833 5.14155 15.6371 4.99081 15.7378C4.84006 15.8385 4.72257 15.9817 4.65319 16.1492C4.58381 16.3167 4.56566 16.501 4.60103 16.6788C4.6364 16.8566 4.7237 17.02 4.8519 17.1482C4.9801 17.2764 5.14343 17.3637 5.32125 17.3991C5.49906 17.4344 5.68338 17.4163 5.85087 17.3469C6.01837 17.2775 6.16154 17.16 6.26226 17.0093C6.36299 16.8585 6.41675 16.6813 6.41675 16.5C6.41675 16.2569 6.32017 16.0237 6.14826 15.8518C5.97635 15.6799 5.7432 15.5833 5.50008 15.5833ZM9.16675 15.5833C8.98545 15.5833 8.80822 15.6371 8.65747 15.7378C8.50673 15.8385 8.38924 15.9817 8.31986 16.1492C8.25048 16.3167 8.23232 16.501 8.26769 16.6788C8.30306 16.8566 8.39037 17.02 8.51857 17.1482C8.64676 17.2764 8.8101 17.3637 8.98792 17.3991C9.16573 17.4344 9.35004 17.4163 9.51754 17.3469C9.68504 17.2775 9.8282 17.16 9.92893 17.0093C10.0297 16.8585 10.0834 16.6813 10.0834 16.5C10.0834 16.2569 9.98684 16.0237 9.81493 15.8518C9.64302 15.6799 9.40986 15.5833 9.16675 15.5833ZM16.5001 11.9167C16.3188 11.9167 16.1416 11.9704 15.9908 12.0712C15.8401 12.1719 15.7226 12.315 15.6532 12.4825C15.5838 12.65 15.5657 12.8344 15.601 13.0122C15.6364 13.19 15.7237 13.3533 15.8519 13.4815C15.9801 13.6097 16.1434 13.697 16.3212 13.7324C16.4991 13.7678 16.6834 13.7496 16.8509 13.6802C17.0184 13.6108 17.1615 13.4934 17.2623 13.3426C17.363 13.1919 17.4167 13.0146 17.4167 12.8333C17.4167 12.5902 17.3202 12.3571 17.1483 12.1852C16.9764 12.0132 16.7432 11.9167 16.5001 11.9167ZM17.4167 16.5C17.4167 16.2569 17.3202 16.0237 17.1483 15.8518C16.9764 15.6799 16.7432 15.5833 16.5001 15.5833H12.8334C12.5903 15.5833 12.3571 15.6799 12.1852 15.8518C12.0133 16.0237 11.9167 16.2569 11.9167 16.5C11.9167 16.7431 12.0133 16.9763 12.1852 17.1482C12.3571 17.3201 12.5903 17.4167 12.8334 17.4167H16.5001C16.7432 17.4167 16.9764 17.3201 17.1483 17.1482C17.3202 16.9763 17.4167 16.7431 17.4167 16.5Z" fill="#FF5936"/>
</g>
<defs>
<clipPath id="clip0_5128_14039">
<rect width="22" height="22" fill="white"/>
</clipPath>
</defs>
</svg>
