<svg width="28" height="28" viewBox="0 0 28 28" fill="none" xmlns="http://www.w3.org/2000/svg">
<g clip-path="url(#clip0_5128_14022)">
<path d="M17.8287 11.0976H10.1716C9.94566 11.0976 9.73291 10.9914 9.59721 10.8108C9.46152 10.6302 9.41868 10.3962 9.48145 10.1793L10.5383 6.53026C10.6273 6.22312 10.9086 6.01172 11.2285 6.01172H16.7718C17.0916 6.01172 17.3729 6.22312 17.4619 6.53026L18.5187 10.1793C18.5815 10.3962 18.5387 10.6302 18.403 10.8108C18.2673 10.9914 18.0545 11.0976 17.8287 11.0976ZM11.1276 9.66072H16.8726L16.2319 7.44862H11.7684L11.1276 9.66072Z" fill="#FF5936"/>
<path d="M13.102 16.5429H5.44505C5.2191 16.5429 5.00635 16.4367 4.87065 16.2561C4.73495 16.0755 4.69212 15.8415 4.75489 15.6246L5.81182 11.9756C5.90082 11.6683 6.18209 11.457 6.50198 11.457H12.0453C12.3651 11.457 12.6464 11.6684 12.7355 11.9757L13.7923 15.6247C13.855 15.8416 13.8122 16.0756 13.6765 16.2561C13.5405 16.4367 13.3279 16.5429 13.102 16.5429ZM6.40104 15.106H12.1459L11.5053 12.8939H7.0418L6.40104 15.106Z" fill="#FF5936"/>
<path d="M22.5551 16.5429H14.8982C14.6722 16.5429 14.4596 16.4367 14.3238 16.2561C14.1881 16.0755 14.1452 15.8416 14.208 15.6247L15.2648 11.9757C15.3538 11.6684 15.635 11.457 15.9549 11.457H21.4983C21.8181 11.457 22.0994 11.6684 22.1884 11.9756L23.2453 15.6246C23.3081 15.8415 23.2652 16.0754 23.1295 16.2561C22.9938 16.4367 22.7811 16.5429 22.5551 16.5429ZM15.8542 15.106H21.5991L20.9584 12.8939H16.4948L15.8542 15.106Z" fill="#FF5936"/>
<path d="M8.37544 21.9882H0.718488C0.492536 21.9882 0.279785 21.882 0.144088 21.7014C0.00839141 21.5208 -0.0344461 21.2869 0.0283284 21.0699L1.08526 17.4209C1.17425 17.1137 1.45553 16.9023 1.77542 16.9023H7.3187C7.63849 16.9023 7.91977 17.1137 8.00876 17.4209L9.0656 21.0699C9.12838 21.2869 9.08554 21.5208 8.94984 21.7014C8.81415 21.882 8.60131 21.9882 8.37544 21.9882ZM1.67456 20.5513H7.41946L6.77878 18.3392H2.31524L1.67456 20.5513Z" fill="#FF5936"/>
<path d="M17.8287 21.9882H10.1716C9.94566 21.9882 9.73291 21.882 9.59721 21.7014C9.46152 21.5208 9.41868 21.2869 9.48145 21.0699L10.5382 17.4209C10.6272 17.1137 10.9085 16.9023 11.2284 16.9023H16.7717C17.0915 16.9023 17.3728 17.1137 17.4619 17.4209L18.5187 21.0699C18.5815 21.2869 18.5387 21.5207 18.403 21.7014C18.2673 21.882 18.0545 21.9882 17.8287 21.9882ZM11.1276 20.5513H16.8726L16.2318 18.3392H11.7683L11.1276 20.5513Z" fill="#FF5936"/>
<path d="M27.2817 21.9882H19.6247C19.3988 21.9882 19.186 21.882 19.0503 21.7014C18.9146 21.5208 18.8718 21.2869 18.9346 21.0699L19.9914 17.4209C20.0804 17.1137 20.3617 16.9023 20.6816 16.9023H26.2249C26.5447 16.9023 26.8259 17.1137 26.915 17.4209L27.9719 21.0699C28.0347 21.2869 27.9919 21.5207 27.8562 21.7014C27.7204 21.882 27.5076 21.9882 27.2817 21.9882ZM20.5808 20.5513H26.3257L25.6849 18.3392H21.2215L20.5808 20.5513Z" fill="#FF5936"/>
</g>
<defs>
<clipPath id="clip0_5128_14022">
<rect width="28" height="28" fill="white"/>
</clipPath>
</defs>
</svg>
