<svg width="17" height="11" viewBox="0 0 17 11" fill="none" xmlns="http://www.w3.org/2000/svg">
<g clip-path="url(#clip0_4714_12716)">
<path d="M13.4583 -0.167969H3.54167C1.58596 -0.167969 0 1.41728 0 3.3737V7.6237C0 9.57941 1.58596 11.1654 3.54167 11.1654H13.4583C15.4112 11.1654 17 9.57657 17 7.6237V3.3737C17 1.42082 15.4112 -0.167969 13.4583 -0.167969ZM5.75167 8.33203C5.52075 8.33203 5.32029 8.17266 5.26858 7.94741L5.08087 7.12786H3.3745L3.18042 7.95024C3.12729 8.17407 2.92825 8.33203 2.69804 8.33203C2.37858 8.33203 2.14271 8.03382 2.21567 7.72286L3.21654 3.47782C3.35892 2.86441 4.02192 2.48191 4.67287 2.75461C4.98383 2.88495 5.19279 3.18386 5.26929 3.51253L6.23475 7.7257C6.30558 8.03595 6.07042 8.33203 5.75167 8.33203ZM15.5833 7.6237C15.5833 8.79528 14.6299 9.7487 13.4583 9.7487H8.5V1.2487H13.4583C14.6299 1.2487 15.5833 2.20211 15.5833 3.3737V7.6237ZM4.29604 3.70166L4.8535 6.1362H3.60896L4.18342 3.70166C4.18979 3.67545 4.21246 3.65703 4.23938 3.65703C4.26629 3.65703 4.29038 3.67545 4.29604 3.70166Z" fill="#1F3C66"/>
<g clip-path="url(#clip1_4714_12716)">
<path d="M14.173 2.95312H12.7563C12.6812 2.95312 12.6091 2.98298 12.556 3.03611C12.5028 3.08925 12.473 3.16131 12.473 3.23646C12.473 3.3116 12.5028 3.38367 12.556 3.43681C12.6091 3.48994 12.6812 3.51979 12.7563 3.51979H13.1813V5.21979H11.7789C11.9663 4.97597 12.0684 4.67732 12.0694 4.36979C12.0694 4.05794 11.9665 3.7548 11.7767 3.50739C11.5868 3.25999 11.3207 3.08213 11.0194 3.00142C10.7182 2.92071 10.3988 2.94164 10.1106 3.06098C9.82253 3.18032 9.58184 3.39139 9.42591 3.66146C9.40708 3.69368 9.3948 3.7293 9.38978 3.76629C9.38476 3.80327 9.3871 3.84088 9.39666 3.87695C9.40622 3.91303 9.42282 3.94686 9.44549 3.9765C9.46817 4.00614 9.49648 4.031 9.5288 4.04967C9.56112 4.06834 9.5968 4.08043 9.63381 4.08526C9.67082 4.09009 9.70841 4.08756 9.74444 4.07781C9.78046 4.06807 9.81421 4.0513 9.84373 4.02847C9.87326 4.00564 9.89798 3.9772 9.91648 3.94479C9.99107 3.81556 10.0984 3.70823 10.2276 3.63361C10.3568 3.55898 10.5034 3.51969 10.6526 3.51967C10.8018 3.51966 10.9484 3.55892 11.0777 3.63352C11.2069 3.70811 11.3142 3.81541 11.3888 3.94463C11.4635 4.07385 11.5027 4.22044 11.5028 4.36965C11.5028 4.51887 11.4635 4.66547 11.3889 4.7947C11.3143 4.92393 11.207 5.03125 11.0778 5.10587C10.9486 5.18049 10.802 5.21978 10.6528 5.21979C10.5776 5.21979 10.5056 5.24964 10.4524 5.30278C10.3993 5.35591 10.3694 5.42798 10.3694 5.50312C10.3694 5.57827 10.3993 5.65034 10.4524 5.70347C10.5056 5.75661 10.5776 5.78646 10.6528 5.78646C10.802 5.78649 10.9485 5.82579 11.0777 5.90041C11.2069 5.97503 11.3142 6.08234 11.3888 6.21157C11.4634 6.34079 11.5026 6.48736 11.5026 6.63656C11.5026 6.78576 11.4633 6.93233 11.3887 7.06153C11.3141 7.19073 11.2068 7.29802 11.0775 7.37261C10.9483 7.4472 10.8018 7.48647 10.6526 7.48646C10.5034 7.48645 10.3568 7.44717 10.2276 7.37257C10.0984 7.29797 9.99108 7.19067 9.91648 7.06146C9.87878 6.99664 9.81693 6.94942 9.74448 6.93013C9.67202 6.91084 9.59487 6.92107 9.52995 6.95857C9.46502 6.99607 9.41761 7.05778 9.3981 7.13018C9.3786 7.20258 9.3886 7.27975 9.4259 7.34479C9.58183 7.61486 9.82252 7.82594 10.1106 7.94528C10.3988 8.06462 10.7182 8.08555 11.0194 8.00484C11.3207 7.92413 11.5868 7.74627 11.7767 7.49886C11.9665 7.25145 12.0694 6.94831 12.0694 6.63646C12.0684 6.32893 11.9663 6.03028 11.7789 5.78646H13.1813V7.76979C13.1813 7.84494 13.2112 7.917 13.2643 7.97014C13.3174 8.02327 13.3895 8.05312 13.4647 8.05312C13.5398 8.05312 13.6119 8.02327 13.665 7.97014C13.7181 7.917 13.748 7.84494 13.748 7.76979V3.51979H14.173C14.2481 3.51979 14.3202 3.48994 14.3733 3.43681C14.4265 3.38367 14.4563 3.3116 14.4563 3.23646C14.4563 3.16131 14.4265 3.08925 14.3733 3.03611C14.3202 2.98298 14.2481 2.95313 14.173 2.95312Z" fill="#1F3C66"/>
</g>
</g>
<defs>
<clipPath id="clip0_4714_12716">
<rect width="17" height="11" fill="white"/>
</clipPath>
<clipPath id="clip1_4714_12716">
<rect width="6.8" height="6.8" fill="white" transform="translate(8.5 2.10156)"/>
</clipPath>
</defs>
</svg>
