<svg width="33" height="33" viewBox="0 0 33 33" fill="none" xmlns="http://www.w3.org/2000/svg">
<g clip-path="url(#clip0_5153_14836)">
<path d="M10.8076 19.1455C11.3095 18.6189 11.7962 18.0249 12.173 17.391C12.7656 16.3914 11.9805 15.125 10.8227 15.125H5.67884C4.51972 15.125 3.73597 16.3914 4.32859 17.391C4.70397 18.0249 5.19209 18.6202 5.69396 19.1455C2.44071 20.6388 0.00146484 24.7294 0.00146484 28.2026C0.00146484 30.8468 2.16021 32.9986 4.81396 32.9986H11.689C14.3427 32.9986 16.5015 30.8468 16.5015 28.2026C16.5015 24.728 14.0595 20.6388 10.8076 19.1455ZM11.6876 30.25H4.81259C3.67546 30.25 2.75009 29.3329 2.75009 28.204C2.75009 25.0484 5.73109 21.3125 8.25009 21.3125C10.7691 21.3125 13.7501 25.0484 13.7501 28.204C13.7501 29.3329 12.8247 30.25 11.6876 30.25ZM28.8751 0H8.93622C6.28384 0 4.12509 2.16013 4.12509 4.8125V11C4.12509 11.759 4.74109 12.375 5.50009 12.375C6.25909 12.375 6.87509 11.759 6.87509 11V4.8125C6.87509 3.67537 7.80047 2.75 8.93759 2.75C10.0747 2.75 11.0001 3.67537 11.0001 4.8125C11.0001 6.70725 12.5428 8.25 14.4376 8.25H26.1251V26.125C26.1251 28.3993 24.2743 30.25 22.0001 30.25H19.2501C18.4911 30.25 17.8751 30.866 17.8751 31.625C17.8751 32.384 18.4911 33 19.2501 33H22.0001C25.791 33 28.8751 29.9159 28.8751 26.125V8.25H29.5626C31.4573 8.25 33.0001 6.70725 33.0001 4.8125V4.125C33.0001 1.85075 31.1493 0 28.8751 0ZM30.2501 4.8125C30.2501 5.192 29.9421 5.5 29.5626 5.5H14.4376C14.0581 5.5 13.7501 5.192 13.7501 4.8125C13.7501 4.07412 13.5823 3.37563 13.2853 2.75H28.8751C29.6327 2.75 30.2501 3.36737 30.2501 4.125V4.8125Z" fill="currentColor"/>
<path d="M19 22C18.3225 22 17.6833 21.7025 17.2467 21.1838C16.605 21.2575 15.9438 21.0146 15.4646 20.5358C14.9858 20.0567 14.7442 19.3942 14.8021 18.7183C14.2975 18.3167 14 17.6775 14 17C14 16.3225 14.2975 15.6833 14.8167 15.2467C14.7437 14.6062 14.9854 13.9438 15.4646 13.4646C15.9438 12.985 16.605 12.7437 17.2817 12.8021C17.6833 12.2979 18.3225 12 19 12C19.6775 12 20.3167 12.2975 20.7533 12.8162C21.3958 12.7429 22.0562 12.9854 22.5354 13.4642C23.0142 13.9433 23.2558 14.6058 23.1979 15.2817C23.7025 15.6833 24 16.3225 24 17C24 17.6775 23.7025 18.3167 23.1833 18.7533C23.2563 19.3937 23.0146 20.0562 22.5354 20.5354C22.0558 21.0146 21.3933 21.2558 20.7183 21.1979C20.3167 21.7021 19.6775 22 19 22ZM17.2804 20.365C17.5142 20.365 17.7308 20.4654 17.8837 20.6467C18.1621 20.9771 18.5687 21.1667 19 21.1667C19.4312 21.1667 19.8379 20.9771 20.1163 20.6467C20.2842 20.4471 20.5287 20.3463 20.7896 20.3675C21.2204 20.4038 21.6412 20.2508 21.9462 19.9458C22.2508 19.6412 22.4046 19.2196 22.3679 18.7892C22.3454 18.5292 22.4471 18.2838 22.6471 18.1154C22.9771 17.8375 23.1667 17.4304 23.1667 16.9996C23.1667 16.5687 22.9771 16.1617 22.6471 15.8837C22.4475 15.7158 22.3454 15.47 22.3679 15.21C22.4046 14.7796 22.2512 14.3579 21.9462 14.0533C21.6412 13.7487 21.2179 13.5967 20.79 13.6317C20.5292 13.6554 20.2842 13.5521 20.1163 13.3529C19.8379 13.0225 19.4312 12.8329 19 12.8329C18.5687 12.8329 18.1621 13.0225 17.8837 13.3529C17.7154 13.5525 17.47 13.6525 17.2104 13.6321C16.7775 13.5946 16.3587 13.7487 16.0537 14.0537C15.7492 14.3583 15.5954 14.78 15.6321 15.2104C15.6546 15.4704 15.5529 15.7158 15.3529 15.8842C15.0229 16.1621 14.8333 16.5692 14.8333 17C14.8333 17.4308 15.0229 17.8379 15.3529 18.1158C15.5525 18.2838 15.6546 18.5296 15.6321 18.7896C15.5954 19.22 15.7487 19.6417 16.0537 19.9462C16.3587 20.2512 16.7842 20.4037 17.21 20.3679C17.2337 20.3658 17.2571 20.365 17.2804 20.365ZM17.75 15.3333C17.52 15.3333 17.3333 15.52 17.3333 15.75C17.3333 15.98 17.52 16.1667 17.75 16.1667C17.98 16.1667 18.1667 15.98 18.1667 15.75C18.1667 15.52 17.98 15.3333 17.75 15.3333ZM20.25 17.8333C20.02 17.8333 19.8333 18.02 19.8333 18.25C19.8333 18.48 20.02 18.6667 20.25 18.6667C20.48 18.6667 20.6667 18.48 20.6667 18.25C20.6667 18.02 20.48 17.8333 20.25 17.8333ZM18.5133 18.4812L20.18 15.9813C20.3079 15.79 20.2562 15.5308 20.0646 15.4033C19.8725 15.275 19.6142 15.3275 19.4867 15.5187L17.82 18.0187C17.6921 18.21 17.7437 18.4692 17.9354 18.5967C18.0067 18.6442 18.0867 18.6667 18.1662 18.6667C18.3008 18.6667 18.4333 18.6017 18.5133 18.4812Z" fill="currentColor"/>
<g clip-path="url(#clip1_5153_14836)">
<path d="M10.375 25.4583C10.375 25.5729 10.2812 25.6667 10.1667 25.6667H9.5375C9.48333 26.4792 8.80417 27.125 7.97917 27.125H7.41667L9.25625 28.6312C9.34583 28.7042 9.35833 28.8354 9.28542 28.925C9.24375 28.975 9.18333 29.0021 9.12292 29.0021C9.07708 29.0021 9.02917 28.9875 8.99167 28.9542L6.70208 27.0771C6.63333 27.0208 6.60833 26.9292 6.6375 26.8458C6.66667 26.7625 6.74583 26.7083 6.83333 26.7083H7.97917C8.575 26.7083 9.06667 26.25 9.12083 25.6667H6.83333C6.71875 25.6667 6.625 25.5729 6.625 25.4583C6.625 25.3438 6.71875 25.25 6.83333 25.25H9.08125C8.94583 24.7688 8.50208 24.4167 7.97917 24.4167H6.83333C6.71875 24.4167 6.625 24.3229 6.625 24.2083C6.625 24.0938 6.71875 24 6.83333 24H10.1667C10.2812 24 10.375 24.0938 10.375 24.2083C10.375 24.3229 10.2812 24.4167 10.1667 24.4167H9.03958C9.275 24.6354 9.44375 24.925 9.50833 25.25H10.1646C10.2792 25.25 10.3729 25.3438 10.3729 25.4583H10.375Z" fill="currentColor"/>
</g>
</g>
<defs>
<clipPath id="clip0_5153_14836">
<rect width="33" height="33" fill="currentColor"/>
</clipPath>
<clipPath id="clip1_5153_14836">
<rect width="5" height="5" fill="currentColor" transform="translate(6 24)"/>
</clipPath>
</defs>
</svg>
