<svg width="512" height="512" viewBox="0 0 512 512" fill="none" xmlns="http://www.w3.org/2000/svg">
<path d="M256.089 31C271.613 31 284.198 43.585 284.198 59.1091V152.806C284.198 168.331 271.613 180.916 256.089 180.916C240.564 180.916 227.98 168.331 227.98 152.806V59.1091C227.98 43.585 240.564 31 256.089 31Z" fill="black"/>
<path d="M321.675 123.57C321.607 128.211 322.727 132.793 324.927 136.879C327.128 140.966 330.337 144.422 334.249 146.919C404.902 190.087 427.182 282.357 384.013 353.008C340.844 423.66 248.576 445.941 177.924 402.773C107.272 359.605 84.9916 267.335 128.16 196.683C140.495 176.495 157.432 159.513 177.587 147.125C181.567 144.627 184.842 141.154 187.102 137.034C189.362 132.915 190.531 128.286 190.499 123.588C190.542 108.064 177.992 95.4445 162.468 95.4014C157.136 95.3864 151.91 96.8887 147.399 99.7329C50.6906 159.802 20.9889 286.894 81.0572 383.602C141.126 480.309 268.217 510.011 364.925 449.943C461.633 389.874 491.335 262.782 431.266 166.075C414.546 139.156 391.844 116.454 364.925 99.7337C351.752 91.4231 334.335 95.3654 326.025 108.539C323.186 113.039 321.678 118.25 321.675 123.57Z" fill="black"/>
</svg>