<svg width="13" height="13" viewBox="0 0 13 13" fill="none" xmlns="http://www.w3.org/2000/svg">
<path d="M6.5 13C2.91005 13 0 10.0899 0 6.5C0 2.91005 2.91005 0 6.5 0C10.0899 0 13 2.91005 13 6.5C13 10.0899 10.0899 13 6.5 13ZM3.25845 10.5664C4.17856 11.302 5.32199 11.7019 6.5 11.7C7.7805 11.7 8.95245 11.2372 9.85855 10.4702C9.43522 10.0358 8.92908 9.69077 8.37007 9.45542C7.81106 9.22007 7.21053 9.09922 6.604 9.1C5.97518 9.09927 5.35308 9.22925 4.77715 9.48169C4.20123 9.73412 3.68406 10.1035 3.25845 10.5664ZM2.3504 9.633C2.89669 9.05324 3.55594 8.59151 4.28749 8.27627C5.01904 7.96102 5.80741 7.79893 6.604 7.8C7.37207 7.799 8.13278 7.94973 8.84243 8.24355C9.55209 8.53736 10.1967 8.96846 10.7393 9.5121C11.2957 8.72893 11.6244 7.80691 11.6887 6.84834C11.753 5.88977 11.5505 4.93213 11.1036 4.08165C10.6568 3.23117 9.98304 2.5211 9.15718 2.03024C8.33132 1.53937 7.38562 1.2869 6.42499 1.30081C5.46437 1.31473 4.52638 1.5945 3.71509 2.10909C2.9038 2.62368 2.25092 3.35296 1.8289 4.21603C1.40688 5.0791 1.2322 6.04221 1.32426 6.99852C1.41631 7.95482 1.77149 8.86693 2.3504 9.63365V9.633ZM6.5 7.15C5.81044 7.15 5.14912 6.87607 4.66152 6.38848C4.17393 5.90088 3.9 5.23956 3.9 4.55C3.9 3.86044 4.17393 3.19912 4.66152 2.71152C5.14912 2.22393 5.81044 1.95 6.5 1.95C7.18956 1.95 7.85088 2.22393 8.33848 2.71152C8.82607 3.19912 9.1 3.86044 9.1 4.55C9.1 5.23956 8.82607 5.90088 8.33848 6.38848C7.85088 6.87607 7.18956 7.15 6.5 7.15ZM6.5 5.85C6.84478 5.85 7.17544 5.71304 7.41924 5.46924C7.66304 5.22544 7.8 4.89478 7.8 4.55C7.8 4.20522 7.66304 3.87456 7.41924 3.63076C7.17544 3.38696 6.84478 3.25 6.5 3.25C6.15522 3.25 5.82456 3.38696 5.58076 3.63076C5.33696 3.87456 5.2 4.20522 5.2 4.55C5.2 4.89478 5.33696 5.22544 5.58076 5.46924C5.82456 5.71304 6.15522 5.85 6.5 5.85Z" fill="currentColor"/>
</svg>
