<svg width="24" height="24" viewBox="0 0 24 24" fill="none" xmlns="http://www.w3.org/2000/svg">
<g clip-path="url(#clip0_5128_14354)">
<path d="M14 1.50101C14 0.673013 14.672 0.00101278 15.5 0.00101278C16.328 0.00101278 17 0.673013 17 1.50101C17 2.32901 16.328 3.00101 15.5 3.00101C14.672 3.00101 14 2.32901 14 1.50101ZM22.5 5.00101C21.672 5.00101 21 5.67301 21 6.50101C21 7.32901 21.672 8.00101 22.5 8.00101C23.328 8.00101 24 7.32901 24 6.50101C24 5.67301 23.328 5.00101 22.5 5.00101ZM23 12.501V20.501C23 22.496 20.42 24.001 17 24.001C14.849 24.001 13.032 23.405 11.978 22.467C10.761 23.477 8.625 24.001 6.5 24.001C3.27 24.001 0 22.799 0 20.501V4.50101C0 2.20301 3.27 1.00101 6.5 1.00101C9.73 1.00101 13 2.20301 13 4.50101V9.85401C14.047 9.32001 15.433 9.00101 17 9.00101C20.42 9.00101 23 10.506 23 12.501ZM21 15.148C19.953 15.682 18.567 16.001 17 16.001C15.433 16.001 14.047 15.682 13 15.148V16.501C13 17.03 14.519 18.001 17 18.001C19.481 18.001 21 17.03 21 16.501V15.148ZM11 7.09201C9.774 7.69301 8.133 8.00101 6.5 8.00101C4.867 8.00101 3.226 7.69301 2 7.09201V8.50101C2 8.93701 3.577 10.001 6.5 10.001C9.423 10.001 11 8.93701 11 8.50101V7.09201ZM2 11.092V12.501C2 12.937 3.577 14.001 6.5 14.001C9.423 14.001 11 12.937 11 12.501V11.092C9.774 11.693 8.133 12.001 6.5 12.001C4.867 12.001 3.226 11.693 2 11.092ZM2 16.501C2 16.937 3.577 18.001 6.5 18.001C9.423 18.001 11 16.937 11 16.501V15.092C9.774 15.693 8.133 16.001 6.5 16.001C4.867 16.001 3.226 15.693 2 15.092V16.501ZM13 12.501C13 13.03 14.519 14.001 17 14.001C19.481 14.001 21 13.03 21 12.501C21 11.972 19.481 11.001 17 11.001C14.519 11.001 13 11.972 13 12.501ZM2 4.50101C2 4.93701 3.577 6.00101 6.5 6.00101C9.423 6.00101 11 4.93701 11 4.50101C11 4.06501 9.423 3.00101 6.5 3.00101C3.577 3.00101 2 4.06501 2 4.50101ZM11 20.501V19.092C9.774 19.693 8.133 20.001 6.5 20.001C4.867 20.001 3.226 19.693 2 19.092V20.501C2 20.937 3.577 22.001 6.5 22.001C9.423 22.001 11 20.937 11 20.501ZM21 20.501V19.148C19.953 19.682 18.567 20.001 17 20.001C15.433 20.001 14.047 19.682 13 19.148V20.501C13 21.03 14.519 22.001 17 22.001C19.481 22.001 21 21.03 21 20.501ZM16.445 7.83301C16.615 7.94701 16.808 8.00101 16.999 8.00101C17.322 8.00101 17.639 7.84501 17.832 7.55601L21.832 1.55601C22.138 1.09701 22.014 0.475013 21.555 0.169013C21.095 -0.138987 20.474 -0.0139872 20.168 0.446013L16.168 6.44601C15.862 6.90501 15.986 7.52701 16.445 7.83301Z" fill="currentColor"/>
</g>
<defs>
<clipPath id="clip0_5128_14354">
<rect width="24" height="24" fill="white"/>
</clipPath>
</defs>
</svg>
