<svg width="32" height="32" viewBox="0 0 32 32" fill="none" xmlns="http://www.w3.org/2000/svg">
<path d="M28 8.0013H6.66667C5.52133 8.0013 4.43733 7.5053 3.68667 6.6693C4.42 5.85064 5.48533 5.33464 6.66667 5.33464H30.6667C31.404 5.33464 32 4.7373 32 4.0013C32 3.2653 31.404 2.66797 30.6667 2.66797H6.66667C2.98533 2.66797 0 5.6533 0 9.33464V22.668C0 26.3493 2.98533 29.3346 6.66667 29.3346H28C30.2093 29.3346 32 27.544 32 25.3346V12.0013C32 9.79197 30.2093 8.0013 28 8.0013ZM29.3333 25.3346C29.3333 26.0693 28.736 26.668 28 26.668H6.66667C4.46133 26.668 2.66667 24.8733 2.66667 22.668V9.33197C3.80533 10.184 5.20533 10.668 6.66667 10.668H28C28.736 10.668 29.3333 11.2666 29.3333 12.0013V25.3346ZM26.6667 18.668C26.6667 19.404 26.0693 20.0013 25.3333 20.0013C24.5973 20.0013 24 19.404 24 18.668C24 17.932 24.5973 17.3346 25.3333 17.3346C26.0693 17.3346 26.6667 17.932 26.6667 18.668Z" fill="currentColor"/>
</svg>
