<svg width="15" height="16" viewBox="0 0 15 16" fill="none" xmlns="http://www.w3.org/2000/svg">
<g clip-path="url(#clip0_1570_158)">
<path d="M1.25 2.6875C1.25 1.48125 2.23125 0.5 3.4375 0.5C4.64375 0.5 5.625 1.48125 5.625 2.6875C5.625 3.89375 4.64375 4.875 3.4375 4.875C2.23125 4.875 1.25 3.89375 1.25 2.6875ZM9.88 4.875C11.0862 4.875 12.0675 3.89375 12.0675 2.6875C12.0675 1.48125 11.0862 0.5 9.88 0.5C8.67375 0.5 7.6925 1.48125 7.6925 2.6875C7.6925 3.89375 8.67375 4.875 9.88 4.875ZM9.21437 5.5C9.72327 6.11528 10.0012 6.88904 10 7.6875C9.9985 7.7919 9.99224 7.89617 9.98125 8H13.125V7.375C13.125 6.87772 12.9275 6.40081 12.5758 6.04917C12.2242 5.69754 11.7473 5.5 11.25 5.5H9.21437ZM12.5 11.75V9.25H11.25V11.75H8.75V13H11.25V15.5H12.5V13H15V11.75H12.5ZM6.5625 5.5C5.35625 5.5 4.375 6.48125 4.375 7.6875C4.375 8.89375 5.35625 9.875 6.5625 9.875C7.76875 9.875 8.75 8.89375 8.75 7.6875C8.75 6.48125 7.76875 5.5 6.5625 5.5ZM3.125 12.375V14.25H7.5V10.5H5C3.96625 10.5 3.125 11.3413 3.125 12.375ZM3.125 7.6875C3.125 6.85625 3.42 6.09438 3.91062 5.5H1.875C1.37772 5.5 0.900805 5.69754 0.549175 6.04917C0.197544 6.40081 0 6.87772 0 7.375L0 9.25H3.50312C3.25477 8.76659 3.12515 8.23097 3.125 7.6875Z" fill="#1F3C66"/>
</g>
<defs>
<clipPath id="clip0_1570_158">
<rect width="15" height="15" fill="white" transform="translate(0 0.5)"/>
</clipPath>
</defs>
</svg>
