<svg width="25" height="25" viewBox="0 0 25 25" fill="none" xmlns="http://www.w3.org/2000/svg">
<g clip-path="url(#clip0_1665_4764)">
<path d="M2.81096 24.4295C1.9719 24.2467 1.16565 23.5951 0.781275 22.7889C0.5094 22.2217 0.500025 22.1092 0.500025 19.2264C0.500025 16.2967 0.49065 16.3998 0.832838 16.0764C1.0344 15.8889 1.21253 15.8232 1.51253 15.8232C1.90159 15.8232 2.20628 16.0154 2.40315 16.3904C2.48753 16.5451 2.49221 16.7326 2.51565 19.2029C2.53909 22.0811 2.5344 21.9873 2.80628 22.2311C3.06409 22.4654 2.9844 22.4607 5.7969 22.4842C8.39378 22.5076 8.45003 22.5076 8.63284 22.6107C8.99378 22.8029 9.1719 23.0936 9.1719 23.4873C9.1719 23.8061 9.11565 23.9654 8.92346 24.167C8.60003 24.5092 8.70784 24.4998 5.75003 24.4951C3.71096 24.4951 3.03596 24.4764 2.81096 24.4295Z" fill="currentColor"/>
<path d="M16.4141 24.4105C16.1938 24.3073 15.95 24.0636 15.8797 23.8761C15.8516 23.8011 15.8281 23.6277 15.8281 23.487C15.8281 23.0886 16.0109 22.798 16.3906 22.5964C16.5453 22.512 16.7328 22.5073 19.2031 22.4839C22.0813 22.4605 21.9875 22.4652 22.2313 22.1933C22.4891 21.912 22.4844 21.987 22.4844 19.273C22.4844 17.6183 22.5031 16.6902 22.5359 16.5589C22.6766 16.0011 23.2906 15.6823 23.8625 15.8745C24.0688 15.9402 24.3828 16.2823 24.4531 16.5167C24.4906 16.6433 24.5 17.4823 24.4906 19.4136C24.4766 22.1136 24.4719 22.1323 24.3641 22.437C24.0875 23.2245 23.5344 23.8573 22.8266 24.1995C22.2266 24.4902 22.1375 24.4995 19.2266 24.4995C16.7703 24.4995 16.5875 24.4902 16.4141 24.4105Z" fill="currentColor"/>
<path d="M4.53128 20.8766C4.41409 20.8156 4.2594 20.675 4.17971 20.5672L4.03909 20.3656L4.02503 17.2297C4.01565 14.2109 4.01565 14.0891 4.10471 13.9203C4.15159 13.8219 4.25471 13.6859 4.32971 13.6156C4.62034 13.3391 4.56409 13.3438 7.49846 13.3438H10.1844L10.4235 13.4609C10.7188 13.6109 10.8922 13.8453 10.9532 14.2016C10.986 14.3703 11 15.4859 10.9907 17.3609L10.9766 20.2578L10.8453 20.4828C10.775 20.6047 10.625 20.7641 10.5219 20.8344L10.325 20.9609L7.53128 20.975L4.73753 20.9844L4.53128 20.8766ZM8.9844 17.1875V15.3594H7.4844H5.9844V17.1547C5.9844 18.1438 5.99846 18.9688 6.01721 18.9828C6.03128 19.0016 6.70628 19.0156 7.51721 19.0156H8.9844V17.1875Z" fill="currentColor"/>
<path d="M15.5469 20.9328C15.3406 20.8484 15.125 20.6562 15.0172 20.4547C14.9141 20.2578 14.9141 20.2484 14.9141 17.9609C14.9141 15.6969 14.9141 15.6594 15.0172 15.4766C15.1297 15.2609 15.2703 15.125 15.5 15.0031C15.6547 14.9187 15.8094 14.9141 17.9609 14.9141H20.2578L20.4688 15.0312C20.5813 15.0969 20.7406 15.2422 20.8203 15.35L20.9609 15.5562V17.9609V20.3656L20.8156 20.5672C20.7313 20.6797 20.5766 20.8203 20.4641 20.8766C20.2672 20.9844 20.2625 20.9844 17.9656 20.9797C16.5688 20.9797 15.6172 20.9609 15.5469 20.9328ZM19.0063 17.9516L19.0156 16.9062H17.9609H16.9063V17.9609V19.0156L17.9516 19.0062L18.9922 18.9922L19.0063 17.9516Z" fill="currentColor"/>
<path d="M12.65 20.0328C12.4156 19.9438 12.1719 19.7281 12.0734 19.5125C11.989 19.3297 11.9844 19.1422 11.9844 15.8422V12.3594H8.39841C4.47498 12.3594 4.62498 12.3688 4.32966 12.0875C4.09529 11.8672 4.00154 11.6328 4.02498 11.3C4.04841 10.9391 4.2031 10.6859 4.51716 10.4984L4.74216 10.3672H8.98435H13.2265L13.414 10.4703C13.6297 10.5828 13.7656 10.7234 13.8875 10.9531C13.9719 11.1078 13.9765 11.3047 13.9765 15.1953C13.9765 18.425 13.9625 19.3109 13.9156 19.4469C13.8828 19.5406 13.7609 19.7 13.6531 19.8031C13.3578 20.075 12.9969 20.1547 12.65 20.0328Z" fill="currentColor"/>
<path d="M15.7109 13.9763C15.6875 13.9669 15.5844 13.9482 15.4859 13.9294C15.2656 13.8919 14.9562 13.6247 14.8391 13.3669C14.7641 13.2075 14.75 13.0529 14.75 12.3357C14.75 11.8716 14.7734 11.4122 14.8016 11.3138C14.9187 10.8872 15.3734 10.5966 15.8516 10.6341C16.3672 10.6763 16.7 11.056 16.7516 11.6513L16.7797 11.9794L18.6875 11.9935L20.5906 12.0075L20.7875 12.1341C21.4344 12.5654 21.3781 13.4982 20.6797 13.8732C20.4969 13.9763 20.45 13.9763 18.125 13.9857C16.8219 13.9904 15.7391 13.9857 15.7109 13.9763Z" fill="currentColor"/>
<path d="M17.4922 10.9436C17.075 10.7983 16.7797 10.3389 16.8266 9.91705C16.8594 9.64049 16.9437 9.47174 17.1453 9.27487C17.375 9.04987 17.6609 8.98424 18.3922 8.98424H19.0156L19.0062 7.4983L18.9922 6.00768L17.6234 5.99362L16.25 5.98424V7.14205C16.25 7.81705 16.2266 8.37955 16.1984 8.48268C16.1703 8.58112 16.0766 8.74518 15.9875 8.84362C15.5281 9.34987 14.7125 9.25143 14.375 8.65612L14.2578 8.44518V6.59362C14.2578 4.77487 14.2578 4.73737 14.3609 4.54987C14.4875 4.3108 14.6984 4.12799 14.9281 4.06237C15.0453 4.02487 15.9453 4.01549 17.7312 4.02487L20.3609 4.03893L20.5437 4.16549C20.6422 4.2358 20.7781 4.37174 20.8437 4.47018L20.9609 4.64362L20.975 7.3858C20.9844 9.27955 20.975 10.1889 20.9375 10.3108C20.8719 10.5405 20.6328 10.8077 20.3984 10.9108C20.2297 10.9905 20.0703 10.9952 18.9219 10.9952C18.1484 10.9952 17.5766 10.9717 17.4922 10.9436Z" fill="currentColor"/>
<path d="M4.65313 9.575C4.42344 9.49063 4.2125 9.29375 4.10469 9.05469C4.025 8.88125 4.01562 8.7125 4.01562 6.8C4.01562 4.74688 4.01562 4.73281 4.12344 4.53594C4.17969 4.42344 4.32031 4.26875 4.43281 4.18438L4.63438 4.03906H7.36719H10.1L10.3063 4.17969C10.4141 4.25938 10.5594 4.41875 10.625 4.53125L10.7422 4.74219L10.7563 6.6875C10.7656 8 10.7516 8.70313 10.7188 8.84375C10.6484 9.12969 10.475 9.36875 10.2359 9.50469L10.0391 9.61719L7.4375 9.62656C5.30938 9.63594 4.80313 9.62656 4.65313 9.575ZM8.75 6.80469V5.98438L7.38125 5.99375L6.00781 6.00781L5.99375 6.81875L5.98438 7.625H7.36719H8.75V6.80469Z" fill="currentColor"/>
<path d="M12.3219 9.53701C11.9844 9.48076 11.6563 9.18076 11.5626 8.85264C11.4969 8.61357 11.5016 6.25107 11.5673 6.00732C11.6469 5.72139 11.9938 5.40264 12.2985 5.33232C12.5048 5.28076 12.5844 5.28545 12.7954 5.34639C13.0954 5.43545 13.4001 5.73076 13.4798 6.01201C13.5126 6.11982 13.5313 6.70107 13.5313 7.4417C13.5313 8.44482 13.5173 8.73076 13.461 8.89482C13.2923 9.36357 12.8235 9.62607 12.3219 9.53701Z" fill="currentColor"/>
<path d="M1.30155 9.16237C1.07186 9.12487 0.935926 9.04518 0.757801 8.85768C0.490613 8.56705 0.495301 8.59518 0.509363 5.60924C0.523426 2.88112 0.528113 2.86705 0.635926 2.56237C0.959363 1.63893 1.63905 0.959241 2.56249 0.635803C2.86718 0.527991 2.88593 0.523303 5.58593 0.509241C7.50311 0.499866 8.35624 0.509241 8.4828 0.546741C8.70311 0.612366 9.02186 0.893616 9.11093 1.09518C9.14374 1.17955 9.17186 1.36237 9.17186 1.50768C9.17186 1.91549 8.99374 2.20143 8.60936 2.40299C8.45468 2.48737 8.26718 2.49205 5.79686 2.51549C2.91874 2.53893 3.01249 2.53424 2.76874 2.80612C2.51093 3.08737 2.51561 3.01237 2.51561 5.72643C2.51561 7.38112 2.49686 8.30924 2.46405 8.44049C2.33749 8.94674 1.83593 9.25612 1.30155 9.16237Z" fill="currentColor"/>
<path d="M23.3281 9.17174C22.9485 9.10611 22.625 8.80611 22.536 8.44049C22.5031 8.30924 22.4844 7.38111 22.4844 5.72643C22.4844 3.34987 22.4797 3.20455 22.3953 3.04049C22.2922 2.83893 22.1469 2.6983 21.936 2.59049C21.8047 2.52487 21.4953 2.51549 19.2735 2.51549C17.6188 2.51549 16.6906 2.49674 16.5594 2.46393C16.3063 2.40299 16.0438 2.18737 15.9219 1.9483C15.8094 1.73737 15.7953 1.32018 15.8891 1.09518C15.9781 0.893616 16.2969 0.612366 16.5172 0.546741C16.6438 0.509241 17.4969 0.499866 19.4141 0.509241L22.1328 0.523303L22.475 0.649866C23.3891 0.982678 24.0406 1.63893 24.3641 2.56237C24.4719 2.86705 24.4766 2.88112 24.4906 5.60924C24.5047 8.70768 24.5188 8.59049 24.1485 8.93268C24.0313 9.04049 23.9235 9.12486 23.9047 9.12486C23.8813 9.12955 23.7828 9.14361 23.6797 9.16236C23.5766 9.18111 23.4172 9.1858 23.3281 9.17174Z" fill="currentColor"/>
</g>
<defs>
<clipPath id="clip0_1665_4764">
<rect width="24" height="24" fill="currentColor" transform="matrix(1 0 0 -1 0.5 24.5)"/>
</clipPath>
</defs>
</svg>
