<svg width="31" height="31" viewBox="0 0 31 31" fill="none" xmlns="http://www.w3.org/2000/svg">
<g id="add-to-favorites 1" clip-path="url(#clip0_3572_10748)">
<g id="a">
<g id="Group">
<path id="Vector" d="M15.5015 4.27484L17.2119 2.81868C17.7127 2.42452 18.2485 2.09515 18.8134 1.84267C19.7604 1.41945 20.7878 1.21056 21.8765 1.26142C26.3799 1.52116 30.7321 6.07308 30.9821 11.0658C31.0197 11.9934 30.93 12.8689 30.7405 13.7026C30.436 14.9208 29.7675 16.343 29.7669 16.3442C28.4295 18.9532 26.2467 21.1305 24.3014 22.9021C22.267 24.753 20.6655 25.9706 18.0796 27.9135L15.5021 29.7439L12.9246 27.9135C10.3381 25.97 8.73659 24.753 6.70282 22.9021C4.75744 21.1305 2.57473 18.9532 1.23725 16.3442C1.23664 16.343 0.568207 14.9208 0.263656 13.7026C0.0741442 12.8689 -0.0154652 11.9934 0.0220739 11.0658C0.270922 6.07308 4.62303 1.52116 9.12651 1.26142C10.2157 1.21056 11.2432 1.41945 12.1896 1.84267C12.7545 2.09515 13.2909 2.42452 13.791 2.81868L15.5015 4.27484Z" fill="#E03757"/>
<path id="Vector_2" d="M18.8133 1.84327C18.2484 2.09575 17.7119 2.42513 17.2118 2.81929L15.5014 4.27544L13.7909 2.81929C13.2902 2.42513 12.7543 2.09575 12.1894 1.84327C11.2425 1.42005 10.215 1.21116 9.12637 1.26202C4.62289 1.52177 0.270785 6.07368 0.0201208 11.0664C-0.0174183 11.994 0.0721911 12.8695 0.261703 13.7032C0.566254 14.9214 1.23469 16.3436 1.2353 16.3449C2.2985 18.418 3.89452 20.218 5.48145 21.759C6.08994 21.8262 6.70813 21.8607 7.33479 21.8607C16.5857 21.8607 24.0851 14.3613 24.0851 5.11038C24.0851 3.90732 23.9579 2.73392 23.7164 1.6029C23.1127 1.4146 22.4957 1.29714 21.8757 1.26142C20.7865 1.21056 19.759 1.41945 18.8127 1.84267L18.8133 1.84327Z" fill="#F04760"/>
<path id="Vector_3" d="M25.2903 18.3242C22.1364 18.3242 19.5801 20.8805 19.5801 24.0344C19.5801 27.1883 22.1364 29.7446 25.2903 29.7446C28.4441 29.7446 31.0004 27.1883 31.0004 24.0344C31.0004 20.8805 28.4441 18.3242 25.2903 18.3242Z" fill="#454565"/>
<path id="Vector_4" d="M27.3304 27.1907C27.0556 27.3534 26.6497 27.3114 26.3992 27.1192C26.3213 27.0653 25.7408 26.5181 25.3088 26.1118C24.8768 26.5181 24.2963 27.0653 24.2183 27.1192C23.9679 27.3114 23.5612 27.3534 23.2872 27.1907C23.1227 27.0914 22.91 26.9437 22.6629 26.6975C22.4168 26.4505 22.2691 26.2377 22.1697 26.0733C22.007 25.7984 22.049 25.3926 22.2412 25.1421C22.2952 25.0642 22.8423 24.4836 23.2486 24.0517C22.8423 23.6197 22.2618 23.0057 22.2078 22.9278C22.0156 22.6774 21.9736 22.2706 22.1363 21.9966C22.2357 21.8322 22.3834 21.6194 22.6295 21.3724C22.8766 21.1262 23.0894 20.9785 23.2538 20.8792C23.5286 20.7165 23.9345 20.7585 24.1849 20.9507C24.2629 21.0046 24.8768 21.5852 25.3088 21.9915C25.7408 21.5852 26.3213 21.038 26.3992 20.9841C26.6497 20.7919 27.0564 20.7499 27.3304 20.9126C27.4948 21.0119 27.7076 21.1596 27.9546 21.4058C28.2008 21.6528 28.3485 21.8656 28.4478 22.03C28.6105 22.3049 28.5686 22.7107 28.3763 22.9612C28.3224 23.0391 27.7752 23.6197 27.369 24.0517C27.7752 24.4836 28.3224 25.0642 28.3763 25.1421C28.5686 25.3926 28.6105 25.7993 28.4478 26.0733C28.3485 26.2377 28.2008 26.4505 27.9546 26.6975C27.7076 26.9437 27.4948 27.0914 27.3304 27.1907Z" fill="white"/>
</g>
</g>
</g>
<defs>
<clipPath id="clip0_3572_10748">
<rect width="31" height="31" fill="white"/>
</clipPath>
</defs>
</svg>
