<svg width="16" height="16" viewBox="0 0 16 16" fill="none" xmlns="http://www.w3.org/2000/svg">
<g clip-path="url(#clip0_4709_15857)">
<mask id="mask0_4709_15857" style="mask-type:luminance" maskUnits="userSpaceOnUse" x="0" y="0" width="16" height="16">
<path d="M0 0H16V16H0V0Z" fill="white"/>
</mask>
<g mask="url(#mask0_4709_15857)">
<path d="M4.66602 3.66536C4.66602 1.82442 6.1584 0.332031 7.99935 0.332031C9.84028 0.332031 11.3327 1.82442 11.3327 3.66536V7.33203C11.3327 9.17297 9.84028 10.6654 7.99935 10.6654C6.1584 10.6654 4.66602 9.17297 4.66602 7.33203V3.66536Z" fill="#1F3C66"/>
<path d="M8.00367 11.9975C8.00234 11.9975 8.00101 11.9975 7.99967 11.9975C7.99834 11.9975 7.99701 11.9975 7.99568 11.9975C6.04018 11.9957 4.36475 10.7909 3.67249 9.08074C3.53435 8.73947 3.14568 8.57481 2.80439 8.71294C2.46311 8.85107 2.29843 9.23974 2.43658 9.58101C3.24652 11.5819 5.10539 13.0478 7.33301 13.2942V15.3309C7.33301 15.6991 7.63147 15.9975 7.99967 15.9975C8.36787 15.9975 8.66634 15.6991 8.66634 15.3309V13.2943C10.8944 13.0482 12.7537 11.5822 13.5638 9.58101C13.7019 9.23974 13.5373 8.85107 13.196 8.71294C12.8547 8.57481 12.466 8.73947 12.3279 9.08074C11.6355 10.7912 9.95961 11.9961 8.00367 11.9975Z" fill="#FF5936"/>
</g>
</g>
<defs>
<clipPath id="clip0_4709_15857">
<rect width="16" height="16" fill="white"/>
</clipPath>
</defs>
</svg>
