<svg width="28" height="28" viewBox="0 0 28 28" fill="none" xmlns="http://www.w3.org/2000/svg">
<g clip-path="url(#clip0_5128_14383)">
<path d="M5 19.0417C5 21.2243 6.77571 23 8.95833 23H20.0417C22.2243 23 24 21.2243 24 19.0417V11.9167H5V19.0417ZM7.375 15.875C7.375 15.0018 8.08512 14.2917 8.95833 14.2917H10.5417C11.4149 14.2917 12.125 15.0018 12.125 15.875V17.4583C12.125 18.3315 11.4149 19.0417 10.5417 19.0417H8.95833C8.08512 19.0417 7.375 18.3315 7.375 17.4583V15.875ZM10.5425 17.4583H8.95833V15.875H10.5417L10.5425 17.4583ZM24 9.54167V10.3333H5V9.54167C5 7.35904 6.77571 5.58333 8.95833 5.58333H9.75V4.79167C9.75 4.35467 10.1047 4 10.5417 4C10.9787 4 11.3333 4.35467 11.3333 4.79167V5.58333H17.6667V4.79167C17.6667 4.35467 18.0213 4 18.4583 4C18.8953 4 19.25 4.35467 19.25 4.79167V5.58333H20.0417C22.2243 5.58333 24 7.35904 24 9.54167Z" fill="#2156BD"/>
</g>
<defs>
<clipPath id="clip0_5128_14383">
<rect width="19" height="19" fill="white" transform="translate(5 4)"/>
</clipPath>
</defs>
</svg>
