<svg width="25" height="25" viewBox="0 0 25 25" fill="none" xmlns="http://www.w3.org/2000/svg">
<g clip-path="url(#clip0_2032_8027)">
<path d="M15.147 5.7C16.3928 4.6375 17.7084 3.04583 17.7084 1.04167V0H7.29175V1.04167C7.29175 3.04583 8.60737 4.63646 9.85321 5.7C4.95216 7.44687 1.04175 13.6708 1.04175 18.75C1.04175 22.1969 3.84487 25 7.29175 25H17.7084C21.1553 25 23.9584 22.1969 23.9584 18.75C23.9584 13.6708 20.048 7.44687 15.147 5.7ZM9.59071 2.08333H15.4063C14.8636 3.39167 13.4376 4.48958 12.5074 5.05417C11.724 4.575 10.1626 3.47917 9.59175 2.08333H9.59071ZM17.7084 22.9167H7.29175C4.99383 22.9167 3.12508 21.0479 3.12508 18.75C3.12508 13.374 7.90633 7.30937 12.498 7.30937C17.0897 7.30937 21.8751 13.375 21.8751 18.75C21.8751 21.0479 20.0063 22.9167 17.7084 22.9167Z" fill="#FF5936"/>
<g clip-path="url(#clip1_2032_8027)">
<path d="M13.9025 13.125C14.0825 13.35 14.2325 13.6012 14.345 13.875H15.875V15H14.5625C14.5625 16.6537 13.2162 18 11.5625 18H11.2513L14.84 21H13.0813L9.125 17.7112V16.875H11.5625C12.5975 16.875 13.4375 16.035 13.4375 15H9.125V13.875H13.0625C12.7213 13.4212 12.1737 13.125 11.5625 13.125H9.125V12H15.875V13.125H13.9025Z" fill="#FF5936"/>
</g>
</g>
<defs>
<clipPath id="clip0_2032_8027">
<rect width="25" height="25" fill="white"/>
</clipPath>
<clipPath id="clip1_2032_8027">
<rect width="9" height="9" fill="white" transform="translate(8 12)"/>
</clipPath>
</defs>
</svg>
