<svg width="120" height="140" viewBox="0 0 120 140" fill="none" xmlns="http://www.w3.org/2000/svg">
<path d="M92.3236 124.856C91.7805 124.856 91.1966 124.674 90.7334 124.291C72.3237 109.349 52.7449 91.4381 47.1937 71.6509C44.92 63.5928 49.5081 55.1333 57.396 52.8108C61.2178 51.6798 65.2219 52.1249 68.7236 54.063C72.2646 56.042 74.8205 59.3126 75.9264 63.2505C78.2801 71.6901 90.0317 84.7962 109.004 100.184C110.09 101.032 110.271 102.648 109.386 103.738C108.502 104.807 106.913 104.969 105.825 104.08C91.8617 92.7529 74.4778 76.72 71.0771 64.626C70.3332 61.9808 68.6224 59.7989 66.2686 58.5074C63.9949 57.2355 61.3591 56.9115 58.8243 57.6594C53.5724 59.2144 50.5141 64.8879 52.0425 70.2994C57.1934 88.6945 76.0875 105.939 93.8936 120.376C94.9799 121.244 95.1609 122.839 94.2753 123.93C93.7925 124.537 93.0894 124.859 92.3244 124.859L92.3236 124.856Z" fill="#E6E9ED"/>
<path d="M11.8411 109.711C10.7745 109.711 9.76817 109.025 9.44675 107.955C9.02428 106.623 9.76815 105.208 11.0762 104.784C17.2939 102.786 27.8174 94.8095 23.2701 78.716C20.3929 68.3577 21.6406 57.7969 26.8713 48.105C32.0222 38.5948 40.4725 31.6891 50.714 28.6804C71.3175 22.6224 93.2081 34.6779 99.6683 55.536C101.017 56.9291 110.593 65.2081 119.125 72.4578C120.152 73.3452 120.312 74.9396 119.407 76.0101C118.502 77.0608 116.913 77.1819 115.866 76.2932C96.1075 59.5531 95.4436 58.4025 95.2021 57.9587C95.0814 57.7967 95.0014 57.615 94.9607 57.4333C89.4674 38.9582 70.273 28.2156 52.0821 33.5059C43.1683 36.1511 35.7649 42.1878 31.278 50.5077C26.6898 59.0079 25.6036 68.2772 28.1594 77.3226C32.9679 94.5473 23.4914 106.097 12.6058 109.61C12.3644 109.65 12.1019 109.711 11.8409 109.711L11.8411 109.711Z" fill="#E6E9ED"/>
<path d="M21.9012 122.332C20.8345 122.332 19.8493 121.646 19.5068 120.576C19.0843 119.222 19.8282 117.809 21.1363 117.405C34.5158 113.103 41.539 104.543 35.201 75.023C31.9014 59.4945 39.9491 44.694 53.9743 40.5542C60.9357 38.5148 68.2801 39.3429 74.6185 42.8768C81.1182 46.4909 85.8254 52.4883 87.8579 59.7168C88.7435 62.9267 90.2326 68.2775 114.015 87.5416C115.121 88.4303 115.282 90.0051 114.418 91.0952C113.511 92.2065 111.942 92.3474 110.876 91.4798C87.7766 72.7609 84.4574 66.2183 83.0285 61.1096C81.3583 55.1728 77.5154 50.2459 72.2032 47.2978C67.0325 44.4104 61.0567 43.7442 55.3823 45.4006C43.9142 48.7922 37.3542 61.0686 40.1513 73.9718C46.2073 102.301 41.1576 116.274 22.6862 122.213C22.4251 122.293 22.1627 122.334 21.9016 122.334L21.9012 122.332Z" fill="#FF5936"/>
<path d="M102.384 114.759C101.72 114.759 101.096 114.497 100.574 114.013C99.4268 112.8 96.8515 110.802 93.9125 108.52C82.7056 99.838 63.9729 85.3602 59.1238 68.1355C58.7617 66.8031 59.5267 65.389 60.874 65.0256C62.2031 64.6425 63.6109 65.4298 63.9744 66.7834C68.3603 82.371 86.2677 96.2434 96.9723 104.521C100.212 107.045 102.767 109.024 104.175 110.458C105.16 111.468 105.141 113.062 104.155 114.031C103.652 114.516 103.028 114.758 102.384 114.758L102.384 114.759Z" fill="#E6E9ED"/>
<path d="M54.6188 140C53.27 140 52.1444 138.91 52.1037 137.556C52.0433 136.023 51.823 122.373 56.933 117.042C58.4025 115.547 60.213 114.76 62.1849 114.76C69.6698 114.76 75.323 122.412 79.0661 127.46C80.0317 128.793 80.8766 129.965 81.5601 130.672C82.5468 131.66 82.5258 133.276 81.5208 134.225C80.5342 135.194 78.9243 135.194 77.9994 134.204C77.1742 133.377 76.1678 132.024 75.0212 130.469C71.8619 126.208 67.1335 119.808 62.1637 119.808C61.7413 119.808 61.1981 119.888 60.5342 120.555C57.7974 123.422 57.0128 132.409 57.1335 137.396C57.1532 138.789 56.0669 139.94 54.6985 140H54.6185L54.6188 140Z" fill="#FF5936"/>
<path d="M36.9918 134.952C35.9251 134.952 34.9399 134.285 34.5974 133.215C34.1749 131.902 34.8795 130.468 36.2072 130.045C44.5566 127.258 49.7679 106.178 47.173 97.838C46.7702 96.5055 47.4944 95.0928 48.8236 94.6886C50.1513 94.2843 51.5604 95.0111 51.9618 96.3647C55.3218 107.047 49.326 130.994 37.7767 134.831C37.5353 134.932 37.2532 134.952 36.9922 134.952L36.9918 134.952Z" fill="#FF5936"/>
<path d="M11.8408 69.7521C10.4723 69.7521 9.32568 68.6211 9.32568 67.2478C9.32568 37.7665 32.7462 13.7998 61.5604 13.7998C89.9309 13.7998 100.07 30.2157 107.475 42.15C111.076 47.9444 114.175 52.9532 118.26 54.3053C119.587 54.749 120.312 56.1828 119.87 57.4956C119.427 58.828 117.978 59.5548 116.691 59.1111C110.876 57.173 107.314 51.4377 103.21 44.8151C96.0673 33.2442 87.1129 18.8479 61.56 18.8479C35.5447 18.8479 14.3554 40.5542 14.3554 67.2479C14.3554 68.6409 13.2481 69.7522 11.8403 69.7522L11.8408 69.7521Z" fill="#E6E9ED"/>
<path d="M16.871 89.5196C16.0064 89.5196 15.1601 89.076 14.6984 88.2478C14.3966 87.7422 11.8408 83.159 11.8408 79.4234C11.8408 78.0304 12.9678 76.8994 14.3559 76.8994C15.7243 76.8994 16.871 78.0304 16.871 79.4234C16.871 81.2404 18.1987 84.249 19.024 85.7432C19.7482 86.9348 19.3257 88.4898 18.1187 89.1757C17.7356 89.3983 17.3131 89.5194 16.871 89.5194V89.5196Z" fill="#E6E9ED"/>
<path d="M2.66802 82.0703C1.8231 81.828 1.11855 81.2012 0.896791 80.273C0.735387 79.7082 -0.611975 74.6192 0.333984 71.025C0.715738 69.6714 2.06451 68.8644 3.41188 69.208C4.76064 69.5517 5.5452 70.9447 5.20276 72.2771C4.78029 74.0335 5.28276 77.3053 5.74591 78.9604C6.06872 80.3139 5.28274 81.6872 3.95503 82.0703C3.51291 82.1717 3.06943 82.1717 2.66802 82.0703V82.0703Z" fill="#E6E9ED"/>
<path d="M67.1727 140C66.3082 140 65.4619 139.556 65.0001 138.728C64.6984 138.223 62.1426 133.639 62.1426 129.904C62.1426 128.511 63.2892 127.38 64.6577 127.38C66.0457 127.38 67.1727 128.511 67.1727 129.904C67.1727 131.721 68.5005 134.729 69.3454 136.224C70.0499 137.435 69.6275 138.97 68.4401 139.656C68.0177 139.898 67.6149 140 67.1728 140L67.1727 140Z" fill="#E6E9ED"/>
<path d="M102.668 19.575C101.802 19.6553 100.916 19.313 100.394 18.5651C96.7325 13.679 78.321 2.91688 54.3393 5.41963C29.3893 8.02395 17.3172 22.5837 15.0644 27.4893C14.5016 28.7415 12.9915 29.3063 11.7451 28.7204C10.496 28.1358 9.91355 26.6217 10.4764 25.3695C13.2525 19.3735 26.3922 3.26055 53.8149 0.412366C79.61 -2.29335 99.5104 8.95366 104.4 15.5565C105.245 16.6875 105.004 18.2819 103.898 19.1101C103.515 19.3735 103.112 19.5144 102.67 19.575L102.668 19.575Z" fill="#FF5936"/>
<path d="M114.96 41.2203C113.873 41.2203 112.867 40.5343 112.565 39.4639C111.136 34.8806 106.671 27.8537 106.63 27.7719C105.884 26.6014 106.227 25.0267 107.373 24.2788C108.561 23.5323 110.11 23.8746 110.874 25.0464C111.055 25.369 115.703 32.7198 117.352 37.9496C117.776 39.282 117.052 40.6948 115.724 41.1201C115.483 41.1807 115.201 41.2201 114.959 41.2201L114.96 41.2203Z" fill="#FF5936"/>
<path d="M10.3537 34.7371C11.0989 35.485 11.3193 36.6766 10.7958 37.6654C8.6021 41.9259 6.79142 50.063 6.77202 50.1445C6.47026 51.5178 5.12291 52.3854 3.75449 52.0629C2.42677 51.7797 1.56079 50.4262 1.82326 49.074C1.94396 48.7106 3.81485 40.2089 6.35113 35.3441C6.9743 34.1116 8.50272 33.6271 9.73076 34.2525C9.97217 34.3947 10.1729 34.5356 10.3539 34.737L10.3537 34.7371Z" fill="#E6E9ED"/>
</svg>
