<svg width="32" height="32" viewBox="0 0 32 32" fill="none" xmlns="http://www.w3.org/2000/svg">
<path d="M19.6182 17.55C21.186 18.652 23.0982 19.1525 25.0049 18.9596C26.9115 18.7668 28.6848 17.8936 30.0002 16.5C29.2549 15.71 28.3559 15.0807 27.3585 14.6508C26.3611 14.2209 25.2863 13.9994 24.2002 14C24.1322 14 24.0662 14.009 24.0002 14.01V14C22.3451 14.0022 20.7227 14.4607 19.3113 15.3252C17.8999 16.1897 16.7542 17.4266 16.0002 18.9C15.2462 17.4266 14.1005 16.1897 12.6891 15.3252C11.2777 14.4607 9.65529 14.0022 8.0002 14C6.91407 13.9994 5.83929 14.2208 4.84188 14.6507C3.84447 15.0806 2.9455 15.7099 2.2002 16.5C3.49906 17.8781 5.24672 18.7479 7.12926 18.9531C9.0118 19.1584 10.9059 18.6857 12.4712 17.62C13.2623 18.2757 13.8991 19.0978 14.3362 20.0277C14.7734 20.9576 15.0001 21.9725 15.0002 23H10.0002C9.85686 23 9.7152 23.0308 9.58481 23.0903C9.45442 23.1498 9.33835 23.2367 9.24446 23.345C9.15057 23.4533 9.08106 23.5805 9.04065 23.718C9.00023 23.8555 8.98984 24.0001 9.0102 24.142L10.0102 31.142C10.0444 31.3802 10.1633 31.5981 10.3451 31.7557C10.527 31.9133 10.7596 32 11.0002 32H21.0002C21.2408 32 21.4734 31.9133 21.6553 31.7557C21.8371 31.5981 21.956 31.3802 21.9902 31.142L22.9902 24.142C23.0105 24.0001 23.0002 23.8555 22.9597 23.718C22.9193 23.5805 22.8498 23.4533 22.7559 23.345C22.662 23.2367 22.546 23.1498 22.4156 23.0903C22.2852 23.0308 22.1435 23 22.0002 23H17.0002C17.0006 21.9535 17.236 20.9205 17.6892 19.9772C18.1423 19.0338 18.8015 18.2044 19.6182 17.55Z" fill="#2156BD"/>
<path d="M16 0C14.6155 0 13.2622 0.410543 12.111 1.17971C10.9599 1.94888 10.0627 3.04213 9.53285 4.32122C9.00303 5.6003 8.86441 7.00776 9.13451 8.36563C9.4046 9.7235 10.0713 10.9708 11.0503 11.9497C12.0292 12.9287 13.2765 13.5954 14.6344 13.8655C15.9922 14.1356 17.3997 13.997 18.6788 13.4672C19.9579 12.9373 21.0511 12.0401 21.8203 10.889C22.5895 9.73785 23 8.38447 23 7C22.9979 5.14413 22.2597 3.36489 20.9474 2.05259C19.6351 0.740295 17.8559 0.00211736 16 0ZM17 10H15V4H17V10Z" fill="#2156BD"/>
</svg>
