<svg width="30" height="30" viewBox="0 0 30 30" fill="none" xmlns="http://www.w3.org/2000/svg">
<g clip-path="url(#clip0_416_6632)">
<path d="M13.7499 23.75H16.2499V28.75C16.2499 29.0815 16.1182 29.3995 15.8838 29.6339C15.6494 29.8683 15.3314 30 14.9999 30C14.6684 30 14.3504 29.8683 14.116 29.6339C13.8816 29.3995 13.7499 29.0815 13.7499 28.75V23.75ZM23.1037 6.44625C22.7099 6.3625 22.3649 5.9825 22.2249 5.48125C21.3249 2.25375 18.3537 0 14.9999 0C11.6462 0 8.6749 2.25375 7.7749 5.48125C7.6349 5.9825 7.2899 6.3625 6.89615 6.44625C4.89753 6.87989 3.11386 7.99973 1.8548 9.61134C0.595742 11.223 -0.0592098 13.2246 0.00364984 15.2688C0.14365 19.945 4.20865 23.75 9.06365 23.75H13.7499V19.2675L9.11615 14.6337C9.0001 14.5177 8.90803 14.3799 8.84523 14.2283C8.78242 14.0766 8.75009 13.9141 8.75009 13.75C8.75009 13.5859 8.78242 13.4234 8.84523 13.2717C8.90803 13.1201 9.00009 12.9823 9.11615 12.8663C9.23221 12.7502 9.36998 12.6581 9.52162 12.5953C9.67325 12.5325 9.83577 12.5002 9.9999 12.5002C10.164 12.5002 10.3265 12.5325 10.4782 12.5953C10.6298 12.6581 10.7676 12.7502 10.8837 12.8663L13.7499 15.7325V11.25C13.7499 10.9185 13.8816 10.6005 14.116 10.3661C14.3504 10.1317 14.6684 10 14.9999 10C15.3314 10 15.6494 10.1317 15.8838 10.3661C16.1182 10.6005 16.2499 10.9185 16.2499 11.25V15.7325L19.1162 12.8663C19.3505 12.6319 19.6684 12.5002 19.9999 12.5002C20.3314 12.5002 20.6493 12.6319 20.8837 12.8663C21.118 13.1006 21.2497 13.4185 21.2497 13.75C21.2497 14.0815 21.118 14.3994 20.8837 14.6337L16.2499 19.2675V23.75H19.7299C25.5312 23.75 29.8487 20.1825 29.9962 15.2688C30.0595 13.2245 29.4047 11.2226 28.1456 9.61088C26.8865 7.99916 25.1025 6.87945 23.1037 6.44625Z" fill="#27AE60"/>
</g>
<defs>
<clipPath id="clip0_416_6632">
<rect width="30" height="30" fill="white"/>
</clipPath>
</defs>
</svg>
