<svg width="20" height="20" viewBox="0 0 20 20" fill="none" xmlns="http://www.w3.org/2000/svg">
<path d="M9.15967 10.7148V5.71484C9.15967 5.25651 9.53467 4.88151 9.993 4.88151C10.4513 4.88151 10.8263 5.25651 10.8263 5.71484V10.7148C10.8263 11.1732 10.4513 11.5482 9.993 11.5482C9.53467 11.5482 9.15967 11.1732 9.15967 10.7148ZM9.993 12.3815C9.30134 12.3815 8.743 12.9398 8.743 13.6315C8.743 14.3232 9.30134 14.8815 9.993 14.8815C10.6847 14.8815 11.243 14.3232 11.243 13.6315C11.243 12.9398 10.6847 12.3815 9.993 12.3815ZM19.643 16.4482C19.0597 17.5732 17.8347 18.2148 16.3013 18.2148H3.693C2.15134 18.2148 0.934669 17.5732 0.351336 16.4482C-0.24033 15.3148 -0.0736638 13.8648 0.768003 12.6482L7.468 2.04818C8.05967 1.19818 8.993 0.714844 9.993 0.714844C10.993 0.714844 11.9263 1.19818 12.493 2.02318L19.2263 12.6648C20.068 13.8815 20.2263 15.3232 19.6347 16.4482H19.643ZM17.8513 13.5982C17.8513 13.5982 17.8347 13.5815 17.8347 13.5648L11.1097 2.93984C10.868 2.59818 10.4513 2.38151 9.993 2.38151C9.53467 2.38151 9.118 2.59818 8.85967 2.97318L2.15134 13.5648C1.63467 14.2982 1.518 15.0982 1.818 15.6732C2.10967 16.2398 2.77634 16.5482 3.68467 16.5482H16.2847C17.193 16.5482 17.8597 16.2398 18.1513 15.6732C18.4513 15.0982 18.3347 14.2982 17.843 13.5982H17.8513Z" fill="#EB5757"/>
</svg>
