<svg width="25" height="25" viewBox="0 0 25 25" fill="none" xmlns="http://www.w3.org/2000/svg">
<g clip-path="url(#clip0_2174_6111)">
<path d="M24.6948 14.8885C25.1021 15.2958 25.1021 15.9542 24.6948 16.3615C24.4917 16.5646 24.225 16.6667 23.9583 16.6667C23.6917 16.6667 23.425 16.5646 23.2219 16.3615L20.8333 13.9729L18.4448 16.3615C18.2417 16.5646 17.975 16.6667 17.7083 16.6667C17.4417 16.6667 17.175 16.5646 16.9719 16.3615C16.5646 15.9542 16.5646 15.2958 16.9719 14.8885L19.3604 12.5L16.9719 10.1115C16.5646 9.70417 16.5646 9.04583 16.9719 8.63854C17.3792 8.23125 18.0375 8.23125 18.4448 8.63854L20.8333 11.0271L23.2219 8.63854C23.6292 8.23125 24.2875 8.23125 24.6948 8.63854C25.1021 9.04583 25.1021 9.70417 24.6948 10.1115L22.3062 12.5L24.6948 14.8885ZM2.08333 6.25C2.08333 2.80312 4.88646 0 8.33333 0C11.7802 0 14.5833 2.80312 14.5833 6.25C14.5833 9.69687 11.7802 12.5 8.33333 12.5C4.88646 12.5 2.08333 9.69687 2.08333 6.25ZM4.16667 6.25C4.16667 8.54792 6.03542 10.4167 8.33333 10.4167C10.6312 10.4167 12.5 8.54792 12.5 6.25C12.5 3.95208 10.6312 2.08333 8.33333 2.08333C6.03542 2.08333 4.16667 3.95208 4.16667 6.25ZM8.33333 14.5833C3.73854 14.5833 0 18.3219 0 22.9167V23.9583C0 24.5344 0.466667 25 1.04167 25C1.61667 25 2.08333 24.5344 2.08333 23.9583V22.9167C2.08333 19.4698 4.88646 16.6667 8.33333 16.6667C11.7802 16.6667 14.5833 19.4698 14.5833 22.9167V23.9583C14.5833 24.5344 15.05 25 15.625 25C16.2 25 16.6667 24.5344 16.6667 23.9583V22.9167C16.6667 18.3219 12.9281 14.5833 8.33333 14.5833Z" fill="currentColor"/>
</g>
<defs>
<clipPath id="clip0_2174_6111">
<rect width="25" height="25" fill="white"/>
</clipPath>
</defs>
</svg>
