<svg width="25" height="25" viewBox="0 0 25 25" fill="none" xmlns="http://www.w3.org/2000/svg">
<g clip-path="url(#clip0_2032_8035)">
<path d="M23.9584 11.459H21.8751V9.37565C21.8751 9.09938 21.7653 8.83443 21.57 8.63908C21.3746 8.44373 21.1097 8.33398 20.8334 8.33398C20.5571 8.33398 20.2922 8.44373 20.0968 8.63908C19.9015 8.83443 19.7917 9.09938 19.7917 9.37565V11.459H17.7084C17.4321 11.459 17.1672 11.5687 16.9718 11.7641C16.7765 11.9594 16.6667 12.2244 16.6667 12.5007C16.6667 12.7769 16.7765 13.0419 16.9718 13.2372C17.1672 13.4326 17.4321 13.5423 17.7084 13.5423H19.7917V15.6257C19.7917 15.9019 19.9015 16.1669 20.0968 16.3622C20.2922 16.5576 20.5571 16.6673 20.8334 16.6673C21.1097 16.6673 21.3746 16.5576 21.57 16.3622C21.7653 16.1669 21.8751 15.9019 21.8751 15.6257V13.5423H23.9584C24.2347 13.5423 24.4996 13.4326 24.695 13.2372C24.8903 13.0419 25.0001 12.7769 25.0001 12.5007C25.0001 12.2244 24.8903 11.9594 24.695 11.7641C24.4996 11.5687 24.2347 11.459 23.9584 11.459Z" fill="currentColor"/>
<path d="M9.375 12.5C10.6111 12.5 11.8195 12.1334 12.8473 11.4467C13.8751 10.7599 14.6762 9.78381 15.1492 8.64177C15.6223 7.49974 15.7461 6.24307 15.5049 5.03069C15.2638 3.81831 14.6685 2.70466 13.7944 1.83059C12.9203 0.956507 11.8067 0.361252 10.5943 0.120095C9.38193 -0.121063 8.12527 0.00270804 6.98323 0.475756C5.84119 0.948803 4.86507 1.74988 4.17832 2.77769C3.49156 3.8055 3.125 5.01387 3.125 6.25C3.12665 7.9071 3.78567 9.49585 4.95741 10.6676C6.12915 11.8393 7.71791 12.4983 9.375 12.5ZM9.375 2.08334C10.1991 2.08334 11.0047 2.32771 11.6899 2.78555C12.3751 3.24339 12.9091 3.89413 13.2245 4.65549C13.5399 5.41685 13.6224 6.25462 13.4616 7.06288C13.3008 7.87113 12.904 8.61356 12.3213 9.19628C11.7386 9.779 10.9961 10.1758 10.1879 10.3366C9.37962 10.4974 8.54184 10.4149 7.78049 10.0995C7.01913 9.78414 6.36838 9.25008 5.91054 8.56488C5.4527 7.87967 5.20833 7.07409 5.20833 6.25C5.20833 5.14493 5.64732 4.08513 6.42872 3.30372C7.21012 2.52232 8.26993 2.08334 9.375 2.08334Z" fill="currentColor"/>
<path d="M9.375 14.584C6.88944 14.5867 4.50647 15.5753 2.74892 17.3329C0.991363 19.0905 0.00275714 21.4734 0 23.959C0 24.2353 0.109747 24.5002 0.305097 24.6956C0.500448 24.8909 0.765399 25.0007 1.04167 25.0007C1.31793 25.0007 1.58289 24.8909 1.77824 24.6956C1.97359 24.5002 2.08333 24.2353 2.08333 23.959C2.08333 22.0251 2.85156 20.1705 4.21901 18.803C5.58647 17.4355 7.44113 16.6673 9.375 16.6673C11.3089 16.6673 13.1635 17.4355 14.531 18.803C15.8984 20.1705 16.6667 22.0251 16.6667 23.959C16.6667 24.2353 16.7764 24.5002 16.9718 24.6956C17.1671 24.8909 17.4321 25.0007 17.7083 25.0007C17.9846 25.0007 18.2496 24.8909 18.4449 24.6956C18.6403 24.5002 18.75 24.2353 18.75 23.959C18.7472 21.4734 17.7586 19.0905 16.0011 17.3329C14.2435 15.5753 11.8606 14.5867 9.375 14.584Z" fill="currentColor"/>
</g>
<defs>
<clipPath id="clip0_2032_8035">
<rect width="25" height="25" fill="white"/>
</clipPath>
</defs>
</svg>
