<svg width="25" height="25" viewBox="0 0 25 25" fill="none" xmlns="http://www.w3.org/2000/svg">
<g clip-path="url(#clip0_2032_8039)">
<path d="M8.33333 12.5C11.7802 12.5 14.5833 9.69687 14.5833 6.25C14.5833 2.80312 11.7802 0 8.33333 0C4.88646 0 2.08333 2.80312 2.08333 6.25C2.08333 9.69687 4.88646 12.5 8.33333 12.5ZM8.33333 2.08333C10.6312 2.08333 12.5 3.95208 12.5 6.25C12.5 8.54792 10.6312 10.4167 8.33333 10.4167C6.03542 10.4167 4.16667 8.54792 4.16667 6.25C4.16667 3.95208 6.03542 2.08333 8.33333 2.08333ZM16.6667 22.9167V23.9583C16.6667 24.5333 16.2 25 15.625 25C15.05 25 14.5833 24.5333 14.5833 23.9583V22.9167C14.5833 19.4698 11.7802 16.6667 8.33333 16.6667C4.88646 16.6667 2.08333 19.4698 2.08333 22.9167V23.9583C2.08333 24.5333 1.61667 25 1.04167 25C0.466667 25 0 24.5333 0 23.9583V22.9167C0 18.3219 3.73854 14.5833 8.33333 14.5833C12.9281 14.5833 16.6667 18.3219 16.6667 22.9167ZM24.6844 10.6427L20.526 14.6792C19.9208 15.2854 19.101 15.624 18.2292 15.624C17.3573 15.624 16.5375 15.2844 15.9219 14.6687L13.8687 12.7375C13.45 12.3437 13.4302 11.6844 13.825 11.2646C14.2198 10.8458 14.8781 10.826 15.2979 11.2208L17.3729 13.174C17.8635 13.6635 18.6177 13.6417 19.0635 13.1958L23.2323 9.14792C23.6448 8.74687 24.3042 8.75729 24.7052 9.16979C25.1062 9.58229 25.0958 10.2427 24.6833 10.6427H24.6844Z" fill="currentColor"/>
</g>
<defs>
<clipPath id="clip0_2032_8039">
<rect width="25" height="25" fill="white"/>
</clipPath>
</defs>
</svg>
