<svg width="25" height="25" viewBox="0 0 25 25" fill="none" xmlns="http://www.w3.org/2000/svg">
<g clip-path="url(#clip0_2032_8041)">
<path d="M9.375 12.5C12.8219 12.5 15.625 9.69687 15.625 6.25C15.625 2.80312 12.8219 0 9.375 0C5.92812 0 3.125 2.80312 3.125 6.25C3.125 9.69687 5.92812 12.5 9.375 12.5ZM9.375 2.08333C11.6729 2.08333 13.5417 3.95208 13.5417 6.25C13.5417 8.54792 11.6729 10.4167 9.375 10.4167C7.07708 10.4167 5.20833 8.54792 5.20833 6.25C5.20833 3.95208 7.07708 2.08333 9.375 2.08333ZM11.1979 16.8958C10.6062 16.7437 9.99271 16.6667 9.375 16.6667C5.35417 16.6667 2.08333 19.9375 2.08333 23.9583C2.08333 24.5333 1.61667 25 1.04167 25C0.466667 25 0 24.5333 0 23.9583C0 18.7896 4.20625 14.5833 9.375 14.5833C10.1687 14.5833 10.9573 14.6823 11.7188 14.8792C12.276 15.0229 12.6104 15.5906 12.4677 16.1479C12.325 16.7052 11.7594 17.0396 11.199 16.8969L11.1979 16.8958ZM24.0844 12.374C22.9031 11.1927 20.8448 11.1927 19.6646 12.374L12.6781 19.3604C11.8917 20.1469 11.4573 21.1938 11.4573 22.3073V23.9594C11.4573 24.5344 11.924 25.001 12.499 25.001H14.151C15.2646 25.001 16.3104 24.5667 17.0969 23.7802L24.0833 16.7937C24.674 16.2031 24.999 15.4187 24.999 14.5833C24.999 13.7479 24.674 12.9635 24.0844 12.374ZM22.6104 15.3198L15.6229 22.3062C15.2302 22.7 14.7073 22.9167 14.15 22.9167H13.5396V22.3062C13.5396 21.75 13.7562 21.2271 14.15 20.8333L21.1375 13.8469C21.5302 13.4531 22.2167 13.4531 22.6104 13.8469C22.8073 14.0427 22.9156 14.3042 22.9156 14.5833C22.9156 14.8625 22.8073 15.1229 22.6104 15.3198Z" fill="currentColor"/>
</g>
<defs>
<clipPath id="clip0_2032_8041">
<rect width="25" height="25" fill="white"/>
</clipPath>
</defs>
</svg>
