<svg width="40" height="40" viewBox="0 0 40 40" fill="none" xmlns="http://www.w3.org/2000/svg">
<path d="M7.49951 11.25H31.2486C31.5801 11.25 31.898 11.3816 32.1324 11.6161C32.3668 11.8505 32.4985 12.1683 32.4985 12.4998L32.4985 17.1825" stroke="#1F3C66" stroke-width="1.5" stroke-linecap="round" stroke-linejoin="round"/>
<path d="M32.4986 26.5572L32.4986 30.6242C32.4987 32.0049 31.3794 33.124 29.9987 33.124H6.87466C5.494 33.124 4.37476 32.0049 4.37476 30.6242V10.6249C4.37476 9.24424 5.494 8.125 6.87466 8.125H33.1236C34.5043 8.125 35.6235 9.24424 35.6235 10.6249V29.4226C35.6235 30.159 35.2075 30.8321 34.5489 31.1615" stroke="#1F3C66" stroke-width="1.5" stroke-linecap="round" stroke-linejoin="round"/>
<path d="M35.6236 18.125L32.4987 19.375H26.2489C25.9206 19.375 25.5956 19.4396 25.2923 19.5653C24.9889 19.6909 24.7134 19.8749 24.4812 20.1071C24.2491 20.3392 24.0649 20.6149 23.9393 20.9182C23.8137 21.2215 23.749 21.5466 23.749 21.8749C23.749 22.5379 24.0124 23.1736 24.4812 23.6425C24.9501 24.1113 25.5859 24.3747 26.2489 24.3747H32.4987L35.6236 23.1247" stroke="#1F3C66" stroke-width="1.5" stroke-linejoin="round"/>
<path d="M26.874 21.875C26.874 22.0407 26.8081 22.1997 26.6909 22.3169C26.5737 22.4341 26.4147 22.4998 26.249 22.4998C26.0832 22.4998 25.9243 22.4341 25.8071 22.3169C25.6899 22.1997 25.624 22.0407 25.624 21.875C25.624 21.7092 25.6899 21.5502 25.8071 21.433C25.9243 21.3158 26.0832 21.25 26.249 21.25C26.4147 21.25 26.5737 21.3158 26.6909 21.433C26.8081 21.5502 26.874 21.7092 26.874 21.875Z" fill="black"/>
</svg>
