<svg width="16" height="16" viewBox="0 0 16 16" fill="none" xmlns="http://www.w3.org/2000/svg">
<path fill-rule="evenodd" clip-rule="evenodd" d="M15.0378 0.0406064C15.6087 -0.152369 16.1533 0.392271 15.9604 0.963212L11.328 15.5062C11.1135 16.1412 10.2271 16.1732 9.96732 15.5551L7.1753 9.21481C7.10149 9.03922 6.96185 8.89957 6.78624 8.82575L0.445972 6.03374C-0.172115 5.77397 -0.140207 4.88756 0.494902 4.67303L15.0378 0.0406064ZM2.78301 5.43642L14.1104 1.89045L10.5644 13.2178L8.51729 8.65059C8.50896 8.63047 8.50015 8.61059 8.4911 8.59083L10.2061 6.87593L9.17669 5.84654L7.48002 7.54309C7.43752 7.52178 7.39431 7.5019 7.35014 7.48345L2.78301 5.43642Z" fill="currentColor"/>
<path d="M0.928711 14.0629L4.70258 10.2891L5.73197 11.3185L1.95811 15.0923L0.928711 14.0629Z" fill="currentColor"/>
<path d="M2.07218 8.91602L0.928711 10.0596L1.95811 11.089L3.10166 9.94541L2.07218 8.91602Z" fill="currentColor"/>
</svg>
