<svg width="508" height="508" viewBox="0 0 508 508" fill="none" xmlns="http://www.w3.org/2000/svg">
<path d="M319.998 362.664C319.998 368.322 317.75 373.748 313.749 377.749C309.748 381.75 304.322 383.997 298.664 383.997H213.331C207.673 383.997 202.247 381.75 198.246 377.749C194.245 373.748 191.998 368.322 191.998 362.664C191.998 357.006 194.245 351.58 198.246 347.579C202.247 343.578 207.673 341.331 213.331 341.331H298.664C304.322 341.331 309.748 343.578 313.749 347.579C317.75 351.58 319.998 357.006 319.998 362.664ZM313.747 155.582C309.746 151.582 304.321 149.336 298.664 149.336C293.007 149.336 287.582 151.582 283.582 155.582L255.998 183.166L228.414 155.582C226.446 153.544 224.092 151.919 221.489 150.801C218.886 149.683 216.087 149.094 213.254 149.07C210.422 149.045 207.612 149.585 204.991 150.657C202.369 151.73 199.987 153.314 197.984 155.317C195.981 157.32 194.397 159.702 193.324 162.324C192.251 164.946 191.712 167.755 191.736 170.588C191.761 173.42 192.349 176.22 193.467 178.822C194.586 181.425 196.211 183.779 198.248 185.747L225.832 213.331L198.248 240.915C196.211 242.883 194.586 245.237 193.467 247.84C192.349 250.442 191.761 253.242 191.736 256.074C191.712 258.907 192.251 261.716 193.324 264.338C194.397 266.96 195.981 269.342 197.984 271.345C199.987 273.348 202.369 274.932 204.991 276.004C207.612 277.077 210.422 277.617 213.254 277.592C216.087 277.568 218.886 276.979 221.489 275.861C224.092 274.743 226.446 273.118 228.414 271.08L255.998 243.496L283.582 271.08C287.605 274.966 292.994 277.116 298.588 277.068C304.181 277.019 309.532 274.776 313.487 270.82C317.442 266.865 319.686 261.514 319.735 255.921C319.783 250.327 317.633 244.938 313.747 240.915L286.163 213.331L313.747 185.747C317.746 181.746 319.993 176.321 319.993 170.664C319.993 165.007 317.746 159.582 313.747 155.582V155.582ZM469.331 341.331H383.998C378.34 341.331 372.913 343.578 368.913 347.579C364.912 351.58 362.664 357.006 362.664 362.664C362.664 368.322 364.912 373.748 368.913 377.749C372.913 381.75 378.34 383.997 383.998 383.997H469.331C474.989 383.997 480.415 381.75 484.416 377.749C488.417 373.748 490.664 368.322 490.664 362.664C490.664 357.006 488.417 351.58 484.416 347.579C480.415 343.578 474.989 341.331 469.331 341.331ZM456.83 213.331L484.414 185.747C486.451 183.779 488.076 181.425 489.194 178.822C490.313 176.22 490.901 173.42 490.926 170.588C490.95 167.755 490.411 164.946 489.338 162.324C488.265 159.702 486.681 157.32 484.678 155.317C482.675 153.314 480.293 151.73 477.671 150.657C475.05 149.585 472.24 149.045 469.408 149.07C466.575 149.094 463.776 149.683 461.173 150.801C458.57 151.919 456.216 153.544 454.248 155.582L426.664 183.166L399.08 155.582C397.112 153.544 394.758 151.919 392.156 150.801C389.553 149.683 386.754 149.094 383.921 149.07C381.088 149.045 378.279 149.585 375.657 150.657C373.036 151.73 370.654 153.314 368.651 155.317C366.648 157.32 365.063 159.702 363.991 162.324C362.918 164.946 362.378 167.755 362.403 170.588C362.428 173.42 363.016 176.22 364.134 178.822C365.252 181.425 366.877 183.779 368.915 185.747L396.499 213.331L368.915 240.915C366.877 242.883 365.252 245.237 364.134 247.84C363.016 250.442 362.428 253.242 362.403 256.074C362.378 258.907 362.918 261.716 363.991 264.338C365.063 266.96 366.648 269.342 368.651 271.345C370.654 273.348 373.036 274.932 375.657 276.004C378.279 277.077 381.088 277.617 383.921 277.592C386.754 277.568 389.553 276.979 392.156 275.861C394.758 274.743 397.112 273.118 399.08 271.08L426.664 243.496L454.248 271.08C458.272 274.966 463.661 277.116 469.254 277.068C474.848 277.019 480.198 274.776 484.154 270.82C488.109 266.865 490.353 261.514 490.401 255.921C490.45 250.327 488.3 244.938 484.414 240.915L456.83 213.331ZM127.998 341.331H42.6643C37.0064 341.331 31.5802 343.578 27.5794 347.579C23.5786 351.58 21.331 357.006 21.331 362.664C21.331 368.322 23.5786 373.748 27.5794 377.749C31.5802 381.75 37.0064 383.997 42.6643 383.997H127.998C133.656 383.997 139.082 381.75 143.083 377.749C147.083 373.748 149.331 368.322 149.331 362.664C149.331 357.006 147.083 351.58 143.083 347.579C139.082 343.578 133.656 341.331 127.998 341.331ZM143.08 155.582C139.08 151.582 133.654 149.336 127.998 149.336C122.341 149.336 116.916 151.582 112.915 155.582L85.331 183.166L57.747 155.582C55.7791 153.544 53.425 151.919 50.8223 150.801C48.2195 149.683 45.4202 149.094 42.5876 149.07C39.7549 149.045 36.9458 149.585 34.324 150.657C31.7022 151.73 29.3203 153.314 27.3172 155.317C25.3142 157.32 23.7301 159.702 22.6575 162.324C21.5848 164.946 21.045 167.755 21.0697 170.588C21.0943 173.42 21.6828 176.22 22.8008 178.822C23.9189 181.425 25.5441 183.779 27.5817 185.747L55.1657 213.331L27.5817 240.915C25.5441 242.883 23.9189 245.237 22.8008 247.84C21.6828 250.442 21.0943 253.242 21.0697 256.074C21.045 258.907 21.5848 261.716 22.6575 264.338C23.7301 266.96 25.3142 269.342 27.3172 271.345C29.3203 273.348 31.7022 274.932 34.324 276.004C36.9458 277.077 39.7549 277.617 42.5876 277.592C45.4202 277.568 48.2195 276.979 50.8223 275.861C53.425 274.743 55.7791 273.118 57.747 271.08L85.331 243.496L112.915 271.08C114.883 273.118 117.237 274.743 119.84 275.861C122.442 276.979 125.242 277.568 128.074 277.592C130.907 277.617 133.716 277.077 136.338 276.004C138.96 274.932 141.342 273.348 143.345 271.345C145.348 269.342 146.932 266.96 148.005 264.338C149.077 261.716 149.617 258.907 149.592 256.074C149.568 253.242 148.979 250.442 147.861 247.84C146.743 245.237 145.118 242.883 143.08 240.915L115.496 213.331L143.08 185.747C147.08 181.746 149.326 176.321 149.326 170.664C149.326 165.007 147.08 159.582 143.08 155.582V155.582Z" fill="currentColor"/>
</svg>
