<svg width="512" height="512" viewBox="0 0 512 512" fill="none" xmlns="http://www.w3.org/2000/svg">
<g clip-path="url(#clip0_515_9166)">
<path d="M341.333 6.4C356.39 11.5622 370.091 20.0496 381.419 31.232L416.747 66.6027C427.942 77.9155 436.438 91.6109 441.6 106.667H341.333V6.4ZM298.667 256H213.333C207.675 256 202.249 258.248 198.248 262.248C194.248 266.249 192 271.675 192 277.333C192 282.991 194.248 288.418 198.248 292.418C202.249 296.419 207.675 298.667 213.333 298.667H298.667C304.325 298.667 309.751 296.419 313.752 292.418C317.752 288.418 320 282.991 320 277.333C320 271.675 317.752 266.249 313.752 262.248C309.751 258.248 304.325 256 298.667 256ZM341.333 149.333C330.017 149.333 319.165 144.838 311.163 136.837C303.162 128.835 298.667 117.983 298.667 106.667V0H170.667C142.387 0.0338743 115.276 11.2828 95.2794 31.2794C75.2828 51.2759 64.0339 78.3873 64 106.667V405.333C64.0339 433.613 75.2828 460.724 95.2794 480.721C115.276 500.717 142.387 511.966 170.667 512H341.333C369.613 511.966 396.724 500.717 416.721 480.721C436.717 460.724 447.966 433.613 448 405.333V149.333H341.333ZM341.333 426.667H170.667C165.009 426.667 159.583 424.419 155.582 420.418C151.581 416.418 149.333 410.991 149.333 405.333C149.333 399.675 151.581 394.249 155.582 390.248C159.583 386.248 165.009 384 170.667 384H341.333C346.991 384 352.418 386.248 356.418 390.248C360.419 394.249 362.667 399.675 362.667 405.333C362.667 410.991 360.419 416.418 356.418 420.418C352.418 424.419 346.991 426.667 341.333 426.667ZM298.667 341.333H213.333C196.359 341.333 180.081 334.591 168.079 322.588C156.076 310.586 149.333 294.307 149.333 277.333C149.333 260.359 156.076 244.081 168.079 232.079C180.081 220.076 196.359 213.333 213.333 213.333H298.667C315.641 213.333 331.919 220.076 343.922 232.079C355.924 244.081 362.667 260.359 362.667 277.333C362.667 294.307 355.924 310.586 343.922 322.588C331.919 334.591 315.641 341.333 298.667 341.333Z" fill="#1F3C66"/>
</g>
<defs>
<clipPath id="clip0_515_9166">
<rect width="512" height="512" fill="white"/>
</clipPath>
</defs>
</svg>
