<svg width="512" height="512" viewBox="0 0 512 512" fill="none" xmlns="http://www.w3.org/2000/svg">
<path fill-rule="evenodd" clip-rule="evenodd" d="M143.071 265.799C199.627 265.981 245.618 220.284 245.799 163.729C245.981 107.173 200.284 61.1821 143.729 61.0005C87.1735 60.819 41.1821 106.516 41.0005 163.071C40.819 219.627 86.5161 265.618 143.071 265.799ZM201.512 105.66C216.825 121.072 225.389 141.937 225.32 163.663C225.25 185.389 216.552 206.198 201.14 221.512C185.728 236.825 164.863 245.389 143.137 245.32C121.411 245.25 100.602 236.552 85.2882 221.14C69.9746 205.728 61.4107 184.863 61.4804 163.137C61.5502 141.411 70.2479 120.602 85.6601 105.288C101.072 89.9746 121.937 81.4107 143.663 81.4804C165.389 81.5502 186.198 90.2478 201.512 105.66ZM259.29 204.351C253.895 219.613 245.571 233.492 234.993 245.311H430.122V409.151H102.442V279.279C87.1793 273.884 73.3008 265.56 61.4818 254.982V429.631C61.4818 435.062 63.6396 440.272 67.4803 444.112C71.321 447.953 76.5302 450.111 81.9618 450.111H450.602C456.034 450.111 461.243 447.953 465.083 444.112C468.924 440.272 471.082 435.062 471.082 429.631V101.951C471.082 96.5192 468.924 91.31 465.083 87.4692C461.243 83.6285 456.034 81.4708 450.602 81.4708H234.993C245.571 93.2897 253.895 107.168 259.29 122.431H430.122V204.351H259.29ZM389.162 327.231H307.242V368.191H389.162V327.231ZM153.64 112.2H133.16V132.68H153.64V112.2ZM153.64 153.16H133.16V214.6H153.64V153.16Z" fill="currentColor"/>
</svg>
