<svg width="512" height="512" viewBox="0 0 512 512" fill="none" xmlns="http://www.w3.org/2000/svg">
<path fill-rule="evenodd" clip-rule="evenodd" d="M34.6101 313.233H37.9799L34.8243 326.399C34.3432 328.335 34.4503 329.838 35.0912 330.805C35.7339 331.772 36.9087 332.256 38.6735 332.256C40.3838 332.256 41.8273 331.772 42.9511 330.805C44.0732 329.836 44.8231 328.333 45.3042 326.399L48.458 313.233H51.8805L48.6723 326.721C47.9769 329.623 46.7477 331.827 44.9302 333.278C43.1654 334.728 40.8123 335.482 37.9254 335.482C35.0385 335.482 33.0595 334.783 31.9901 333.331C30.9207 331.88 30.7064 329.678 31.4018 326.776L34.6101 313.235V313.233ZM440.42 334.889L445.551 313.233H457.261L456.565 316.242H448.279L446.997 321.669H455.283L454.533 324.733H446.247L444.589 331.716H452.878L452.13 334.887H440.42V334.889ZM440.099 318.499C439.349 317.642 438.441 316.996 437.479 316.618C436.515 316.189 435.447 315.974 434.216 315.974C431.918 315.974 429.886 316.726 428.069 318.231C426.251 319.736 425.075 321.725 424.486 324.141C423.951 326.453 424.165 328.387 425.236 329.946C426.251 331.449 427.854 332.203 429.993 332.203C431.222 332.203 432.453 331.988 433.681 331.504C434.912 331.075 436.143 330.375 437.425 329.462L436.462 333.438C435.393 334.135 434.271 334.621 433.092 334.944C431.916 335.265 430.739 335.427 429.458 335.427C427.854 335.427 426.409 335.157 425.18 334.619C423.949 334.082 422.936 333.276 422.131 332.203C421.331 331.181 420.85 329.946 420.635 328.55C420.423 327.152 420.476 325.649 420.904 324.036C421.278 322.424 421.919 320.97 422.776 319.574C423.631 318.176 424.753 316.941 426.037 315.921C427.319 314.846 428.709 314.042 430.207 313.503C431.703 312.967 433.2 312.699 434.752 312.699C435.981 312.699 437.103 312.859 438.174 313.235C439.189 313.613 440.152 314.147 441.007 314.901L440.099 318.499ZM412.668 326.346L411.706 321.401C411.653 321.079 411.599 320.702 411.599 320.326C411.544 319.897 411.544 319.466 411.544 318.983C411.33 319.466 411.118 319.895 410.849 320.326C410.635 320.755 410.422 321.132 410.208 321.455L406.84 326.346H412.668ZM414.273 334.889L413.204 329.302H404.863L401.119 334.889H397.538L413.042 312.376L417.854 334.889H414.273ZM386.044 334.889L391.176 313.233H402.886L402.19 316.242H393.902L392.62 321.616H400.905L400.157 324.68H391.87L389.464 334.834H386.042V334.889H386.044ZM375.938 322.422H376.579C378.396 322.422 379.627 322.207 380.322 321.777C381.016 321.346 381.499 320.594 381.766 319.465C382.031 318.282 381.926 317.423 381.39 316.939C380.858 316.456 379.732 316.186 378.022 316.186H377.379L375.936 322.421L375.938 322.422ZM375.082 325.163L372.782 334.834H369.574L374.708 313.18H379.467C380.858 313.18 381.926 313.288 382.621 313.45C383.367 313.613 383.957 313.934 384.384 314.363C384.92 314.901 385.239 315.545 385.399 316.405C385.561 317.213 385.506 318.125 385.292 319.145C384.865 320.866 384.168 322.264 383.1 323.229C382.031 324.196 380.693 324.787 379.09 325.003L383.956 334.832H380.105L375.453 325.161H375.079L375.082 325.163ZM353.963 334.889L359.098 313.233H370.859L370.166 316.242H361.877L360.595 321.669H368.882L368.136 324.733H359.847L358.191 331.716H366.478L365.728 334.887H353.965L353.963 334.889ZM350.275 316.189L345.838 334.834H342.417L346.855 316.189H341.293L341.989 313.18H356.532L355.838 316.189H350.275ZM315.469 334.889L320.816 312.376L330.975 325.594C331.244 325.97 331.509 326.347 331.776 326.776C332.043 327.205 332.311 327.69 332.631 328.225L336.215 313.233H339.369L334.022 335.695L323.649 322.207C323.382 321.831 323.113 321.455 322.848 321.078C322.581 320.649 322.367 320.271 322.205 319.788L318.625 334.832H315.471V334.887L315.469 334.889ZM307.128 334.889L312.261 313.233H315.682L310.549 334.889H307.128ZM281.945 330.537L284.992 329.247C285.044 330.214 285.311 330.966 285.901 331.449C286.49 331.933 287.29 332.203 288.36 332.203C289.375 332.203 290.232 331.933 290.98 331.343C291.728 330.752 292.211 330.001 292.423 329.033C292.745 327.743 291.997 326.614 290.179 325.649C289.912 325.486 289.752 325.379 289.589 325.326C287.557 324.143 286.275 323.123 285.74 322.156C285.206 321.189 285.097 320.059 285.42 318.718C285.847 316.945 286.757 315.547 288.198 314.419C289.643 313.345 291.247 312.753 293.173 312.753C294.724 312.753 295.951 313.076 296.861 313.666C297.77 314.259 298.251 315.171 298.411 316.301L295.419 317.698C295.15 316.999 294.829 316.516 294.402 316.193C293.976 315.872 293.44 315.709 292.797 315.709C291.888 315.709 291.087 315.978 290.446 316.461C289.803 316.945 289.377 317.591 289.162 318.45C288.843 319.74 289.752 320.974 291.835 322.103C291.997 322.211 292.102 322.266 292.211 322.317C294.028 323.284 295.257 324.253 295.791 325.22C296.327 326.185 296.434 327.315 296.114 328.765C295.631 330.807 294.617 332.418 293.064 333.655C291.515 334.836 289.696 335.484 287.557 335.484C285.794 335.484 284.403 335.051 283.441 334.192C282.372 333.332 281.891 332.095 281.945 330.539V330.537ZM278.363 316.189L273.925 334.834H270.505L274.942 316.189H269.383L270.074 313.18H284.618L283.922 316.189H278.363ZM243.557 334.889L248.902 312.376L259.062 325.594C259.329 325.97 259.598 326.347 259.865 326.776C260.13 327.205 260.399 327.69 260.72 328.225L264.302 313.233H267.456L262.111 335.695L251.738 322.207C251.469 321.831 251.204 321.455 250.936 321.078C250.669 320.649 250.454 320.271 250.295 319.788L246.712 334.832H243.559V334.887L243.557 334.889ZM227.944 334.889L233.077 313.233H244.786L244.091 316.242H235.804L234.52 321.669H242.807L242.059 324.733H233.772L232.115 331.716H240.403L239.653 334.887H227.944V334.889ZM222.277 324.196C222.277 324.036 222.33 323.55 222.437 322.798C222.492 322.154 222.544 321.671 222.599 321.24C222.385 321.725 222.17 322.207 221.903 322.744C221.636 323.229 221.315 323.765 220.941 324.249L212.707 335.801L210.034 324.036C209.927 323.552 209.82 323.068 209.766 322.638C209.713 322.209 209.659 321.725 209.659 321.295C209.552 321.725 209.392 322.207 209.232 322.744C209.07 323.229 208.858 323.765 208.589 324.304L203.778 334.944H200.624L210.942 312.376L213.884 326.023C213.936 326.238 213.991 326.614 214.045 327.097C214.098 327.583 214.205 328.227 214.312 328.979C214.686 328.335 215.167 327.583 215.81 326.614C215.97 326.347 216.13 326.185 216.184 326.023L225.487 312.376L225.166 334.944H222.012L222.281 324.196H222.277ZM189.717 334.889L192.07 325.003L187.793 313.288H191.373L194.046 320.651C194.1 320.864 194.153 321.079 194.26 321.401C194.367 321.725 194.422 322.047 194.527 322.368C194.741 322.047 194.956 321.724 195.17 321.401C195.384 321.079 195.598 320.809 195.811 320.541L202.067 313.288H205.488L195.491 324.948L193.138 334.832H189.716V334.887L189.717 334.889ZM179.664 326.346L178.702 321.401C178.647 321.079 178.595 320.702 178.595 320.326C178.54 319.897 178.54 319.466 178.54 318.983C178.326 319.466 178.112 319.895 177.845 320.326C177.631 320.755 177.418 321.132 177.202 321.455L173.834 326.346H179.664ZM181.215 334.889L180.145 329.302H171.804L168.062 334.889H164.48L179.985 312.376L184.797 334.889H181.215ZM159.775 322.262H160.631C162.503 322.262 163.839 322.047 164.587 321.616C165.335 321.187 165.816 320.435 166.085 319.359C166.35 318.231 166.19 317.372 165.656 316.943C165.068 316.459 163.892 316.244 162.129 316.244H161.273L159.775 322.264V322.262ZM158.866 325.163L156.567 334.889H153.359L158.492 313.233H163.677C165.228 313.233 166.297 313.341 166.993 313.501C167.688 313.662 168.224 313.932 168.65 314.361C169.184 314.844 169.558 315.543 169.72 316.403C169.88 317.264 169.827 318.176 169.613 319.196C169.346 320.218 168.972 321.185 168.383 322.045C167.795 322.904 167.1 323.603 166.352 324.087C165.711 324.462 165.015 324.784 164.267 324.946C163.519 325.107 162.343 325.216 160.845 325.216H158.868V325.161L158.866 325.163ZM126.947 331.665H129.834C131.384 331.665 132.613 331.557 133.47 331.343C134.326 331.13 135.074 330.752 135.769 330.269C136.731 329.57 137.534 328.71 138.175 327.636C138.817 326.614 139.299 325.379 139.618 323.983C139.938 322.585 140.045 321.402 139.885 320.384C139.725 319.361 139.351 318.448 138.709 317.749C138.227 317.213 137.639 316.89 136.838 316.675C136.036 316.459 134.807 316.353 133.042 316.353H130.583L126.947 331.666V331.665ZM122.776 334.889L127.911 313.233H132.508C135.502 313.233 137.588 313.394 138.709 313.717C139.832 314.04 140.793 314.523 141.543 315.275C142.505 316.242 143.148 317.479 143.415 318.928C143.682 320.434 143.574 322.152 143.148 324.034C142.665 325.968 141.971 327.632 141.009 329.136C140.047 330.641 138.817 331.823 137.374 332.79C136.305 333.544 135.128 334.028 133.844 334.349C132.615 334.672 130.743 334.832 128.283 334.832H122.776V334.889ZM107.111 334.889L112.244 313.233H123.953L123.257 316.242H114.969L113.685 321.669H121.974L121.226 324.733H112.937L111.279 331.716H119.568L118.82 334.887H107.111V334.889ZM98.8223 334.889L103.955 313.233H107.376L102.243 334.889H98.8205H98.8223ZM83.3167 334.889L88.4495 313.233H100.159L99.4632 316.242H91.1766L89.893 321.616H98.1796L97.4315 324.68H89.1431L86.7374 334.834H83.3149V334.889H83.3167ZM75.0282 334.889L80.1611 313.233H83.5818L78.4489 334.889H75.0264H75.0282ZM51.3976 334.889L56.7428 312.376L66.9014 325.594C67.1683 325.97 67.4352 326.347 67.7039 326.776C67.9708 327.205 68.2377 327.69 68.5591 328.225L72.1413 313.233H75.2951L69.9499 335.695L59.5771 322.207C59.3102 321.831 59.0433 321.455 58.7745 321.078C58.5076 320.649 58.2934 320.271 58.1336 319.788L54.5513 334.832H51.3976V334.889Z" fill="#3A3734"/>
<path fill-rule="evenodd" clip-rule="evenodd" d="M378.184 294.375H354.713L387.327 176H410.798L378.184 294.375ZM183.139 286.959C181.856 291.634 177.578 294.911 172.767 294.911H51.7735C48.4581 294.911 45.9997 293.782 44.3947 291.526C42.7914 289.267 42.4174 286.474 43.3797 283.143L72.8931 176.323H96.3658L70.0062 271.752H163.893L190.251 176.323H213.724L183.141 286.959H183.139ZM365.993 179.708C364.39 177.451 361.875 176.323 358.455 176.323H229.495L223.133 199.535H340.438L333.595 224.307H239.762V224.253H216.291L196.829 294.913H220.3L233.346 247.52H338.835C342.15 247.52 345.251 246.39 348.138 244.135C351.025 241.878 352.952 239.084 353.859 235.752L366.905 188.361C367.92 184.815 367.6 181.967 365.995 179.71L365.993 179.708Z" fill="#716D6A"/>
<path fill-rule="evenodd" clip-rule="evenodd" d="M451.325 176.209L481 235.531L418.605 294.852L426.026 267.943L460.149 235.531L443.915 203.078L451.325 176.209Z" fill="#0E8635"/>
<path fill-rule="evenodd" clip-rule="evenodd" d="M430.476 176.209L460.149 235.531L397.7 294.852L430.476 176.209Z" fill="#E97208"/>
</svg>
