<svg width="512" height="512" viewBox="0 0 512 512" fill="none" xmlns="http://www.w3.org/2000/svg">
<path d="M120.079 102.405C157.49 69.2147 205.788 50.9214 255.8 51.0003C368.911 51.0003 460.6 142.689 460.6 255.8C460.667 297.659 447.846 338.524 423.879 372.843L368.44 255.8H419.64C419.641 223.224 409.93 191.387 391.749 164.356C373.567 137.325 347.741 116.328 317.568 104.047C287.396 91.7653 254.247 88.7573 222.356 95.4069C190.466 102.057 161.281 118.062 138.532 141.378L120.1 102.426L120.079 102.405ZM391.521 409.195C354.11 442.386 305.812 460.679 255.8 460.6C142.689 460.6 51 368.911 51 255.8C51 212.28 64.5782 171.935 87.7206 138.757L143.16 255.8H91.96C91.9594 288.377 101.67 320.214 119.851 347.244C138.033 374.275 163.859 395.272 194.032 407.554C224.204 419.835 257.353 422.843 289.244 416.194C321.134 409.544 350.319 393.539 373.068 370.222L391.5 409.175L391.521 409.195ZM284.759 313.718L226.841 255.8L168.903 313.718L139.945 284.759L226.841 197.883L284.759 255.8L342.697 197.883L371.655 226.842L284.759 313.718V313.718Z" fill="currentColor"/>
</svg>
