<svg width="512" height="512" viewBox="0 0 512 512" fill="none" xmlns="http://www.w3.org/2000/svg">
<path d="M436.5 481H76.5C70.5326 481 64.8097 478.629 60.5901 474.41C56.3705 470.19 54 464.467 54 458.5V53.5C54 47.5326 56.3705 41.8097 60.5901 37.5901C64.8097 33.3705 70.5326 31 76.5 31H436.5C442.467 31 448.19 33.3705 452.41 37.5901C456.629 41.8097 459 47.5326 459 53.5V458.5C459 464.467 456.629 470.19 452.41 474.41C448.19 478.629 442.467 481 436.5 481ZM414 436V76H99V436H414ZM166.5 143.5H346.5V188.5H166.5V143.5ZM166.5 233.5H346.5V278.5H166.5V233.5ZM166.5 323.5H279V368.5H166.5V323.5Z" fill="currentColor"/>
</svg>
