<svg width="512" height="512" viewBox="0 0 512 512" fill="none" xmlns="http://www.w3.org/2000/svg">
<path d="M259.29 204.351C253.895 219.613 245.571 233.492 234.993 245.311H430.122V409.151H102.442V279.279C87.1793 273.884 73.3008 265.56 61.4818 254.982V429.631C61.4818 435.062 63.6395 440.272 67.4803 444.112C71.321 447.953 76.5302 450.111 81.9618 450.111H450.602C456.034 450.111 461.243 447.953 465.083 444.112C468.924 440.272 471.082 435.062 471.082 429.631V101.951C471.082 96.5192 468.924 91.31 465.083 87.4692C461.243 83.6285 456.034 81.4708 450.602 81.4708H234.993C245.571 93.2897 253.895 107.168 259.29 122.431H430.122V204.351H259.29Z" fill="currentColor"/>
<path d="M389.162 327.231H307.242V368.191H389.162V327.231Z" fill="currentColor"/>
<path d="M245.8 163.729C245.618 220.284 199.627 265.981 143.071 265.799C86.5161 265.618 40.819 219.627 41.0005 163.071C41.1821 106.516 87.1735 60.819 143.729 61.0005C200.284 61.1821 245.981 107.173 245.8 163.729ZM225.32 163.663C225.389 141.937 216.825 121.072 201.512 105.66C186.198 90.2478 165.389 81.5502 143.663 81.4804C121.937 81.4107 101.072 89.9746 85.6601 105.288C70.2478 120.602 61.5502 141.411 61.4804 163.137C61.4107 184.863 69.9746 205.728 85.2882 221.14C100.602 236.552 121.411 245.25 143.137 245.32C164.863 245.389 185.728 236.825 201.14 221.512C216.552 206.198 225.25 185.389 225.32 163.663ZM112.516 214.501L76.7746 183.666L112.713 153.061L112.647 173.541L153.607 173.673L153.541 194.153L112.582 194.021L112.516 214.501ZM174.284 112.299L210.025 143.134L174.087 173.739L174.153 153.259L133.193 153.127L133.259 132.647L174.218 132.779L174.284 112.299Z" fill="currentColor"/>
</svg>
