<svg width="512" height="512" viewBox="0 0 512 512" fill="none" xmlns="http://www.w3.org/2000/svg">
<path d="M265.8 309.401V352.204C247.264 345.651 227.426 343.641 207.952 346.343C188.478 349.045 169.937 356.38 153.886 367.732C137.834 379.085 124.741 394.123 115.705 411.584C106.67 429.045 101.956 448.42 101.96 468.08L61 468.06C60.9936 443.051 66.7123 418.373 77.7178 395.917C88.7233 373.46 104.724 353.821 124.492 338.504C144.261 323.187 167.274 312.599 191.768 307.55C216.262 302.502 241.586 303.128 265.8 309.38V309.401ZM224.84 283.76C156.949 283.76 101.96 228.771 101.96 160.88C101.96 92.9888 156.949 38 224.84 38C292.731 38 347.72 92.9888 347.72 160.88C347.72 228.771 292.731 283.76 224.84 283.76ZM224.84 242.8C270.101 242.8 306.76 206.141 306.76 160.88C306.76 115.619 270.101 78.96 224.84 78.96C179.579 78.96 142.92 115.619 142.92 160.88C142.92 206.141 179.579 242.8 224.84 242.8ZM376.761 365.68H450.202V406.64H376.761L414.219 444.077L385.26 473.057L298.363 386.16L385.26 299.263L414.219 328.243L376.761 365.68Z" fill="currentColor"/>
</svg>
