<svg width="512" height="512" viewBox="0 0 512 512" fill="none" xmlns="http://www.w3.org/2000/svg">
<path d="M239.859 132.92H435.101C439.085 132.92 442.905 134.489 445.721 137.283C448.538 140.076 450.12 143.864 450.12 147.815V281.865C450.12 285.816 448.538 289.604 445.721 292.397C442.905 295.191 439.085 296.76 435.101 296.76H239.859C235.875 296.76 232.055 295.191 229.239 292.397C226.422 289.604 224.84 285.816 224.84 281.865V147.815C224.84 143.864 226.422 140.076 229.239 137.283C232.055 134.489 235.875 132.92 239.859 132.92ZM420.083 207.393H254.877V266.971H420.083V207.393ZM420.083 177.604V162.709H254.877V177.604H420.083ZM329.971 222.287H390.045V252.076H329.971V222.287Z" fill="currentColor"/>
<path d="M101.96 419.64V91.96H306.76V112.44H347.72V71.48C347.72 66.0484 345.562 60.8392 341.722 56.9985C337.881 53.1577 332.672 51 327.24 51H81.48C76.0484 51 70.8392 53.1577 66.9985 56.9985C63.1577 60.8392 61 66.0484 61 71.48V440.12C61 445.552 63.1577 450.761 66.9985 454.602C70.8392 458.442 76.0484 460.6 81.48 460.6H327.24C332.672 460.6 337.881 458.442 341.722 454.602C345.562 450.761 347.72 445.552 347.72 440.12V317.24H306.76V419.64H101.96Z" fill="currentColor"/>
<path d="M218.842 364.198C215.001 360.358 209.792 358.2 204.36 358.2C198.928 358.2 193.719 360.358 189.878 364.198C186.038 368.039 183.88 373.248 183.88 378.68C183.88 384.112 186.038 389.321 189.878 393.162C193.719 397.002 198.928 399.16 204.36 399.16C209.792 399.16 215.001 397.002 218.842 393.162C222.682 389.321 224.84 384.112 224.84 378.68C224.84 373.248 222.682 368.039 218.842 364.198Z" fill="currentColor"/>
</svg>
