<svg width="512" height="512" viewBox="0 0 512 512" fill="none" xmlns="http://www.w3.org/2000/svg">
<path d="M256 481C131.733 481 31 380.267 31 256C31 131.733 131.733 31 256 31C380.267 31 481 131.733 481 256C481 380.267 380.267 481 256 481ZM143.793 396.76C175.642 422.223 215.223 436.065 256 436C300.325 436 340.892 419.98 372.257 393.43C357.604 378.394 340.084 366.45 320.733 358.303C301.383 350.156 280.595 345.973 259.6 346C237.833 345.975 216.299 350.474 196.363 359.212C176.427 367.95 158.525 380.737 143.793 396.76V396.76ZM112.36 364.45C131.27 344.382 154.09 328.399 179.413 317.486C204.736 306.574 232.026 300.963 259.6 301C286.187 300.965 312.519 306.183 337.084 316.354C361.649 326.524 383.963 341.447 402.745 360.265C422.007 333.155 433.382 301.239 435.608 268.058C437.834 234.877 430.824 201.727 415.356 172.288C399.888 142.848 376.567 118.269 347.979 101.278C319.392 84.286 286.656 75.5464 253.404 76.0282C220.151 76.51 187.682 86.1944 159.599 104.007C131.516 121.82 108.917 147.064 94.3081 176.94C79.6995 206.815 73.6531 240.154 76.8396 273.256C80.0261 306.359 92.3209 337.932 112.36 364.472V364.45ZM256 278.5C232.131 278.5 209.239 269.018 192.36 252.14C175.482 235.261 166 212.369 166 188.5C166 164.631 175.482 141.739 192.36 124.86C209.239 107.982 232.131 98.5 256 98.5C279.869 98.5 302.761 107.982 319.64 124.86C336.518 141.739 346 164.631 346 188.5C346 212.369 336.518 235.261 319.64 252.14C302.761 269.018 279.869 278.5 256 278.5ZM256 233.5C267.935 233.5 279.381 228.759 287.82 220.32C296.259 211.881 301 200.435 301 188.5C301 176.565 296.259 165.119 287.82 156.68C279.381 148.241 267.935 143.5 256 143.5C244.065 143.5 232.619 148.241 224.18 156.68C215.741 165.119 211 176.565 211 188.5C211 200.435 215.741 211.881 224.18 220.32C232.619 228.759 244.065 233.5 256 233.5Z" fill="currentColor"/>
</svg>
