<svg width="512" height="512" viewBox="0 0 512 512" fill="none" xmlns="http://www.w3.org/2000/svg">
<path d="M202.376 229.327C221.593 263.088 249.552 291.047 283.313 310.264L301.417 284.91C304.328 280.833 308.633 277.965 313.517 276.848C318.4 275.731 323.524 276.442 327.918 278.848C356.883 294.678 388.871 304.198 421.778 306.783C426.914 307.19 431.708 309.518 435.204 313.302C438.7 317.086 440.641 322.049 440.64 327.201V418.583C440.641 423.654 438.761 428.545 435.364 432.309C431.966 436.073 427.293 438.443 422.249 438.961C411.395 440.087 400.458 440.64 389.44 440.64C214.131 440.64 72 298.509 72 123.2C72 112.182 72.553 101.245 73.6794 90.391C74.1966 85.3468 76.5667 80.6737 80.3311 77.2763C84.0954 73.879 88.9862 71.9989 94.057 72H185.439C190.591 71.9994 195.554 73.9405 199.338 77.4364C203.123 80.9324 205.45 85.7262 205.857 90.8621C208.442 123.769 217.963 155.757 233.792 184.722C236.198 189.116 236.909 194.24 235.792 199.123C234.675 204.007 231.807 208.312 227.73 211.223L202.376 229.327V229.327ZM150.725 215.872L189.637 188.081C178.594 164.244 171.028 138.946 167.171 112.96H113.165C113.042 116.36 112.98 119.78 112.98 123.2C112.96 275.899 236.741 399.68 389.44 399.68C392.86 399.68 396.28 399.619 399.68 399.475V345.469C373.694 341.612 348.396 334.046 324.559 323.003L296.768 361.915C285.579 357.567 274.711 352.435 264.246 346.555L263.058 345.879C222.888 323.018 189.622 289.752 166.761 249.582L166.085 248.394C160.205 237.929 155.073 227.061 150.725 215.872V215.872Z" fill="currentColor"/>
</svg>
