<svg width="512" height="512" viewBox="0 0 512 512" fill="none" xmlns="http://www.w3.org/2000/svg">
<path d="M235.805 440.091V418.205C201.981 413.277 171.051 396.236 148.682 370.203C126.312 344.171 114 310.889 114 276.455V174.182C114 155.379 117.676 136.76 124.817 119.389C131.959 102.017 142.426 86.2326 155.622 72.937C168.817 59.6413 184.483 49.0946 201.724 41.8991C218.965 34.7035 237.444 31 256.105 31C274.767 31 293.246 34.7035 310.487 41.8991C327.728 49.0946 343.393 59.6413 356.589 72.937C369.785 86.2326 380.252 102.017 387.393 119.389C394.535 136.76 398.211 155.379 398.211 174.182V276.455C398.211 310.889 385.898 344.171 363.529 370.203C341.159 396.236 310.23 413.277 276.406 418.205V440.091H357.609V481H154.602V440.091H235.805ZM256.105 71.9091C229.185 71.9091 203.367 82.6842 184.331 101.864C165.296 121.044 154.602 147.057 154.602 174.182V276.455C154.602 303.579 165.296 329.592 184.331 348.772C203.367 367.952 229.185 378.727 256.105 378.727C283.026 378.727 308.844 367.952 327.879 348.772C346.915 329.592 357.609 303.579 357.609 276.455V174.182C357.609 147.057 346.915 121.044 327.879 101.864C308.844 82.6842 283.026 71.9091 256.105 71.9091V71.9091ZM256.105 194.636C261.489 194.636 266.653 192.481 270.46 188.645C274.267 184.809 276.406 179.607 276.406 174.182C276.406 168.757 274.267 163.554 270.46 159.718C266.653 155.882 261.489 153.727 256.105 153.727C250.721 153.727 245.558 155.882 241.75 159.718C237.943 163.554 235.805 168.757 235.805 174.182C235.805 179.607 237.943 184.809 241.75 188.645C245.558 192.481 250.721 194.636 256.105 194.636V194.636ZM256.105 235.545C239.953 235.545 224.462 229.08 213.041 217.572C201.619 206.065 195.203 190.456 195.203 174.182C195.203 157.907 201.619 142.299 213.041 130.791C224.462 119.283 239.953 112.818 256.105 112.818C272.258 112.818 287.748 119.283 299.17 130.791C310.591 142.299 317.008 157.907 317.008 174.182C317.008 190.456 310.591 206.065 299.17 217.572C287.748 229.08 272.258 235.545 256.105 235.545Z" fill="currentColor"/>
</svg>
