<svg width="512" height="512" viewBox="0 0 512 512" fill="none" xmlns="http://www.w3.org/2000/svg">
<path d="M59.096 213.328C49.9227 213.328 42.6694 206.075 42.6694 196.901V147.621C42.6694 89.808 89.816 42.6613 147.629 42.6613H196.909C206.083 42.6613 213.336 49.9146 213.336 59.088C213.336 68.2613 206.083 75.5146 196.909 75.5146H147.629C107.736 75.5146 75.5227 107.941 75.5227 147.621V196.901C75.5227 206.075 68.056 213.328 59.096 213.328Z" fill="currentColor"/>
<path d="M452.909 213.328C443.949 213.328 436.483 206.075 436.483 196.901V147.621C436.483 107.728 404.056 75.5146 364.376 75.5146H315.096C305.923 75.5146 298.669 68.048 298.669 59.088C298.669 50.128 305.923 42.6613 315.096 42.6613H364.376C422.189 42.6613 469.336 89.808 469.336 147.621V196.901C469.336 206.075 462.083 213.328 452.909 213.328Z" fill="currentColor"/>
<path d="M364.37 469.327H334.717C325.757 469.327 318.29 462.073 318.29 452.9C318.29 443.94 325.544 436.473 334.717 436.473H364.37C404.264 436.473 436.477 404.047 436.477 364.367V334.927C436.477 325.967 443.73 318.5 452.904 318.5C461.864 318.5 469.33 325.753 469.33 334.927V364.367C469.33 422.18 422.184 469.327 364.37 469.327Z" fill="currentColor"/>
<path d="M196.909 469.328H147.629C89.816 469.328 42.6694 422.181 42.6694 364.368V315.088C42.6694 305.915 49.9227 298.661 59.096 298.661C68.2694 298.661 75.5227 305.915 75.5227 315.088V364.368C75.5227 404.261 107.949 436.475 147.629 436.475H196.909C205.869 436.475 213.336 443.728 213.336 452.901C213.336 462.075 206.083 469.328 196.909 469.328Z" fill="currentColor"/>
<path d="M315.327 321.016V308.013H276.317V269.003H315.327V295.01H341.333V321.016H328.33V347.022H302.324V373.029H276.317V334.019H302.324V321.016H315.327ZM380.343 373.029H328.33V347.022H354.336V321.016H380.343V373.029ZM146.286 138.971H250.311V242.997H146.286V138.971ZM172.292 164.978V216.99H224.305V164.978H172.292ZM276.317 138.971H380.343V242.997H276.317V138.971ZM302.324 164.978V216.99H354.336V164.978H302.324ZM146.286 269.003H250.311V373.029H146.286V269.003ZM172.292 295.01V347.022H224.305V295.01H172.292ZM341.333 269.003H380.343V295.01H341.333V269.003ZM185.295 177.981H211.302V203.987H185.295V177.981ZM185.295 308.013H211.302V334.019H185.295V308.013ZM315.327 177.981H341.333V203.987H315.327V177.981Z" fill="currentColor"/>
</svg>
