<svg width="512" height="512" viewBox="0 0 512 512" fill="none" xmlns="http://www.w3.org/2000/svg">
<path fill-rule="evenodd" clip-rule="evenodd" d="M327.76 337.72C271.204 337.72 225.36 291.876 225.36 235.32C225.36 178.764 271.204 132.92 327.76 132.92C384.316 132.92 430.16 178.764 430.16 235.32C430.16 291.876 384.316 337.72 327.76 337.72ZM327.76 317.24C349.487 317.24 370.323 308.609 385.686 293.246C401.049 277.883 409.68 257.047 409.68 235.32C409.68 213.593 401.049 192.757 385.686 177.394C370.323 162.031 349.487 153.4 327.76 153.4C306.033 153.4 285.197 162.031 269.834 177.394C254.471 192.757 245.84 213.593 245.84 235.32C245.84 257.047 254.471 277.883 269.834 293.246C285.197 308.609 306.033 317.24 327.76 317.24Z" fill="currentColor"/>
<path fill-rule="evenodd" clip-rule="evenodd" d="M286.8 181.447C286.8 177.268 290.368 173.88 294.769 173.88H360.379C364.78 173.88 368.348 177.268 368.348 181.447C368.348 185.625 364.78 189.013 360.379 189.013H345.132C347.344 192.483 348.878 196.565 349.619 201.271H360.751C365.152 201.271 368.72 204.658 368.72 208.837C368.72 213.016 365.152 216.404 360.751 216.404H349.313C347.248 226.583 341.364 234.357 333.017 239.415C327.257 242.906 320.583 244.958 313.603 245.814L351.072 284.038C354.07 287.097 353.889 291.885 350.668 294.732C347.446 297.579 342.403 297.407 339.405 294.348L291.6 245.578C290.327 244.283 289.493 242.654 289.208 240.902C288.923 239.151 289.2 237.359 290.002 235.759C290.804 234.159 292.095 232.826 293.707 231.932C295.318 231.038 297.176 230.625 299.038 230.748L299.241 230.761L299.444 230.784C309.413 231.928 318.322 230.369 324.442 226.659C328.223 224.368 331.26 221.081 332.888 216.404H295.566C291.165 216.404 287.597 213.016 287.597 208.837C287.597 204.658 291.165 201.271 295.566 201.271H333.395C332.228 196.908 329.915 194.415 327.422 192.808C323.292 190.147 317.232 189.013 310.282 189.013H294.769C290.368 189.013 286.8 185.625 286.8 181.447ZM303.255 235.256C303.252 235.253 303.258 235.259 303.255 235.256Z" fill="currentColor"/>
<path d="M122.96 419.64V91.96H327.76V112.44H368.72V71.48C368.72 66.0484 366.562 60.8392 362.722 56.9985C358.881 53.1577 353.672 51 348.24 51H102.48C97.0484 51 91.8392 53.1577 87.9985 56.9985C84.1577 60.8392 82 66.0484 82 71.48V440.12C82 445.552 84.1577 450.761 87.9985 454.602C91.8392 458.442 97.0484 460.6 102.48 460.6H348.24C353.672 460.6 358.881 458.442 362.722 454.602C366.562 450.761 368.72 445.552 368.72 440.12V358.2H327.76V419.64H122.96Z" fill="currentColor"/>
<path d="M225.36 358.2C219.928 358.2 214.719 360.358 210.878 364.198C207.038 368.039 204.88 373.248 204.88 378.68C204.88 384.112 207.038 389.321 210.878 393.162C214.719 397.002 219.928 399.16 225.36 399.16C230.792 399.16 236.001 397.002 239.842 393.162C243.682 389.321 245.84 384.112 245.84 378.68C245.84 373.248 243.682 368.039 239.842 364.198C236.001 360.358 230.792 358.2 225.36 358.2Z" fill="currentColor"/>
</svg>
