<svg width="512" height="512" viewBox="0 0 512 512" fill="none" xmlns="http://www.w3.org/2000/svg">
<g clip-path="url(#clip0_549_7861)">
<path d="M426.667 362.667H469.333V405.333H42.6667V362.667H85.3333V213.333C85.3333 168.07 103.314 124.66 135.32 92.6538C167.327 60.6476 210.736 42.6667 256 42.6667C301.264 42.6667 344.673 60.6476 376.68 92.6538C408.686 124.66 426.667 168.07 426.667 213.333V362.667ZM384 362.667V213.333C384 179.386 370.514 146.828 346.51 122.824C322.505 98.819 289.948 85.3333 256 85.3333C222.052 85.3333 189.495 98.819 165.49 122.824C141.486 146.828 128 179.386 128 213.333V362.667H384ZM192 448H320V490.667H192V448Z" fill="white"/>
</g>
<defs>
<clipPath id="clip0_549_7861">
<rect width="512" height="512" fill="white"/>
</clipPath>
</defs>
</svg>
