<svg width="512" height="512" viewBox="0 0 512 512" fill="none" xmlns="http://www.w3.org/2000/svg">
<path d="M278 256H345.5L255.5 346L165.5 256H233V166H278V256ZM323 76H98V436H413V166H323V76ZM53 53.32C53 40.99 63.0575 31 75.4775 31H345.5L458 143.5V458.343C458.021 461.297 457.459 464.227 456.348 466.965C455.236 469.703 453.596 472.195 451.521 474.299C449.447 476.403 446.978 478.077 444.256 479.227C441.534 480.377 438.612 480.979 435.657 481H75.3425C69.4335 480.959 63.7779 478.595 59.5974 474.418C55.4169 470.242 53.0471 464.589 53 458.68V53.32Z" fill="currentColor"/>
</svg>
