<svg width="512" height="512" viewBox="0 0 512 512" fill="none" xmlns="http://www.w3.org/2000/svg">
<path d="M51 205.12V92.48C51 87.0484 53.1577 81.8392 56.9985 77.9985C60.8392 74.1577 66.0484 72 71.48 72H440.12C445.552 72 450.761 74.1577 454.602 77.9985C458.442 81.8392 460.6 87.0484 460.6 92.48V205.12C447.021 205.12 433.998 210.514 424.396 220.116C414.794 229.718 409.4 242.741 409.4 256.32C409.4 269.899 414.794 282.922 424.396 292.524C433.998 302.126 447.021 307.52 460.6 307.52V420.16C460.6 425.592 458.442 430.801 454.602 434.642C450.761 438.482 445.552 440.64 440.12 440.64H71.48C66.0484 440.64 60.8392 438.482 56.9985 434.642C53.1577 430.801 51 425.592 51 420.16V307.52C64.5791 307.52 77.602 302.126 87.2039 292.524C96.8057 282.922 102.2 269.899 102.2 256.32C102.2 242.741 96.8057 229.718 87.2039 220.116C77.602 210.514 64.5791 205.12 51 205.12V205.12ZM91.96 173.745C107.345 181.369 120.294 193.14 129.346 207.73C138.399 222.32 143.196 239.15 143.196 256.32C143.196 273.49 138.399 290.32 129.346 304.91C120.294 319.5 107.345 331.271 91.96 338.895V399.68H419.64V338.895C404.255 331.271 391.306 319.5 382.254 304.91C373.201 290.32 368.404 273.49 368.404 256.32C368.404 239.15 373.201 222.32 382.254 207.73C391.306 193.14 404.255 181.369 419.64 173.745V112.96H91.96V173.745ZM194.36 194.88H317.24V235.84H194.36V194.88ZM194.36 276.8H317.24V317.76H194.36V276.8Z" fill="currentColor"/>
</svg>
