<svg width="512" height="512" viewBox="0 0 512 512" fill="none" xmlns="http://www.w3.org/2000/svg">
<path d="M255.8 276.28C289.735 276.28 317.24 303.785 317.24 337.72C317.24 355.128 310.011 370.816 298.398 381.998L259.282 419.64H317.24V460.6H194.36V425.292L269.993 352.486C273.884 348.738 276.28 343.516 276.28 337.72C276.28 326.415 267.105 317.24 255.8 317.24C244.495 317.24 235.32 326.415 235.32 337.72H194.36C194.36 303.785 221.865 276.28 255.8 276.28ZM378.68 276.28V358.2H419.64V276.28H460.6V460.6H419.64V399.16H337.72V276.28H378.68ZM91.96 255.8C91.96 307.553 115.942 353.694 153.4 383.718V433.198C92.1853 397.788 51 331.617 51 255.8H91.96ZM255.8 51C361.989 51 449.316 131.835 459.576 235.32H418.37C408.294 154.506 339.358 91.96 255.8 91.96C199.48 91.96 149.796 120.366 120.325 163.64H173.88V204.6H51V81.72H91.96V132.92C129.316 83.1536 188.81 51 255.8 51Z" fill="currentColor"/>
</svg>
