<svg width="512" height="512" viewBox="0 0 512 512" fill="none" xmlns="http://www.w3.org/2000/svg">
<path d="M278.5 436V481H233.5V436H53.5C47.5326 436 41.8097 433.629 37.5901 429.41C33.3705 425.19 31 419.467 31 413.5V53.5001C31 47.5327 33.3705 41.8097 37.5901 37.5902C41.8097 33.3706 47.5326 31.0001 53.5 31.0001H188.5C201.271 30.9849 213.898 33.6946 225.538 38.9481C237.178 44.2017 247.563 51.8782 256 61.4651C264.437 51.8782 274.822 44.2017 286.462 38.9481C298.102 33.6946 310.729 30.9849 323.5 31.0001H458.5C464.467 31.0001 470.19 33.3706 474.41 37.5902C478.629 41.8097 481 47.5327 481 53.5001V413.5C481 419.467 478.629 425.19 474.41 429.41C470.19 433.629 464.467 436 458.5 436H278.5ZM436 391V76.0001H323.5C311.565 76.0001 300.119 80.7411 291.68 89.1803C283.241 97.6194 278.5 109.065 278.5 121V391H436ZM233.5 391V121C233.5 109.065 228.759 97.6194 220.32 89.1803C211.881 80.7411 200.435 76.0001 188.5 76.0001H76V391H233.5Z" fill="currentColor"/>
</svg>
