<svg width="512" height="512" viewBox="0 0 512 512" fill="none" xmlns="http://www.w3.org/2000/svg">
<path d="M358.72 337.72H399.68V91.96H194.88V132.92H358.72V337.72ZM358.72 378.68V440.12C358.72 451.425 349.504 460.6 338.097 460.6H92.6234C89.9226 460.616 87.2453 460.099 84.7452 459.077C82.2451 458.055 79.9715 456.549 78.0551 454.646C76.1387 452.743 74.6172 450.48 73.5781 447.987C72.5389 445.494 72.0026 442.821 72 440.12L72.0614 153.4C72.0614 142.095 81.2774 132.92 92.6848 132.92H153.92V71.48C153.92 66.0484 156.078 60.8392 159.918 56.9985C163.759 53.1577 168.968 51 174.4 51H420.16C425.592 51 430.801 53.1577 434.642 56.9985C438.482 60.8392 440.64 66.0484 440.64 71.48V358.2C440.64 363.632 438.482 368.841 434.642 372.682C430.801 376.522 425.592 378.68 420.16 378.68H358.72ZM113.021 173.88L112.96 419.64H317.76V173.88H113.021ZM153.92 337.72H246.08C248.796 337.72 251.4 336.641 253.321 334.721C255.241 332.8 256.32 330.196 256.32 327.48C256.32 324.764 255.241 322.16 253.321 320.239C251.4 318.319 248.796 317.24 246.08 317.24H184.64C171.061 317.24 158.038 311.846 148.436 302.244C138.834 292.642 133.44 279.619 133.44 266.04C133.44 252.461 138.834 239.438 148.436 229.836C158.038 220.234 171.061 214.84 184.64 214.84H194.88V194.36H235.84V214.84H276.8V255.8H184.64C181.924 255.8 179.32 256.879 177.399 258.799C175.479 260.72 174.4 263.324 174.4 266.04C174.4 268.756 175.479 271.36 177.399 273.281C179.32 275.201 181.924 276.28 184.64 276.28H246.08C259.659 276.28 272.682 281.674 282.284 291.276C291.886 300.878 297.28 313.901 297.28 327.48C297.28 341.059 291.886 354.082 282.284 363.684C272.682 373.286 259.659 378.68 246.08 378.68H235.84V399.16H194.88V378.68H153.92V337.72Z" fill="currentColor"/>
</svg>
