<svg width="512" height="512" viewBox="0 0 512 512" fill="none" xmlns="http://www.w3.org/2000/svg">
<path d="M266.241 86.888L245.29 123.179C185.693 105.177 132.363 113.963 113.993 145.809C89.8671 187.588 130.172 261.562 209.798 307.54C289.424 353.517 373.638 351.408 397.763 309.649C416.154 277.803 397.088 227.237 351.704 184.619L372.655 148.328C435.774 203.808 464.057 276.738 433.235 330.129C395.142 396.116 286.004 398.839 189.318 343.031C92.6319 287.162 40.4284 191.295 78.5212 125.329C109.344 71.9376 186.656 59.9568 266.241 86.888ZM335.422 49L370.894 69.48L268.494 246.837L233.022 226.357L335.422 49V49ZM147.989 422.289H358.278V463.249H112.866C109.21 463.322 105.603 462.409 102.421 460.607C99.239 458.806 96.6006 456.181 94.7823 453.009C92.9948 449.892 92.0543 446.362 92.0543 442.769C92.0543 439.176 92.9948 435.646 94.7823 432.529L140.862 352.718L176.334 373.198L147.989 422.289Z" fill="currentColor"/>
</svg>
