<svg width="512" height="512" viewBox="0 0 512 512" fill="none" xmlns="http://www.w3.org/2000/svg">
<path d="M121.922 100.828C159.084 68.6265 206.627 50.9316 255.8 51.0002C368.911 51.0002 460.6 142.689 460.6 255.8C460.6 299.545 446.878 340.096 423.531 373.355L358.2 255.8H419.64C419.643 223.68 410.204 192.267 392.497 165.468C374.79 138.669 349.597 117.666 320.049 105.07C290.502 92.474 257.904 88.8411 226.308 94.623C194.712 100.405 165.513 115.346 142.341 137.59L121.922 100.828ZM389.678 410.772C352.516 442.974 304.973 460.669 255.8 460.6C142.689 460.6 51 368.911 51 255.8C51 212.055 64.7216 171.505 88.0688 138.245L153.4 255.8H91.96C91.9574 287.921 101.396 319.333 119.103 346.132C136.81 372.931 162.003 393.935 191.551 406.53C221.098 419.126 253.696 422.759 285.292 416.977C316.888 411.196 346.087 396.254 369.259 374.011L389.678 410.772Z" fill="currentColor"/>
</svg>
