<svg width="512" height="512" viewBox="0 0 512 512" fill="none" xmlns="http://www.w3.org/2000/svg">
<path d="M92.44 112.96V338.24H420.12V112.96H92.44ZM51.48 92.6234C51.48 81.2365 60.7984 72 71.7962 72H440.764C451.987 72 461.08 81.1955 461.08 92.6234V379.2H51.48V92.6234ZM31 399.68H481.56V440.64H31V399.68Z" fill="currentColor"/>
<path d="M176.347 244.58C173.698 232.065 173.698 219.135 176.347 206.62C186.574 207.818 195.511 204.437 198.423 197.397C201.344 190.349 197.428 181.642 189.338 175.257C196.313 164.536 205.456 155.393 216.177 148.418C222.553 156.499 231.269 160.424 238.317 157.503C245.366 154.582 248.747 145.654 247.54 135.427C260.055 132.778 272.985 132.778 285.5 135.427C284.302 145.654 287.683 154.591 294.723 157.503C301.771 160.424 310.478 156.508 316.863 148.418C327.584 155.393 336.727 164.536 343.702 175.257C335.621 181.633 331.696 190.349 334.617 197.397C337.538 204.446 346.466 207.827 356.693 206.62C359.342 219.135 359.342 232.065 356.693 244.58C346.466 243.382 337.529 246.763 334.617 253.803C331.696 260.851 335.612 269.558 343.702 275.943C336.727 286.664 327.584 295.807 316.863 302.782C310.487 294.701 301.771 290.776 294.723 293.697C287.674 296.618 284.293 305.546 285.5 315.773C272.985 318.422 260.055 318.422 247.54 315.773C248.738 305.546 245.357 296.609 238.317 293.697C231.269 290.776 222.562 294.692 216.177 302.782C205.456 295.807 196.313 286.664 189.338 275.943C197.419 269.567 201.344 260.851 198.423 253.803C195.502 246.754 186.574 243.373 176.347 244.58ZM192.812 227.535C202.947 230.345 211.303 236.767 215.449 246.754C219.586 256.751 218.214 267.208 213.036 276.348C213.92 277.288 214.832 278.2 215.772 279.084C224.921 273.906 235.369 272.543 245.366 276.671C255.353 280.817 261.775 289.173 264.585 299.308C265.875 299.345 267.165 299.345 268.455 299.308C271.265 289.173 277.687 280.817 287.674 276.671C297.671 272.534 308.128 273.906 317.268 279.084C318.208 278.2 319.12 277.288 320.004 276.348C314.826 267.199 313.463 256.751 317.591 246.754C321.737 236.767 330.093 230.345 340.228 227.535C340.265 226.245 340.265 224.955 340.228 223.665C330.093 220.855 321.737 214.433 317.591 204.446C313.454 194.449 314.826 183.992 320.004 174.852C319.117 173.916 318.204 173.003 317.268 172.116C308.119 177.294 297.671 178.657 287.674 174.529C277.687 170.383 271.265 162.027 268.455 151.892C267.165 151.858 265.875 151.858 264.585 151.892C261.775 162.027 255.353 170.383 245.366 174.529C235.369 178.666 224.912 177.294 215.772 172.116C214.832 173 213.92 173.912 213.036 174.852C218.214 184.001 219.577 194.449 215.449 204.446C211.303 214.433 202.947 220.855 192.812 223.665C192.775 224.955 192.775 226.245 192.812 227.535ZM266.52 253.241C259.189 253.241 252.159 250.328 246.975 245.145C241.792 239.961 238.879 232.931 238.879 225.6C238.879 218.269 241.792 211.239 246.975 206.055C252.159 200.872 259.189 197.959 266.52 197.959C273.851 197.959 280.881 200.872 286.065 206.055C291.248 211.239 294.161 218.269 294.161 225.6C294.161 232.931 291.248 239.961 286.065 245.145C280.881 250.328 273.851 253.241 266.52 253.241ZM266.52 234.814C268.964 234.814 271.307 233.843 273.035 232.115C274.763 230.387 275.734 228.044 275.734 225.6C275.734 223.156 274.763 220.813 273.035 219.085C271.307 217.357 268.964 216.386 266.52 216.386C264.076 216.386 261.733 217.357 260.005 219.085C258.277 220.813 257.306 223.156 257.306 225.6C257.306 228.044 258.277 230.387 260.005 232.115C261.733 233.843 264.076 234.814 266.52 234.814Z" fill="currentColor"/>
</svg>
