<svg width="512" height="512" viewBox="0 0 512 512" fill="none" xmlns="http://www.w3.org/2000/svg">
<path d="M472.399 456.978C472.399 463.349 469.868 469.459 465.363 473.964C460.858 478.469 454.748 481 448.377 481H64.0222C57.6511 481 51.541 478.469 47.0359 473.964C42.5309 469.459 40 463.349 40 456.978V204.505C39.9975 200.844 40.8316 197.231 42.4386 193.942C44.0457 190.653 46.3832 187.775 49.2726 185.527L241.45 36.0613C245.667 32.781 250.857 31 256.2 31C261.542 31 266.732 32.781 270.949 36.0613L463.127 185.527C466.016 187.775 468.353 190.653 469.961 193.942C471.568 197.231 472.402 200.844 472.399 204.505V456.978V456.978ZM232.177 288.823V432.956H280.222V288.823H232.177Z" fill="currentColor"/>
</svg>
