<svg width="512" height="512" viewBox="0 0 512 512" fill="none" xmlns="http://www.w3.org/2000/svg">
<path d="M255.8 51C368.911 51 460.6 142.689 460.6 255.8C460.6 368.911 368.911 460.6 255.8 460.6C142.689 460.6 51 368.911 51 255.8H91.96C91.96 346.281 165.319 419.64 255.8 419.64C346.281 419.64 419.64 346.281 419.64 255.8C419.64 165.319 346.281 91.96 255.8 91.96C199.48 91.96 149.796 120.366 120.325 163.64H173.88V204.6H51V81.72H91.96V132.92C129.316 83.1536 188.81 51 255.8 51ZM276.28 153.4V247.301L342.697 313.717L313.717 342.697L235.32 264.258V153.4H276.28Z" fill="currentColor"/>
</svg>
