<svg width="512" height="512" viewBox="0 0 512 512" fill="none" xmlns="http://www.w3.org/2000/svg">
<path d="M227.84 296.24V337.2C195.25 337.2 163.995 350.146 140.951 373.191C117.906 396.235 104.96 427.49 104.96 460.08H64C64 416.627 81.2617 374.954 111.988 344.228C142.714 313.502 184.387 296.24 227.84 296.24V296.24ZM227.84 275.76C159.949 275.76 104.96 220.771 104.96 152.88C104.96 84.9888 159.949 30 227.84 30C295.731 30 350.72 84.9888 350.72 152.88C350.72 220.771 295.731 275.76 227.84 275.76ZM227.84 234.8C273.101 234.8 309.76 198.141 309.76 152.88C309.76 107.619 273.101 70.96 227.84 70.96C182.579 70.96 145.92 107.619 145.92 152.88C145.92 198.141 182.579 234.8 227.84 234.8ZM350.72 449.84L290.529 481.482L302.019 414.471L253.338 366.998L320.635 357.209L350.72 296.24L380.826 357.209L448.102 366.998L399.421 414.471L410.89 481.482L350.72 449.84Z" fill="currentColor"/>
</svg>
