<svg width="512" height="512" viewBox="0 0 512 512" fill="none" xmlns="http://www.w3.org/2000/svg">
<path d="M173.88 113.892V91.96H341.243L419.64 170.357V419.64H173.88V397.708C167.191 398.665 160.353 399.16 153.4 399.16C146.447 399.16 139.609 398.665 132.92 397.708V440.12C132.92 445.552 135.078 450.761 138.918 454.602C142.759 458.442 147.968 460.6 153.4 460.6H440.12C445.552 460.6 450.761 458.442 454.602 454.602C458.442 450.761 460.6 445.552 460.6 440.12V161.879C460.599 156.448 458.44 151.239 454.599 147.399L358.2 51H153.4C147.968 51 142.759 53.1577 138.918 56.9985C135.078 60.8392 132.92 66.0484 132.92 71.48V113.892C139.609 112.935 146.447 112.44 153.4 112.44C160.353 112.44 167.191 112.935 173.88 113.892Z" fill="currentColor"/>
<path d="M227.283 378.68C268.916 353.594 296.76 307.949 296.76 255.8H378.68V378.68H227.283Z" fill="currentColor"/>
<path d="M153.4 358.2C96.8445 358.2 51 312.356 51 255.8C51 199.244 96.8445 153.4 153.4 153.4C209.956 153.4 255.8 199.244 255.8 255.8C255.8 312.356 209.956 358.2 153.4 358.2ZM153.4 337.72C175.127 337.72 195.963 329.089 211.326 313.726C226.689 298.363 235.32 277.527 235.32 255.8C235.32 234.073 226.689 213.237 211.326 197.874C195.963 182.511 175.127 173.88 153.4 173.88C131.673 173.88 110.837 182.511 95.4738 197.874C80.1108 213.237 71.48 234.073 71.48 255.8C71.48 277.527 80.1108 298.363 95.4738 313.726C110.837 329.089 131.673 337.72 153.4 337.72ZM102.2 225.08L132.92 189.24L163.64 225.08H143.16V266.04H122.68V225.08H102.2ZM204.6 286.52L173.88 322.36L143.16 286.52H163.64V245.56H184.12V286.52H204.6Z" fill="currentColor"/>
</svg>
