<svg width="512" height="512" viewBox="0 0 512 512" fill="none" xmlns="http://www.w3.org/2000/svg">
<path d="M420.12 51C436.415 51 452.042 57.4731 463.565 68.9954C475.087 80.5176 481.56 96.1451 481.56 112.44V153.4H440.6V399.16C440.6 415.455 434.127 431.082 422.605 442.605C411.082 454.127 395.455 460.6 379.16 460.6H92.44C76.1451 460.6 60.5176 454.127 48.9954 442.605C37.4731 431.082 31 415.455 31 399.16V358.2H358.68V399.16C358.681 404.176 360.522 409.018 363.856 412.766C367.189 416.515 371.782 418.91 376.764 419.497L379.16 419.64C384.176 419.639 389.018 417.798 392.766 414.464C396.515 411.131 398.91 406.538 399.497 401.556L399.64 399.16V91.96H133.4C128.384 91.9607 123.542 93.8023 119.794 97.1356C116.045 100.469 113.65 105.062 113.063 110.044L112.92 112.44V317.24H71.96V112.44C71.96 96.1451 78.4331 80.5176 89.9554 68.9954C101.478 57.4731 117.105 51 133.4 51H420.12Z" fill="currentColor"/>
<path d="M174.36 132.92H338.2V237.37C338.2 254.752 329.08 271.011 313.879 280.65L256.28 317.24L198.681 280.65C191.229 275.946 185.105 269.531 180.86 261.979C176.614 254.428 174.381 245.978 174.36 237.388V132.92ZM210.769 237.37C210.769 242.919 213.718 248.151 218.706 251.329L256.28 275.207L293.854 251.329C296.274 249.82 298.266 247.754 299.652 245.317C301.037 242.88 301.773 240.149 301.791 237.37V168.035H210.769V237.37Z" fill="currentColor"/>
</svg>
