<svg width="512" height="512" viewBox="0 0 512 512" fill="none" xmlns="http://www.w3.org/2000/svg">
<path d="M354.215 195.913L317.72 225.32V69.8821C317.72 67.6537 318.583 65.5166 320.119 63.9409C321.656 62.3652 323.739 61.48 325.912 61.48H473.368C475.541 61.48 477.624 62.3652 479.161 63.9409C480.697 65.5166 481.56 67.6537 481.56 69.8821V187.511C481.56 189.739 480.697 191.876 479.161 193.452C477.624 195.028 475.541 195.913 473.368 195.913H354.215ZM334.104 190.746L348.546 179.109H465.176V78.2841H334.104V190.746ZM391.448 145.501H407.832V162.305H391.448V145.501ZM391.448 95.0882H407.832V137.098H391.448V95.0882Z" fill="currentColor"/>
<path d="M245.487 245.8C231.908 245.8 218.885 240.406 209.283 230.804C199.681 221.202 194.287 208.179 194.287 194.6C194.287 181.021 199.681 167.998 209.283 158.396C218.885 148.794 231.908 143.4 245.487 143.4C259.066 143.4 272.089 148.794 281.691 158.396C291.293 167.998 296.687 181.021 296.687 194.6C296.687 208.179 291.293 221.202 281.691 230.804C272.089 240.406 259.066 245.8 245.487 245.8ZM153.88 348.2C156.363 325.639 167.083 304.788 183.987 289.642C200.891 274.496 222.79 266.12 245.487 266.12C268.184 266.12 290.083 274.496 306.987 289.642C323.891 304.788 334.611 325.639 337.094 348.2H153.88Z" fill="currentColor"/>
<path d="M276.76 43.1777C266.727 41.7426 256.47 41 246.04 41C127.277 41 31 137.277 31 256.04C31 374.803 127.277 471.08 246.04 471.08C364.803 471.08 461.08 374.803 461.08 256.04C461.08 252.607 461 249.193 460.84 245.8H419.824C420.02 249.188 420.12 252.602 420.12 256.04C420.12 352.182 342.182 430.12 246.04 430.12C149.898 430.12 71.96 352.182 71.96 256.04C71.96 159.898 149.898 81.96 246.04 81.96C256.522 81.96 266.788 82.8865 276.76 84.662V43.1777Z" fill="currentColor"/>
</svg>
