<svg width="512" height="512" viewBox="0 0 512 512" fill="none" xmlns="http://www.w3.org/2000/svg">
<path d="M416.328 358.2H258.632C249.67 358.2 241.075 354.64 234.737 348.303C228.4 341.965 224.84 333.37 224.84 324.408V144.184C224.84 141.197 226.027 138.332 228.139 136.219C230.252 134.107 233.117 132.92 236.104 132.92H393.8C396.787 132.92 399.652 134.107 401.765 136.219C403.877 138.332 405.064 141.197 405.064 144.184V279.352H450.12V324.408C450.12 333.37 446.56 341.965 440.223 348.303C433.885 354.64 425.29 358.2 416.328 358.2ZM405.064 301.88V324.408C405.064 327.395 406.251 330.26 408.363 332.373C410.476 334.485 413.341 335.672 416.328 335.672C419.315 335.672 422.18 334.485 424.293 332.373C426.405 330.26 427.592 327.395 427.592 324.408V301.88H405.064ZM382.536 335.672V155.448H247.368V324.408C247.368 327.395 248.555 330.26 250.667 332.373C252.78 334.485 255.645 335.672 258.632 335.672H382.536ZM269.896 189.24H360.008V211.768H269.896V189.24ZM269.896 234.296H360.008V256.824H269.896V234.296ZM269.896 279.352H326.216V301.88H269.896V279.352Z" fill="currentColor"/>
<path d="M101.96 419.64V91.96H306.76V112.851L347.72 112.442V71.48C347.72 66.0484 345.562 60.8392 341.722 56.9985C337.881 53.1577 332.672 51 327.24 51H81.48C76.0484 51 70.8392 53.1577 66.9985 56.9985C63.1577 60.8392 61 66.0484 61 71.48V440.12C61 445.552 63.1577 450.761 66.9985 454.602C70.8392 458.442 76.0484 460.6 81.48 460.6H327.24C332.672 460.6 337.881 458.442 341.722 454.602C345.562 450.761 347.72 445.552 347.72 440.12V381.513L306.76 381.472V419.64H101.96Z" fill="currentColor"/>
<path d="M218.842 364.198C215.001 360.358 209.792 358.2 204.36 358.2C198.928 358.2 193.719 360.358 189.878 364.198C186.038 368.039 183.88 373.248 183.88 378.68C183.88 384.112 186.038 389.321 189.878 393.162C193.719 397.002 198.928 399.16 204.36 399.16C209.792 399.16 215.001 397.002 218.842 393.162C222.682 389.321 224.84 384.112 224.84 378.68C224.84 373.248 222.682 368.039 218.842 364.198Z" fill="currentColor"/>
</svg>
