<svg width="512" height="512" viewBox="0 0 512 512" fill="none" xmlns="http://www.w3.org/2000/svg">
<g clip-path="url(#clip0_549_7852)">
<path d="M64 42.6667H405.44C428.949 42.6667 448 61.824 448 85.12V426.88C448 450.325 428.949 469.333 405.44 469.333H64V42.6667ZM149.333 85.3333H106.667V426.667H149.333V85.3333ZM192 426.667H405.333V85.3333H192V426.667ZM234.667 341.333C234.667 324.359 241.41 308.081 253.412 296.078C265.414 284.076 281.693 277.333 298.667 277.333C315.641 277.333 331.919 284.076 343.922 296.078C355.924 308.081 362.667 324.359 362.667 341.333H234.667ZM298.667 256C287.351 256 276.498 251.505 268.497 243.503C260.495 235.502 256 224.649 256 213.333C256 202.017 260.495 191.165 268.497 183.163C276.498 175.162 287.351 170.667 298.667 170.667C309.983 170.667 320.835 175.162 328.837 183.163C336.838 191.165 341.333 202.017 341.333 213.333C341.333 224.649 336.838 235.502 328.837 243.503C320.835 251.505 309.983 256 298.667 256ZM469.333 128H512V213.333H469.333V128ZM469.333 256H512V341.333H469.333V256Z" fill="black"/>
</g>
<defs>
<clipPath id="clip0_549_7852">
<rect width="512" height="512" fill="white"/>
</clipPath>
</defs>
</svg>
