<svg width="512" height="512" viewBox="0 0 512 512" fill="none" xmlns="http://www.w3.org/2000/svg">
<path d="M128.066 342.72H419.64V96.96H91.96V371.085L128.066 342.72ZM142.238 383.68L51 455.36V76.48C51 71.0484 53.1577 65.8392 56.9985 61.9985C60.8392 58.1577 66.0484 56 71.48 56H440.12C445.552 56 450.761 58.1577 454.602 61.9985C458.442 65.8392 460.6 71.0484 460.6 76.48V363.2C460.6 368.632 458.442 373.841 454.602 377.682C450.761 381.522 445.552 383.68 440.12 383.68H142.238ZM235.32 281.28H276.28V322.24H235.32V281.28ZM185.492 175.05C188.153 161.734 194.541 149.447 203.912 139.619C213.283 129.792 225.252 122.827 238.427 119.536C251.602 116.245 265.44 116.764 278.332 121.03C291.224 125.297 302.639 133.137 311.249 143.638C319.859 154.139 325.31 166.87 326.967 180.348C328.625 193.826 326.421 207.497 320.612 219.771C314.803 232.046 305.627 242.418 294.154 249.681C282.68 256.945 269.38 260.801 255.8 260.8H235.32V219.84H255.8C261.618 219.84 267.316 218.187 272.232 215.075C277.147 211.963 281.078 207.519 283.566 202.26C286.055 197.001 286.999 191.143 286.288 185.369C285.578 179.595 283.242 174.141 279.553 169.642C275.864 165.143 270.974 161.784 265.451 159.956C259.927 158.128 253.999 157.906 248.354 159.316C242.709 160.725 237.581 163.709 233.566 167.919C229.551 172.13 226.814 177.394 225.674 183.099L185.492 175.05V175.05Z" fill="currentColor"/>
</svg>
