<svg width="512" height="512" viewBox="0 0 512 512" fill="none" xmlns="http://www.w3.org/2000/svg">
<path d="M399.16 460.6H112.44C96.1451 460.6 80.5176 454.127 68.9954 442.605C57.4731 431.082 51 415.455 51 399.16V71.48C51 66.0484 53.1577 60.8392 56.9985 56.9985C60.8392 53.1577 66.0484 51 71.48 51H358.2C363.632 51 368.841 53.1577 372.682 56.9985C376.522 60.8392 378.68 66.0484 378.68 71.48V317.24H460.6V399.16C460.6 415.455 454.127 431.082 442.605 442.605C431.082 454.127 415.455 460.6 399.16 460.6ZM378.68 358.2V399.16C378.68 404.592 380.838 409.801 384.678 413.642C388.519 417.482 393.728 419.64 399.16 419.64C404.592 419.64 409.801 417.482 413.642 413.642C417.482 409.801 419.64 404.592 419.64 399.16V358.2H378.68ZM337.72 419.64V91.96H91.96V399.16C91.96 404.592 94.1177 409.801 97.9585 413.642C101.799 417.482 107.008 419.64 112.44 419.64H337.72ZM132.92 153.4H296.76V194.36H132.92V153.4ZM132.92 235.32H296.76V276.28H132.92V235.32ZM132.92 317.24H235.32V358.2H132.92V317.24Z" fill="currentColor"/>
</svg>
