<svg width="512" height="512" viewBox="0 0 512 512" fill="none" xmlns="http://www.w3.org/2000/svg">
<path d="M124.75 349.5C72.9719 349.5 31 307.528 31 255.75C31 203.972 72.9719 162 124.75 162C176.528 162 218.5 203.972 218.5 255.75C218.5 307.528 176.528 349.5 124.75 349.5ZM124.75 330.75C144.641 330.75 163.718 322.848 177.783 308.783C191.848 294.718 199.75 275.641 199.75 255.75C199.75 235.859 191.848 216.782 177.783 202.717C163.718 188.652 144.641 180.75 124.75 180.75C104.859 180.75 85.7822 188.652 71.717 202.717C57.6518 216.782 49.75 235.859 49.75 255.75C49.75 275.641 57.6518 294.718 71.717 308.783C85.7822 322.848 104.859 330.75 124.75 330.75Z" fill="currentColor"/>
<path d="M462.25 87H124.75C119.777 87 115.008 88.9754 111.492 92.4917C107.975 96.0081 106 100.777 106 105.75V143.25H143.5V124.5H443.5V199.5H237.25V237H443.5V387H143.5V368.25H106V405.75C106 410.723 107.975 415.492 111.492 419.008C115.008 422.525 119.777 424.5 124.75 424.5H462.25C467.223 424.5 471.992 422.525 475.508 419.008C479.025 415.492 481 410.723 481 405.75V105.75C481 100.777 479.025 96.0081 475.508 92.4917C471.992 88.9754 467.223 87 462.25 87Z" fill="currentColor"/>
<path d="M406 312H331V349.5H406V312Z" fill="currentColor"/>
<path d="M124.75 233.256L158.49 199.5L181 222.01L147.244 255.75L181 289.49L158.49 312L124.75 278.244L91.0095 312L68.5 289.49L102.256 255.75L68.5 222.01L91.0095 199.5L124.75 233.256Z" fill="currentColor"/>
</svg>
