<svg width="512" height="512" viewBox="0 0 512 512" fill="none" xmlns="http://www.w3.org/2000/svg">
<path fill-rule="evenodd" clip-rule="evenodd" d="M40.96 163.84C40.96 220.396 86.8045 266.24 143.36 266.24C199.916 266.24 245.76 220.396 245.76 163.84C245.76 107.285 199.916 61.4404 143.36 61.4404C86.8045 61.4404 40.96 107.285 40.96 163.84ZM201.286 221.767C185.923 237.13 165.087 245.76 143.36 245.76C121.633 245.76 100.797 237.13 85.4338 221.767C70.0709 206.404 61.44 185.567 61.44 163.84C61.44 142.114 70.0709 121.277 85.4338 105.914C100.797 90.5513 121.633 81.9204 143.36 81.9204C165.087 81.9204 185.923 90.5513 201.286 105.914C216.649 121.277 225.28 142.114 225.28 163.84C225.28 185.567 216.649 206.404 201.286 221.767Z" fill="currentColor"/>
<path d="M234.951 245.76C245.529 233.942 253.853 220.063 259.248 204.8H430.08V122.88H259.248C253.853 107.618 245.529 93.7394 234.951 81.9204H450.56C455.992 81.9204 461.201 84.0781 465.042 87.9189C468.882 91.7596 471.04 96.9688 471.04 102.4V430.08C471.04 435.512 468.882 440.721 465.042 444.562C461.201 448.403 455.992 450.56 450.56 450.56H81.92C76.4884 450.56 71.2792 448.403 67.4385 444.562C63.5977 440.721 61.44 435.512 61.44 430.08V255.431C73.2589 266.01 87.1375 274.334 102.4 279.728V409.6H430.08V245.76H234.951Z" fill="currentColor"/>
<path d="M307.2 327.68H389.12V368.64H307.2V327.68Z" fill="currentColor"/>
<path fill-rule="evenodd" clip-rule="evenodd" d="M102.4 109.967C102.4 105.788 105.968 102.4 110.369 102.4H175.979C180.38 102.4 183.948 105.788 183.948 109.967C183.948 114.146 180.38 117.533 175.979 117.533H160.732C162.944 121.004 164.478 125.085 165.219 129.791H176.351C180.752 129.791 184.32 133.179 184.32 137.358C184.32 141.537 180.752 144.924 176.351 144.924H164.913C162.848 155.104 156.964 162.877 148.617 167.936C142.857 171.427 136.183 173.479 129.203 174.334L166.672 212.559C169.67 215.618 169.489 220.406 166.268 223.253C163.046 226.1 158.004 225.928 155.005 222.869L107.2 174.098C105.927 172.803 105.093 171.174 104.808 169.423C104.523 167.671 104.8 165.879 105.602 164.279C106.404 162.68 107.695 161.346 109.307 160.452C110.918 159.558 112.776 159.146 114.638 159.268L114.841 159.281L115.044 159.305C125.013 160.449 133.922 158.889 140.042 155.18C143.823 152.889 146.86 149.602 148.488 144.924H111.166C106.765 144.924 103.197 141.537 103.197 137.358C103.197 133.179 106.765 129.791 111.166 129.791H148.995C147.828 125.428 145.515 122.935 143.022 121.329C138.892 118.667 132.832 117.533 125.882 117.533H110.369C105.968 117.533 102.4 114.146 102.4 109.967ZM118.864 163.786C118.867 163.789 118.861 163.783 118.864 163.786Z" fill="currentColor"/>
</svg>
