<svg width="512" height="512" viewBox="0 0 512 512" fill="none" xmlns="http://www.w3.org/2000/svg">
<path d="M92.44 72H461.08C466.512 72 471.721 74.1577 475.562 77.9985C479.402 81.8392 481.56 87.0484 481.56 92.48V420.16C481.56 425.592 479.402 430.801 475.562 434.642C471.721 438.482 466.512 440.64 461.08 440.64H92.44C87.0084 440.64 81.7992 438.482 77.9585 434.642C74.1177 430.801 71.96 425.592 71.96 420.16V379.2H112.92V399.68H440.6V235.84H235.8V194.88H440.6V112.96H112.92V133.44H71.96V92.48C71.96 87.0484 74.1177 81.8392 77.9585 77.9985C81.7992 74.1577 87.0084 72 92.44 72Z" fill="currentColor"/>
<path d="M317.72 317.76H399.64V358.72H317.72V317.76Z" fill="currentColor"/>
<path fill-rule="evenodd" clip-rule="evenodd" d="M203.218 231.496H195.771V220.414C195.771 202.778 188.121 185.865 174.504 173.396C160.886 160.926 142.418 153.92 123.16 153.92C103.902 153.92 85.4335 160.926 71.8163 173.396C58.1991 185.865 50.5491 202.778 50.5491 220.414V231.496H43.1018C39.8922 231.496 36.8141 232.663 34.5445 234.742C32.275 236.82 31 239.639 31 242.578V347.638C31 350.577 32.275 353.396 34.5445 355.474C36.8141 357.552 39.8922 358.72 43.1018 358.72H203.218C206.428 358.72 209.506 357.552 211.775 355.474C214.045 353.396 215.32 350.577 215.32 347.638V242.578C215.32 239.639 214.045 236.82 211.775 234.742C209.506 232.663 206.428 231.496 203.218 231.496ZM55.2036 336.556V253.66H191.116V336.556H55.2036ZM171.567 220.414V231.496H74.7527V220.414C74.7527 208.657 79.8528 197.381 88.9309 189.068C98.009 180.755 110.322 176.085 123.16 176.085C135.998 176.085 148.311 180.755 157.389 189.068C166.467 197.381 171.567 208.657 171.567 220.414Z" fill="currentColor"/>
</svg>
