<svg width="512" height="512" viewBox="0 0 512 512" fill="none" xmlns="http://www.w3.org/2000/svg">
<path d="M256.2 42L339.513 163.894L481.2 205.471L391.007 322.378L395.245 469.959L256.2 420.319L117.155 469.959L121.393 322.378L31.2 205.471L172.887 163.894L256.2 42ZM256.2 111.868L197.491 197.783L97.6373 227.059L161.216 309.425L158.2 413.419L256.2 378.445L354.18 413.419L351.184 309.425L414.743 227.059L314.909 197.783L256.2 111.868V111.868ZM216.771 268.715C216.771 279.172 220.925 289.201 228.32 296.595C235.714 303.99 245.743 308.144 256.2 308.144C266.657 308.144 276.686 303.99 284.08 296.595C291.475 289.201 295.629 279.172 295.629 268.715H335.057C335.057 289.629 326.749 309.687 311.961 324.476C297.172 339.264 277.114 347.573 256.2 347.573C235.286 347.573 215.228 339.264 200.439 324.476C185.651 309.687 177.343 289.629 177.343 268.715H216.771Z" fill="currentColor"/>
</svg>
