<svg width="512" height="512" viewBox="0 0 512 512" fill="none" xmlns="http://www.w3.org/2000/svg">
<path d="M224.84 51L374.303 97.6944C378.472 98.9958 382.115 101.595 384.701 105.114C387.288 108.633 388.682 112.886 388.68 117.253V153.4H429.64C435.072 153.4 440.281 155.558 444.122 159.398C447.962 163.239 450.12 168.448 450.12 173.88V337.72C450.12 343.152 447.962 348.361 444.122 352.202C440.281 356.042 435.072 358.2 429.64 358.2L363.694 358.22C355.769 368.665 346.143 377.881 335.022 385.459L224.84 460.6L114.658 385.479C98.1205 374.204 84.5879 359.06 75.2365 341.364C65.8851 323.667 60.9979 303.955 61 283.94V117.253C61.0025 112.889 62.3985 108.641 64.9846 105.126C67.5708 101.612 71.2118 99.0152 75.377 97.7149L224.84 51ZM224.84 93.8851L101.96 132.306V283.94C101.957 296.478 104.832 308.85 110.364 320.102C115.896 331.354 123.937 341.186 133.868 348.841L137.739 351.626L224.84 411.038L302.295 358.2H204.36C198.928 358.2 193.719 356.042 189.878 352.202C186.038 348.361 183.88 343.152 183.88 337.72V173.88C183.88 168.448 186.038 163.239 189.878 159.398C193.719 155.558 198.928 153.4 204.36 153.4H347.72V132.306L224.84 93.8851ZM224.84 255.8V317.24H409.16V255.8H224.84ZM224.84 214.84H409.16V194.36H224.84V214.84Z" fill="currentColor"/>
</svg>
