<svg width="512" height="512" viewBox="0 0 512 512" fill="none" xmlns="http://www.w3.org/2000/svg">
<path d="M461.08 72H92.44C87.0084 72 81.7992 74.1577 77.9585 77.9985C74.1177 81.8392 71.96 87.0484 71.96 92.48V133.44H112.92V112.96H440.6V194.88H235.8V235.84H440.6V399.68H112.92V379.2H71.96V420.16C71.96 425.592 74.1177 430.801 77.9585 434.642C81.7992 438.482 87.0084 440.64 92.44 440.64H461.08C466.512 440.64 471.721 438.482 475.562 434.642C479.402 430.801 481.56 425.592 481.56 420.16V92.48C481.56 87.0484 479.402 81.8392 475.562 77.9985C471.721 74.1577 466.512 72 461.08 72Z" fill="currentColor"/>
<path d="M399.64 317.76H317.72V358.72H399.64V317.76Z" fill="currentColor"/>
<path fill-rule="evenodd" clip-rule="evenodd" d="M74.7527 256.32V220.414C74.7527 208.657 79.8528 197.381 88.9309 189.068C98.009 180.755 110.322 176.085 123.16 176.085C135.998 176.085 148.311 180.755 157.389 189.068C165.157 196.182 170.012 205.463 171.252 215.36H195.561C194.248 199.573 186.814 184.669 174.504 173.396C160.886 160.926 142.418 153.92 123.16 153.92C103.902 153.92 85.4335 160.926 71.8163 173.396C58.1991 185.865 50.5491 202.778 50.5491 220.414V256.32H43.1018C39.8922 256.32 36.8141 257.488 34.5445 259.566C32.275 261.644 31 264.463 31 267.402V347.638C31 350.577 32.275 353.396 34.5445 355.474C36.8141 357.552 39.8922 358.72 43.1018 358.72H203.218C206.428 358.72 209.506 357.552 211.775 355.474C214.045 353.396 215.32 350.577 215.32 347.638V267.402C215.32 264.463 214.045 261.644 211.775 259.566C209.506 257.488 206.428 256.32 203.218 256.32H74.7527ZM55.2036 276.8V336.556H191.116V276.8H55.2036Z" fill="currentColor"/>
</svg>
