<svg width="512" height="406" viewBox="0 0 512 406" fill="none" xmlns="http://www.w3.org/2000/svg">
<path fill-rule="evenodd" clip-rule="evenodd" d="M368.241 203.442C368.518 207.482 368.352 211.923 368.241 216.171C368.241 214.482 368.241 206.858 368.241 203.442ZM448.531 193.935C432.307 210.368 415.948 226.666 399.228 243.488C391.272 251.714 383.054 259.677 374.555 268.242C370.806 272.438 366.557 276.131 362.291 280.328C358.112 285.903 344.468 284.232 340.731 280.3C332.328 263.726 338.801 238.91 335.678 219.402C302.527 219.402 269.377 219.402 235.347 219.402C218.918 219.402 202.49 219.402 184.859 219.348C170.852 219.079 146.7 222.639 144.081 207.895C142.432 198.748 143.002 189.601 143.816 179.569C144.257 178.241 143.376 178.241 140.503 179.777C117.221 203.275 93.8437 226.678 69.6815 251.477C93.5515 275.565 117.513 299.559 141.383 323.647L143.383 323.597C142.753 313.04 141.57 297.357 146.993 289.616C152.611 281.252 169.449 284.739 179.61 283.961C205.13 284.021 229.479 284.021 253.829 284.021C269.101 286.072 290.061 279.698 300.408 289.079C305.709 292.726 304.978 308.091 299.969 310.905C295.425 317.889 281.501 315.448 272.482 315.909C261.162 315.888 250.895 315.888 240.627 315.888C218.918 315.888 198.089 315.888 177.26 315.888C174.767 316.036 175.793 317.954 175.5 318.544C175.5 329.757 175.5 340.083 175.5 350.411C176.255 360.669 175.987 374.79 168.842 377.412C165.619 381.047 155.948 382.385 151.428 378.804C145.891 374.88 141.984 369.958 137.442 365.674C131.149 359.316 125.282 353.414 119.364 347.564C94.7247 322.775 70.5748 298.379 46.3326 274.076C40.3435 265.818 29.1742 263.483 31.2548 246.479C39.7591 234.539 50.4805 226.143 59.4258 215.961C69.458 205.986 79.1197 196.526 88.5596 186.841C108.092 167.243 127.162 148.064 146.246 128.901C148.437 121.61 166.727 119.652 170.87 127.1C177.489 132.649 175.063 146.563 175.52 155.439C175.797 166.582 175.033 177.678 175.819 187.214C224.933 186.674 272.726 186.652 320.463 186.65C333.749 187.256 347.032 185.156 360.276 189.24C361.238 189.49 362.08 189.872 362.832 190.352C363.299 190.667 363.731 191.013 364.137 191.38C365.797 192.978 366.834 195.246 367.465 197.926C367.477 198.022 367.499 198.111 367.509 198.209C367.999 204.885 368.158 211.186 368.212 217.366C368.158 219.745 368.136 222.044 368.24 224.152C368.24 224.93 368.241 225.707 368.241 226.484H370.881C370.881 226.484 370.881 226.484 371.088 225.807C394.451 202.39 417.719 178.877 441.082 155.461C441.289 155.669 441.289 153.013 441.289 153.013C441.289 153.013 441.289 153.013 440.616 152.805C417.334 129.307 393.957 105.904 370.675 82.4056C370.881 82.1976 368.241 82.1976 368.241 82.1976C368.241 91.3443 368.241 100.492 367.528 110.49C367.46 111.293 367.317 112.037 367.118 111.94C366.097 115.881 363.654 118.25 360.282 119.855C355.681 121.819 349.421 122.306 343.051 122.324C342.066 122.253 341.075 122.16 340.078 122.031C312.524 122.031 284.97 122.031 257.415 122.031C253.321 121.715 248.618 121.858 243.763 122.031C239.197 122.031 234.632 122.031 230.066 122.031C230.066 122.031 230.066 122.21 230.066 122.211C216.863 121.713 206.09 118.091 208.332 101.495C210.454 95.7738 213.136 92.7066 219.505 89.8758C257.936 88.4869 296.366 89.7704 336.306 89.9112C336.928 76.6696 336.319 62.1887 336.566 48.1018C335.675 33.0066 339.969 27.3466 353.28 25C364.866 26.4482 366.068 33.5536 372.852 38.6116C391.644 57.4795 410.419 76.3633 429.66 95.6649C438.803 105.058 448.176 114.219 458.236 123.514C465.018 136.008 480.798 137.769 481 160.031C471.435 172.67 459.375 181.955 448.531 193.935ZM368.314 225.345C368.241 226.484 368.241 226.484 368.241 226.484C368.241 226.484 368.241 224.241 368.241 224.167C368.26 224.567 368.285 224.96 368.314 225.345Z" fill="currentColor"/>
</svg>
