<svg width="25" height="25" viewBox="0 0 25 25" fill="none" xmlns="http://www.w3.org/2000/svg">
<g clip-path="url(#clip0_2831_9500)">
<path d="M17.9253 15.6309C17.5561 15.6309 17.2578 15.9292 17.2578 16.2984V19.5536C17.2578 19.9228 17.5561 20.2211 17.9253 20.2211C18.2946 20.2211 18.5929 19.9228 18.5929 19.5536V16.2984C18.5929 15.9292 18.2946 15.6309 17.9253 15.6309Z" fill="currentColor" stroke="currentColor" stroke-width="0.25"/>
<path d="M4.93521 14.6403L4.93501 14.6401C4.80985 14.5151 4.64018 14.4448 4.46328 14.4448C4.28639 14.4448 4.11672 14.5151 3.99156 14.6401L3.9915 14.6401L1.17759 17.454C1.17758 17.4541 1.17757 17.4541 1.17756 17.4541C1.11558 17.516 1.06642 17.5895 1.03288 17.6705C0.999325 17.7514 0.982056 17.8382 0.982056 17.9259C0.982056 18.0135 0.999325 18.1003 1.03288 18.1812C1.06642 18.2622 1.11558 18.3357 1.17756 18.3976C1.17757 18.3976 1.17758 18.3977 1.17759 18.3977L3.9915 21.2116C4.12251 21.3426 4.29212 21.4073 4.46328 21.4073C4.63365 21.4073 4.80558 21.3431 4.93547 21.2112C5.06026 21.086 5.13034 20.9165 5.13034 20.7398C5.13034 20.5629 5.06013 20.3932 4.93512 20.2681L4.93506 20.268L3.26043 18.5934H8.88313C9.25237 18.5934 9.55067 18.2951 9.55067 17.9259C9.55067 17.5566 9.25237 17.2583 8.88313 17.2583H3.26043L4.93298 15.5858C4.93304 15.5857 4.93309 15.5857 4.93315 15.5856C4.99536 15.5237 5.04477 15.4502 5.07857 15.3692C5.11239 15.2882 5.12991 15.2013 5.13012 15.1135C5.13032 15.0257 5.11322 14.9387 5.07977 14.8575C5.04633 14.7763 4.9972 14.7025 4.93521 14.6403ZM17.9254 11.833C14.565 11.833 11.8325 14.5654 11.8325 17.9259C11.8325 21.2863 14.565 24.0187 17.9254 24.0187C21.2858 24.0187 24.0183 21.2863 24.0183 17.9259C24.0183 14.5654 21.2858 11.833 17.9254 11.833ZM17.9254 22.6837C15.3016 22.6837 13.1676 20.5496 13.1676 17.9259C13.1676 15.3021 15.3016 13.168 17.9254 13.168C20.5491 13.168 22.6832 15.3021 22.6832 17.9259C22.6832 20.5496 20.5491 22.6837 17.9254 22.6837ZM7.07469 4.88672C6.70545 4.88672 6.40715 5.18502 6.40715 5.55425V8.80946C6.40715 9.1787 6.70545 9.477 7.07469 9.477C7.44392 9.477 7.74222 9.1787 7.74222 8.80946V5.55425C7.74222 5.18502 7.44392 4.88672 7.07469 4.88672Z" fill="currentColor" stroke="currentColor" stroke-width="0.25"/>
<path d="M20.0651 3.89499L20.065 3.8951C19.9399 4.02027 19.8697 4.18993 19.8697 4.36683C19.8697 4.54372 19.9399 4.71339 20.065 4.83855L20.065 4.83861L21.7378 6.51143H16.1169C15.7477 6.51143 15.4494 6.80973 15.4494 7.17896C15.4494 7.5482 15.7477 7.8465 16.1169 7.8465H21.7398L20.0668 9.52117L20.0668 9.52119C19.9735 9.61454 19.91 9.73343 19.8843 9.86284C19.8586 9.99226 19.8718 10.1264 19.9223 10.2483C19.9728 10.3702 20.0583 10.4744 20.1679 10.5478C20.2776 10.6211 20.4065 10.6603 20.5385 10.6604H20.5386C20.7089 10.6604 20.8808 10.5962 21.0107 10.4643C21.0109 10.4642 21.011 10.4641 21.0111 10.4639L23.8243 7.65074C23.9489 7.52614 24.0201 7.35514 24.0201 7.17896C24.0201 7.00076 23.9488 6.83163 23.8243 6.70718L23.8243 6.70713L21.0085 3.89499C20.8833 3.76998 20.7137 3.69977 20.5368 3.69977C20.3599 3.69977 20.1902 3.76998 20.0651 3.89499ZM7.07469 1.08789C3.71428 1.08789 0.981812 3.82036 0.981812 7.18077C0.981812 10.5412 3.71428 13.2737 7.07469 13.2737C10.4351 13.2737 13.1676 10.5412 13.1676 7.18077C13.1676 3.82036 10.4351 1.08789 7.07469 1.08789ZM7.07469 11.9386C4.45095 11.9386 2.31688 9.80452 2.31688 7.18077C2.31688 4.55703 4.45095 2.42296 7.07469 2.42296C9.69844 2.42296 11.8325 4.55703 11.8325 7.18077C11.8325 9.80452 9.69844 11.9386 7.07469 11.9386Z" fill="currentColor" stroke="currentColor" stroke-width="0.25"/>
</g>
<defs>
<clipPath id="clip0_2831_9500">
<rect width="25" height="25" fill="white"/>
</clipPath>
</defs>
</svg>
