<svg width="20" height="20" viewBox="0 0 20 20" fill="none" xmlns="http://www.w3.org/2000/svg">
<g clip-path="url(#clip0_4060_11155)">
<path d="M17.0626 2.9392C15.0251 0.901699 12.1376 -0.273301 8.96259 0.0516993C4.37509 0.514199 0.600088 4.2392 0.0875877 8.8267C-0.599912 14.8892 4.08759 20.0017 10.0001 20.0017C13.9876 20.0017 17.4126 17.6642 19.0126 14.3017C19.4126 13.4642 18.8126 12.5017 17.8876 12.5017C17.4251 12.5017 16.9876 12.7517 16.7876 13.1642C15.3751 16.2017 11.9876 18.1267 8.28759 17.3017C5.51259 16.6892 3.27509 14.4267 2.68759 11.6517C1.63759 6.8017 5.32509 2.5017 10.0001 2.5017C12.0751 2.5017 13.9251 3.3642 15.2751 4.7267L13.3876 6.6142C12.6001 7.4017 13.1501 8.7517 14.2626 8.7517H18.7501C19.4376 8.7517 20.0001 8.1892 20.0001 7.5017V3.0142C20.0001 1.9017 18.6501 1.3392 17.8626 2.1267L17.0626 2.9392Z" fill="white"/>
</g>
<defs>
<clipPath id="clip0_4060_11155">
<rect width="20" height="20" fill="white"/>
</clipPath>
</defs>
</svg>
