<svg width="25" height="25" viewBox="0 0 25 25" fill="none" xmlns="http://www.w3.org/2000/svg">
<path d="M12.9375 23.4375C18.9688 23.4375 23.875 18.5312 23.875 12.5C23.875 6.46875 18.9688 1.5625 12.9375 1.5625C6.90625 1.5625 2 6.46875 2 12.5C2 18.5312 6.90625 23.4375 12.9375 23.4375ZM12.9375 3.125C18.1094 3.125 22.3125 7.32812 22.3125 12.5C22.3125 17.6719 18.1094 21.875 12.9375 21.875C7.76562 21.875 3.5625 17.6719 3.5625 12.5C3.5625 7.32812 7.76562 3.125 12.9375 3.125Z" fill="currentColor"/>
<path d="M7.81252 11.7191H17.1875C17.6193 11.7191 17.9688 11.3693 17.9688 10.9379C17.9688 10.5065 17.6193 10.1566 17.1875 10.1566H9.27244L10.0251 9.0275C10.2643 8.66851 10.1674 8.18328 9.80846 7.94414C9.44877 7.70422 8.96385 7.80148 8.7251 8.16078L7.1626 10.5045C7.00276 10.7441 6.98791 11.0523 7.12369 11.3064C7.25979 11.5605 7.52447 11.7191 7.81252 11.7191Z" fill="currentColor"/>
<path d="M7.8125 14.8438H15.728L14.9749 15.9729C14.7354 16.3319 14.8323 16.8171 15.1916 17.0563C15.3252 17.1452 15.4755 17.1875 15.6242 17.1875C15.8767 17.1875 16.1247 17.0654 16.275 16.8396L17.8375 14.4959C17.997 14.2563 18.0122 13.948 17.8764 13.694C17.7406 13.4399 17.4759 13.2812 17.1875 13.2812H7.8125C7.38109 13.2812 7.03125 13.6311 7.03125 14.0625C7.03125 14.4939 7.38109 14.8438 7.8125 14.8438Z" fill="currentColor"/>
</svg>
